<svg width="16" height="16" viewBox="0 0 16 16" fill="none" xmlns="http://www.w3.org/2000/svg">
<path d="M1.49989 8.50401C1.22374 8.50401 0.999887 8.28015 0.999887 8.00401C0.999887 7.72786 1.22374 7.50401 1.49989 7.50401L8.5 7.50401C8.77614 7.50401 9 7.72786 9 8.00401C9 8.28015 8.77614 8.50401 8.5 8.50401L1.49989 8.50401Z" fill="#CFCFCF"/>
<path d="M0.859782 8.35717C0.663095 8.55416 0.344202 8.55416 0.147515 8.35718C-0.0491719 8.16019 -0.0491719 7.84081 0.147515 7.64382L3.13903 4.64774C3.33572 4.45075 3.65461 4.45075 3.8513 4.64774C4.04799 4.84473 4.04799 5.16411 3.8513 5.36109L0.859782 8.35717Z" fill="#CFCFCF"/>
<path d="M0.147667 8.35515C-0.0490198 8.15816 -0.0490198 7.83878 0.147667 7.64179C0.344354 7.44481 0.663247 7.44481 0.859934 7.64179L3.85248 10.6389C4.04917 10.8359 4.04917 11.1553 3.85248 11.3523C3.6558 11.5492 3.33691 11.5492 3.14022 11.3523L0.147667 8.35515Z" fill="#CFCFCF"/>
<path d="M4.58781 14.6794C4.46227 14.9251 4.5592 15.2277 4.81232 15.3376C5.92416 15.8206 7.1334 16.0455 8.3488 15.9924C9.73091 15.932 11.0738 15.5142 12.2462 14.7799C13.4186 14.0455 14.3806 13.0197 15.0382 11.8025C15.6957 10.5853 16.0264 9.21844 15.9979 7.8353C15.9695 6.45216 15.5828 5.10004 14.8757 3.91097C14.1686 2.7219 13.1652 1.73653 11.9635 1.05106C10.7618 0.365589 9.40292 0.00345793 8.01949 2.46422e-05C6.80293 -0.0029945 5.60398 0.271457 4.51296 0.799783C4.26458 0.92006 4.18019 1.22634 4.31574 1.46673C4.45129 1.70711 4.75538 1.79034 5.00482 1.67228C5.94442 1.22758 6.97331 0.996799 8.01701 0.999389C9.22762 1.00239 10.4168 1.31929 11.4683 1.91913C12.5199 2.51896 13.3979 3.38125 14.0167 4.42178C14.6355 5.46231 14.9739 6.64552 14.9988 7.85588C15.0237 9.06624 14.7343 10.2624 14.1589 11.3275C13.5835 12.3926 12.7417 13.2903 11.7157 13.9329C10.6897 14.5755 9.51464 14.9411 8.30518 14.994C7.26248 15.0395 6.22495 14.8513 5.26785 14.4456C5.01376 14.3379 4.71334 14.4336 4.58781 14.6794Z" fill="#CFCFCF"/>
</svg>
