<svg xmlns="http://www.w3.org/2000/svg" width="294" height="118" viewBox="0 0 294 118">
  <g fill="none" fill-rule="evenodd">
    <g transform="translate(0 1)">
      <path fill="#FFFFFF" d="M93,89 L76,89 L76,115 L64,115 L64,89 L8,89 L8,77 L62,0 L76,0 L76,77 L93,77 L93,89 Z M63,77 L63,39 C63.2252252,31.7292583 63.4834809,23.3449169 64,14 L63,14 C60.9008885,18.9839557 58.5765874,23.1112321 56,26 L21,77 L63,77 Z"/>
      <path fill="#C3DA84" d="M45,12 C45,9.790861 46.7873299,8 48.9931023,8 L55.0068977,8 C57.2122272,8 59,9.79535615 59,12 C59,14.209139 57.2126701,16 55.0068977,16 L48.9931023,16 C46.7877728,16 45,14.2046438 45,12 Z M4,61 C4,58.790861 5.79246765,57 7.99922997,57 L20.00077,57 C22.2094838,57 24,58.7953562 24,61 C24,63.209139 22.2075324,65 20.00077,65 L7.99922997,65 C5.79051625,65 4,63.2046438 4,61 Z M4,77 C4,74.790861 5.79445134,73 8.00002024,73 L14.9999798,73 C17.2091299,73 19,74.7953562 19,77 C19,79.209139 17.2055487,81 14.9999798,81 L8.00002024,81 C5.79087006,81 4,79.2046438 4,77 Z M53,93 C53,90.790861 54.7944513,89 57.0000202,89 L63.9999798,89 C66.2091299,89 68,90.7953562 68,93 C68,95.209139 66.2055487,97 63.9999798,97 L57.0000202,97 C54.7908701,97 53,95.2046438 53,93 Z"/>
      <rect width="20" height="8" x="46" fill="#FFFFFF" rx="4"/>
      <rect width="20" height="8" x="14" y="49" fill="#FFFFFF" rx="4"/>
      <rect width="15" height="8" x="38" y="16" fill="#FFFFFF" rx="4"/>
      <rect width="24" height="8" y="65" fill="#FFFFFF" rx="4"/>
      <rect width="15" height="8" x="5" y="81" fill="#FFFFFF" rx="4"/>
      <rect width="15" height="8" x="56" y="97" fill="#FFFFFF" rx="4"/>
    </g>
    <g transform="translate(202 1)">
      <path fill="#FFFFFF" d="M92,89 L75,89 L75,115 L63,115 L63,89 L7,89 L7,77 L61,0 L75,0 L75,77 L92,77 L92,89 Z M62,77 L62,39 C62.2252252,31.7292583 62.4834809,23.3449169 63,14 L62,14 C59.9008885,18.9839557 57.5765874,23.1112321 55,26 L20,77 L62,77 Z"/>
      <rect width="15" height="8" y="73" fill="#C3DA84" rx="4"/>
      <rect width="20" height="8" y="65" fill="#FFFFFF" rx="4"/>
      <rect width="15" height="8" x="4" y="81" fill="#FFFFFF" rx="4"/>
      <rect width="14" height="8" x="44" y="8" fill="#C5DA89" rx="4"/>
      <rect width="20" height="8" x="46" y="54" fill="#C5DA89" rx="4"/>
      <rect width="20" height="8" x="45" fill="#FFFFFF" rx="4"/>
      <rect width="14" height="8" x="56" y="46" fill="#FFFFFF" rx="4"/>
      <rect width="15" height="8" x="37" y="16" fill="#FFFFFF" rx="4"/>
      <rect width="16" height="8" x="49" y="62" fill="#FFFFFF" rx="4"/>
    </g>
    <g transform="translate(101)">
      <path fill="#FFFFFF" d="M89,59 C89,78.7713061 85.8693867,93.5636278 80,103 C73.3467457,113.112784 63.7715226,118 51,118 C38.5166565,118 29.1117178,112.995177 23,103 C16.2223049,92.9755867 13,78.3008719 13,59 C13,38.9934771 16.1175145,24.1750207 22,15 C28.5877595,4.83494611 38.0974886,0 51,0 C63.3523547,0 72.8227874,5.04402486 79,15 C85.7645963,25.220427 89,39.8298047 89,59 L89,59 Z M26,58 C26,75.0093878 27.9475163,87.0857586 32,95 C35.7376983,102.217197 41.9437836,106 50,106 C59.0821841,106 65.3272197,102.1652 69,94 C73.0654671,86.825769 75,74.8013955 75,58 C75,42.042611 73.0654671,30.0442362 69,22 C65.3272197,14.8088015 59.0821841,11 50,11 C41.9437836,11 35.7376983,14.7568042 32,22 C27.9475163,29.7842467 26,41.8346188 26,58 L26,58 Z"/>
      <rect width="14" height="8" x="12" y="17" fill="#C5DA89" rx="4"/>
      <rect width="20" height="8" x="13" y="101" fill="#C3DA84" rx="4"/>
      <rect width="20" height="8" x="10" y="9" fill="#FFFFFF" rx="4"/>
      <rect width="27" height="8" y="93" fill="#FFFFFF" rx="4"/>
      <rect width="20" height="8" y="25" fill="#FFFFFF" rx="4"/>
      <rect width="20" height="8" x="23" y="109" fill="#FFFFFF" rx="4"/>
    </g>
  </g>
</svg>
