<svg xmlns="http://www.w3.org/2000/svg" width="294" height="119" viewBox="0 0 294 119">
  <g fill="#FFFFFF" fill-rule="evenodd" transform="translate(-.98)">
    <g transform="translate(1 2)">
      <path d="M92.9805615,89 L75.9805615,89 L75.9805615,115 L63.9805615,115 L63.9805615,89 L7.98056151,89 L7.98056151,77 L61.9805615,0 L75.9805615,0 L75.9805615,77 L92.9805615,77 L92.9805615,89 Z M62.9805615,77 L62.9805615,39 C63.2057867,31.7292583 62.9805615,14 62.9805615,14 C60.88145,18.9839557 58.5571489,23.1112321 55.9805615,26 L20.9805615,77 L62.9805615,77 Z M63.9805615,97 L63.9805615,89 L60.4902909,89 L63.9999798,89 C66.2091299,89 68,90.7953562 68,93 C68,95.209139 66.2055487,97 63.9999798,97 L63.9805615,97 Z M16.3961459,65 L21.7306956,57.3933272 C23.0732192,58.0395966 24,59.4138735 24,61 C24,63.209139 22.2075324,65 20.00077,65 L16.3961459,65 Z M7.98056151,80.9999536 L7.98056151,77 L10.7857563,73 L14.9999798,73 C17.2091299,73 19,74.7953562 19,77 C19,79.209139 17.2055487,81 14.9999798,81 L8.00002024,81 C7.99353038,81 7.98704412,80.9999845 7.98056151,80.9999536 L7.98056151,80.9999536 Z M50.7597823,16 L56.2347648,8.19308046 C57.8393292,8.7129531 59,10.2236162 59,12 C59,14.209139 57.2126701,16 55.0068977,16 L50.7597823,16 L50.7597823,16 Z"/>
      <rect width="20" height="8" x="46" rx="4"/>
      <rect width="20" height="8" x="14" y="49" rx="4"/>
      <rect width="15" height="8" x="38" y="16" rx="4"/>
      <rect width="24" height="8" y="65" rx="4"/>
      <rect width="15" height="8" x="5" y="81" rx="4"/>
      <rect width="15" height="8" x="56" y="97" rx="4"/>
    </g>
    <g transform="translate(203 2)">
      <path d="M91.9805615,89 L74.9805615,89 L74.9805615,115 L62.9805615,115 L62.9805615,89 L6.98056151,89 L6.98056151,77 L60.9805615,0 L74.9805615,0 L74.9805615,77 L91.9805615,77 L91.9805615,89 Z M61.9805615,77 L61.9805615,39 C62.2057867,31.7292583 61.9805615,14 61.9805615,14 C59.88145,18.9839557 57.5571489,23.1112321 54.9805615,26 L19.9805615,77 L61.9805615,77 Z M49.7597823,16 L55.2347648,8.19308046 C56.8393292,8.7129531 58,10.2236162 58,12 C58,14.209139 56.2126701,16 54.0068977,16 L49.7597823,16 L49.7597823,16 Z M6.98056151,81 L6.98056151,77 L9.78575632,73 L10.9999798,73 C13.2091299,73 15,74.7953562 15,77 C15,79.209139 13.2055487,81 10.9999798,81 L6.98056151,81 L6.98056151,81 Z M61.9805615,62.0165285 L61.9805615,62 L62.00077,62 C64.2075324,62 66,60.209139 66,58 C66,55.7953562 64.2094838,54 62.00077,54 L61.9805615,54 L61.9805615,53.9953613 L61.9805615,62.0165285 L61.9805615,62 L61.9805615,62.0165285 Z"/>
      <rect width="20" height="8" y="65" rx="4"/>
      <rect width="15" height="8" x="4" y="81" rx="4"/>
      <rect width="20" height="8" x="45" rx="4"/>
      <rect width="14" height="8" x="56" y="46" rx="4"/>
      <rect width="15" height="8" x="37" y="16" rx="4"/>
      <rect width="16" height="8" x="49" y="62" rx="4"/>
    </g>
    <g transform="translate(102)">
      <path d="M88.3289933,59.734375 C88.3289933,79.474057 85.2170453,94.213493 78.9930558,103.953125 C72.7690664,113.692757 63.2509324,118.5625 50.4383683,118.5625 C38.1466402,118.5625 28.7977754,113.575571 22.3914933,103.601562 C15.9852113,93.6275543 12.7821183,79.0053047 12.7821183,59.734375 C12.7821183,39.8384422 15.8810457,25.0729648 22.0789933,15.4375 C28.276941,5.80203516 37.7299714,0.984375 50.4383683,0.984375 C62.8342636,0.984375 72.248232,6.01036641 78.6805558,16.0625 C85.1128796,26.1146336 88.3289933,40.6717797 88.3289933,59.734375 Z M25.9071183,59.734375 C25.9071183,76.3490414 27.8602238,88.4452746 31.7664933,96.0234375 C35.6727629,103.6016 41.8966589,107.390625 50.4383683,107.390625 C59.0842449,107.390625 65.3472031,103.549518 69.2274308,95.8671875 C73.1076586,88.1848574 75.0477433,76.140707 75.0477433,59.734375 C75.0477433,43.328043 73.1076586,31.309934 69.2274308,23.6796875 C65.3472031,16.049441 59.0842449,12.234375 50.4383683,12.234375 C41.8966589,12.234375 35.6727629,15.9973582 31.7664933,23.5234375 C27.8602238,31.0495168 25.9071183,43.1197086 25.9071183,59.734375 Z M17.1676101,25.9999971 C18.1397211,23.0657939 19.2734456,20.39913 20.5687847,18 L22.0068977,18 C24.2122272,18 26,19.7953562 26,22 C26,24.209139 24.2126701,26 22.0068977,26 L17.1676091,26 L17.1676101,25.9999971 Z M27.5941983,110.000006 C25.685519,108.162833 23.9512854,106.030019 22.3914933,103.601562 C22.0567515,103.080399 21.7307552,102.546545 21.4135046,102 L29.00077,102 C31.2094838,102 33,103.795356 33,106 C33,108.209139 31.2075324,110 29.00077,110 L27.594192,110 L27.5941983,110.000006 Z"/>
      <rect width="20" height="8" x="10" y="10" rx="4"/>
      <rect width="27" height="8" y="94" rx="4"/>
      <rect width="20" height="8" y="26" rx="4"/>
      <rect width="20" height="8" x="23" y="110" rx="4"/>
    </g>
  </g>
</svg>
