<svg xmlns="http://www.w3.org/2000/svg" width="212" height="95" viewBox="0 0 212 95" xmlns:xlink="http://www.w3.org/1999/xlink">
  <defs>
    <path id="b" d="M191.162497,44.3220438 C188.813326,44.6454236 187.806111,46.2058685 187.806111,47.2620763 C187.806111,48.4455436 188.213518,50.2620763 191.213518,50.2620763 C192.340976,50.2620763 193.453645,49.6215711 194.139685,48.893111 C194.635071,49.7054786 195.647451,50.2620763 196.81583,50.2620763 C198.472685,50.2620763 199.81583,49.1427882 199.81583,47.7620763 C199.81583,46.3813644 198.472685,44.2620763 196.81583,44.2620763 C196.341883,44.2620763 195.941283,44.3009372 195.602857,44.3715629 C196.004647,41.3548849 195.751592,36.2465638 195.546269,33.2620616 C195.55117,33.2620714 195.55608,33.2620763 195.560999,33.2620763 C198.561,33.2620763 199.82555,31.4455436 199.82555,30.2620763 C199.82555,29.078609 199.418143,27.2620763 196.418142,27.2620763 C195.290685,27.2620763 194.178016,27.9025815 193.491975,28.6310415 C192.99659,27.8186739 191.98421,27.2620763 190.81583,27.2620763 C189.158976,27.2620763 187.81583,28.3813644 187.81583,29.7620763 C187.81583,31.1427882 189.158976,33.2620763 190.81583,33.2620763 C190.849314,33.2620763 190.88267,33.2612107 190.915889,33.2595032 C190.649596,36.7596071 190.978749,41.9288246 191.162497,44.3220438 Z"/>
    <filter id="a" width="200%" height="200%" x="-50%" y="-50%" filterUnits="objectBoundingBox">
      <feOffset dx="1" dy="1" in="SourceAlpha" result="shadowOffsetOuter1"/>
      <feGaussianBlur stdDeviation="1.5" in="shadowOffsetOuter1" result="shadowBlurOuter1"/>
      <feColorMatrix values="0 0 0 0 0.498039216 0 0 0 0 0.6 0 0 0 0 0.22745098 0 0 0 0.3 0" in="shadowBlurOuter1"/>
    </filter>
    <path id="d" d="M20.4022719,76.3646401 C18.0841712,75.8650541 16.603995,76.9869047 16.2427507,77.9794154 C15.837981,79.0915109 15.5995277,80.9378347 18.4186057,81.9638952 C19.4780694,82.3495084 20.7427018,82.1281856 21.636517,81.6782967 C21.8241812,82.6111044 22.5851391,83.4803893 23.683057,83.8799987 C25.2399907,84.4466763 26.8849539,83.8542724 27.3571852,82.5568276 C27.8294165,81.2593829 27.2921115,78.8085205 25.7351778,78.241843 C25.2898133,78.0797436 24.9000813,77.9792477 24.5579092,77.9298655 C25.9672325,75.2325356 27.4765872,70.345734 28.3044068,67.4709948 C28.3090093,67.4726803 28.3136217,67.4743643 28.318244,67.4760467 C31.137322,68.5021072 32.9469011,67.2276264 33.3516708,66.1155309 C33.7564405,65.0034354 33.9948938,63.1571117 31.1758158,62.1310512 C30.1163521,61.7454379 28.8517197,61.9667608 27.9579045,62.4166496 C27.7702403,61.4838419 27.0092824,60.614557 25.9113645,60.2149476 C24.3544308,59.6482701 22.7094676,60.240674 22.2372363,61.5381187 C21.765005,62.8355635 22.30231,65.2864258 23.8592437,65.8531033 C23.8907082,65.8645555 23.9223483,65.8751504 23.954148,65.8849075 C22.5068081,69.0828516 21.0481345,74.0529042 20.4022719,76.3646401 L20.4022719,76.3646401 L20.4022719,76.3646401 Z"/>
    <filter id="c" width="200%" height="200%" x="-50%" y="-50%" filterUnits="objectBoundingBox">
      <feOffset dx="1" dy="1" in="SourceAlpha" result="shadowOffsetOuter1"/>
      <feGaussianBlur stdDeviation="1.5" in="shadowOffsetOuter1" result="shadowBlurOuter1"/>
      <feColorMatrix values="0 0 0 0 0.498039216 0 0 0 0 0.6 0 0 0 0 0.22745098 0 0 0 0.3 0" in="shadowBlurOuter1"/>
    </filter>
    <path id="f" d="M118.014736,64.840888 C117.121562,64.0644636 115.483324,63.1801849 113.515147,65.4443138 C112.775468,66.2952169 112.528887,67.555168 112.62858,68.5508421 C111.690476,68.3917534 110.606226,68.7906449 109.8397,69.6724323 C108.752705,70.9228761 108.71626,72.6708801 109.758296,73.5767086 C110.800333,74.4825371 113.280963,74.8592303 114.367957,73.6087865 C114.678894,73.2510941 114.912383,72.9232625 115.081108,72.6215143 C117.094227,74.9038676 121.115545,78.0642446 123.502681,79.8672951 C121.524828,82.1425317 122.066164,84.2886524 122.959338,85.0650769 C123.852512,85.8415013 125.490749,86.7257799 127.458927,84.4616511 C128.198606,83.6107479 128.445187,82.3507969 128.345494,81.3551227 C129.283598,81.5142115 130.367848,81.11532 131.134374,80.2335325 C132.221368,78.9830887 132.257814,77.2350847 131.215777,76.3292562 C130.173741,75.4234277 127.693111,75.0467346 126.606117,76.2971783 C126.584149,76.3224489 126.562919,76.3481906 126.542414,76.3743815 C124.075556,73.8771327 119.958354,70.734236 118.031619,69.3028192 C119.328756,67.3177215 118.811866,65.5338227 118.014736,64.840888 Z"/>
    <filter id="e" width="200%" height="200%" x="-50%" y="-50%" filterUnits="objectBoundingBox">
      <feOffset dx="1" dy="1" in="SourceAlpha" result="shadowOffsetOuter1"/>
      <feGaussianBlur stdDeviation="1.5" in="shadowOffsetOuter1" result="shadowBlurOuter1"/>
      <feColorMatrix values="0 0 0 0 0.498039216 0 0 0 0 0.6 0 0 0 0 0.22745098 0 0 0 0.3 0" in="shadowBlurOuter1"/>
    </filter>
    <path id="h" d="M131.360002,37.6751276 C130.202396,37.9211843 128.510264,38.6973669 129.133999,41.6318098 C129.36841,42.7346299 130.226256,43.6898158 131.081433,44.2094093 C130.389814,44.8628704 130.055865,45.96885 130.298785,47.1116979 C130.643264,48.7323459 132.017349,49.8134276 133.367889,49.5263615 C134.718429,49.2392953 136.51215,47.4848758 136.16767,45.8642278 C136.069131,45.4006376 135.94783,45.0168715 135.808385,44.7005245 C138.842678,44.4663313 143.786757,43.1567264 146.663352,42.3353775 C147.290135,45.2842322 149.329887,46.1434704 150.487493,45.8974137 C151.645098,45.6513571 153.337231,44.8751744 152.713496,41.9407315 C152.479084,40.8379114 151.621239,39.8827256 150.766061,39.363132 C151.45768,38.709671 151.791629,37.6036913 151.54871,36.4608434 C151.20423,34.8401954 149.830145,33.7591137 148.479605,34.0461798 C147.129065,34.333246 145.335345,36.0876655 145.679824,37.7083136 C145.686786,37.7410656 145.694567,37.7735125 145.703144,37.8056506 C142.22416,38.2728889 137.236337,39.6695902 134.933619,40.3469011 C134.128886,38.1162999 132.393129,37.4555296 131.360002,37.6751276 L131.360002,37.6751276 Z"/>
    <filter id="g" width="200%" height="200%" x="-50%" y="-50%" filterUnits="objectBoundingBox">
      <feOffset dx="1" dy="1" in="SourceAlpha" result="shadowOffsetOuter1"/>
      <feGaussianBlur stdDeviation="1.5" in="shadowOffsetOuter1" result="shadowBlurOuter1"/>
      <feColorMatrix values="0 0 0 0 0.498039216 0 0 0 0 0.6 0 0 0 0 0.22745098 0 0 0 0.3 0" in="shadowBlurOuter1"/>
    </filter>
    <path id="j" d="M71.3481845,18.9209828 C73.5172166,17.9626111 74.0552971,16.1849891 73.7641667,15.169697 C73.4379589,14.0320752 72.5456299,12.3982085 69.6618446,13.2251206 C68.5780627,13.5358901 67.6850439,14.4582763 67.2263702,15.3476154 C66.5262561,14.7032644 65.3996754,14.447278 64.2765567,14.7693271 C62.6838861,15.226018 61.7012892,16.6721679 62.081865,17.9993934 C62.4624407,19.3266188 64.3377103,20.9935882 65.9303808,20.5368973 C66.3859679,20.4062597 66.7603377,20.2584839 67.0661869,20.0973112 C67.5114711,23.1078764 69.1627674,27.9485584 70.1827767,30.7608514 C70.1780624,30.762193 70.1733411,30.7635418 70.1686127,30.7648976 C67.2848274,31.5918097 66.5699682,33.6865302 66.896176,34.824152 C67.2223838,35.9617739 68.1147128,37.5956405 70.9984981,36.7687284 C72.08228,36.4579589 72.9752988,35.5355728 73.4339725,34.6462336 C74.1340866,35.2905846 75.2606673,35.5465711 76.383786,35.2245219 C77.9764566,34.767831 78.9590535,33.3216811 78.5784777,31.9944556 C78.197902,30.6672302 76.3226324,29.0002608 74.7299619,29.4569518 C74.6977752,29.4661812 74.6659502,29.4762072 74.6344887,29.487005 C73.9257069,26.0490888 72.184475,21.170845 71.3481845,18.9209828 L71.3481845,18.9209828 L71.3481845,18.9209828 L71.3481845,18.9209828 Z"/>
    <filter id="i" width="200%" height="200%" x="-50%" y="-50%" filterUnits="objectBoundingBox">
      <feOffset dx="1" dy="1" in="SourceAlpha" result="shadowOffsetOuter1"/>
      <feGaussianBlur stdDeviation="1.5" in="shadowOffsetOuter1" result="shadowBlurOuter1"/>
      <feColorMatrix values="0 0 0 0 0.498039216 0 0 0 0 0.6 0 0 0 0 0.22745098 0 0 0 0.3 0" in="shadowBlurOuter1"/>
    </filter>
  </defs>
  <g fill="none" fill-rule="evenodd">
    <g transform="rotate(38 193.816 38.762)">
      <use fill="black" filter="url(#a)" xlink:href="#b"/>
      <use fill="#FFFFFF" xlink:href="#b"/>
    </g>
    <use fill="black" filter="url(#c)" xlink:href="#d"/>
    <use fill="#FFFFFF" xlink:href="#d"/>
    <use fill="black" filter="url(#e)" xlink:href="#f"/>
    <use fill="#FFFFFF" xlink:href="#f"/>
    <g>
      <use fill="black" filter="url(#g)" xlink:href="#h"/>
      <use fill="#FFFFFF" xlink:href="#h"/>
    </g>
    <g>
      <use fill="black" filter="url(#i)" xlink:href="#j"/>
      <use fill="#FFFFFF" xlink:href="#j"/>
    </g>
  </g>
</svg>
