<svg xmlns="http://www.w3.org/2000/svg" width="320" height="568" viewBox="0 0 320 568" xmlns:xlink="http://www.w3.org/1999/xlink">
  <defs>
    <path id="b" d="M228.755667,82.2036014 C225.924004,81.9760845 223.78671,81.021329 223.78671,81.021329 C223.78671,81.021329 225.924004,80.0665734 228.755667,79.8390566 C228.980719,76.9239419 229.939295,74.4585726 229.939295,74.4585726 C229.939295,74.4585726 230.89787,76.9239419 231.122922,79.8390566 C233.954585,80.0665734 236.091879,81.021329 236.091879,81.021329 C236.091879,81.021329 233.954585,81.9760845 231.122922,82.2036014 C230.89787,85.118716 229.939295,87.5840853 229.939295,87.5840853 C229.939295,87.5840853 228.980719,85.118716 228.755667,82.2036014 Z"/>
    <filter id="a" width="197.5%" height="191.4%" x="-48.8%" y="-45.7%" filterUnits="objectBoundingBox">
      <feOffset in="SourceAlpha" result="shadowOffsetOuter1"/>
      <feGaussianBlur stdDeviation="2" in="shadowOffsetOuter1" result="shadowBlurOuter1"/>
      <feColorMatrix values="0 0 0 0 0.639215686 0 0 0 0 0.776470588 0 0 0 0 0.266666667 0 0 0 0.5 0" in="shadowBlurOuter1"/>
    </filter>
    <path id="d" d="M14.1410301,6.30725133 C12.0644771,6.14040565 10.4971288,5.44025157 10.4971288,5.44025157 C10.4971288,5.44025157 12.0644771,4.7400975 14.1410301,4.57325181 C14.3060685,2.43550104 15.0090238,0.627563577 15.0090238,0.627563577 C15.0090238,0.627563577 15.7119791,2.43550104 15.8770174,4.57325181 C17.9535705,4.7400975 19.5209188,5.44025157 19.5209188,5.44025157 C19.5209188,5.44025157 17.9535705,6.14040565 15.8770174,6.30725133 C15.7119791,8.4450021 15.0090238,10.2529396 15.0090238,10.2529396 C15.0090238,10.2529396 14.3060685,8.4450021 14.1410301,6.30725133 Z"/>
    <filter id="c" width="233%" height="224.7%" x="-66.5%" y="-62.3%" filterUnits="objectBoundingBox">
      <feOffset in="SourceAlpha" result="shadowOffsetOuter1"/>
      <feGaussianBlur stdDeviation="2" in="shadowOffsetOuter1" result="shadowBlurOuter1"/>
      <feColorMatrix values="0 0 0 0 0.639215686 0 0 0 0 0.776470588 0 0 0 0 0.266666667 0 0 0 0.5 0" in="shadowBlurOuter1"/>
    </filter>
    <path id="f" d="M5.7778161,347.019024 C2.94615283,346.791507 0.808859721,345.836751 0.808859721,345.836751 C0.808859721,345.836751 2.94615283,344.881996 5.7778161,344.654479 C6.0028684,341.739364 6.96144381,339.273995 6.96144381,339.273995 C6.96144381,339.273995 7.92001921,341.739364 8.14507152,344.654479 C10.9767348,344.881996 13.1140279,345.836751 13.1140279,345.836751 C13.1140279,345.836751 10.9767348,346.791507 8.14507152,347.019024 C7.92001921,349.934139 6.96144381,352.399508 6.96144381,352.399508 C6.96144381,352.399508 6.0028684,349.934139 5.7778161,347.019024 Z"/>
    <filter id="e" width="197.5%" height="191.4%" x="-48.8%" y="-45.7%" filterUnits="objectBoundingBox">
      <feOffset in="SourceAlpha" result="shadowOffsetOuter1"/>
      <feGaussianBlur stdDeviation="2" in="shadowOffsetOuter1" result="shadowBlurOuter1"/>
      <feColorMatrix values="0 0 0 0 0.639215686 0 0 0 0 0.776470588 0 0 0 0 0.266666667 0 0 0 0.5 0" in="shadowBlurOuter1"/>
    </filter>
    <path id="h" d="M241.060835,383.270049 C238.229172,383.042532 236.091879,382.087777 236.091879,382.087777 C236.091879,382.087777 238.229172,381.133021 241.060835,380.905504 C241.285887,377.99039 242.244463,375.525021 242.244463,375.525021 C242.244463,375.525021 243.203038,377.99039 243.42809,380.905504 C246.259754,381.133021 248.397047,382.087777 248.397047,382.087777 C248.397047,382.087777 246.259754,383.042532 243.42809,383.270049 C243.203038,386.185164 242.244463,388.650533 242.244463,388.650533 C242.244463,388.650533 241.285887,386.185164 241.060835,383.270049 Z"/>
    <filter id="g" width="197.5%" height="191.4%" x="-48.8%" y="-45.7%" filterUnits="objectBoundingBox">
      <feOffset in="SourceAlpha" result="shadowOffsetOuter1"/>
      <feGaussianBlur stdDeviation="2" in="shadowOffsetOuter1" result="shadowBlurOuter1"/>
      <feColorMatrix values="0 0 0 0 0.639215686 0 0 0 0 0.776470588 0 0 0 0 0.266666667 0 0 0 0.5 0" in="shadowBlurOuter1"/>
    </filter>
    <path id="j" d="M108.494389,184.849953 C106.198813,184.66343 104.467596,183.890074 104.467596,183.890074 C104.467596,183.890074 106.210443,183.111522 108.517501,182.928338 C108.719743,180.873591 109.467596,178.890074 109.467596,178.890074 C109.467596,178.890074 110.215449,180.873591 110.417691,182.928338 C112.724749,183.111522 114.467596,183.890074 114.467596,183.890074 C114.467596,183.890074 112.736379,184.66343 110.440803,184.849953 C110.281666,187.730932 109.467596,189.890074 109.467596,189.890074 C109.467596,189.890074 108.653527,187.730932 108.494389,184.849953 Z"/>
    <filter id="i" width="220%" height="209.1%" x="-60%" y="-54.5%" filterUnits="objectBoundingBox">
      <feOffset in="SourceAlpha" result="shadowOffsetOuter1"/>
      <feGaussianBlur stdDeviation="2" in="shadowOffsetOuter1" result="shadowBlurOuter1"/>
      <feColorMatrix values="0 0 0 0 0.639215686 0 0 0 0 0.776470588 0 0 0 0 0.266666667 0 0 0 0.5 0" in="shadowBlurOuter1"/>
    </filter>
  </defs>
  <g fill="none" fill-rule="evenodd" transform="translate(5.532 31.11)">
    <use fill="black" filter="url(#a)" xlink:href="#b"/>
    <use fill="#FFFFFF" xlink:href="#b"/>
    <use fill="black" filter="url(#c)" xlink:href="#d"/>
    <use fill="#FFFFFF" xlink:href="#d"/>
    <use fill="black" filter="url(#e)" xlink:href="#f"/>
    <use fill="#FFFFFF" xlink:href="#f"/>
    <g>
      <use fill="black" filter="url(#g)" xlink:href="#h"/>
      <use fill="#FFFFFF" xlink:href="#h"/>
    </g>
    <g>
      <use fill="black" filter="url(#i)" xlink:href="#j"/>
      <use fill="#FFFFFF" xlink:href="#j"/>
    </g>
  </g>
</svg>
