<svg width="16" height="16" viewBox="0 0 16 16" fill="none" xmlns="http://www.w3.org/2000/svg">
<path fill-rule="evenodd" clip-rule="evenodd" d="M2.69535 12.0801C2.24187 11.5133 2 10.764 2 10L2 1.5C2 1.22386 2.22386 1 2.5 1C2.77614 1 3 1.22386 3 1.5L3 2.99994C3 3.56203 3.17956 4.08459 3.47622 4.45542C3.77057 4.82335 4.14277 5 4.5 5L6 5C6.27614 5 6.5 5.22386 6.5 5.5C6.5 5.77614 6.27614 6 6 6H4.5C3.94131 6 3.41945 5.77926 3 5.40311V10C3 10.5621 3.17956 11.0846 3.47622 11.4554C3.77057 11.8234 4.14277 12 4.5 12H6C6.27614 12 6.5 12.2239 6.5 12.5C6.5 12.7761 6.27614 13 6 13H4.5C3.79637 13 3.15115 12.6499 2.69535 12.0801Z" fill="#A2AAB5"/>
<path fill-rule="evenodd" clip-rule="evenodd" d="M11.5 3.99998H8.20583C7.51487 3.99998 6.85289 4.61358 6.85289 5.49998C6.85289 6.38639 7.51487 6.99998 8.20583 6.99998H11.5C12.1909 6.99998 12.8529 6.38639 12.8529 5.49998C12.8529 4.61358 12.1909 3.99998 11.5 3.99998ZM11.5 11H8.20587C7.51491 11 6.85293 11.6136 6.85293 12.5C6.85293 13.3864 7.51491 14 8.20587 14H11.5C12.1909 14 12.8529 13.3864 12.8529 12.5C12.8529 11.6136 12.1909 11 11.5 11ZM8.20583 2.99998C6.90634 2.99998 5.85289 4.11927 5.85289 5.49998C5.85289 6.8807 6.90634 7.99998 8.20583 7.99998H11.5C12.7994 7.99998 13.8529 6.8807 13.8529 5.49998C13.8529 4.11927 12.7994 2.99998 11.5 2.99998H8.20583ZM8.20587 9.99998C6.90638 9.99998 5.85293 11.1193 5.85293 12.5C5.85293 13.8807 6.90638 15 8.20587 15H11.5C12.7995 15 13.8529 13.8807 13.8529 12.5C13.8529 11.1193 12.7995 9.99998 11.5 9.99998H8.20587Z" fill="#A2AAB5"/>
</svg>
