<svg width="168" height="123" viewBox="0 0 168 123" fill="none" xmlns="http://www.w3.org/2000/svg">
<g opacity="0.82">
<g filter="url(#filter0_d_2969_84930)">
<path fill-rule="evenodd" clip-rule="evenodd" d="M0 8.26875C0 3.70205 3.70205 0 8.26875 0H156.931C161.498 0 165.2 3.70205 165.2 8.26875V108.731C165.2 113.298 161.498 117 156.931 117H8.26875C3.70204 117 0 113.298 0 108.731V8.26875Z" fill="#ECEFF4"/>
</g>
<path d="M0 8.26875C0 3.70205 3.70205 0 8.26875 0H159.731C164.298 0 168 3.70205 168 8.26875V19.5H0V8.26875Z" fill="white"/>
<ellipse opacity="0.7" cx="12.6004" cy="9.74986" rx="4.2" ry="4.17857" fill="#00B0D1"/>
<ellipse opacity="0.7" cx="26.6004" cy="9.74986" rx="4.2" ry="4.17857" fill="#00B0D1"/>
<ellipse opacity="0.7" cx="40.5984" cy="9.74986" rx="4.2" ry="4.17857" fill="#00B0D1"/>
<g filter="url(#filter1_i_2969_84930)">
<path fill-rule="evenodd" clip-rule="evenodd" d="M0 19.4995H168V108.731C168 113.297 164.298 117 159.731 117H8.26875C3.70205 117 0 113.297 0 108.731V19.4995Z" fill="#ECEFF4"/>
</g>
<rect opacity="0.6" x="6.00195" y="28.6567" width="156.001" height="79.186" rx="3.9375" fill="#8D95A1"/>
<path d="M66 62.8706C62.9193 62.8706 60.4219 65.368 60.4219 68.4487C60.4219 71.5294 62.9193 74.0268 66 74.0268V62.8706ZM102 74.0268C105.081 74.0268 107.578 71.5294 107.578 68.4487C107.578 65.368 105.081 62.8706 102 62.8706V74.0268ZM89.5781 50.5405C89.5781 47.4598 87.0807 44.9624 84 44.9624C80.9193 44.9624 78.4219 47.4598 78.4219 50.5405H89.5781ZM78.4219 86.3569C78.4219 89.4376 80.9193 91.935 84 91.935C87.0807 91.935 89.5781 89.4376 89.5781 86.3569H78.4219ZM66 74.0268H102V62.8706H66V74.0268ZM78.4219 50.5405V86.3569H89.5781V50.5405H78.4219Z" fill="#F7F7F8"/>
</g>
<defs>
<filter id="filter0_d_2969_84930" x="0" y="0" width="167.955" height="122.513" filterUnits="userSpaceOnUse" color-interpolation-filters="sRGB">
<feFlood flood-opacity="0" result="BackgroundImageFix"/>
<feColorMatrix in="SourceAlpha" type="matrix" values="0 0 0 0 0 0 0 0 0 0 0 0 0 0 0 0 0 0 127 0" result="hardAlpha"/>
<feOffset dx="2.75625" dy="5.5125"/>
<feColorMatrix type="matrix" values="0 0 0 0 0.5875 0 0 0 0 0.5875 0 0 0 0 0.5875 0 0 0 0.503963 0"/>
<feBlend mode="normal" in2="BackgroundImageFix" result="effect1_dropShadow_2969_84930"/>
<feBlend mode="normal" in="SourceGraphic" in2="effect1_dropShadow_2969_84930" result="shape"/>
</filter>
<filter id="filter1_i_2969_84930" x="0" y="19.4995" width="168" height="97.5" filterUnits="userSpaceOnUse" color-interpolation-filters="sRGB">
<feFlood flood-opacity="0" result="BackgroundImageFix"/>
<feBlend mode="normal" in="SourceGraphic" in2="BackgroundImageFix" result="shape"/>
<feColorMatrix in="SourceAlpha" type="matrix" values="0 0 0 0 0 0 0 0 0 0 0 0 0 0 0 0 0 0 127 0" result="hardAlpha"/>
<feOffset dy="2.75625"/>
<feComposite in2="hardAlpha" operator="arithmetic" k2="-1" k3="1"/>
<feColorMatrix type="matrix" values="0 0 0 0 0.741176 0 0 0 0 0.780392 0 0 0 0 0.8 0 0 0 0.15 0"/>
<feBlend mode="normal" in2="shape" result="effect1_innerShadow_2969_84930"/>
</filter>
</defs>
</svg>
