<svg width="168" height="123" viewBox="0 0 168 123" fill="none" xmlns="http://www.w3.org/2000/svg">
<g opacity="0.82">
<g filter="url(#filter0_i_8641_12883)">
<path fill-rule="evenodd" clip-rule="evenodd" d="M6 32H162V114.731C162 119.298 158.298 123 153.731 123H14.2687C9.70204 123 6 119.298 6 114.731V32Z" fill="#E3E7EC"/>
</g>
<path d="M0 8.26875C0 3.70205 3.70205 0 8.26875 0H159.731C164.298 0 168 3.70205 168 8.26875V19.5H0V8.26875Z" fill="#E3E7EC"/>
<ellipse cx="12.6004" cy="9.74986" rx="4.2" ry="4.17857" fill="white"/>
<ellipse cx="26.6004" cy="9.74986" rx="4.2" ry="4.17857" fill="white"/>
<ellipse cx="40.5984" cy="9.74986" rx="4.2" ry="4.17857" fill="white"/>
<path fill-rule="evenodd" clip-rule="evenodd" d="M0 19.4995H168V108.731C168 113.297 164.298 117 159.731 117H8.26875C3.70205 117 0 113.297 0 108.731V19.4995Z" fill="#FEFEFE"/>
<rect opacity="0.56" x="6.00195" y="28.6572" width="156.001" height="79.186" rx="3.9375" fill="#E7EAEE"/>
<path d="M67 64.5C65.3431 64.5 64 65.8431 64 67.5C64 69.1569 65.3431 70.5 67 70.5V64.5ZM99 70.5C100.657 70.5 102 69.1569 102 67.5C102 65.8431 100.657 64.5 99 64.5V70.5ZM86 52C86 50.3431 84.6569 49 83 49C81.3431 49 80 50.3431 80 52H86ZM80 83C80 84.6569 81.3431 86 83 86C84.6569 86 86 84.6569 86 83H80ZM67 70.5H99V64.5H67V70.5ZM80 52V83H86V52H80Z" fill="#C1C7D0"/>
</g>
<defs>
<filter id="filter0_i_8641_12883" x="6" y="32" width="156" height="91" filterUnits="userSpaceOnUse" color-interpolation-filters="sRGB">
<feFlood flood-opacity="0" result="BackgroundImageFix"/>
<feBlend mode="normal" in="SourceGraphic" in2="BackgroundImageFix" result="shape"/>
<feColorMatrix in="SourceAlpha" type="matrix" values="0 0 0 0 0 0 0 0 0 0 0 0 0 0 0 0 0 0 127 0" result="hardAlpha"/>
<feOffset dy="2.75625"/>
<feComposite in2="hardAlpha" operator="arithmetic" k2="-1" k3="1"/>
<feColorMatrix type="matrix" values="0 0 0 0 0 0 0 0 0 0.509804 0 0 0 0 0.607843 0 0 0 0.15 0"/>
<feBlend mode="normal" in2="shape" result="effect1_innerShadow_8641_12883"/>
</filter>
</defs>
</svg>
