<svg width="168" height="123" viewBox="0 0 168 123" fill="none" xmlns="http://www.w3.org/2000/svg">
<g opacity="0.82">
<g filter="url(#filter0_i_8641_15367)">
<path fill-rule="evenodd" clip-rule="evenodd" d="M6 32H162V114.731C162 119.298 158.298 123 153.731 123H14.2687C9.70204 123 6 119.298 6 114.731V32Z" fill="#E3E7EC"/>
</g>
<path d="M0 8.26875C0 3.70205 3.70205 0 8.26875 0H159.731C164.298 0 168 3.70205 168 8.26875V19.5H0V8.26875Z" fill="#E3E7EC"/>
<ellipse cx="12.6004" cy="9.74986" rx="4.2" ry="4.17857" fill="white"/>
<ellipse cx="26.6004" cy="9.74986" rx="4.2" ry="4.17857" fill="white"/>
<ellipse cx="40.5984" cy="9.74986" rx="4.2" ry="4.17857" fill="white"/>
<path fill-rule="evenodd" clip-rule="evenodd" d="M0 19.4995H168V108.731C168 113.297 164.298 117 159.731 117H8.26875C3.70205 117 0 113.297 0 108.731V19.4995Z" fill="#FEFEFE"/>
<rect opacity="0.56" x="6.00195" y="28.657" width="156.001" height="79.186" rx="3.9375" fill="#E7EAEE"/>
<path d="M100.622 64.0041C100.639 59.3878 98.8249 54.9529 95.577 51.6723C92.3292 48.3917 87.9128 46.5331 83.2965 46.5041H83.1653C80.87 46.507 78.5978 46.9619 76.4783 47.8429C74.3589 48.724 72.4337 50.0138 70.8128 51.6388C69.1918 53.2639 67.9068 55.1922 67.0311 57.3139C66.1554 59.4355 65.7062 61.7089 65.709 64.0041C65.709 71.5073 64.1559 75.751 62.8653 77.9823C62.555 78.5165 62.3897 79.1225 62.3858 79.7403C62.382 80.3581 62.5397 80.9661 62.8434 81.5041C63.1497 82.0391 63.5926 82.4831 64.1269 82.7906C64.6612 83.0981 65.2676 83.2581 65.884 83.2541H74.4153C74.4153 85.5748 75.3371 87.8004 76.9781 89.4413C78.619 91.0823 80.8446 92.0041 83.1653 92.0041C85.4859 92.0041 87.7115 91.0823 89.3525 89.4413C90.9934 87.8004 91.9153 85.5748 91.9153 83.2541H100.447C101.063 83.2581 101.669 83.0981 102.204 82.7906C102.738 82.4831 103.181 82.0391 103.487 81.5041C103.791 80.9661 103.949 80.3581 103.945 79.7403C103.941 79.1225 103.776 78.5165 103.465 77.9823C102.175 75.751 100.622 71.5073 100.622 64.0041ZM83.1653 88.5041C81.7747 88.4984 80.4426 87.9434 79.4593 86.9601C78.476 85.9768 77.921 84.6447 77.9153 83.2541H88.4153C88.4095 84.6447 87.8545 85.9768 86.8712 86.9601C85.8879 87.9434 84.5559 88.4984 83.1653 88.5041ZM104.362 55.5385C104.121 55.646 103.861 55.7055 103.597 55.7135C103.268 55.7164 102.945 55.6253 102.666 55.4509C102.387 55.2765 102.163 55.0261 102.022 54.7291C100.294 51.2529 97.6457 48.3172 94.3653 46.2416C94.1699 46.1195 94.0005 45.9602 93.8668 45.7726C93.7331 45.5851 93.6376 45.373 93.5858 45.1486C93.534 44.9241 93.5269 44.6917 93.5649 44.4645C93.603 44.2373 93.6854 44.0198 93.8075 43.8244C93.9295 43.6291 94.0889 43.4597 94.2765 43.326C94.464 43.1922 94.6761 43.0967 94.9005 43.0449C95.125 42.9931 95.3574 42.986 95.5846 43.0241C95.8118 43.0621 96.0293 43.1445 96.2246 43.2666C100.064 45.6842 103.154 49.1231 105.15 53.1979C105.355 53.6129 105.387 54.0921 105.239 54.5308C105.092 54.9695 104.776 55.3318 104.362 55.5385ZM62.734 55.7135C62.4699 55.7055 62.2098 55.646 61.9684 55.5385C61.5543 55.3318 61.2389 54.9695 61.0914 54.5308C60.9438 54.0921 60.976 53.6129 61.1809 53.1979C63.1762 49.1231 66.2666 45.6842 70.1059 43.2666C70.5004 43.0201 70.9767 42.9403 71.43 43.0449C71.6545 43.0967 71.8665 43.1922 72.0541 43.326C72.2416 43.4597 72.401 43.6291 72.5231 43.8244C72.6452 44.0198 72.7276 44.2373 72.7656 44.4645C72.8037 44.6917 72.7966 44.9241 72.7448 45.1486C72.693 45.373 72.5975 45.5851 72.4637 45.7726C72.33 45.9602 72.1606 46.1195 71.9653 46.2416C68.6849 48.3172 66.0367 51.2529 64.309 54.7291C64.1674 55.0261 63.944 55.2765 63.665 55.4509C63.386 55.6253 63.063 55.7164 62.734 55.7135Z" fill="#C1C7D0"/>
<path d="M74.666 66.0042H91.666M83.166 57.5042V74.5041" stroke="#F4F6F6" stroke-width="4" stroke-linecap="round" stroke-linejoin="round"/>
</g>
<defs>
<filter id="filter0_i_8641_15367" x="6" y="32" width="156" height="91" filterUnits="userSpaceOnUse" color-interpolation-filters="sRGB">
<feFlood flood-opacity="0" result="BackgroundImageFix"/>
<feBlend mode="normal" in="SourceGraphic" in2="BackgroundImageFix" result="shape"/>
<feColorMatrix in="SourceAlpha" type="matrix" values="0 0 0 0 0 0 0 0 0 0 0 0 0 0 0 0 0 0 127 0" result="hardAlpha"/>
<feOffset dy="2.75625"/>
<feComposite in2="hardAlpha" operator="arithmetic" k2="-1" k3="1"/>
<feColorMatrix type="matrix" values="0 0 0 0 0 0 0 0 0 0.509804 0 0 0 0 0.607843 0 0 0 0.15 0"/>
<feBlend mode="normal" in2="shape" result="effect1_innerShadow_8641_15367"/>
</filter>
</defs>
</svg>
