<svg width="48" height="40" viewBox="0 0 48 40" fill="none" xmlns="http://www.w3.org/2000/svg">
<path fill-rule="evenodd" clip-rule="evenodd" d="M26 13C25.4477 13 25 13.4477 25 14V20C25 20.5523 25.4477 21 26 21H30C30.5523 21 31 20.5523 31 20V14C31 13.4477 30.5523 13 30 13H26ZM26 27C25.4477 27 25 26.5523 25 26V24C25 23.4477 25.4477 23 26 23H30C30.5523 23 31 23.4477 31 24V26C31 26.5523 30.5523 27 30 27H26ZM17 21C17 20.4477 17.4477 20 18 20H22C22.5523 20 23 20.4477 23 21V26C23 26.5523 22.5523 27 22 27H18C17.4477 27 17 26.5523 17 26V21ZM18 13C17.4477 13 17 13.4477 17 14V17C17 17.5523 17.4477 18 18 18H22C22.5523 18 23 17.5523 23 17V14C23 13.4477 22.5523 13 22 13H18Z" fill="#CFCFCF"/>
</svg>
