<svg width="48" height="40" viewBox="0 0 48 40" fill="none" xmlns="http://www.w3.org/2000/svg">
<path fill-rule="evenodd" clip-rule="evenodd" d="M24.5085 13.2959C24.2734 12.9209 23.727 12.9209 23.4919 13.2959L21.5453 16.3999C21.2947 16.7995 21.5819 17.3187 22.0536 17.3187H25.9468C26.4185 17.3187 26.7057 16.7995 26.4551 16.3999L24.5085 13.2959ZM27.5085 18.1292C27.2734 17.7542 26.727 17.7542 26.4919 18.1292L24.5453 21.2332C24.2947 21.6328 24.5819 22.152 25.0536 22.152H28.9468C29.4185 22.152 29.7057 21.6328 29.4551 21.2332L27.5085 18.1292ZM18.5085 22.9626C18.2734 22.5876 17.727 22.5876 17.4919 22.9626L15.5453 26.0666C15.2947 26.4662 15.5819 26.9853 16.0536 26.9853H19.9468C20.4185 26.9853 20.7057 26.4662 20.4551 26.0666L18.5085 22.9626ZM24.5085 22.9626C24.2734 22.5876 23.727 22.5876 23.4919 22.9626L21.5453 26.0666C21.2947 26.4662 21.5819 26.9853 22.0536 26.9853H25.9468C26.4185 26.9853 26.7057 26.4662 26.4551 26.0666L24.5085 22.9626ZM29.4919 22.9626C29.727 22.5876 30.2734 22.5876 30.5085 22.9626L32.4551 26.0666C32.7057 26.4662 32.4185 26.9853 31.9468 26.9853H28.0536C27.5819 26.9853 27.2947 26.4662 27.5453 26.0666L29.4919 22.9626ZM20.4919 18.1292C20.727 17.7542 21.2734 17.7542 21.5085 18.1292L23.4551 21.2332C23.7057 21.6328 23.4185 22.152 22.9468 22.152H19.0536C18.5819 22.152 18.2947 21.6328 18.5453 21.2332L20.4919 18.1292Z" fill="#CFCFCF"/>
</svg>
