<svg width="48" height="40" viewBox="0 0 48 40" fill="none" xmlns="http://www.w3.org/2000/svg">
<path fill-rule="evenodd" clip-rule="evenodd" d="M15.4243 14.5757C15.19 14.8101 15.19 15.19 15.4243 15.4243L18.5757 18.5757C18.8101 18.8101 19.19 18.8101 19.4243 18.5757L22.5757 15.4243C22.8101 15.19 22.8101 14.8101 22.5757 14.5757L19.4243 11.4243C19.19 11.19 18.8101 11.19 18.5757 11.4243L15.4243 14.5757ZM25.4341 24.5297C25.1952 24.7632 25.193 25.1469 25.4292 25.3831L28.6169 28.5708C28.8531 28.8071 29.2368 28.8048 29.4703 28.5659L32.5855 25.3781C32.8152 25.1431 32.813 24.7669 32.5806 24.5345L29.4655 21.4194C29.2331 21.187 28.857 21.1848 28.6219 21.4146L25.4341 24.5297ZM25.4169 15.4218C25.1859 15.1881 25.1859 14.8119 25.4169 14.5782L28.5321 11.4268C28.7651 11.1911 29.145 11.1889 29.3806 11.4219L32.5684 14.5733C32.806 14.8082 32.806 15.1918 32.5684 15.4267L29.3806 18.5782C29.145 18.8111 28.7651 18.8089 28.5321 18.5733L25.4169 15.4218ZM15.4268 24.5321C15.1911 24.7651 15.1889 25.145 15.4219 25.3806L18.5733 28.5684C18.8082 28.806 19.1918 28.806 19.4267 28.5684L22.5782 25.3806C22.8111 25.145 22.8089 24.7651 22.5733 24.5321L19.4218 21.4169C19.1881 21.1859 18.8119 21.1859 18.5782 21.4169L15.4268 24.5321Z" fill="#CFCFCF"/>
</svg>
