<svg width="48" height="40" viewBox="0 0 48 40" fill="none" xmlns="http://www.w3.org/2000/svg">
<path fill-rule="evenodd" clip-rule="evenodd" d="M29.8952 18.8582L31.9927 20.9536L31.9928 20.9537C32.2352 21.2048 32.3273 21.5651 32.2351 21.9017C32.1427 22.2383 31.8797 22.5014 31.5431 22.5937C31.2065 22.6859 30.8462 22.5938 30.5951 22.3514L21.6499 13.4062C21.4074 13.1551 21.3153 12.7948 21.4076 12.4582C21.4999 12.1215 21.7629 11.8585 22.0995 11.7663C22.4361 11.674 22.7965 11.766 23.0475 12.0085L25.143 14.104L27.5152 11.7318C27.715 11.5318 28.0064 11.4538 28.2794 11.527C28.5524 11.6001 28.7656 11.8134 28.8388 12.0865C28.9119 12.3595 28.8339 12.6508 28.6341 12.8506L26.2619 15.2228L28.7764 17.7394L31.1485 15.3672C31.3485 15.1672 31.6397 15.0892 31.9127 15.1624C32.1858 15.2355 32.3991 15.4488 32.4722 15.7219C32.5454 15.9949 32.4673 16.2862 32.2674 16.4861L29.8952 18.8582ZM21.0903 14.5252L20.1117 15.5037C19.1944 16.4209 18.6033 17.6136 18.4285 18.899C18.254 20.1845 18.5056 21.4915 19.145 22.6204C19.2491 22.8042 19.3486 22.9703 19.4471 23.1223L15.7785 26.825C15.536 27.0761 15.4438 27.4364 15.5362 27.773C15.6285 28.1096 15.8914 28.3727 16.228 28.465C16.5646 28.5572 16.9251 28.4651 17.176 28.2227L20.8399 24.5247C21.002 24.6308 21.1801 24.7378 21.3787 24.8503C22.5074 25.4895 23.8147 25.7412 25.0999 25.5666C26.3853 25.392 27.5779 24.8008 28.4952 23.8835L29.4737 22.905L21.0903 14.5252Z" fill="#CFCFCF"/>
</svg>
