<svg width="48" height="40" viewBox="0 0 48 40" fill="none" xmlns="http://www.w3.org/2000/svg"><path fill-rule="evenodd" clip-rule="evenodd" d="M28.7676 18.5C29.1134 17.9022 29.7597 17.5 30.5 17.5C31.6046 17.5 32.5 18.3954 32.5 19.5C32.5 20.6046 31.6046 21.5 30.5 21.5C29.7597 21.5 29.1134 21.0978 28.7676 20.5H22.5L24.2236 23.9472C24.393 24.286 24.7393 24.5 25.118 24.5H28.7676C29.1134 23.9022 29.7597 23.5 30.5 23.5C31.6046 23.5 32.5 24.3954 32.5 25.5C32.5 26.6046 31.6046 27.5 30.5 27.5C29.7597 27.5 29.1134 27.0978 28.7676 26.5H24.7361C23.9785 26.5 23.286 26.072 22.9472 25.3944L20.5 20.5H16.5C15.9477 20.5 15.5 20.0523 15.5 19.5C15.5 18.9477 15.9477 18.5 16.5 18.5H18.5L20.9472 13.6056C21.286 12.928 21.9785 12.5 22.7361 12.5H28.7676C29.1134 11.9022 29.7597 11.5 30.5 11.5C31.6046 11.5 32.5 12.3954 32.5 13.5C32.5 14.6046 31.6046 15.5 30.5 15.5C29.7597 15.5 29.1134 15.0978 28.7676 14.5H23.118C22.7393 14.5 22.393 14.714 22.2236 15.0528L20.5 18.5H28.7676Z" fill="#CFCFCF"/></svg>
