<svg width="20" height="20" viewBox="0 0 20 20" fill="none" xmlns="http://www.w3.org/2000/svg">
<path d="M1.5 9.5C1.5 8.94771 1.94772 8.5 2.5 8.5H4.5L6.94727 3.60547C7.28607 2.92796 7.97882 2.5 8.73633 2.5H14.7705C15.1165 1.9029 15.7602 1.5 16.5 1.5C17.6046 1.5 18.5 2.39543 18.5 3.5C18.5 4.60457 17.6046 5.5 16.5 5.5C15.7602 5.5 15.1165 5.0971 14.7705 4.5H9.11816C8.73941 4.5 8.39303 4.71398 8.22363 5.05273L6.5 8.5H14.7705C15.1165 7.9029 15.7602 7.5 16.5 7.5C17.6046 7.5 18.5 8.39543 18.5 9.5C18.5 10.6046 17.6046 11.5 16.5 11.5C15.7602 11.5 15.1165 11.0971 14.7705 10.5H8.5L10.2236 13.9473C10.393 14.286 10.7394 14.5 11.1182 14.5H14.7705C15.1165 13.9029 15.7602 13.5 16.5 13.5C17.6046 13.5 18.5 14.3954 18.5 15.5C18.5 16.6046 17.6046 17.5 16.5 17.5C15.7602 17.5 15.1165 17.0971 14.7705 16.5H10.7363C9.97882 16.5 9.28607 16.072 8.94727 15.3945L6.5 10.5H2.5C1.94772 10.5 1.5 10.0523 1.5 9.5Z" fill="#CFCFCF"/>
</svg>
