<svg width="48" height="40" viewBox="0 0 48 40" fill="none" xmlns="http://www.w3.org/2000/svg">
<path d="M15.3558 24.0613C15.3556 24.193 15.3883 24.3227 15.4508 24.4386C15.5133 24.5546 15.6037 24.6531 15.7138 24.7254L23.5645 29.87C23.6938 29.9548 23.845 30 23.9996 30C24.1543 30 24.3055 29.9548 24.4348 29.87L32.2855 24.7254C32.3958 24.6532 32.4865 24.5548 32.5492 24.4388C32.6119 24.3229 32.6448 24.1931 32.6448 24.0613C32.6448 23.9295 32.6119 23.7997 32.5492 23.6838C32.4865 23.5679 32.3958 23.4694 32.2855 23.3973L30.1981 22.0375L32.2855 20.6776C32.3958 20.6055 32.4865 20.5071 32.5492 20.3911C32.6119 20.2752 32.6448 20.1454 32.6448 20.0136C32.6448 19.8818 32.6119 19.752 32.5492 19.6361C32.4865 19.5201 32.3958 19.4217 32.2855 19.3496L30.1981 17.9897L32.2855 16.6299C32.3958 16.5578 32.4865 16.4593 32.5492 16.3434C32.6119 16.2275 32.6448 16.0977 32.6448 15.9659C32.6448 15.8341 32.6119 15.7043 32.5492 15.5884C32.4865 15.4724 32.3958 15.3739 32.2855 15.3018L24.4348 10.13C24.3055 10.0452 24.1543 10 23.9996 10C23.845 10 23.6938 10.0452 23.5645 10.13L15.7138 15.2746C15.6035 15.3467 15.5128 15.4452 15.4501 15.5612C15.3873 15.6771 15.3545 15.8069 15.3545 15.9387C15.3545 16.0705 15.3873 16.2003 15.4501 16.3162C15.5128 16.4321 15.6035 16.5306 15.7138 16.6027L17.8012 17.9625L15.7138 19.3224C15.6035 19.3945 15.5128 19.4929 15.4501 19.6089C15.3873 19.7248 15.3545 19.8546 15.3545 19.9864C15.3545 20.1182 15.3873 20.248 15.4501 20.3639C15.5128 20.4799 15.6035 20.5783 15.7138 20.6504L17.8012 22.0103L15.7138 23.3701C15.5998 23.4448 15.5069 23.5477 15.4442 23.6687C15.3814 23.7898 15.351 23.925 15.3558 24.0613ZM17.5972 19.9977L19.2403 18.9167L23.5464 21.7451C23.6756 21.8299 23.8269 21.8751 23.9815 21.8751C24.1361 21.8751 24.2874 21.8299 24.4167 21.7451L28.759 18.9167L30.4044 20L23.9996 24.195L17.5972 19.9977ZM19.2403 22.9803L23.5464 25.8087C23.6756 25.8935 23.8269 25.9387 23.9815 25.9387C24.1361 25.9387 24.2874 25.8935 24.4167 25.8087L28.759 22.9803L30.4112 24.0636L23.9996 28.2563L17.5949 24.0613L19.2403 22.9803Z" fill="#CFCFCF"/>
</svg>
