<svg xmlns="http://www.w3.org/2000/svg" width="15" height="17" viewBox="0 0 15 17">
    <path fill="#39C2D7" fill-opacity=".5" fill-rule="evenodd" d="M9 11.5c0-.825-.675-1.5-1.5-1.5S6 10.675 6 11.5 6.675 13 7.5 13 9 12.325 9 11.5zm3.014-5.488V3.977C12.014 1.871 10.01 0 7.5 0 4.57 0 3.037 2.381 3.008 4.466L3 5.983h1.951L4.96 4.46C4.979 3.19 5.919 2 7.5 2c1.084 0 2.536.672 2.536 1.977v2.035H1.5c-.825 0-1.5.686-1.5 1.526v7.936C0 16.314.675 17 1.5 17h12c.825 0 1.5-.687 1.5-1.526V7.538c0-.84-.675-1.526-1.5-1.526h-1.486zM2 15V8h11v7H2z"/>
</svg>
