<svg xmlns="http://www.w3.org/2000/svg" width="1000" height="726" viewBox="0 0 1000 726" xmlns:xlink="http://www.w3.org/1999/xlink">
  <defs>
    <rect id="g" width="160" height="40" rx="3"/>
    <rect id="h" width="160" height="40" rx="3"/>
    <rect id="a" width="380" height="40"/>
    <mask id="i" width="380" height="40" x="0" y="0" fill="white">
      <use xlink:href="#a"/>
    </mask>
    <rect id="b" width="380" height="40"/>
    <mask id="j" width="380" height="40" x="0" y="0" fill="white">
      <use xlink:href="#b"/>
    </mask>
    <rect id="c" width="380" height="40"/>
    <mask id="k" width="380" height="40" x="0" y="0" fill="white">
      <use xlink:href="#c"/>
    </mask>
    <rect id="d" width="380" height="40"/>
    <mask id="l" width="380" height="40" x="0" y="0" fill="white">
      <use xlink:href="#d"/>
    </mask>
    <rect id="e" width="380" height="40"/>
    <mask id="m" width="380" height="40" x="0" y="0" fill="white">
      <use xlink:href="#e"/>
    </mask>
    <path id="n" d="M0,2.00291486 C0,0.896735528 0.897047619,0 2.00149018,0 L500,0 L500,726 L2.00149018,726 C0.896097678,726 0,725.096521 0,723.997085 L0,2.00291486 Z"/>
    <rect id="f" width="282" height="131" x="10" y="24" rx="5"/>
    <mask id="p" width="282" height="131" x="0" y="0" fill="white">
      <use xlink:href="#f"/>
    </mask>
  </defs>
  <g fill="none" fill-rule="evenodd">
    <path fill="#FFFFFF" d="M500,2.00291486 C500,0.896735528 500.897048,0 502.00149,0 L997.99851,0 C999.103902,0 1000,0.903478805 1000,2.00291486 L1000,723.997085 C1000,725.103264 999.102952,726 997.99851,726 L502.00149,726 C500.896098,726 500,725.096521 500,723.997085 L500,2.00291486 Z"/>
    <g opacity=".1" transform="translate(560 60)">
      <text fill="#6F898D" font-family="OpenSans, Open Sans" font-size="32">
        <tspan x="104.563" y="31.469">Welcome</tspan> <tspan x="245.175" y="34" font-size="26">,</tspan> <tspan x="22.549" y="72" font-size="24">complete the registration form</tspan>
      </text>
      <g transform="translate(205 566)">
        <use fill="#F36C4A" xlink:href="#g"/>
        <use fill="#FFFFFF" fill-opacity=".015" xlink:href="#g"/>
        <text fill="#FFFFFF" font-family="OpenSans, Open Sans" font-size="16">
          <tspan x="50" y="26">Register</tspan>
        </text>
      </g>
      <g transform="translate(15 566)">
        <use fill="#999999" xlink:href="#h"/>
        <use fill="#FFFFFF" fill-opacity=".015" xlink:href="#h"/>
        <text fill="#FFFFFF" font-family="OpenSans, Open Sans" font-size="16">
          <tspan x="55" y="26">Reset</tspan>
        </text>
      </g>
      <g transform="translate(0 126)">
        <use fill="#FFFFFF" stroke="#CCCCCC" stroke-width="2" mask="url(#i)" xlink:href="#a"/>
        <path fill="#F6F6F6" d="M1,3.99765987 C1,2.34209804 2.34230941,1 4.0065012,1 L41,1 L41,39 L4.0065012,39 C2.34605644,39 1,37.6475599 1,36.0023401 L1,3.99765987 Z"/>
        <path fill="#9ADBE6" d="M9,2 C10.1047619,2 11,2.8952381 11,4 C11,5.1047619 10.1047619,6 9,6 C7.8952381,6 7,5.1047619 7,4 C7,2.8952381 7.8952381,2 9,2 L9,2 Z M9,11 C11.9262295,11 15,12.3640625 15,12.96875 L15,14 L3,14 L3,12.96875 C3,12.3640625 6.07377049,11 9,11 L9,11 Z M9,-1.77635684e-15 C6.79,-1.77635684e-15 5,1.79 5,4 C5,6.205 6.79,8 9,8 C11.21,8 13,6.205 13,4 C13,1.79 11.21,-1.77635684e-15 9,-1.77635684e-15 Z M9,9 C6.335,9 1,10.335 1,13 L1,16 L17,16 L17,13 C17,10.335 11.665,9 9,9 Z" transform="translate(12 12)"/>
      </g>
      <g transform="translate(0 225)">
        <use fill="#FFFFFF" stroke="#CCCCCC" stroke-width="2" mask="url(#j)" xlink:href="#b"/>
        <text fill="#999999" font-family="OpenSans, Open Sans" font-size="12">
          <tspan x="0" y="58">3-256 symbols, Latin, Cyrillic, numeric characters, symbols: hyphen, </tspan> <tspan x="0" y="75">underscore, dot, space</tspan>
        </text>
        <path fill="#F6F6F6" d="M1,3.99765987 C1,2.34209804 2.34230941,1 4.0065012,1 L41,1 L41,39 L4.0065012,39 C2.34605644,39 1,37.6475599 1,36.0023401 L1,3.99765987 Z"/>
        <path fill="#9ADBE6" d="M9,0 C6.79,0 5,1.79 5,4 C5,6.205 6.79,8 9,8 C11.21,8 13,6.205 13,4 C13,1.79 11.21,0 9,0 Z M9,9 C6.335,9 1,10.335 1,13 L1,16 L17,16 L17,13 C17,10.335 11.665,9 9,9 Z" transform="translate(12 12)"/>
      </g>
      <g transform="translate(0 323)">
        <use fill="#E9E9E9" stroke="#CCCCCC" stroke-width="2" mask="url(#k)" opacity=".8" xlink:href="#c"/>
        <path fill="#F6F6F6" d="M1,4.99765987 C1,3.34209804 2.34230941,2 4.0065012,2 L41,2 L41,40 L4.0065012,40 C2.34605644,40 1,38.6475599 1,37.0023401 L1,4.99765987 Z"/>
        <text fill="#464547" font-family="OpenSans, Open Sans" font-size="14">
          <tspan x="56" y="27">example@example.com</tspan>
        </text>
      </g>
      <g transform="translate(0 394)">
        <use fill="#FFFFFF" stroke="#CCCCCC" stroke-width="2" mask="url(#l)" xlink:href="#d"/>
        <path fill="#E9E9E9" d="M1,3.99765987 C1,2.34209804 2.34230941,1 4.0065012,1 L41,1 L41,39 L4.0065012,39 C2.34605644,39 1,37.6475599 1,36.0023401 L1,3.99765987 Z" opacity=".4"/>
        <path fill="#9ADBE6" d="M9,11.5 C9,10.675 8.325,10 7.5,10 C6.675,10 6,10.675 6,11.5 C6,12.325 6.675,13 7.5,13 C8.325,13 9,12.325 9,11.5 Z M12.0143433,6.01159321 L12.0143433,3.97721278 C12.0143433,1.87104538 10.008606,4.33210202e-16 7.5,0 C4.57045814,4.26979671e-16 3.03666378,2.38118114 3.0075332,4.46626847 C3.00710813,4.49669428 3,5.95239273 3,5.98268413 L4.95135498,5.98268413 C4.95135498,5.95068024 4.95850502,4.49334931 4.95902265,4.46138153 C4.97961071,3.18991361 5.91872438,2 7.5,2 C8.58380127,2 10.036377,2.67230472 10.036377,3.97721278 L10.036377,6.01159321 L1.5,6.01159338 C0.675,6.01159338 8.8817842e-16,6.6983871 8.8817842e-16,7.53780164 L8.8817842e-16,15.4737917 C8.8817842e-16,16.3132063 0.675,17 1.5,17 L13.5,17 C14.325,17 15,16.3132063 15,15.4737917 L15,7.53780164 C15,6.6983871 14.325,6.01159338 13.5,6.01159338 L12.0143433,6.01159321 Z M2,15 L2,8 L13,8 L13,15 L2,15 Z" transform="translate(13 12)"/>
      </g>
      <text fill="#999999" font-family="OpenSans, Open Sans" font-size="12">
        <tspan x="1" y="452">4-25 symbols</tspan>
      </text>
      <g transform="translate(0 476)">
        <use fill="#FFFFFF" stroke="#CCCCCC" stroke-width="2" mask="url(#m)" xlink:href="#e"/>
        <path fill="#E9E9E9" d="M1,3.99765987 C1,2.34209804 2.34230941,1 4.0065012,1 L41,1 L41,39 L4.0065012,39 C2.34605644,39 1,37.6475599 1,36.0023401 L1,3.99765987 Z" opacity=".4"/>
        <path fill="#39C2D7" fill-opacity=".5" d="M9,11.5 C9,10.675 8.325,10 7.5,10 C6.675,10 6,10.675 6,11.5 C6,12.325 6.675,13 7.5,13 C8.325,13 9,12.325 9,11.5 Z M12.0143433,6.01159321 L12.0143433,3.97721278 C12.0143433,1.87104538 10.008606,4.33210202e-16 7.5,0 C4.57045814,4.26979671e-16 3.03666378,2.38118114 3.0075332,4.46626847 C3.00710813,4.49669428 3,5.95239273 3,5.98268413 L4.95135498,5.98268413 C4.95135498,5.95068024 4.95850502,4.49334931 4.95902265,4.46138153 C4.97961071,3.18991361 5.91872438,2 7.5,2 C8.58380127,2 10.036377,2.67230472 10.036377,3.97721278 L10.036377,6.01159321 L1.5,6.01159338 C0.675,6.01159338 8.8817842e-16,6.6983871 8.8817842e-16,7.53780164 L8.8817842e-16,15.4737917 C8.8817842e-16,16.3132063 0.675,17 1.5,17 L13.5,17 C14.325,17 15,16.3132063 15,15.4737917 L15,7.53780164 C15,6.6983871 14.325,6.01159338 13.5,6.01159338 L12.0143433,6.01159321 Z M2,15 L2,8 L13,8 L13,15 L2,15 Z" transform="translate(13 12)"/>
      </g>
      <text fill="#999999" font-family="OpenSans, Open Sans" font-size="12">
        <tspan x="0" y="184">1-128 symbols, Latin, numeric characters, symbols: hyphen, </tspan> <tspan x="0" y="201">underscore</tspan>
      </text>
      <path fill="#9ADBE6" d="M16,0 L2,0 C0.8055,0 0.009,0.783125 0,2 L0,12 C0,13.2168746 0.8055,14 2,14 L16,14 C17.1945,14 18,13.2168746 18,12 L18,2 C18,0.783125 17.1945,0 16,0 Z M16,4 L9,8 L2,4 L2,2 L9,6 L16,2 L16,4 Z" transform="translate(12 337)"/>
    </g>
    <mask id="o" fill="white">
      <use xlink:href="#n"/>
    </mask>
    <g transform="translate(73 606)" mask="url(#o)">
      <use fill="#FFFFFF" fill-opacity=".85" stroke="#91D9E5" stroke-opacity=".3" stroke-width="2" mask="url(#p)" transform="rotate(-10 151 89.5)" xlink:href="#f"/>
      <path fill="#D7F3F4" d="M144.405805,70.340292 C144.405805,65.922014 147.978661,62.340292 152.41527,62.340292 L261.39634,62.340292 C265.819845,62.340292 269.405805,65.9310043 269.405805,70.340292 L269.405805,70.340292 C269.405805,74.75857 265.832949,78.340292 261.39634,78.340292 L152.41527,78.340292 C147.991765,78.340292 144.405805,74.7495797 144.405805,70.340292 L144.405805,70.340292 Z" transform="rotate(4 206.906 70.34)"/>
      <path fill="#D7F3F4" d="M144.43967,101.731473 C144.43967,97.3131951 148.012526,93.7314731 152.449135,93.7314731 L261.430205,93.7314731 C265.85371,93.7314731 269.43967,97.3221854 269.43967,101.731473 L269.43967,101.731473 C269.43967,106.149751 265.866814,109.731473 261.430205,109.731473 L152.449135,109.731473 C148.02563,109.731473 144.43967,106.140761 144.43967,101.731473 L144.43967,101.731473 Z" transform="rotate(10 206.94 101.731)"/>
      <path fill="#D7F3F4" d="M56,62 C41.0825,62 29,74.30625 29,90 C29,104.69375 41.0825,117 56,117 C70.9175,117 83,104.69375 83,90 C83,74.30625 70.9175,62 56,62 Z M56,70 C60.4133333,70 64,73.5866667 64,78 C64,82.4266667 60.4133333,86 56,86 C51.5866667,86 48,82.4266667 48,78 C48,73.5866667 51.5866667,70 56,70 Z M56,109 C49.32,109 43.4533333,105.54603 40,100 C40.0666667,94.9547614 50.68,92 56,92 C61.32,92 71.92,94.9547614 72,100 C68.5466667,105.54603 62.68,109 56,109 Z" transform="rotate(-50 56 89.5)"/>
    </g>
    <g stroke="#39C2D7" stroke-dasharray="3 4" opacity=".303">
      <path d="M0,672 C0,672 313.5,673.5 313.5,559 C313.5,504.5 253.076114,493 220.5,501 C187.923886,509 137.5,539.5 145,601 C152.5,662.5 217.675576,736.778765 325,679 C432.324424,621.221235 464,507 427,436.5 C356.38528,327.982946 145.238287,360.439423 100.5,334 C55.7617126,307.560577 34.5,246.5 79,188 C123.5,129.5 500,109.870117 500,109.870117"/>
    </g>
  </g>
</svg>
