<svg xmlns="http://www.w3.org/2000/svg" width="320" height="568" viewBox="0 0 320 568" xmlns:xlink="http://www.w3.org/1999/xlink">
  <defs>
    <rect id="a" width="237" height="110" x="8.786" y="19.777" rx="5"/>
    <mask id="b" width="237.444" height="110.45" x="0" y="0" fill="white">
      <use xlink:href="#a"/>
    </mask>
  </defs>
  <g fill="none" fill-rule="evenodd">
    <g transform="translate(33 461)">
      <use fill="#FFFFFF" fill-opacity=".85" stroke="#91D9E5" stroke-opacity=".3" stroke-width="2" mask="url(#b)" transform="rotate(-10 127.508 75.002)" xlink:href="#a"/>
      <path fill="#D7F3F4" d="M121.342318,59.1545032 C121.342318,55.5646523 124.260208,52.6545032 127.851069,52.6545032 L219.833566,52.6545032 C223.428251,52.6545032 226.342318,55.571957 226.342318,59.1545032 L226.342318,59.1545032 C226.342318,62.7443541 223.424428,65.6545032 219.833566,65.6545032 L127.851069,65.6545032 C124.256385,65.6545032 121.342318,62.7370495 121.342318,59.1545032 L121.342318,59.1545032 Z" transform="rotate(4 173.967 59.4)"/>
      <path fill="#D7F3F4" d="M121.371771,85.5357615 C121.371771,81.9459106 124.289661,79.0357615 127.880522,79.0357615 L219.863019,79.0357615 C223.457703,79.0357615 226.371771,81.9532152 226.371771,85.5357615 L226.371771,85.5357615 C226.371771,89.1256124 223.453881,92.0357615 219.863019,92.0357615 L127.880522,92.0357615 C124.285838,92.0357615 121.371771,89.1183077 121.371771,85.5357615 L121.371771,85.5357615 Z" transform="rotate(10 173.997 85.78)"/>
      <path fill="#D7F3F4" d="M47.1406801,52.1329067 C34.7094301,52.1329067 24.6406801,62.4254067 24.6406801,75.5510885 C24.6406801,87.8404067 34.7094301,98.1329067 47.1406801,98.1329067 C59.5719301,98.1329067 69.6406801,87.8404067 69.6406801,75.5510885 C69.6406801,62.4254067 59.5719301,52.1329067 47.1406801,52.1329067 Z M46.5357589,58.7960111 C50.1215922,58.7960111 53.0357589,61.7101778 53.0357589,65.2960111 C53.0357589,68.8926778 50.1215922,71.7960111 46.5357589,71.7960111 C42.9499255,71.7960111 40.0357589,68.8926778 40.0357589,65.2960111 C40.0357589,61.7101778 42.9499255,58.7960111 46.5357589,58.7960111 Z M47.4616756,90.9468451 C41.8254256,90.9468451 36.8754256,88.1023989 33.9616756,83.5350804 C34.0179256,79.380178 42.9729256,76.9468451 47.4616756,76.9468451 C51.9504256,76.9468451 60.8941756,79.380178 60.9616756,83.5350804 C58.0479256,88.1023989 53.0979256,90.9468451 47.4616756,90.9468451 Z" transform="rotate(-50 47.375 75.319)"/>
    </g>
    <path stroke="#39C2D7" d="M8,536.123967 C8,536.123967 198.608,537.03719 198.608,467.327824 C198.608,434.147383 161.870277,427.146006 142.064,432.016529 C122.257723,436.887052 91.6,455.455923 96.16,492.898072 C100.72,530.34022 140.34675,575.562278 205.6,540.385675 C270.85325,505.209071 290.112,435.669421 267.616,392.747934 C224.68225,326.681077 131.955563,354.178337 73.4238281,324.037109 C14.8920937,293.895882 -7.57617187,209 56.1464844,152.445313 C119.869141,95.890625 320,94.1835938 320,94.1835938" transform="translate(0 -1)" stroke-dasharray="3 4" opacity=".303"/>
  </g>
</svg>
