<svg xmlns="http://www.w3.org/2000/svg" width="141" height="23" viewBox="0 0 141 23">
  <path fill="#5B6F73" d="M5.14283736,11.7383334 L3.42678454,11.7383334 L3.42678454,17.9586923 L0,17.9586923 L0,0.931191452 L5.48338738,0.931191452 C7.20564814,0.931191452 8.53592164,1.37461595 9.47420788,2.26146495 C10.4124941,3.14831396 10.8798636,4.42094227 10.8763162,6.07934991 C10.8763162,8.33904116 10.0542071,9.92117978 8.40998908,10.8257658 L11.4084256,17.7963989 L11.4084256,17.9613528 L7.70494413,17.9613528 L5.14283736,11.7383334 Z M3.42678454,8.87558481 L5.37962604,8.87558481 C5.97531453,8.91626373 6.55271436,8.66041587 6.92274331,8.19182423 C7.28971325,7.65435518 7.47010944,7.01128482 7.43622888,6.36136789 C7.44332367,4.64620192 6.78084747,3.78861893 5.44880027,3.78861893 L3.42678454,3.78861893 L3.42678454,8.87558481 Z M17.548968,18.1874993 C15.8497654,18.1874993 14.5248129,17.6811085 13.5741108,16.668327 C12.6234087,15.6555454 12.1480576,14.2055473 12.1480576,12.3183326 L12.1480576,11.317967 C12.1480576,9.3225567 12.5843873,7.78298684 13.4570467,6.69925736 C14.3297062,5.61552788 15.5810501,5.07366314 17.2110786,5.07366314 C18.8074068,5.07366314 20.0037661,5.58182762 20.8001565,6.59815657 C21.5965469,7.61448553 22.0053843,9.12212883 22.0266687,11.1210865 L22.0266687,12.7440202 L15.4551175,12.7440202 C15.5012337,13.6911749 15.7078695,14.383804 16.075025,14.8219074 C16.4421805,15.2600108 17.0071033,15.4790625 17.7697934,15.4790625 C18.8163975,15.5049344 19.8245342,15.0840712 20.5420834,14.3217245 L21.8404304,16.3197953 C21.3825745,16.9222838 20.7729286,17.3923722 20.0738271,17.6819954 C19.28181,18.0297354 18.4245329,18.2039123 17.5596102,18.1928204 L17.548968,18.1874993 Z M15.4790625,10.4399864 L18.7887829,10.4399864 L18.7887829,10.1233814 C18.8106999,9.52288903 18.6817227,8.92648363 18.4136458,8.38870471 C18.1795177,7.99494375 17.7742277,7.79806327 17.1977758,7.79806327 C16.6925824,7.75669589 16.2057004,7.99706832 15.9313555,8.42329182 C15.675943,8.84011085 15.5251786,9.51234239 15.4790625,10.4399864 Z M33.4909657,12.0363146 C33.4909657,14.0246301 33.1495288,15.5482367 32.4666551,16.6071344 C31.7837814,17.6660321 30.7683393,18.1981415 29.4203288,18.2034626 C28.4368156,18.226939 27.5065221,17.7577996 26.940699,16.9530055 L26.940699,22.8328144 L23.6469418,22.8328144 L23.6469418,5.30779127 L26.7092314,5.30779127 L26.8395982,6.46512922 C27.3953634,5.57847628 28.3768245,5.04984172 29.4229893,5.07366314 C30.7709998,5.07366314 31.7864419,5.56497748 32.4693156,6.54760618 C33.1521894,7.53023487 33.500721,9.03787817 33.5149106,11.0705361 L33.5149106,12.0363146 L33.4909657,12.0363146 Z M30.194548,11.2168662 C30.194548,9.98946715 30.0597469,9.12124198 29.7901448,8.61219065 C29.5322011,8.10931653 28.9998269,7.80809109 28.4359264,7.84595312 C27.8152354,7.81298829 27.2333787,8.14875502 26.9513412,8.70264925 L26.9513412,14.6489718 C27.2473095,15.1972679 27.8386817,15.5195501 28.4598713,15.4710808 C29.0454645,15.5140441 29.593339,15.179113 29.8220714,14.6383296 C30.0757102,14.0831621 30.2025296,13.2193712 30.2025296,12.0469568 L30.2025296,11.2115451 L30.194548,11.2168662 Z M34.8238997,11.2168662 C34.8238997,9.29949863 35.2761927,7.79185533 36.1807787,6.69393626 C37.0853647,5.5960172 38.3367086,5.05060506 39.9348105,5.05769986 C41.5488757,5.05769986 42.8073145,5.60311199 43.7101267,6.69393626 C44.612939,7.78476054 45.065232,9.29683808 45.0670057,11.2301689 L45.0670057,12.028333 C45.0670057,13.9527953 44.619147,15.4604386 43.7234295,16.5512629 C42.827712,17.6420872 41.5728206,18.1839519 39.9587555,18.1768571 C38.3375955,18.1768571 37.0764962,17.6332187 36.1754576,16.5459418 C35.274419,15.4586649 34.8238997,13.9510216 34.8238997,12.0230119 L34.8238997,11.2248478 L34.8238997,11.2168662 Z M38.1442624,12.0496174 C38.1442624,14.3234982 38.7482066,15.4604386 39.9560949,15.4604386 C41.0699773,15.4604386 41.670374,14.5115102 41.7572852,12.6136533 L41.7572852,11.2142056 C41.7572852,10.0542071 41.5976524,9.19307675 41.2783868,8.63081448 C41.0265259,8.11194178 40.4982512,7.78461864 39.9215078,7.79008163 C39.3575049,7.79197063 38.8453762,8.11956714 38.6071976,8.63081448 C38.2914793,9.19130305 38.1336202,10.0524334 38.1336202,11.2142056 L38.1336202,12.0496174 L38.1442624,12.0496174 Z M53.0140596,8.49246604 L51.9152537,8.39934689 C51.0106677,8.39934689 50.3987419,8.79665525 50.0794763,9.59127195 L50.0794763,17.9507106 L46.7697558,17.9507106 L46.7697558,5.30779127 L49.8905774,5.30779127 L49.9863571,6.67531243 C50.5078243,5.61109363 51.2288326,5.07898423 52.1493818,5.07898423 C52.4606671,5.06776045 52.7710252,5.11933599 53.0619495,5.23063541 L53.0140596,8.49246604 Z M58.6863458,2.19229073 L58.6863458,5.30779127 L60.3811143,5.30779127 L60.3811143,7.77943944 L58.6863458,7.77943944 L58.6863458,14.0689726 C58.6544861,14.424727 58.7255992,14.7821394 58.8912079,15.0986043 C59.0277827,15.2866162 59.2938374,15.3806222 59.689372,15.3806222 C59.9525537,15.3865445 60.2154141,15.358828 60.4715729,15.2981453 L60.4396463,17.8895181 C59.8553843,18.1044236 59.2370185,18.2116911 58.6145111,18.2061232 C56.4860735,18.2061232 55.4067782,16.9813847 55.3766254,14.5319077 L55.3766254,7.77943944 L53.915985,7.77943944 L53.915985,5.30779127 L55.3766254,5.30779127 L55.3766254,2.19229073 L58.6863458,2.19229073 Z M66.9925736,11.9671404 L66.9925736,17.9533712 L63.5551468,17.9533712 L63.5551468,0.925870358 L69.3551393,0.925870358 C71.0383787,0.925870358 72.3810681,1.44822442 73.3832075,2.49293254 C74.3853469,3.53764067 74.8864165,4.89363279 74.8864165,6.56090891 C74.8864165,8.22818504 74.3915548,9.5451558 73.4018313,10.5118212 C72.4121078,11.4784866 71.0401524,11.9618193 69.2859651,11.9618193 L66.9952341,11.9618193 L66.9925736,11.9671404 Z M66.9925736,9.1017313 L69.3551393,9.1017313 C69.9341606,9.13537873 70.495804,8.8973442 70.8743117,8.45787893 C71.2290513,8.02864401 71.4064211,7.40784971 71.4064211,6.59549602 C71.4432976,5.87832515 71.2503619,5.16809783 70.8556878,4.56815921 C70.5273224,4.07905493 69.9761689,3.78650424 69.3870659,3.78861893 L66.9925736,3.78861893 L66.9925736,9.10971294 L66.9925736,9.1017313 Z M75.7537549,11.2301689 C75.7537549,9.31280137 76.2060479,7.80515806 77.1106338,6.707239 C78.0152198,5.60931993 79.2665638,5.0639078 80.8646657,5.07100259 C82.4787308,5.07100259 83.7371696,5.61641473 84.6399819,6.707239 C85.5427941,7.79806327 85.9950871,9.31014082 85.9968608,11.2434716 L85.9968608,12.0416357 C85.9968608,13.9660981 85.5490021,15.4737414 84.6532846,16.5645657 C83.7575671,17.6553899 82.5026758,18.1972547 80.8886106,18.1901599 C79.2674506,18.1901599 78.0063513,17.6465214 77.1053127,16.5592446 C76.2042742,15.4719677 75.7537549,13.9643244 75.7537549,12.0363146 L75.7537549,11.2381505 L75.7537549,11.2301689 Z M79.0741175,12.0629201 C79.0741175,14.336801 79.6780617,15.4737414 80.88595,15.4737414 C81.9998324,15.4737414 82.6002292,14.5248129 82.6871404,12.6269561 L82.6871404,11.2275084 C82.6871404,10.0675099 82.5275075,9.20637948 82.2082419,8.64411722 C81.956381,8.12524451 81.4281063,7.79792137 80.8513629,7.80338436 C80.28736,7.80527337 79.7752313,8.13286987 79.5370527,8.64411722 C79.2213345,9.20460579 79.0634753,10.0657362 79.0634753,11.2275084 L79.0634753,12.0629201 L79.0741175,12.0629201 Z M93.9439147,8.50576877 L92.8451088,8.41264963 C91.9405228,8.41264963 91.328597,8.80995798 91.0093314,9.60457469 L91.0093314,17.9640134 L87.6889687,17.9640134 L87.6889687,5.30779127 L90.8097904,5.30779127 L90.9029095,6.67531243 C91.4243767,5.61109363 92.145385,5.07898423 93.0659342,5.07898423 C93.3772195,5.06776045 93.6875776,5.11933599 93.9785018,5.23063541 L93.9439147,8.50576877 Z M99.6028982,2.19229073 L99.6028982,5.30779127 L101.297667,5.30779127 L101.297667,7.77943944 L99.6028982,7.77943944 L99.6028982,14.0689726 C99.5710385,14.424727 99.6421515,14.7821394 99.8077603,15.0986043 C99.9443351,15.2866162 100.21039,15.3806222 100.605924,15.3806222 C100.869106,15.3865445 101.131967,15.358828 101.388125,15.2981453 L101.358859,17.8895181 C100.774597,18.1044236 100.156231,18.2116911 99.533724,18.2061232 C97.4052864,18.2061232 96.3259911,16.9813847 96.2958383,14.5319077 L96.2958383,7.77943944 L94.835198,7.77943944 L94.835198,5.30779127 L96.2958383,5.30779127 L96.2958383,2.19229073 L99.6055588,2.19229073 L99.6028982,2.19229073 Z M108.888207,17.9533712 C108.759103,17.63745 108.665412,17.3081926 108.60885,16.9716293 C108.063672,17.7582078 107.157678,18.2157098 106.201055,18.1874993 C105.212578,18.2140533 104.257535,17.8285665 103.564453,17.1232805 C102.856943,16.397035 102.478896,15.4119974 102.518858,14.3988804 C102.518858,13.073928 102.941885,12.0487305 103.787939,11.3232881 C104.633993,10.5978456 105.851636,10.2280295 107.44087,10.21384 L108.446556,10.21384 L108.446556,9.21347428 C108.446556,8.64411722 108.349003,8.24237462 108.153896,8.00824648 C107.938892,7.76534513 107.623544,7.63566937 107.299861,7.65705428 C106.473317,7.65705428 106.060046,8.14038699 106.060046,9.1070524 L102.750325,9.1070524 C102.725153,7.99244 103.208901,6.92701948 104.064636,6.21237726 C104.994113,5.43438369 106.179048,5.02866193 107.390319,5.07366314 C108.777351,5.07366314 109.851325,5.43372383 110.612242,6.15384522 C111.373158,6.87396661 111.753616,7.90448515 111.753616,9.24540084 L111.753616,15.1970445 C111.76958,16.2878688 111.925665,17.1410175 112.221873,17.7564907 L112.221873,17.9560317 L108.888207,17.9560317 L108.888207,17.9533712 Z M106.935366,15.5908054 C107.261567,15.6012584 107.58471,15.5250627 107.871878,15.36998 C108.104347,15.2436514 108.301114,15.0606128 108.443896,14.8378706 L108.443896,12.2065897 L107.645732,12.2065897 C107.145511,12.1789582 106.658631,12.3737099 106.315458,12.7386991 C105.97705,13.1395427 105.80392,13.6541758 105.831239,14.178055 C105.834786,15.123436 106.202828,15.5961265 106.935366,15.5961265 L106.935366,15.5908054 Z M117.205077,17.9533712 L113.884715,17.9533712 L113.884715,0 L117.205077,0 L117.205077,17.9586923 L117.205077,17.9533712 Z M119.463882,16.2692449 C119.448463,15.7773544 119.641747,15.301877 119.995991,14.9602558 C120.37025,14.6097555 120.869855,14.4246812 121.382136,14.4467702 C121.89106,14.4296521 122.386542,14.6119971 122.76296,14.9549347 C123.128954,15.2920882 123.330006,15.7718938 123.313693,16.2692449 C123.333043,16.7682451 123.129242,17.2499582 122.757639,17.5835552 C122.379873,17.9178222 121.889006,18.0957137 121.384797,18.0810774 C120.8792,18.0983929 120.386752,17.9180197 120.011954,17.5782341 C119.649895,17.243197 119.450925,16.7676107 119.466542,16.274566 L119.463882,16.2692449 Z M125.442131,2.02733682 C125.424761,1.55620867 125.602889,1.09885167 125.934332,0.76357699 C126.684599,0.109951806 127.802043,0.109951806 128.55231,0.76357699 C128.883753,1.09885167 129.061882,1.55620867 129.044511,2.02733682 C129.071292,2.68678651 128.735262,3.3080732 128.168708,3.64661037 C127.602153,3.98514754 126.895817,3.9867137 126.327767,3.65069228 C125.759717,3.31467086 125.420935,2.69488043 125.444791,2.03531846 L125.442131,2.02733682 Z M128.914145,17.9507106 L125.596442,17.9507106 L125.596442,5.30779127 L128.916805,5.30779127 L128.916805,17.9586923 L128.914145,17.9507106 Z M130.616895,11.2168662 C130.616895,9.29949863 131.069188,7.79185533 131.973774,6.69393626 C132.87836,5.5960172 134.129704,5.05060506 135.727805,5.05769986 C137.341871,5.05769986 138.600309,5.60311199 139.503122,6.69393626 C140.405934,7.78476054 140.858227,9.29683808 140.860001,11.2301689 L140.860001,12.028333 C140.860001,13.9527953 140.412142,15.4604386 139.516424,16.5512629 C138.620707,17.6420872 137.365816,18.1839519 135.75175,18.1768571 C134.13059,18.1768571 132.869491,17.6332187 131.968453,16.5459418 C131.067414,15.4586649 130.616895,13.9510216 130.616895,12.0230119 L130.616895,11.2248478 L130.616895,11.2168662 Z M133.937257,12.0496174 C133.937257,14.3234982 134.541201,15.4604386 135.74909,15.4604386 C136.862972,15.4604386 137.463369,14.5115102 137.55028,12.6136533 L137.55028,11.2142056 C137.55028,10.0542071 137.390647,9.19307675 137.071382,8.63081448 C136.819521,8.11194178 136.291246,7.78461864 135.714503,7.79008163 C135.1505,7.79197063 134.638371,8.11956714 134.400192,8.63081448 C134.084474,9.19130305 133.926615,10.0524334 133.926615,11.2142056 L133.926615,12.0496174 L133.937257,12.0496174 Z"/>
</svg>
