<svg width="48" height="40" viewBox="0 0 48 40" fill="none" xmlns="http://www.w3.org/2000/svg">
<path fill-rule="evenodd" clip-rule="evenodd" d="M31.9977 12.6851V12.2158C32.0029 12.1872 32.0019 12.1579 31.9949 12.1297C31.9879 12.1016 31.9749 12.0753 31.9569 12.0525C31.939 12.0325 31.9169 12.0166 31.8923 12.0061C31.8676 11.9955 31.8409 11.9904 31.814 11.9913H31.3243C26.9373 12.1545 23.1216 14.297 20.8159 17.6434L16.3472 19.6227C16.2346 19.6765 16.1411 19.7635 16.0793 19.8719C16.0175 19.9804 15.9903 20.1051 16.0014 20.2294C16.0126 20.3538 16.0614 20.4717 16.1414 20.5675C16.2215 20.6633 16.3289 20.7323 16.4493 20.7653L19.0407 21.4591C18.9795 21.6632 18.9182 21.8876 18.8774 22.1121L18.8366 22.3365C18.8308 22.3698 18.8334 22.404 18.8441 22.4361C18.8547 22.4681 18.8732 22.497 18.8978 22.5202L21.4892 25.1524C21.5269 25.1908 21.5782 25.2128 21.6321 25.2136H21.6729L21.8973 25.1524L22.5503 24.9891L23.2236 27.5601C23.2573 27.683 23.3285 27.7922 23.4273 27.8727C23.526 27.9532 23.6474 28.0008 23.7746 28.009H23.8358C23.9532 28.0071 24.0675 27.9714 24.1652 27.9063C24.2629 27.8412 24.3398 27.7494 24.3867 27.6417L26.3864 23.1731C29.7123 20.8878 31.8548 17.0721 31.9977 12.6851ZM24.5101 17.506C24.267 17.7483 24.1012 18.0573 24.0338 18.394C23.9664 18.7306 24.0004 19.0796 24.1315 19.3969C24.2625 19.7141 24.4848 19.9854 24.7702 20.1762C25.0555 20.3671 25.3911 20.4689 25.7344 20.4689C26.0777 20.4689 26.4133 20.3671 26.6986 20.1762C26.984 19.9854 27.2063 19.7141 27.3374 19.3969C27.4685 19.0796 27.5024 18.7306 27.435 18.394C27.3676 18.0573 27.2019 17.7483 26.9587 17.506C26.6336 17.182 26.1934 17.0001 25.7344 17.0001C25.2755 17.0001 24.8352 17.182 24.5101 17.506ZM18.1236 23.2732C18.1484 23.2518 18.178 23.2368 18.2099 23.2294C18.2432 23.2236 18.2774 23.2261 18.3095 23.2368C18.3415 23.2475 18.3704 23.266 18.3936 23.2906L20.7605 25.6575C20.783 25.681 20.7996 25.7094 20.8089 25.7406C20.8182 25.7717 20.8199 25.8046 20.814 25.8365C20.808 25.8685 20.7944 25.8985 20.7745 25.9242C20.7546 25.9498 20.7288 25.9703 20.6993 25.984L17.3325 27.5348L17.0673 27.596C16.9638 27.5959 16.862 27.5695 16.7715 27.5194C16.681 27.4693 16.6046 27.397 16.5496 27.3094C16.4946 27.2217 16.4627 27.1216 16.4568 27.0183C16.451 26.915 16.4715 26.8119 16.5163 26.7186L18.0671 23.3518C18.0793 23.3214 18.0987 23.2945 18.1236 23.2732Z" fill="#CFCFCF"/>
</svg>
