<svg width="48" height="40" viewBox="0 0 48 40" fill="none" xmlns="http://www.w3.org/2000/svg">
<path d="M15.3096 21.5732L17.4084 21.8612C17.556 22.3796 17.7612 22.8728 18.024 23.3408L16.7424 25.0328C16.6344 25.1768 16.6488 25.3784 16.7748 25.5044L18.4956 27.2252C18.6216 27.3512 18.8232 27.3656 18.9672 27.2576L20.6556 25.976C21.1236 26.2388 21.6204 26.444 22.1352 26.588L22.4268 28.6904C22.452 28.8668 22.6032 29 22.7832 29H25.2132C25.3932 29 25.548 28.8668 25.5696 28.6904L25.8612 26.588C26.376 26.444 26.8728 26.2388 27.3408 25.976L29.0292 27.2576C29.1732 27.3656 29.3748 27.3512 29.5008 27.2252L31.2216 25.5044C31.3512 25.3784 31.362 25.1768 31.254 25.0328L29.9724 23.3408C30.2352 22.8728 30.4404 22.3796 30.588 21.8612L32.6868 21.5732C32.8668 21.548 33 21.3968 33 21.2168V18.7832C33 18.6032 32.8668 18.452 32.6868 18.4268L30.588 18.1388C30.4404 17.6204 30.2352 17.1272 29.9724 16.6592L31.254 14.9672C31.362 14.8232 31.3512 14.6216 31.2216 14.4956L29.5008 12.7748C29.3748 12.6488 29.1732 12.6344 29.0292 12.7424L27.3408 14.024C26.8728 13.7612 26.376 13.556 25.8612 13.412L25.5696 11.3096C25.548 11.1332 25.3932 11 25.2132 11H22.7832C22.6032 11 22.452 11.1332 22.4268 11.3096L22.1352 13.412C21.6204 13.556 21.1236 13.7612 20.6556 14.024L18.9672 12.7424C18.8232 12.6344 18.6216 12.6488 18.4956 12.7748L16.7748 14.4956C16.6488 14.6216 16.6344 14.8232 16.7424 14.9672L18.024 16.6592C17.7612 17.1272 17.556 17.6204 17.4084 18.1388L15.3096 18.4268C15.1296 18.452 15 18.6032 15 18.7832V21.2168C15 21.3968 15.1296 21.548 15.3096 21.5732ZM24 15C27 15 29 17.5 29 20C29 22.5 27 25 24 25C21 25 19 22.5 19 20C19 17.5 21 15 24 15Z" fill="#CFCFCF"/>
</svg>
