<svg width="56" height="56" xmlns="http://www.w3.org/2000/svg">
    <g fill="none" fill-rule="evenodd">
        <rect stroke="#F5F5F5" stroke-width="2" x="16" y="15" width="24" height="24" rx="4"/>
        <g fill="#F5F5F5" fill-rule="nonzero">
            <path d="M27.238 27.483c-.151.376-.227.882-.227 1.517h1.705l.027-.415a1.88 1.88 0 0 1 .579-1.163l.54-.524c.421-.417.716-.796.885-1.136A2.46 2.46 0 0 0 31 24.667c0-.848-.26-1.504-.78-1.966-.519-.467-1.249-.701-2.19-.701-.932 0-1.67.245-2.21.735-.538.49-.811 1.167-.82 2.034h1.931c.01-.363.111-.647.307-.85.2-.21.463-.314.792-.314.693 0 1.039.384 1.039 1.15 0 .254-.067.497-.2.728-.133.227-.402.524-.806.891-.4.363-.675.733-.825 1.109zM27.278 30.288a.98.98 0 0 0-.278.719c0 .287.09.525.272.712.185.187.428.281.728.281s.541-.094.722-.281a.972.972 0 0 0 .278-.712.968.968 0 0 0-.284-.72A.951.951 0 0 0 28 30a.972.972 0 0 0-.722.288z"/>
        </g>
    </g>
</svg>
