<svg xmlns="http://www.w3.org/2000/svg" width="130" height="80" viewBox="0 0 130 80" xmlns:xlink="http://www.w3.org/1999/xlink">
  <defs>
    <rect id="a" width="66" height="59" x="64" y="11"/>
    <mask id="e" width="66" height="59" x="0" y="0" fill="white">
      <use xlink:href="#a"/>
    </mask>
    <rect id="b" width="66" height="59" y="11"/>
    <mask id="f" width="66" height="59" x="0" y="0" fill="white">
      <use xlink:href="#b"/>
    </mask>
    <rect id="c" width="90" height="70" x="20" y="4" rx="2"/>
    <filter id="g" width="200%" height="200%" x="-50%" y="-50%" filterUnits="objectBoundingBox">
      <feMorphology radius="1" operator="dilate" in="SourceAlpha" result="shadowSpreadOuter1"/>
      <feOffset dy="1" in="shadowSpreadOuter1" result="shadowOffsetOuter1"/>
      <feGaussianBlur stdDeviation="2" in="shadowOffsetOuter1" result="shadowBlurOuter1"/>
      <feComposite in="shadowBlurOuter1" in2="SourceAlpha" operator="out" result="shadowBlurOuter1"/>
      <feColorMatrix values="0 0 0 0 0 0 0 0 0 0 0 0 0 0 0 0 0 0 0.102694746 0" in="shadowBlurOuter1"/>
    </filter>
    <mask id="h" width="92" height="72" x="-1" y="-1">
      <rect width="92" height="72" x="19" y="3" fill="white"/>
      <use fill="black" xlink:href="#c"/>
    </mask>
    <rect id="d" width="66" height="30" x="32" y="32"/>
    <mask id="i" width="66" height="30" x="0" y="0" fill="white">
      <use xlink:href="#d"/>
    </mask>
  </defs>
  <g fill="none" fill-rule="evenodd">
    <use fill="#FFFFFF" stroke="#E9E9E9" stroke-width="4" mask="url(#e)" stroke-dasharray="5 5" xlink:href="#a"/>
    <use fill="#FFFFFF" stroke="#E9E9E9" stroke-width="4" mask="url(#f)" stroke-dasharray="5 5" xlink:href="#b"/>
    <use fill="black" filter="url(#g)" xlink:href="#c"/>
    <use fill="#FFFFFF" xlink:href="#c"/>
    <use stroke="#E9E9E9" stroke-opacity=".65" stroke-width="2" mask="url(#h)" xlink:href="#c"/>
    <path fill="#F7F7F7" d="M20,5.99406028 C20,4.8927712 20.8907616,4 22.0059646,4 L107.994035,4 C109.101899,4 110,4.89451376 110,5.99406028 L110,20 L20,20 L20,5.99406028 Z"/>
    <use fill="#F4F8E9" stroke="#E8F0CD" stroke-width="4" mask="url(#i)" stroke-dasharray="5 5" xlink:href="#d"/>
  </g>
</svg>
