<svg width="16" height="16" viewBox="0 0 16 16" fill="none" xmlns="http://www.w3.org/2000/svg">
<path fill-rule="evenodd" clip-rule="evenodd" d="M13 7C13 8.47663 12.4666 9.82867 11.5819 10.874L12.3288 11.6208C12.663 11.5307 13.0348 11.6168 13.2971 11.8792L14.7113 13.2934C15.1019 13.6839 15.1019 14.3171 14.7113 14.7076C14.3208 15.0981 13.6877 15.0981 13.2971 14.7076L11.8829 13.2934C11.622 13.0325 11.5354 12.6632 11.6231 12.3304L10.8743 11.5816C9.829 12.4665 8.47681 13 7 13C3.68629 13 1 10.3137 1 7C1 3.68629 3.68629 1 7 1C10.3137 1 13 3.68629 13 7ZM2.00071 7C2.00071 9.76103 4.23897 11.9993 7 11.9993C9.76103 11.9993 11.9993 9.76103 11.9993 7C11.9993 4.23897 9.76103 2.00071 7 2.00071C4.23897 2.00071 2.00071 4.23897 2.00071 7Z" fill="#CFCFCF"/>
</svg>
