<svg xmlns="http://www.w3.org/2000/svg" width="250" height="125" viewBox="0 0 250 125">
  <g fill="none" fill-rule="evenodd">
    <rect width="250" height="125"/>
    <g stroke="#F5F5F5" transform="translate(1 16)">
      <path d="M-2.84217094e-14 87.5L248 87.5M-2.84217094e-14 65.5L248 65.5M-2.84217094e-14 44.5L248 44.5M-2.84217094e-14 22.5L248 22.5M-2.84217094e-14.5L248 .5"/>
    </g>
    <g transform="translate(59 52)">
      <path fill="#999" d="M4.07958984,10.4594727 C5.20752517,10.4594727 6.09496747,10.7390109 6.74194336,11.2980957 C7.38891925,11.8571805 7.71240234,12.6225537 7.71240234,13.5942383 C7.71240234,14.7026423 7.35962267,15.5717742 6.65405273,16.2016602 C5.9484828,16.8315461 4.97559214,17.1464844 3.73535156,17.1464844 C2.52929084,17.1464844 1.60888989,16.9536152 0.974121094,16.5678711 L0.974121094,15.3959961 C1.31591968,15.6157238 1.74072012,15.7878412 2.24853516,15.9123535 C2.7563502,16.0368659 3.25683347,16.0991211 3.75,16.0991211 C4.6093793,16.0991211 5.27709723,15.8964864 5.75317383,15.4912109 C6.22925043,15.0859355 6.46728516,14.5000038 6.46728516,13.7333984 C6.46728516,12.2392503 5.55176697,11.4921875 3.72070312,11.4921875 C3.25683362,11.4921875 2.63672263,11.5629876 1.86035156,11.7045898 L1.23046875,11.3017578 L1.63330078,6.29199219 L6.95800781,6.29199219 L6.95800781,7.41259766 L2.67333984,7.41259766 L2.40234375,10.6279297 C2.96387,10.5156244 3.52294644,10.4594727 4.07958984,10.4594727 Z M16.40625,11.6313477 C16.40625,13.4819428 16.1145049,14.863765 15.5310059,15.7768555 C14.9475068,16.689946 14.0551818,17.1464844 12.8540039,17.1464844 C11.7016544,17.1464844 10.8251983,16.6789598 10.2246094,15.7438965 C9.62402043,14.8088332 9.32373047,13.4379973 9.32373047,11.6313477 C9.32373047,9.76610396 9.61425491,8.38184045 10.1953125,7.47851562 C10.7763701,6.5751908 11.6625917,6.12353516 12.8540039,6.12353516 C14.0161191,6.12353516 14.8986786,6.59472185 15.501709,7.53710938 C16.1047393,8.4794969 16.40625,9.84422935 16.40625,11.6313477 Z M10.5541992,11.6313477 C10.5541992,13.1889726 10.7373029,14.3229945 11.1035156,15.0334473 C11.4697284,15.7439 12.0532187,16.0991211 12.8540039,16.0991211 C13.6645548,16.0991211 14.2517072,15.7390173 14.6154785,15.0187988 C14.9792499,14.2985804 15.1611328,13.1694413 15.1611328,11.6313477 C15.1611328,10.093254 14.9792499,8.96655631 14.6154785,8.2512207 C14.2517072,7.5358851 13.6645548,7.17822266 12.8540039,7.17822266 C12.0532187,7.17822266 11.4697284,7.53100233 11.1035156,8.23657227 C10.7373029,8.9421422 10.5541992,10.0737227 10.5541992,11.6313477 Z"/>
      <path fill="#CCC" d="M27,4 L27,0 L21,0 L21,4 L27,4 Z M6,4 L6,0 L0,0 L0,4 L6,4 Z M13,4 L13,0 L7,0 L7,4 L13,4 Z M20,4 L20,0 L14,0 L14,4 L20,4 Z"/>
    </g>
    <g transform="translate(164 52)">
      <path fill="#999" d="M7.77099609,17 L0.732421875,17 L0.732421875,15.9526367 L3.55224609,13.1181641 C4.41162539,12.2490191 4.97802598,11.6289081 5.25146484,11.2578125 C5.52490371,10.8867169 5.72997979,10.5253924 5.86669922,10.1738281 C6.00341865,9.82226387 6.07177734,9.44384968 6.07177734,9.03857422 C6.07177734,8.4672823 5.89843923,8.01440597 5.55175781,7.67993164 C5.20507639,7.34545731 4.72412417,7.17822266 4.10888672,7.17822266 C3.66454856,7.17822266 3.24341019,7.25146411 2.84545898,7.39794922 C2.44750778,7.54443433 2.00439697,7.81054495 1.51611328,8.19628906 L0.871582031,7.36865234 C1.85791509,6.54833574 2.9321231,6.13818359 4.09423828,6.13818359 C5.10010269,6.13818359 5.88866902,6.39574938 6.45996094,6.91088867 C7.03125286,7.42602797 7.31689453,8.11815972 7.31689453,8.98730469 C7.31689453,9.66601902 7.12646675,10.337399 6.74560547,11.0014648 C6.36474419,11.6655307 5.65186069,12.505366 4.60693359,13.5209961 L2.26318359,15.8134766 L2.26318359,15.8720703 L7.77099609,15.8720703 L7.77099609,17 Z M16.40625,11.6313477 C16.40625,13.4819428 16.1145049,14.863765 15.5310059,15.7768555 C14.9475068,16.689946 14.0551818,17.1464844 12.8540039,17.1464844 C11.7016544,17.1464844 10.8251983,16.6789598 10.2246094,15.7438965 C9.62402043,14.8088332 9.32373047,13.4379973 9.32373047,11.6313477 C9.32373047,9.76610396 9.61425491,8.38184045 10.1953125,7.47851562 C10.7763701,6.5751908 11.6625917,6.12353516 12.8540039,6.12353516 C14.0161191,6.12353516 14.8986786,6.59472185 15.501709,7.53710938 C16.1047393,8.4794969 16.40625,9.84422935 16.40625,11.6313477 Z M10.5541992,11.6313477 C10.5541992,13.1889726 10.7373029,14.3229945 11.1035156,15.0334473 C11.4697284,15.7439 12.0532187,16.0991211 12.8540039,16.0991211 C13.6645548,16.0991211 14.2517072,15.7390173 14.6154785,15.0187988 C14.9792499,14.2985804 15.1611328,13.1694413 15.1611328,11.6313477 C15.1611328,10.093254 14.9792499,8.96655631 14.6154785,8.2512207 C14.2517072,7.5358851 13.6645548,7.17822266 12.8540039,7.17822266 C12.0532187,7.17822266 11.4697284,7.53100233 11.1035156,8.23657227 C10.7373029,8.9421422 10.5541992,10.0737227 10.5541992,11.6313477 Z"/>
      <path fill="#CCC" d="M27,4 L27,0 L21,0 L21,4 L27,4 Z M6,4 L6,0 L0,0 L0,4 L6,4 Z M13,4 L13,0 L7,0 L7,4 L13,4 Z M20,4 L20,0 L14,0 L14,4 L20,4 Z"/>
    </g>
    <g transform="translate(29 20)">
      <path fill="#D6E4AA" d="M43,0 C66.7482442,0 86,19.2517558 86,43 C86,66.7482442 67,85.9722807 43,86 C19.2517558,86 0,66.7482442 0,43 C0,19.2517558 19.2517558,0 43,0 Z M43,66 C55.7025492,66 66,55.7025492 66,43 C66,30.2974508 55.7025492,20 43,20 C30.2974508,20 20,30.2974508 20,43 C20,55.7025492 30.2974508,66 43,66 Z"/>
      <path fill="#B6E4E3" d="M43,66 C43,75.5008016 43,83.0234301 43,86 C67,85.9722807 86,66.7482442 86,43 C86,19.2517558 66.7482442,0 43,0 C43,4.22311414 43,11.4516846 43,20 C55.7025492,20 66,30.2974508 66,43 C66,55.7025492 55.7025492,66 43,66 Z"/>
      <path fill="#F09583" d="M42.9949566,65.9999995 C42.9943084,74.9568157 42.9959895,81.6049212 43,85.9443159 C55.0380153,85.9443159 65.9318101,81.0138319 73.7492243,73.0590818 C68.2420659,67.6755273 63.4746528,63.0151151 59.4469851,59.0778452 C55.2711335,63.3489676 49.4451576,66 43,66 C42.9983188,66 42.9966377,65.9999998 42.9949566,65.9999995 Z"/>
    </g>
    <g transform="matrix(-1 0 0 1 221 20)">
      <path fill="#B6E4E3" d="M43,0 C66.7482442,0 86,19.2517558 86,43 C86,66.7482442 67,85.9722807 43,86 C19.2517558,86 0,66.7482442 0,43 C0,19.2517558 19.2517558,0 43,0 Z M43,66 C55.7025492,66 66,55.7025492 66,43 C66,30.2974508 55.7025492,20 43,20 C30.2974508,20 20,30.2974508 20,43 C20,55.7025492 30.2974508,66 43,66 Z"/>
      <path fill="#6A949D" d="M43.9949566,65.9999995 C43.9943084,74.9568157 43.9959895,81.6049212 44,85.9443159 C56.0380153,85.9443159 66.9318101,81.0138319 74.7492243,73.0590818 C69.2420659,67.6755273 64.4746528,63.0151151 60.4469851,59.0778452 C56.2711335,63.3489676 50.4451576,66 44,66 C43.9983188,66 43.9966377,65.9999998 43.9949566,65.9999995 Z"/>
      <path fill="#BBD0CB" d="M59.9523812,46.9163719 C59.9516373,56.1127071 59.9533203,62.9196081 59.9574302,67.337075 C72.0915782,67.337075 83.072368,62.400198 90.9522102,54.4351333 C85.2990572,48.9455338 80.4192152,44.2068723 76.3126842,40.2191489 C72.1536227,44.3584479 66.4196994,46.9167648 60.0882491,46.9167648 C60.0429291,46.9167648 59.9976397,46.9166337 59.9523812,46.9163719 Z" transform="rotate(-45 75.452 53.778)"/>
      <path fill="#F9CC90" d="M58.2503308,22.0394596 C58.4091316,31.1371519 58.5266923,37.8721972 58.6030128,42.2445956 C70.7371607,42.2445956 80.9616139,36.9772165 88.841456,29.0121518 C83.4216581,23.7491561 78.7126462,19.1763824 74.7144203,15.2938307 C70.5514639,19.4617975 64.7974058,22.0402203 58.4411248,22.0402203 C58.377466,22.0402203 58.3138676,22.0399616 58.2503306,22.0394454 Z" transform="rotate(-89 73.591 28.77)"/>
    </g>
  </g>
</svg>
