<svg xmlns="http://www.w3.org/2000/svg" width="250" height="125" viewBox="0 0 250 125">
  <g fill="none" fill-rule="evenodd">
    <rect width="250" height="125"/>
    <g stroke="#F5F5F5" transform="translate(1 16)">
      <path d="M-2.84217094e-14 87.5L248 87.5M-2.84217094e-14 65.5L248 65.5M-2.84217094e-14 44.5L248 44.5M-2.84217094e-14 22.5L248 22.5M-2.84217094e-14.5L248 .5"/>
    </g>
    <g transform="translate(30 20)">
      <path fill="#CCC" d="M47 11L47 5 36 5 36 11 47 11zM83 11L83 5 72 5 72 11 83 11zM136 11L136 5 125 5 125 11 136 11zM148 11L148 5 137 5 137 11 148 11zM59 11L59 5 48 5 48 11 59 11zM71 11L71 5 60 5 60 11 71 11zM124 11L124 5 113 5 113 11 124 11zM11 11L11 5 0 5 0 11 11 11zM23 11L23 5 12 5 12 11 23 11zM35 11L35 5 24 5 24 11 35 11zM11 21L11 15 0 15 0 21 11 21zM23 21L23 15 12 15 12 21 23 21z"/>
      <circle cx="187" cy="11" r="7.5" stroke="#D6E4AA" stroke-width="7"/>
    </g>
    <g transform="translate(30 51)">
      <path fill="#CCC" d="M47 11L47 5 36 5 36 11 47 11zM83 11L83 5 72 5 72 11 83 11zM136 11L136 5 125 5 125 11 136 11zM148 11L148 5 137 5 137 11 148 11zM59 11L59 5 48 5 48 11 59 11zM71 11L71 5 60 5 60 11 71 11zM124 11L124 5 113 5 113 11 124 11zM11 11L11 5 0 5 0 11 11 11zM23 11L23 5 12 5 12 11 23 11zM35 11L35 5 24 5 24 11 35 11zM11 21L11 15 0 15 0 21 11 21zM23 21L23 15 12 15 12 21 23 21z"/>
      <circle cx="187" cy="11" r="7.5" stroke="#F7CC90" stroke-width="7"/>
    </g>
    <g transform="translate(30 82)">
      <path fill="#CCC" d="M47 11L47 5 36 5 36 11 47 11zM83 11L83 5 72 5 72 11 83 11zM136 11L136 5 125 5 125 11 136 11zM148 11L148 5 137 5 137 11 148 11zM59 11L59 5 48 5 48 11 59 11zM71 11L71 5 60 5 60 11 71 11zM124 11L124 5 113 5 113 11 124 11zM11 11L11 5 0 5 0 11 11 11zM23 11L23 5 12 5 12 11 23 11zM35 11L35 5 24 5 24 11 35 11zM11 21L11 15 0 15 0 21 11 21zM23 21L23 15 12 15 12 21 23 21z"/>
      <circle cx="187" cy="11" r="7.5" stroke="#B6E4E3" stroke-width="7"/>
    </g>
  </g>
</svg>
