<svg xmlns="http://www.w3.org/2000/svg" width="250" height="125" viewBox="0 0 250 125">
  <g fill="none" fill-rule="evenodd">
    <rect width="250" height="125"/>
    <g stroke="#F5F5F5" transform="translate(1 16)">
      <path d="M-2.84217094e-14 87.5L248 87.5M-2.84217094e-14 65.5L248 65.5M-2.84217094e-14 44.5L248 44.5M-2.84217094e-14 22.5L248 22.5M-2.84217094e-14.5L248 .5"/>
    </g>
    <g transform="translate(30 20)">
      <rect width="30" height="35" fill="#B6E4E3"/>
      <path fill="#CCC" d="M92 8L92 2 81 2 81 8 92 8zM128 8L128 2 117 2 117 8 128 8zM104 8L104 2 93 2 93 8 104 8zM140 8L140 2 129 2 129 8 140 8zM116 8L116 2 105 2 105 8 116 8zM152 8L152 2 141 2 141 8 152 8zM164 8L164 2 153 2 153 8 164 8zM176 8L176 2 165 2 165 8 176 8zM56 8L56 2 45 2 45 8 56 8zM68 8L68 2 57 2 57 8 68 8zM80 8L80 2 69 2 69 8 80 8zM92 18L92 12 81 12 81 18 92 18zM104 18L104 12 93 12 93 18 104 18zM56 18L56 12 45 12 45 18 56 18zM68 18L68 12 57 12 57 18 68 18zM80 18L80 12 69 12 69 18 80 18z"/>
      <path fill="#999" d="M51,22 C47.682,22 45,24.685 45,28 C45,31.315 47.682,34 51,34 C54.312,34 57,31.315 57,28 C57,24.685 54.312,22 51,22 Z M51.0195923,32.4924927 C48.5333423,32.4924927 46.5195923,30.4787427 46.5195923,27.9924927 C46.5195923,25.5062427 48.5333423,23.4924927 51.0195923,23.4924927 C53.5058423,23.4924927 55.5195923,25.5062427 55.5195923,27.9924927 C55.5195923,30.4787427 53.5058423,32.4924927 51.0195923,32.4924927 Z M51,25 L50,25 L50,28 L50,28.9890137 L54.0074463,28.9890137 L54.0074463,28 L51,28 L51,25 Z"/>
    </g>
    <g transform="translate(30 70)">
      <rect width="30" height="35" fill="#B6E4E3"/>
      <path fill="#CCC" d="M92 8L92 2 81 2 81 8 92 8zM128 8L128 2 117 2 117 8 128 8zM104 8L104 2 93 2 93 8 104 8zM140 8L140 2 129 2 129 8 140 8zM116 8L116 2 105 2 105 8 116 8zM152 8L152 2 141 2 141 8 152 8zM164 8L164 2 153 2 153 8 164 8zM176 8L176 2 165 2 165 8 176 8zM56 8L56 2 45 2 45 8 56 8zM68 8L68 2 57 2 57 8 68 8zM80 8L80 2 69 2 69 8 80 8zM92 18L92 12 81 12 81 18 92 18zM104 18L104 12 93 12 93 18 104 18zM56 18L56 12 45 12 45 18 56 18zM68 18L68 12 57 12 57 18 68 18zM80 18L80 12 69 12 69 18 80 18z"/>
      <path fill="#999" d="M51,22 C47.682,22 45,24.685 45,28 C45,31.315 47.682,34 51,34 C54.312,34 57,31.315 57,28 C57,24.685 54.312,22 51,22 Z M51.0195923,32.4924927 C48.5333423,32.4924927 46.5195923,30.4787427 46.5195923,27.9924927 C46.5195923,25.5062427 48.5333423,23.4924927 51.0195923,23.4924927 C53.5058423,23.4924927 55.5195923,25.5062427 55.5195923,27.9924927 C55.5195923,30.4787427 53.5058423,32.4924927 51.0195923,32.4924927 Z M51,25 L50,25 L50,28 L50,28.9890137 L54.0074463,28.9890137 L54.0074463,28 L51,28 L51,25 Z"/>
    </g>
  </g>
</svg>
