<svg width="17" height="16" viewBox="0 0 17 16" fill="none" xmlns="http://www.w3.org/2000/svg">
<path d="M2.74315 12.5027C0.261986 9.53548 0.653916 5.11687 3.61855 2.63351C6.58318 0.150148 10.9979 0.542427 13.479 3.50969C15.9602 6.47695 15.5683 10.8956 12.6036 13.3789C11.4131 14.3761 9.98747 14.91 8.54778 14.999C8.27385 15.016 8.03808 14.8074 8.02116 14.5333C8.00425 14.2591 8.21259 14.0231 8.48651 14.0062C9.7216 13.9299 10.9435 13.4724 11.9658 12.6161C14.5095 10.4853 14.8457 6.69408 12.7169 4.14811C10.588 1.60215 6.80011 1.26557 4.25641 3.39634C1.71429 5.52577 1.37684 9.3136 3.5013 11.8595L4.73596 10.6249L5.48244 14.6287L1.47864 13.8822L2.80015 12.5607C2.77992 12.5432 2.76084 12.5239 2.74315 12.5027Z" fill="#A2AAB5"/>
<path d="M7.1111 4.5C7.1111 4.22386 7.33496 4 7.6111 4C7.88724 4 8.1111 4.22386 8.1111 4.5V8.29285L9.96659 10.1483C10.1619 10.3436 10.1619 10.6602 9.96659 10.8554C9.77133 11.0507 9.45475 11.0507 9.25948 10.8554L7.27322 8.86918L7.26593 8.86174C7.17053 8.77069 7.1111 8.64229 7.1111 8.5V4.5Z" fill="#A2AAB5"/>
</svg>
