<svg width="17" height="16" viewBox="0 0 17 16" fill="none" xmlns="http://www.w3.org/2000/svg">
<path fill-rule="evenodd" clip-rule="evenodd" d="M8.3371 1.05156C8.47459 0.982814 8.63642 0.982814 8.77391 1.05156L15.2854 4.30737C15.4508 4.3901 15.5554 4.5592 15.5554 4.74419C15.5554 4.92917 15.4508 5.09827 15.2854 5.181L8.77391 8.43681C8.63642 8.50556 8.47459 8.50556 8.3371 8.43681L1.82561 5.181C1.66016 5.09827 1.55565 4.92917 1.55565 4.74419C1.55565 4.5592 1.66016 4.3901 1.82561 4.30737L8.3371 1.05156ZM3.13602 4.74419L8.5555 7.45398L13.975 4.74419L8.5555 2.03439L3.13602 4.74419Z" fill="#A2AAB5"/>
<path fill-rule="evenodd" clip-rule="evenodd" d="M1.60721 11.0374C1.72783 10.7962 2.02117 10.6984 2.26241 10.819L8.5555 13.9656L14.8486 10.819C15.0898 10.6984 15.3832 10.7962 15.5038 11.0374C15.6244 11.2787 15.5266 11.572 15.2854 11.6926L8.77391 14.9484C8.63642 15.0172 8.47459 15.0172 8.3371 14.9484L1.82561 11.6926C1.58437 11.572 1.48659 11.2787 1.60721 11.0374Z" fill="#A2AAB5"/>
<path fill-rule="evenodd" clip-rule="evenodd" d="M1.60721 7.77905C1.72783 7.5378 2.02117 7.44002 2.26241 7.56064L8.5555 10.7073L14.8486 7.56064C15.0898 7.44002 15.3832 7.5378 15.5038 7.77905C15.6244 8.0203 15.5266 8.31365 15.2854 8.43427L8.77391 11.6901C8.63642 11.7588 8.47459 11.7588 8.3371 11.6901L1.82561 8.43427C1.58437 8.31365 1.48659 8.0203 1.60721 7.77905Z" fill="#A2AAB5"/>
<path d="M11.8338 6.92022C11.5927 6.79925 11.4954 6.50575 11.6163 6.26468C11.7373 6.02362 12.0308 5.92627 12.2719 6.04725L15.2861 7.55998C15.5272 7.68096 15.6245 7.97446 15.5036 8.21552C15.3826 8.45659 15.0891 8.55394 14.848 8.43296L11.8338 6.92022Z" fill="#A2AAB5"/>
<path d="M1.82807 10.8097C1.58701 10.9307 1.48966 11.2242 1.61064 11.4653C1.73161 11.7064 2.0251 11.8037 2.26617 11.6827L5.28042 10.17C5.52148 10.049 5.61883 9.75551 5.49786 9.51445C5.37688 9.27338 5.08339 9.17603 4.84233 9.29701L1.82807 10.8097Z" fill="#A2AAB5"/>
<path d="M11.8338 10.17C11.5927 10.049 11.4954 9.75552 11.6163 9.51446C11.7373 9.27339 12.0308 9.17604 12.2719 9.29702L15.2861 10.8098C15.5272 10.9307 15.6245 11.2242 15.5036 11.4653C15.3826 11.7064 15.0891 11.8037 14.848 11.6827L11.8338 10.17Z" fill="#A2AAB5"/>
<path d="M1.82807 7.55997C1.58701 7.68095 1.48966 7.97445 1.61064 8.21551C1.73161 8.45658 2.0251 8.55393 2.26617 8.43295L5.28042 6.92022C5.52148 6.79924 5.61883 6.50574 5.49786 6.26467C5.37688 6.02361 5.08339 5.92626 4.84233 6.04724L1.82807 7.55997Z" fill="#A2AAB5"/>
</svg>
