<svg width="30" height="30" viewBox="0 0 30 30" fill="none" xmlns="http://www.w3.org/2000/svg">
<path d="M1.93555 17.8282L1.93555 22.0548C1.93555 22.3729 2.10468 22.6669 2.37924 22.8259L14.5564 29.8807C14.8309 30.0398 15.1692 30.0398 15.4438 29.8807L27.6209 22.8259C27.8954 22.6669 28.0646 22.3729 28.0646 22.0548V16.3726L15.0001 23.9685L7.25988 19.4842L7.25988 14.7436L1.93555 17.8282Z" fill="#00B0D1"/>
<path d="M15.0001 6.03151L22.7402 10.5158V15.3278L28.0646 12.2431V7.94523C28.0646 7.6271 27.8954 7.33313 27.6209 7.17407L15.4438 0.1193C15.1692 -0.0397666 14.8309 -0.0397666 14.5564 0.1193L2.37924 7.17407C2.10468 7.33313 1.93555 7.6271 1.93555 7.94523L1.93555 13.7259L15.0001 6.03151Z" fill="#00B0D1"/>
</svg>
