<?xml version="1.0" encoding="UTF-8"?>
<svg width="160px" height="156px" viewBox="0 0 160 156" version="1.1" xmlns="http://www.w3.org/2000/svg" xmlns:xlink="http://www.w3.org/1999/xlink">
    <title>Combined Shape</title>
    <defs>
        <linearGradient x1="50%" y1="0%" x2="50%" y2="104.171584%" id="linearGradient-1">
            <stop stop-color="#F9F9F9" offset="0%"></stop>
            <stop stop-color="#D3D3D3" offset="100%"></stop>
        </linearGradient>
    </defs>
    <g id="Widgets-&amp;-Quality-Gate-" stroke="none" stroke-width="1" fill="none" fill-rule="evenodd">
        <g id="Artboard" transform="translate(-287.000000, -153.000000)" fill="url(#linearGradient-1)" fill-rule="nonzero">
            <path d="M328,254 L381.67,307.67 C376.82954,308.550612 371.919909,308.995725 367,309.000124 C353.37536,309.023777 339.96371,305.619281 328,299.1 L328,299.1 L328,254 Z M433.05,275 C422.075245,290.552629 405.919956,301.687973 387.48,306.41 L387.48,306.41 L356.07,275 Z M323,220.07 L323,296.13 C307.260636,286.07743 295.631469,270.731469 290.21,252.86 L290.21,252.86 L323,220.07 Z M445.27,214.81 C449.365357,233.682643 446.148978,253.406194 436.27,270 L436.27,270 L390.07,270 Z M344,192 L323,213 L288.73,247.25 C284.61782,228.358321 287.834753,208.609926 297.73,192 L297.73,192 L344,192 Z M411,165.87 C426.756332,175.931387 438.39402,191.296966 443.81,209.19 L443.81,209.19 L411,242 Z M367,152.999876 C380.62464,152.976223 394.03629,156.380719 406,162.9 L406,162.9 L406,207 L353.18,154.18 C357.745328,153.399054 362.368361,153.004323 367,152.999876 Z M347.32,155.39 L378.93,187 L300.95,187 C312.089738,171.216993 328.557596,159.991007 347.32,155.39 L347.32,155.39 Z" id="Combined-Shape"></path>
        </g>
    </g>
</svg>
