<svg xmlns="http://www.w3.org/2000/svg" xmlns:xlink="http://www.w3.org/1999/xlink" viewBox="0 0 71.81 71.81"><defs><style>.cls-1{fill:#2684ff;}.cls-2{fill:url(#linear-gradient);}.cls-3{fill:url(#linear-gradient-2);}</style><linearGradient id="linear-gradient" x1="53.96" y1="56.71" x2="39.25" y2="41.54" gradientTransform="matrix(1, 0, 0, -1, 0, 74)" gradientUnits="userSpaceOnUse"><stop offset="0.18" stop-color="#0052cc"/><stop offset="1" stop-color="#2684ff"/></linearGradient><linearGradient id="linear-gradient-2" x1="37.83" y1="39.38" x2="20.82" y2="22.84" xlink:href="#linear-gradient"/></defs><title>Asset 1</title><g id="Layer_2" data-name="Layer 2"><g id="Layer_1-2" data-name="Layer 1"><path class="cls-1" d="M68.81,0H34.23A15.61,15.61,0,0,0,49.84,15.61h6.37v6.15a15.62,15.62,0,0,0,15.6,15.6V3A3,3,0,0,0,68.81,0Z"/><path class="cls-2" d="M51.7,17.23H17.12a15.62,15.62,0,0,0,15.6,15.6h6.37V39A15.61,15.61,0,0,0,54.7,54.59V20.23A3,3,0,0,0,51.7,17.23Z"/><path class="cls-3" d="M34.58,34.45H0A15.61,15.61,0,0,0,15.61,50.06H22v6.15a15.61,15.61,0,0,0,15.58,15.6V37.45A3,3,0,0,0,34.58,34.45Z"/></g></g></svg>