<?xml version="1.0" encoding="UTF-8"?>
<svg width="100" height="100" viewBox="0 0 100 100" fill="none" xmlns="http://www.w3.org/2000/svg">
<path d="M97.8572 56.2198C100.192 84.6664 73.4738 104.42 47.8298 96.0356C38.1372 92.8665 28.8321 88.3742 20.1904 82.6924C-2.85686 67.5394 -4.27682 32.8414 17.494 16.0634C24.0098 11.0419 30.9858 6.78084 38.2925 3.33056C59.8413 -6.84503 86.6977 7.35151 93.4518 31.575C95.6868 39.59 97.1701 47.8478 97.8572 56.2198Z" fill="url(#paint0_linear_28732_146)"/>
<path d="M76.8779 79.299C67.9856 93.8419 48.5666 96.7008 35.9907 85.3093C24.3087 74.7276 15.126 61.4319 9.30154 46.6706C2.98056 30.6509 12.4304 12.9481 29.0848 9.5925C42.3298 6.9238 55.887 7.04276 68.9182 9.79133C83.4907 12.865 93.0531 27.011 90.6526 41.9429C88.5376 55.0965 83.8967 67.8203 76.8779 79.299Z" fill="url(#paint1_linear_28732_146)"/>
<path d="M79.7975 69.8196C77.2756 78.1981 71.5678 84.6789 61.4581 82.6885C51.3486 80.6978 31.8894 71.6264 20.2772 57.9445C14.504 51.1423 15.023 40.8274 21.431 34.6846C32.9122 23.6792 47.1422 16.651 62.1427 14.1564C69.6533 12.9076 76.9396 17.3274 79.6655 24.7853C85.0456 39.506 83.7941 56.5418 79.7975 69.8196Z" fill="#33109F"/>
<defs>
<linearGradient id="paint0_linear_28732_146" x1="39.3308" y1="16.2008" x2="91.8426" y2="107.538" gradientUnits="userSpaceOnUse">
<stop stop-color="#5DEAF4" stop-opacity="0"/>
<stop offset="1" stop-color="#5DEAF4"/>
</linearGradient>
<linearGradient id="paint1_linear_28732_146" x1="-30.7856" y1="12.2027" x2="105.18" y2="105.416" gradientUnits="userSpaceOnUse">
<stop offset="0.182292" stop-color="#8146FF"/>
<stop offset="0.771826" stop-color="#7000FF" stop-opacity="0"/>
</linearGradient>
</defs>
</svg>
