<svg width="185" height="128" viewBox="0 0 185 128" fill="none" xmlns="http://www.w3.org/2000/svg">
<rect width="72.4172" height="5.8519" transform="matrix(-1 0 0 1 179.214 88.5099)" fill="#E4E8ED"/>
<rect width="49.7411" height="8.04636" transform="matrix(-1 0 0 1 156.538 81.9266)" fill="white"/>
<rect x="23.4075" y="39.5003" width="60.7134" height="0.731487" fill="#C1C7D0"/>
<rect x="9.50928" y="88.5099" width="72.4172" height="5.8519" fill="#E4E8ED"/>
<rect x="32.1855" y="81.9266" width="49.7411" height="8.04636" fill="white"/>
<ellipse cx="89.9729" cy="64.0051" rx="46.8152" ry="47.1809" fill="white"/>
<rect width="60.7134" height="0.731487" transform="matrix(-1 0 0 1 165.316 39.5003)" fill="#C1C7D0"/>
<rect x="90.4717" y="5" width="29.8438" height="1.46297" transform="rotate(90 90.4717 5)" fill="#C1C7D0"/>
<rect x="72.4084" y="18" width="16.6758" height="1.46297" transform="rotate(74.3223 72.4084 18)" fill="#C1C7D0"/>
<rect width="16.6758" height="1.46297" transform="matrix(-0.390767 0.92049 0.92049 0.390767 108.516 18)" fill="#C1C7D0"/>
<rect width="31" height="1.46297" transform="matrix(1.19249e-08 -1 -1 -1.19249e-08 86.4626 123.844)" fill="#C1C7D0"/>
<rect width="16.6758" height="1.46297" transform="matrix(0.332148 -0.943227 -0.943227 -0.332148 68.3799 109.215)" fill="#C1C7D0"/>
<rect x="103.061" y="109.067" width="16.6758" height="1.46297" transform="rotate(-111.312 103.061 109.067)" fill="#C1C7D0"/>
<path d="M140.783 69.9336L141.621 65.5667L170.152 72.3709L169.149 75.3795L169.06 75.3604L140.783 69.9336Z" fill="#C1C7D0"/>
<path d="M122.78 84.4091L110.473 82.9765C105.801 82.4326 102.453 78.2025 102.997 73.5307L105.57 51.433C106.114 46.7613 110.344 43.4133 115.016 43.9571L127.322 45.3898C137.397 46.5626 144.622 55.6916 143.449 65.7664L143.156 68.282C141.984 78.3567 132.855 85.5819 122.78 84.4091Z" fill="#C1C7D0"/>
<path d="M112.322 83.1992C112.322 83.1992 117.616 77.5692 119.228 62.1519C120.409 50.8411 116.702 44.1639 116.702 44.1639L115.21 43.9925C115.21 43.9925 117.699 60.3937 116.105 64.2084C114.512 68.023 111.662 83.123 111.662 83.123L112.316 83.1992H112.322Z" fill="#E3E7EC"/>
<path d="M102.027 62.5644C103.665 48.5117 105.106 36.1283 112.659 38.0134C116.797 39.048 119 50.2953 117.369 64.3543C115.731 78.407 110.977 88.4356 106.737 88.9053C99.514 89.7051 100.396 76.6235 102.027 62.5644Z" fill="#C1C7D0"/>
<path d="M113.899 63.9515C115.535 49.8984 113.965 38.1689 110.393 37.753C106.82 37.3371 102.598 48.3923 100.962 62.4455C99.3262 76.4986 100.896 88.2281 104.469 88.644C108.041 89.0599 112.263 78.0047 113.899 63.9515Z" fill="#E3E7EC"/>
<path d="M108.927 55.7095C108.66 58.0135 107.848 59.8161 107.118 59.7272C106.388 59.6447 106.013 57.7025 106.28 55.3984C106.547 53.0944 107.359 51.2918 108.089 51.3807C108.819 51.4632 109.193 53.4054 108.927 55.7095Z" fill="#8D95A1"/>
<path d="M107.435 71.1712C107.169 73.4753 106.356 75.2779 105.626 75.189C104.896 75.1002 104.522 73.1643 104.789 70.8602C105.055 68.5562 105.868 66.7536 106.597 66.8424C107.327 66.925 107.702 68.8672 107.435 71.1712Z" fill="#8D95A1"/>
<path d="M141.437 71.5013L150.063 72.5105L151.231 67.0456L143.354 64.6019L141.437 71.5013Z" fill="#C1C7D0"/>
<path d="M43.9985 68.6661L43.0289 64.1852C31.1817 66.7555 7.99995 73.586 7.99995 73.586L8.92332 76.7371C8.92332 76.7371 24.3649 72.9243 43.9985 68.6661Z" fill="#C1C7D0"/>
<path d="M45.2198 45.7511L57.7978 43.4449C62.5726 42.5694 67.1553 45.732 68.0308 50.5067L72.1718 73.0917C73.0473 77.8665 69.8847 82.4492 65.11 83.3247L52.5319 85.6309C42.235 87.5189 32.3452 80.6938 30.4572 70.3969L29.9858 67.8258C28.0978 57.5289 34.9228 47.6391 45.2198 45.7511Z" fill="#C1C7D0"/>
<path d="M55.9078 43.772C55.9078 43.772 52.3898 50.9324 55.4557 66.6288C57.7093 78.1455 63.3825 83.6157 63.3825 83.6157L64.9089 83.334C64.9089 83.334 57.4997 67.8997 57.9124 63.6546C58.3317 59.4095 56.576 43.641 56.576 43.641L55.9078 43.7655V43.772Z" fill="#E3E7EC"/>
<path d="M72.3051 61.021C74.9386 75.381 77.2643 88.0442 69.2392 88.4635C64.8434 88.6928 59.2619 78.2569 56.6284 63.8969C53.9949 49.537 55.6588 38.1971 59.6943 36.4545C66.5795 33.4803 69.6716 46.6611 72.3051 61.021Z" fill="#C1C7D0"/>
<path d="M73.3991 60.8245C76.0326 75.1844 75.2071 87.376 71.5582 88.0442C67.9027 88.7124 62.806 77.6149 60.1724 63.2484C57.5389 48.8884 58.3643 36.6969 62.0133 36.0287C65.6688 35.3605 70.7655 46.458 73.3991 60.8245Z" fill="#E3E7EC"/>
<path d="M85.5119 52.9108L65.315 56.6121C65.2757 56.6187 65.2298 56.599 65.2036 56.5663C63.6903 54.5223 63.3169 52.4981 64.0899 50.4934C64.103 50.4607 64.1358 50.4279 64.1751 50.4214L84.3786 46.7135C86.0884 46.399 87.7262 47.5323 88.0406 49.2422C88.3551 50.952 87.2218 52.5898 85.5119 52.9042V52.9108Z" fill="#8D95A1"/>
<path d="M88.5713 69.5898L68.3089 73.3043C66.8938 71.3979 66.2911 69.3737 67.1755 67.1201L87.438 63.4056C89.1478 63.0912 90.7856 64.2245 91.1001 65.9343C91.4145 67.6442 90.2812 69.282 88.5713 69.5964V69.5898Z" fill="#8D95A1"/>
<path d="M21.8354 68.0765L23.316 73.8415L31.3738 72.6623L31.4 65.7575L21.8354 68.0765Z" fill="#C1C7D0"/>
</svg>
