<svg width="16" height="16" viewBox="0 0 16 16" fill="none" xmlns="http://www.w3.org/2000/svg">
    <g clip-path="url(#clip0_21309_5618)">
        <path d="M6.90977 7.95628H5.30443L6.4351 4.63361H9.1711L10.3028 1.31201H5.21377C4.4831 1.31201 3.83457 1.76961 3.60417 2.44801L1.34177 9.09228C1.16897 9.59894 1.25644 10.1557 1.57537 10.5888C1.8943 11.0219 2.4063 11.2789 2.95244 11.2789H6.91084L8.0415 7.95628H6.90977Z" fill="#999999"/>
        <path d="M14.5068 5.3249C14.1878 4.89183 13.6758 4.63477 13.1297 4.63477H9.1713L8.04063 7.95743H10.7766L9.64596 11.2801H6.90996L5.7793 14.6028H10.8684C11.599 14.6028 12.2465 14.1452 12.478 13.4668L14.7393 6.8225C14.9121 6.31583 14.8246 5.75903 14.5057 5.32597L14.5068 5.3249Z" fill="#999999"/>
    </g>
    <defs>
        <clipPath id="clip0_21309_5618">
            <rect width="16" height="16" fill="white"/>
        </clipPath>
    </defs>
</svg>
