<svg xmlns="http://www.w3.org/2000/svg" width="106" height="48" viewBox="0 0 56 32"  preserveAspectRatio="xMidYMid meet">
    <g fill="none" fill-rule="evenodd" transform="translate(-2 -2)">
        <rect width="52.096" height="23.713" x="4.257" y="6.144" fill="#F9F9F9" stroke="#CCC" rx="1" transform="rotate(7 30.305 18)"/>
        <rect width="52.096" height="23.713" fill="#F9F9F9" stroke="#CCC" rx="1" transform="rotate(-7 78.401 -19.876)"/>
        <g fill="#BDC7CC" fill-rule="nonzero">
            <path d="M25.184 20.993l-1.98.279-.557-3.961 1.98-.279.557 3.961zM26.33 14.773l-1.98.279.556 3.96 1.98-.277z"/>
            <path d="M22.369 15.33l-1.98.279.556 3.96 1.98-.278zM16.984 20.126l-.557-3.96 1.98-.28.557 3.962zM20.666 17.59l-1.98.277.557 3.961 1.98-.278zM29.145 20.437l-1.98.278-.557-3.961 1.98-.278zM30.29 14.217l-1.98.278.557 3.961 1.98-.278zM33.106 19.88l-1.98.278-.557-3.96 1.98-.279.557 3.961zM34.252 13.66l-1.98.278.556 3.962 1.98-.279zM43.38 22.389l1.793-4.303-3.457-.545-1.33 3.093 2.994 1.755zm-5.027-7.253l7.777 1.325s1.03.131.896 1.155c-.135 1.022-1.931 5.675-2.595 6.466-.782.929-1.833.174-1.833.174s-5.404-3.61-6.12-4.068c-.717-.46-.567-1.248-.567-1.248l1.275-2.912s.135-1.023 1.167-.892z"/>
            <path d="M36.127 19.456l-2.165-.675 1.37-4.263 2.165.675z"/>
        </g>
    </g>
</svg>
