<svg xmlns="http://www.w3.org/2000/svg" width="106" height="48"  viewBox="0 0 61 36" preserveAspectRatio="xMidYMid meet">
  <g fill="none" fill-rule="evenodd">
    <rect width="52.096" height="23.713" x="4.257" y="6.144" fill="#F9F9F9" stroke="#CCCCCC" transform="rotate(7 30.305 18)" rx="1"/>
    <rect width="52.096" height="23.713" fill="#F9F9F9" stroke="#CCCCCC" rx="1" transform="rotate(-7 78.401 -19.876)"/>
    <path fill="#BDC7CC" d="M23.6914772,14.6707387 C23.1201853,14.6707387 22.6697503,15.0052081 22.3401589,15.6741567 C22.0105674,16.3431054 21.8457741,17.2732718 21.8457741,18.4646841 C21.8457741,20.9451652 22.4927403,22.1853872 23.7866921,22.1853872 C24.3531011,22.1853872 24.9463569,22.0047249 25.5664772,21.643395 L25.5664772,23.4158559 C25.0440137,23.7625374 24.375075,23.9358755 23.5596413,23.9358755 C22.3535806,23.9358755 21.4270762,23.4561439 20.7801003,22.4966665 C20.1331244,21.537189 19.8096413,20.1883256 19.8096413,18.4500356 C19.8096413,16.7117457 20.1428899,15.3567788 20.8093971,14.3850942 C21.4759044,13.4134097 22.4024088,12.9275747 23.5889382,12.9275747 C23.9795651,12.9275747 24.3543172,12.9812851 24.7132057,13.0887075 C25.0720942,13.1961299 25.4566119,13.3841163 25.8667702,13.6526723 L25.2075905,15.2713247 C24.9878628,15.1199567 24.7534902,14.9820187 24.5044655,14.8575063 C24.2554408,14.732994 23.9844474,14.6707387 23.6914772,14.6707387 Z M31.9605202,20.8377309 C31.9605202,21.8387125 31.7078372,22.6053064 31.2024635,23.1375356 C30.6970899,23.6697648 29.9683374,23.9358755 29.0161842,23.9358755 C28.0835624,23.9358755 27.2901133,23.7527718 26.6358132,23.3865591 L26.6358132,21.4163442 C27.4365984,21.9388078 28.1714543,22.2000356 28.840403,22.2000356 C29.2212643,22.2000356 29.5081266,22.0950562 29.7009987,21.8850942 C29.8938708,21.6751322 29.9903053,21.3894905 29.9903053,21.0281606 C29.9903053,20.6717135 29.8755604,20.345789 29.6460671,20.0503774 C29.4165737,19.7549658 29.0381595,19.4265999 28.5108132,19.06527 C28.0518265,18.7478856 27.7039296,18.4439336 27.467112,18.1534048 C27.2302944,17.862876 27.0471908,17.5369515 26.9177956,17.1756216 C26.7884004,16.8142916 26.7237038,16.3943739 26.7237038,15.9158559 C26.7237038,14.9978826 26.9788282,14.2703508 27.4890846,13.7332387 C27.9993411,13.1961267 28.6841487,12.9275747 29.543528,12.9275747 C30.3638446,12.9275747 31.1524109,13.1570646 31.9092507,13.6160512 L31.250071,15.2127309 C31.0156948,15.0760115 30.7703359,14.9539424 30.513987,14.84652 C30.257638,14.7390976 29.9829826,14.6853872 29.6900124,14.6853872 C29.3677451,14.6853872 29.1199449,14.7915873 28.9466042,15.0039907 C28.7732635,15.2163941 28.6865944,15.5056978 28.6865944,15.8719106 C28.6865944,16.2332405 28.7903531,16.5481788 28.9978737,16.8167348 C29.2053943,17.0852909 29.5679395,17.3904636 30.0855202,17.7322622 C30.7837659,18.2010145 31.2708215,18.6795254 31.5467018,19.1678091 C31.8225821,19.6560927 31.9605202,20.2127278 31.9605202,20.8377309 Z M37.8858132,13.0813833 L39.8926491,13.0813833 L37.3731178,23.7893911 L34.8389382,23.7893911 L32.3340553,13.0813833 L34.3408913,13.0813833 L35.7398171,19.6219106 C35.8667708,20.178554 35.9912813,20.9768859 36.1133522,22.0169301 C36.2158918,21.1331367 36.345285,20.3348048 36.5015358,19.6219106 L37.8858132,13.0813833 Z" transform="rotate(-7 29.851 18.432)"/>
  </g>
</svg>
