<svg xmlns="http://www.w3.org/2000/svg" width="106" height="48"  viewBox="0 0 61 36" preserveAspectRatio="xMidYMid meet">
  <g fill="none" fill-rule="evenodd">
    <rect width="52.096" height="23.713" x="4.257" y="6.144" fill="#F9F9F9" stroke="#CCCCCC" transform="rotate(7 30.305 18)" rx="1"/>
    <rect width="52.096" height="23.713" fill="#F9F9F9" stroke="#CCCCCC" rx="1" transform="rotate(-7 78.401 -19.876)"/>
    <path fill="#BDC7CC" d="M12.9834694,22.2586294 L7.81989519,19.06527 L7.81989519,17.9226919 L12.9834694,14.7439809 L12.9834694,16.3919301 L9.41657487,18.4939809 L12.9834694,20.6106801 L12.9834694,22.2586294 Z M21.3257546,23.7893911 L19.3335671,23.7893911 L19.3335671,19.0945669 L16.7041725,19.0945669 L16.7041725,23.7893911 L14.711985,23.7893911 L14.711985,13.0813833 L16.7041725,13.0813833 L16.7041725,17.3367544 L19.3335671,17.3367544 L19.3335671,13.0813833 L21.3257546,13.0813833 L21.3257546,23.7893911 Z M26.5039772,23.7893911 L24.5191139,23.7893911 L24.5191139,14.8318716 L22.4683327,14.8318716 L22.4683327,13.0813833 L28.5547585,13.0813833 L28.5547585,14.8318716 L26.5039772,14.8318716 L26.5039772,23.7893911 Z M33.5205788,23.7893911 L31.484446,14.6707387 L31.4038796,14.6707387 C31.4966535,15.3738673 31.5430397,16.0183921 31.5430397,16.6043325 L31.5430397,23.7893911 L29.6973366,23.7893911 L29.6973366,13.0813833 L32.75886,13.0813833 L34.5899147,21.4969106 L34.6485085,21.4969106 L36.4649147,13.0813833 L39.5703835,13.0813833 L39.5703835,23.7893911 L37.680735,23.7893911 L37.680735,16.5310903 C37.680735,15.9305014 37.7149144,15.3152731 37.7832741,14.6853872 L37.7246803,14.6853872 L35.6958717,23.7893911 L33.5205788,23.7893911 Z M41.4600319,23.7893911 L41.4600319,13.0813833 L43.4522194,13.0813833 L43.4522194,22.046227 L46.2134499,22.046227 L46.2134499,23.7893911 L41.4600319,23.7893911 Z M47.3194069,20.6106801 L50.9082741,18.4939809 L47.3194069,16.3919301 L47.3194069,14.7439809 L52.4829811,17.9226919 L52.4829811,19.06527 L47.3194069,22.2586294 L47.3194069,20.6106801 Z" transform="rotate(-7 30.151 18.435)"/>
  </g>
</svg>
