<svg xmlns="http://www.w3.org/2000/svg" width="106" height="48"  viewBox="0 0 61 36" preserveAspectRatio="xMidYMid meet">
  <g fill="none" fill-rule="evenodd">
    <rect width="52.096" height="23.713" x="4.257" y="6.144" fill="#F9F9F9" stroke="#CCCCCC" transform="rotate(7 30.305 18)" rx="1"/>
    <rect width="52.096" height="23.713" fill="#F9F9F9" stroke="#CCCCCC" rx="1" transform="rotate(-7 78.401 -19.876)"/>
    <path fill="#BDC7CC" d="M25.4747062,15.9757843 C25.4747062,17.1134853 25.1878439,17.9862793 24.6141105,18.5941925 C24.0403772,19.2021057 23.2115281,19.5060577 22.1275383,19.5060577 L21.6294914,19.5060577 L21.6294914,23.3878936 L19.6373039,23.3878936 L19.6373039,12.6798858 L22.3545891,12.6798858 C24.4346776,12.6798858 25.4747062,13.7785077 25.4747062,15.9757843 Z M21.6294914,17.7775421 L22.0103508,17.7775421 C22.4986345,17.7775421 22.8624004,17.6432661 23.1016594,17.37471 C23.3409184,17.106154 23.4605461,16.6667053 23.4605461,16.0563507 C23.4605461,15.4948244 23.3506839,15.0785688 23.1309562,14.8075714 C22.9112286,14.5365739 22.5718765,14.4010772 22.1128898,14.4010772 L21.6294914,14.4010772 L21.6294914,17.7775421 Z M33.436132,23.3878936 L31.4439445,23.3878936 L31.4439445,18.6930694 L28.81455,18.6930694 L28.81455,23.3878936 L26.8223625,23.3878936 L26.8223625,12.6798858 L28.81455,12.6798858 L28.81455,16.9352569 L31.4439445,16.9352569 L31.4439445,12.6798858 L33.436132,12.6798858 L33.436132,23.3878936 Z M41.1631828,15.9757843 C41.1631828,17.1134853 40.8763204,17.9862793 40.3025871,18.5941925 C39.7288538,19.2021057 38.9000046,19.5060577 37.8160148,19.5060577 L37.317968,19.5060577 L37.317968,23.3878936 L35.3257805,23.3878936 L35.3257805,12.6798858 L38.0430656,12.6798858 C40.1231541,12.6798858 41.1631828,13.7785077 41.1631828,15.9757843 Z M37.317968,17.7775421 L37.6988273,17.7775421 C38.187111,17.7775421 38.5508769,17.6432661 38.7901359,17.37471 C39.0293949,17.106154 39.1490226,16.6667053 39.1490226,16.0563507 C39.1490226,15.4948244 39.0391605,15.0785688 38.8194328,14.8075714 C38.5997051,14.5365739 38.2603531,14.4010772 37.8013664,14.4010772 L37.317968,14.4010772 L37.317968,17.7775421 Z" transform="rotate(-7 30.4 18.034)"/>
  </g>
</svg>
