<svg width="16" height="16" viewBox="0 0 16 16" fill="#C1C7D0" xmlns="http://www.w3.org/2000/svg">
    <path fill-rule="evenodd" clip-rule="evenodd" d="M8.00117 2.62046C7.63142 2.6189 7.33294 2.91738 7.3345 3.28712L7.35159 7.35159L3.28712 7.3345C2.91738 7.33295 2.6189 7.63142 2.62045 8.00117C2.62201 8.37091 2.92301 8.67191 3.29275 8.67346L7.35722 8.69056L7.37391 12.6599C7.37547 13.0296 7.67647 13.3306 8.04621 13.3322C8.41596 13.3337 8.71443 13.0352 8.71288 12.6655L8.69619 8.69619L12.6655 8.71288C13.0352 8.71444 13.3337 8.41596 13.3322 8.04621C13.3306 7.67647 13.0296 7.37547 12.6599 7.37392L8.69056 7.35722L8.67346 3.29275C8.67191 2.92301 8.37091 2.62201 8.00117 2.62046Z" />
</svg>
