<svg xmlns="http://www.w3.org/2000/svg" width="16" height="16" viewBox="0 0 16 16">
    <path fill="#a3c644" fill-rule="evenodd" d="M14.107 8.78c.033-.256.058-.516.058-.78s-.025-.524-.058-.78l1.74-1.324a.392.392 0 0 0 .098-.512L14.3 2.612c-.102-.172-.316-.244-.501-.172l-2.048.804a6.282 6.282 0 0 0-1.39-.788l-.307-2.12A.42.42 0 0 0 9.642 0H6.353a.412.412 0 0 0-.407.336l-.308 2.12a6.126 6.126 0 0 0-1.39.788L2.202 2.44a.417.417 0 0 0-.501.172L.055 5.384a.393.393 0 0 0 .099.512L1.889 7.22A6.113 6.113 0 0 0 1.83 8c0 .264.025.524.058.78L.154 10.104a.392.392 0 0 0-.099.512L1.7 13.388a.412.412 0 0 0 .501.172l2.048-.804c.423.316.888.584 1.39.788l.307 2.12a.412.412 0 0 0 .407.336h3.29a.412.412 0 0 0 .406-.336l.309-2.12a6.126 6.126 0 0 0 1.39-.788l2.047.804c.185.068.398 0 .501-.172l1.645-2.772a.393.393 0 0 0-.099-.512L14.107 8.78zm-6.11 2.02C6.408 10.8 5.12 9.548 5.12 8c0-1.548 1.287-2.8 2.878-2.8 1.591 0 2.878 1.252 2.878 2.8 0 1.548-1.287 2.8-2.878 2.8z"/>
</svg>
