<?xml version="1.0" encoding="UTF-8"?>
<svg width="27px" height="28px" viewBox="0 0 27 28" version="1.1" xmlns="http://www.w3.org/2000/svg" xmlns:xlink="http://www.w3.org/1999/xlink">
    <!-- Generator: Sketch 52.5 (67469) - http://www.bohemiancoding.com/sketch -->
    <title>fireworks copy 3</title>
    <desc>Created with Sketch.</desc>
    <g id="plugin" stroke="none" stroke-width="1" fill="none" fill-rule="evenodd">
        <g id="2_Settings_General_MG-Copy" transform="translate(-290.000000, -172.000000)">
            <g id="fireworks-copy-3" transform="translate(303.500000, 186.000000) scale(-1, 1) translate(-303.500000, -186.000000) translate(290.000000, 172.000000)">
                <path d="M26.4541572,23.1301856 C26.3237026,23.1301856 26.1985336,23.0786026 26.1062785,22.9868996 C25.9044704,22.7941798 25.625783,22.7027156 25.3480567,22.7380595 C24.8187909,22.7707765 24.3008168,22.5759075 23.9257901,22.203125 C23.5507635,21.8301037 23.3549616,21.3152293 23.3878755,20.7888919 C23.4296786,20.5128275 23.3371832,20.2331809 23.1384984,20.035685 C22.9398135,19.8379504 22.6587236,19.7457697 22.380757,19.7873226 C21.8519718,19.820756 21.334238,19.6263646 20.9594515,19.2540598 C20.5846651,18.8815161 20.3891034,18.3668805 20.4224979,17.8412595 C20.4580545,17.5659116 20.3662799,17.2893696 20.1731207,17.0890079 C20.0450687,16.9662595 19.993896,16.7845251 20.0388222,16.6132983 C20.0839888,16.4423103 20.2182873,16.3088155 20.3903047,16.264158 C20.562322,16.2192617 20.7451505,16.2703671 20.8686379,16.397414 C21.2407816,16.7716294 21.4358628,17.285071 21.4055915,17.8104531 C21.3647494,18.0860399 21.457485,18.3644924 21.6556894,18.5615106 C21.8538938,18.7582901 22.1340226,18.8504708 22.4112685,18.8096343 C22.940294,18.7766785 23.4582681,18.9713087 23.8332948,19.3438523 C24.2083215,19.716396 24.4043636,20.2312705 24.3714497,20.7571302 C24.3291661,21.0339111 24.4214212,21.3140352 24.6203463,21.5120087 C24.8195117,21.7099822 25.1013222,21.802163 25.3797694,21.7603712 C25.9085546,21.7309975 26.4250872,21.9253889 26.8020359,22.2953057 C26.942821,22.4352483 26.9848644,22.64564 26.9087059,22.8283297 C26.8325474,23.0110194 26.6533225,23.1301856 26.4541572,23.1301856 Z" id="Path" fill="#777777"></path>
                <polygon id="Path" fill="#777777" points="5.01805419 11.185146 11.2817928 4.9591294 12.5118611 6.18183682 6.24836276 12.4078534"></polygon>
                <polygon id="Path" fill="#777777" points="6.24812252 12.4078534 12.5116209 6.18183682 13.7416892 7.40454424 7.47819086 13.6305608"></polygon>
                <polygon id="Path" fill="#999999" points="7.47843109 13.6305608 13.7419295 7.40454424 14.9719978 8.62725167 8.70849943 14.8532683"></polygon>
                <polygon id="Path" fill="#999999" points="3.04033494 9.21926172 9.30383332 2.99324512 11.2817928 4.95936819 5.01829442 11.1853849"></polygon>
                <polygon id="Path" fill="#999999" points="12.3987044 18.5213905 18.6622028 12.2953739 19.8925114 13.5180814 13.629013 19.744098"></polygon>
                <path d="M21.1369946,14.7536845 L19.8920309,13.5183202 L13.6285325,19.7443368 L14.871334,20.9816116 C15.2557304,21.3634689 15.8786927,21.3634689 16.2628488,20.9816116 L17.3778385,19.8713837 L20.1750427,17.0909184 L21.1369946,16.1368723 C21.5211507,15.7547762 21.5211507,15.1355418 21.1369946,14.7536845 Z" id="Path" fill="#999999"></path>
                <polygon id="Path" fill="#999999" points="8.7082592 14.8532683 14.9717576 8.62725167 16.2018259 9.84995909 9.93832754 16.0759757"></polygon>
                <polygon id="Path" fill="#777777" points="11.1683959 17.2986831 17.4318943 11.0726665 18.6622028 12.2953739 12.3984642 18.5213905"></polygon>
                <polygon id="Path" fill="#777777" points="9.93856777 16.0759757 16.2020661 9.84995909 17.4323747 11.0726665 11.1686361 17.2986831"></polygon>
                <path d="M2.20619485,10.0481714 L3.04009471,9.21687365 L9.30359302,2.99324512 L10.1401356,2.16409665 C10.2727524,2.03298989 10.3191202,1.83812089 10.2595387,1.66164031 C10.1999573,1.48515968 10.0447572,1.35763508 9.85904576,1.33279884 L0.0288297267,0 L1.37061324,9.76900247 C1.39607953,9.95288617 1.52413155,10.1069186 1.70143434,10.1661435 C1.87849695,10.2251296 2.07405857,10.1795169 2.20619485,10.0481714 Z" id="Path" fill="#777777"></path>
                <path d="M25.2404257,27.7993996 C25.5311255,28.0687773 25.9844729,28.0608966 26.2653225,27.7814888 C26.5464123,27.5020811 26.5545807,27.0516853 26.2835813,26.7627252 L18.3618931,18.8932178 L17.3187376,19.930131 L25.2404257,27.7993996 Z" id="Path" fill="#777777"></path>
            </g>
        </g>
    </g>
</svg>