<svg width="16" height="16" viewBox="0 0 16 16" fill="none" xmlns="http://www.w3.org/2000/svg">
    <path fill-rule="evenodd" clip-rule="evenodd" d="M4.19691 4.19526C3.93436 4.45561 3.93436 4.87772 4.19691 5.13807L7.08301 8L4.19691 10.8619C3.93436 11.1223 3.93436 11.5444 4.19691 11.8047C4.45946 12.0651 4.88513 12.0651 5.14768 11.8047L8.03378 8.94281L10.8523 11.7377C11.1149 11.9981 11.5405 11.9981 11.8031 11.7377C12.0656 11.4774 12.0656 11.0553 11.8031 10.7949L8.98456 8L11.8031 5.20508C12.0656 4.94473 12.0656 4.52262 11.8031 4.26227C11.5405 4.00192 11.1149 4.00192 10.8523 4.26227L8.03378 7.05719L5.14768 4.19526C4.88513 3.93491 4.45946 3.93491 4.19691 4.19526Z" fill="#C1C7D0"/>
</svg>
