<svg xmlns="http://www.w3.org/2000/svg" width="16" height="16" viewBox="0 0 16 16">
    <g fill="none" fill-rule="evenodd">
        <path fill="#999" d="M8 .8A7.198 7.198 0 0 0 .8 8c0 3.978 3.222 7.2 7.2 7.2s7.2-3.222 7.2-7.2S11.978.8 8 .8zm-.72 12.91A5.755 5.755 0 0 1 2.24 8c0-.443.054-.875.151-1.289L5.84 10.16v.72c0 .796.644 1.44 1.44 1.44v1.39zm4.964-1.826a1.43 1.43 0 0 0-1.364-1.004h-.72V8.72A.722.722 0 0 0 9.44 8H5.12V6.56h1.44c.396 0 .72-.324.72-.72V4.4h1.44a1.44 1.44 0 0 0 1.44-1.44v-.299c2.11.853 3.6 2.92 3.6 5.339a5.731 5.731 0 0 1-1.516 3.884z"/>
    </g>
</svg>
