<svg width="48" height="36" viewBox="0 0 48 36" fill="none" xmlns="http://www.w3.org/2000/svg">
<rect width="48" height="36" rx="3" fill="#FFBC6C"/>
<path d="M24 11C20.134 11 17 14.134 17 18C17 21.866 20.134 25 24 25C26.9333 25 29.4431 23.195 30.4844 20.6357L33.2637 21.7656C31.7761 25.4216 28.1903 28 24 28C18.4772 28 14 23.5228 14 18C14 12.4772 18.4772 8 24 8V11ZM33.9053 16.6299C33.9668 17.0778 34 17.5351 34 18C34 18.4646 33.9647 18.9214 33.9033 19.3691L30.9326 18.959C30.9756 18.6454 31 18.3254 31 18C31 17.6746 30.9767 17.3545 30.9336 17.041L33.9053 16.6299ZM31.8906 11.8613C32.4509 12.5798 32.9136 13.3773 33.2627 14.2334L30.4834 15.3633C30.239 14.7642 29.9154 14.206 29.5234 13.7031L31.8906 11.8613ZM28.1377 8.89648C28.8534 9.22231 29.5232 9.63092 30.1367 10.1084L28.2959 12.4756C27.8664 12.1413 27.3976 11.8551 26.8965 11.627L28.1377 8.89648Z" fill="white"/>
</svg>
