<svg width="48" height="36" viewBox="0 0 48 36" fill="none" xmlns="http://www.w3.org/2000/svg">
<rect width="48" height="36" rx="3" fill="#3AA76D"/>
<path d="M24.2349 18.7056H21.8799V17.2202H24.2349C24.5988 17.2202 24.895 17.161 25.1235 17.0425C25.3521 16.9198 25.5192 16.7505 25.625 16.5347C25.7308 16.3188 25.7837 16.0755 25.7837 15.8047C25.7837 15.5296 25.7308 15.2736 25.625 15.0366C25.5192 14.7996 25.3521 14.6092 25.1235 14.4653C24.895 14.3215 24.5988 14.2495 24.2349 14.2495H22.54V22H20.6357V12.7578H24.2349C24.9585 12.7578 25.5785 12.889 26.0947 13.1514C26.6152 13.4095 27.013 13.7671 27.2881 14.2241C27.5632 14.6812 27.7007 15.2038 27.7007 15.792C27.7007 16.3887 27.5632 16.9049 27.2881 17.3408C27.013 17.7767 26.6152 18.1131 26.0947 18.3501C25.5785 18.5871 24.9585 18.7056 24.2349 18.7056Z" fill="white"/>
</svg>
