<svg xmlns="http://www.w3.org/2000/svg" viewBox="0 0 224.466 66.052"><defs><style>.a{fill:#656565;}.b{fill:#e62a29;}</style></defs><g transform="translate(76.378 12.337)"><g transform="translate(0.036 37.837)"><g transform="translate(0 0.108)"><path class="a" d="M106.446,76.856a.141.141,0,0,1-.036-.108V70.164a.176.176,0,0,1,.036-.108.141.141,0,0,1,.108-.036h.646a.176.176,0,0,1,.108.036.141.141,0,0,1,.036.108v6.585a.176.176,0,0,1-.036.108.141.141,0,0,1-.108.036h-.646A.119.119,0,0,1,106.446,76.856Z" transform="translate(-106.41 -70.02)"/><path class="a" d="M113.31,73a1.69,1.69,0,0,1,.474,1.264v3.2a.146.146,0,0,1-.043.108.141.141,0,0,1-.108.036h-.646a.176.176,0,0,1-.108-.036.132.132,0,0,1-.036-.108V74.447a1.1,1.1,0,0,0-.287-.8.99.99,0,0,0-.754-.3,1.062,1.062,0,0,0-.711.251.975.975,0,0,0-.338.675v3.181a.176.176,0,0,1-.036.108.132.132,0,0,1-.108.036h-.646a.176.176,0,0,1-.108-.036.141.141,0,0,1-.036-.108v-4.7a.176.176,0,0,1,.036-.108.146.146,0,0,1,.108-.043h.646a.146.146,0,0,1,.108.043.141.141,0,0,1,.036.108v.273c0,.022.007.036.022.036s.022,0,.029-.007a1.49,1.49,0,0,1,1.235-.524A1.735,1.735,0,0,1,113.31,73Z" transform="translate(-107.371 -70.728)"/><path class="a" d="M119.488,72.859a.141.141,0,0,1-.108.036h-1.005c-.036,0-.05.014-.05.05v2.564a.8.8,0,0,0,.18.6.828.828,0,0,0,.582.18h.237a.176.176,0,0,1,.108.036.141.141,0,0,1,.036.108v.51c0,.093-.05.144-.151.158l-.4.007a1.921,1.921,0,0,1-1.127-.266,1.16,1.16,0,0,1-.373-.991V72.938c0-.036-.014-.05-.05-.05h-.539a.176.176,0,0,1-.108-.036.141.141,0,0,1-.036-.108v-.481a.176.176,0,0,1,.036-.108.146.146,0,0,1,.108-.043h.539c.036,0,.05-.014.05-.05v-1.1a.146.146,0,0,1,.043-.108.141.141,0,0,1,.108-.036h.61a.176.176,0,0,1,.108.036.141.141,0,0,1,.036.108v1.1c0,.036.014.05.05.05h1.005a.146.146,0,0,1,.108.043.141.141,0,0,1,.036.108v.481A.108.108,0,0,1,119.488,72.859Z" transform="translate(-109.305 -70.246)"/></g><g transform="translate(11.123)"><path class="a" d="M125.282,76.251q.054-.086.108-.086a.114.114,0,0,1,.086.029l.4.244a.161.161,0,0,1,.079.129l-.022.079a1.86,1.86,0,0,1-.754.754,2.307,2.307,0,0,1-1.135.273,2.116,2.116,0,0,1-1.178-.309,1.907,1.907,0,0,1-.725-.89,3.679,3.679,0,0,1-.244-1.407,4.185,4.185,0,0,1,.108-1.092,1.852,1.852,0,0,1,.7-1.07A2.074,2.074,0,0,1,124,72.51a1.928,1.928,0,0,1,1.422.488,2.475,2.475,0,0,1,.639,1.407,8.782,8.782,0,0,1,.072.883.133.133,0,0,1-.151.151h-3.1c-.036,0-.05.014-.05.05a2.28,2.28,0,0,0,.072.531,1.087,1.087,0,0,0,.431.618,1.362,1.362,0,0,0,.8.223A1.207,1.207,0,0,0,125.282,76.251Zm-1.975-2.707a1.034,1.034,0,0,0-.366.567,2.558,2.558,0,0,0-.086.553c0,.036.014.05.05.05h2.226c.036,0,.05-.014.05-.05a3.829,3.829,0,0,0-.057-.481,1.118,1.118,0,0,0-.388-.618,1.138,1.138,0,0,0-.725-.23A1.081,1.081,0,0,0,123.307,73.544Z" transform="translate(-121.9 -70.614)"/><path class="a" d="M129.506,76.856a.141.141,0,0,1-.036-.108V70.164a.176.176,0,0,1,.036-.108.141.141,0,0,1,.108-.036h.646a.176.176,0,0,1,.108.036.141.141,0,0,1,.036.108v6.585a.176.176,0,0,1-.036.108.132.132,0,0,1-.108.036h-.646A.119.119,0,0,1,129.506,76.856Z" transform="translate(-124.034 -69.912)"/><path class="a" d="M132.766,76.856a.141.141,0,0,1-.036-.108V70.164a.176.176,0,0,1,.036-.108.141.141,0,0,1,.108-.036h.646a.176.176,0,0,1,.108.036.141.141,0,0,1,.036.108v6.585a.176.176,0,0,1-.036.108.132.132,0,0,1-.108.036h-.646A.119.119,0,0,1,132.766,76.856Z" transform="translate(-124.953 -69.912)"/><path class="a" d="M136.01,70.933a.585.585,0,0,1-.18-.445.574.574,0,0,1,.18-.445.658.658,0,0,1,.467-.172.629.629,0,0,1,.46.172.612.612,0,0,1,.18.445.585.585,0,0,1-.18.445.629.629,0,0,1-.46.172A.658.658,0,0,1,136.01,70.933Zm.036,5.881a.141.141,0,0,1-.036-.108V72a.176.176,0,0,1,.036-.108.146.146,0,0,1,.108-.043h.646a.146.146,0,0,1,.108.043.141.141,0,0,1,.036.108v4.7a.176.176,0,0,1-.036.108.132.132,0,0,1-.108.036h-.646A.119.119,0,0,1,136.045,76.814Z" transform="translate(-125.827 -69.87)"/><path class="a" d="M142.443,72.642a.146.146,0,0,1,.108-.043h.646a.146.146,0,0,1,.108.043.141.141,0,0,1,.036.108v4.6a2,2,0,0,1-.675,1.695,2.867,2.867,0,0,1-1.8.517q-.162,0-.452-.022c-.093,0-.136-.05-.136-.158l.022-.582a.129.129,0,0,1,.05-.108.135.135,0,0,1,.115-.029c.093.007.223.007.381.007a1.794,1.794,0,0,0,1.178-.309,1.306,1.306,0,0,0,.366-1.048v-.165a.033.033,0,0,0-.022-.036c-.014,0-.029,0-.036.014a1.522,1.522,0,0,1-1.2.474,2.149,2.149,0,0,1-1.156-.33,1.71,1.71,0,0,1-.711-.984,4.372,4.372,0,0,1-.129-1.2,4.059,4.059,0,0,1,.151-1.257,1.821,1.821,0,0,1,1.788-1.307,1.629,1.629,0,0,1,1.257.481c.014.022.029.029.036.022a.061.061,0,0,0,.022-.036V72.75A.153.153,0,0,1,142.443,72.642Zm-.057,3.023c.007-.115.014-.316.014-.589s-.007-.467-.014-.582a1.673,1.673,0,0,0-.057-.33,1.093,1.093,0,0,0-1.731-.6,1.232,1.232,0,0,0-.395.6,2.847,2.847,0,0,0-.108.912,2.906,2.906,0,0,0,.1.926,1.091,1.091,0,0,0,1.092.826,1.063,1.063,0,0,0,.7-.23,1.075,1.075,0,0,0,.352-.6A2.547,2.547,0,0,0,142.386,75.665Z" transform="translate(-126.76 -70.617)"/><path class="a" d="M150.012,76.251q.054-.086.108-.086a.114.114,0,0,1,.086.029l.4.244a.161.161,0,0,1,.079.129l-.022.079a1.86,1.86,0,0,1-.754.754,2.307,2.307,0,0,1-1.135.273,2.116,2.116,0,0,1-1.178-.309,1.907,1.907,0,0,1-.725-.89,3.68,3.68,0,0,1-.244-1.407,4.185,4.185,0,0,1,.108-1.092,1.852,1.852,0,0,1,.7-1.07,2.074,2.074,0,0,1,1.285-.395,1.928,1.928,0,0,1,1.422.488,2.475,2.475,0,0,1,.639,1.407,8.777,8.777,0,0,1,.072.883.133.133,0,0,1-.151.151h-3.1c-.036,0-.05.014-.05.05a2.281,2.281,0,0,0,.072.531,1.087,1.087,0,0,0,.431.618,1.362,1.362,0,0,0,.8.223A1.2,1.2,0,0,0,150.012,76.251Zm-1.975-2.707a1.034,1.034,0,0,0-.366.567,2.557,2.557,0,0,0-.086.553c0,.036.014.05.05.05h2.226c.036,0,.05-.014.05-.05a3.832,3.832,0,0,0-.057-.481,1.118,1.118,0,0,0-.388-.618,1.138,1.138,0,0,0-.725-.23A1.081,1.081,0,0,0,148.037,73.544Z" transform="translate(-128.871 -70.614)"/><path class="a" d="M157.7,73a1.69,1.69,0,0,1,.474,1.264v3.2a.146.146,0,0,1-.043.108.141.141,0,0,1-.108.036h-.646a.176.176,0,0,1-.108-.036.132.132,0,0,1-.036-.108V74.447a1.1,1.1,0,0,0-.287-.8.99.99,0,0,0-.754-.3,1.062,1.062,0,0,0-.711.251.975.975,0,0,0-.338.675v3.181a.176.176,0,0,1-.036.108A.132.132,0,0,1,155,77.6h-.646a.176.176,0,0,1-.108-.036.141.141,0,0,1-.036-.108v-4.7a.176.176,0,0,1,.036-.108.146.146,0,0,1,.108-.043H155a.146.146,0,0,1,.108.043.141.141,0,0,1,.036.108v.273c0,.022.007.036.022.036s.022,0,.029-.007a1.49,1.49,0,0,1,1.235-.524A1.747,1.747,0,0,1,157.7,73Z" transform="translate(-131.008 -70.62)"/><path class="a" d="M163.878,72.859a.141.141,0,0,1-.108.036h-1.005c-.036,0-.05.014-.05.05v2.564a.8.8,0,0,0,.18.6.828.828,0,0,0,.582.18h.237a.176.176,0,0,1,.108.036.141.141,0,0,1,.036.108v.51c0,.093-.05.144-.151.158l-.4.007a1.921,1.921,0,0,1-1.127-.266,1.16,1.16,0,0,1-.373-.991V72.938c0-.036-.014-.05-.05-.05h-.539a.176.176,0,0,1-.108-.036.141.141,0,0,1-.036-.108v-.481a.176.176,0,0,1,.036-.108.146.146,0,0,1,.108-.043h.539c.036,0,.05-.014.05-.05v-1.1a.146.146,0,0,1,.043-.108.141.141,0,0,1,.108-.036h.61a.176.176,0,0,1,.108.036.141.141,0,0,1,.036.108v1.1c0,.036.014.05.05.05h1.005a.146.146,0,0,1,.108.043.141.141,0,0,1,.036.108v.481A.124.124,0,0,1,163.878,72.859Z" transform="translate(-132.942 -70.138)"/><path class="a" d="M173.169,76.677a2.019,2.019,0,0,1-.847-.8,2.308,2.308,0,0,1-.3-1.185V72.153a2.219,2.219,0,0,1,.3-1.171,2.079,2.079,0,0,1,.847-.783,2.712,2.712,0,0,1,1.25-.28,2.76,2.76,0,0,1,1.25.273,2.007,2.007,0,0,1,.84.761,2.134,2.134,0,0,1,.3,1.142c0,.065-.05.108-.151.115l-.646.036h-.036a.129.129,0,0,1-.079-.022c-.022-.014-.029-.029-.029-.036v-.057a1.347,1.347,0,0,0-.395-1.013,1.416,1.416,0,0,0-1.048-.381,1.475,1.475,0,0,0-1.056.381,1.347,1.347,0,0,0-.395,1.013v2.614a1.347,1.347,0,0,0,.395,1.013,1.644,1.644,0,0,0,2.1,0,1.374,1.374,0,0,0,.395-1.013.1.1,0,0,1,.036-.086.161.161,0,0,1,.108-.022l.646.036c.1.014.151.029.151.05v.05a2.152,2.152,0,0,1-.3,1.142,2.024,2.024,0,0,1-.84.768,2.76,2.76,0,0,1-1.25.273A2.691,2.691,0,0,1,173.169,76.677Z" transform="translate(-136.028 -69.884)"/><path class="a" d="M181.144,77.31a1.93,1.93,0,0,1-.754-1.027,3.861,3.861,0,0,1-.18-1.2,3.724,3.724,0,0,1,.165-1.178,1.967,1.967,0,0,1,.754-1.02,2.183,2.183,0,0,1,1.285-.366,2.107,2.107,0,0,1,1.235.366,2.01,2.01,0,0,1,.754,1.005,4.047,4.047,0,0,1,0,2.384,1.955,1.955,0,0,1-.747,1.027,2.359,2.359,0,0,1-2.513.007Zm1.96-.668a1.232,1.232,0,0,0,.424-.625,3.417,3.417,0,0,0,.108-.926,3.6,3.6,0,0,0-.1-.912,1.219,1.219,0,0,0-.424-.625,1.156,1.156,0,0,0-.718-.223,1.108,1.108,0,0,0-.7.223,1.264,1.264,0,0,0-.424.625,3.134,3.134,0,0,0-.108.912,3.276,3.276,0,0,0,.108.926,1.124,1.124,0,0,0,1.142.847A1.087,1.087,0,0,0,183.1,76.642Z" transform="translate(-138.337 -70.617)"/><path class="a" d="M194.384,72.985a1.72,1.72,0,0,1,.431,1.242v3.231a.146.146,0,0,1-.043.108.141.141,0,0,1-.108.036h-.639a.176.176,0,0,1-.108-.036.132.132,0,0,1-.036-.108V74.421a1.1,1.1,0,0,0-.273-.783.942.942,0,0,0-.725-.287,1,1,0,0,0-.74.287,1.046,1.046,0,0,0-.287.768v3.052a.176.176,0,0,1-.036.108.132.132,0,0,1-.108.036h-.639a.176.176,0,0,1-.108-.036.132.132,0,0,1-.036-.108V74.421a1.1,1.1,0,0,0-.273-.783.942.942,0,0,0-.725-.287.952.952,0,0,0-.725.287,1.068,1.068,0,0,0-.273.768v3.052a.176.176,0,0,1-.036.108.132.132,0,0,1-.108.036h-.646a.176.176,0,0,1-.108-.036.141.141,0,0,1-.036-.108v-4.7a.176.176,0,0,1,.036-.108.146.146,0,0,1,.108-.043h.646a.146.146,0,0,1,.108.043.141.141,0,0,1,.036.108v.266c0,.022.007.036.022.036a.032.032,0,0,0,.036-.007,1.572,1.572,0,0,1,1.25-.51,1.738,1.738,0,0,1,.847.194,1.367,1.367,0,0,1,.553.553c.022.029.043.029.072,0a1.368,1.368,0,0,1,.61-.567,1.991,1.991,0,0,1,.862-.18A1.566,1.566,0,0,1,194.384,72.985Z" transform="translate(-140.533 -70.623)"/><path class="a" d="M203.575,75.112a3.983,3.983,0,0,1-.151,1.192,2.008,2.008,0,0,1-.682,1.013,1.915,1.915,0,0,1-1.206.366,1.53,1.53,0,0,1-.632-.129,1.417,1.417,0,0,1-.5-.373c-.014-.014-.029-.022-.036-.014s-.022.014-.022.036v2.126a.176.176,0,0,1-.036.108.132.132,0,0,1-.108.036h-.646a.176.176,0,0,1-.108-.036.132.132,0,0,1-.036-.108V72.75a.176.176,0,0,1,.036-.108.146.146,0,0,1,.108-.043h.646a.146.146,0,0,1,.108.043.141.141,0,0,1,.036.108v.259c0,.022.007.036.022.036a.032.032,0,0,0,.036-.007,1.607,1.607,0,0,1,.5-.381,1.534,1.534,0,0,1,.632-.136,1.86,1.86,0,0,1,1.171.352,1.983,1.983,0,0,1,.682.984A3.487,3.487,0,0,1,203.575,75.112Zm-.948-.014a2.6,2.6,0,0,0-.244-1.221.979.979,0,0,0-.941-.539.931.931,0,0,0-.855.531,2.58,2.58,0,0,0-.237,1.235,2.542,2.542,0,0,0,.259,1.257.91.91,0,0,0,.833.5.986.986,0,0,0,.876-.474A2.376,2.376,0,0,0,202.627,75.1Z" transform="translate(-143.749 -70.617)"/><path class="a" d="M209.634,72.735a1.638,1.638,0,0,1,.689.589,1.585,1.585,0,0,1,.237.862v3.267a.176.176,0,0,1-.036.108.132.132,0,0,1-.108.036h-.646a.176.176,0,0,1-.108-.036.141.141,0,0,1-.036-.108v-.273c0-.022-.007-.036-.022-.036a.032.032,0,0,0-.036.007,1.942,1.942,0,0,1-.653.395,2.333,2.333,0,0,1-.819.136,1.831,1.831,0,0,1-1.178-.366,1.333,1.333,0,0,1-.46-1.113A1.477,1.477,0,0,1,207,75a2.294,2.294,0,0,1,1.5-.438h1.092c.036,0,.05-.014.05-.05v-.259a.91.91,0,0,0-.251-.675,1.074,1.074,0,0,0-.761-.237,1.258,1.258,0,0,0-.653.151.711.711,0,0,0-.33.409.144.144,0,0,1-.165.115l-.7-.086a.243.243,0,0,1-.108-.043.078.078,0,0,1-.029-.086,1.332,1.332,0,0,1,.632-.919,2.416,2.416,0,0,1,1.343-.359A2.358,2.358,0,0,1,209.634,72.735Zm-.4,3.871a.822.822,0,0,0,.388-.7v-.567a.045.045,0,0,0-.05-.05h-.912a1.668,1.668,0,0,0-.926.23.713.713,0,0,0-.345.632.644.644,0,0,0,.259.553,1.138,1.138,0,0,0,.675.187A1.582,1.582,0,0,0,209.232,76.606Z" transform="translate(-145.737 -70.617)"/><path class="a" d="M214.584,77.5a1.52,1.52,0,0,1-.689-.488,1.061,1.061,0,0,1-.244-.682v-.057a.176.176,0,0,1,.036-.108.141.141,0,0,1,.108-.036h.61a.24.24,0,0,1,.108.022c.029.014.036.029.036.05v.079a.579.579,0,0,0,.3.481,1.314,1.314,0,0,0,.754.208,1.223,1.223,0,0,0,.725-.194.579.579,0,0,0,.273-.488.456.456,0,0,0-.259-.424,4.327,4.327,0,0,0-.826-.3,7.059,7.059,0,0,1-.941-.323,1.8,1.8,0,0,1-.639-.46,1.143,1.143,0,0,1-.259-.768,1.245,1.245,0,0,1,.517-1.048,2.235,2.235,0,0,1,1.372-.388,2.564,2.564,0,0,1,1.005.18,1.536,1.536,0,0,1,.675.5,1.2,1.2,0,0,1,.237.725.136.136,0,0,1-.036.093.176.176,0,0,1-.108.036h-.589a.24.24,0,0,1-.108-.022c-.029-.014-.036-.029-.036-.05v-.057a.557.557,0,0,0-.28-.474,1.312,1.312,0,0,0-.761-.194,1.361,1.361,0,0,0-.7.165.514.514,0,0,0-.273.452.466.466,0,0,0,.259.431,4.69,4.69,0,0,0,.84.316,9.9,9.9,0,0,1,.948.309,1.7,1.7,0,0,1,.646.452,1.125,1.125,0,0,1,.266.783,1.259,1.259,0,0,1-.524,1.063,2.321,2.321,0,0,1-1.408.395A2.714,2.714,0,0,1,214.584,77.5Z" transform="translate(-147.764 -70.631)"/></g><g transform="translate(81.678)"><path class="a" d="M221.084,77.5a1.52,1.52,0,0,1-.689-.488,1.061,1.061,0,0,1-.244-.682v-.057a.176.176,0,0,1,.036-.108.141.141,0,0,1,.108-.036h.61a.24.24,0,0,1,.108.022c.029.014.036.029.036.05v.079a.579.579,0,0,0,.3.481,1.314,1.314,0,0,0,.754.208,1.222,1.222,0,0,0,.725-.194.579.579,0,0,0,.273-.488.456.456,0,0,0-.259-.424,4.328,4.328,0,0,0-.826-.3,7.057,7.057,0,0,1-.941-.323,1.8,1.8,0,0,1-.639-.46,1.143,1.143,0,0,1-.259-.768,1.245,1.245,0,0,1,.517-1.048,2.235,2.235,0,0,1,1.372-.388,2.564,2.564,0,0,1,1.005.18,1.536,1.536,0,0,1,.675.5,1.2,1.2,0,0,1,.237.725.136.136,0,0,1-.036.093.176.176,0,0,1-.108.036h-.589a.24.24,0,0,1-.108-.022c-.029-.014-.036-.029-.036-.05v-.057a.557.557,0,0,0-.28-.474,1.312,1.312,0,0,0-.761-.194,1.361,1.361,0,0,0-.7.165.514.514,0,0,0-.273.452.466.466,0,0,0,.259.431,4.689,4.689,0,0,0,.84.316,9.9,9.9,0,0,1,.948.309,1.7,1.7,0,0,1,.646.452,1.125,1.125,0,0,1,.266.783,1.259,1.259,0,0,1-.524,1.063,2.321,2.321,0,0,1-1.408.395A2.714,2.714,0,0,1,221.084,77.5Z" transform="translate(-220.15 -70.631)"/><path class="a" d="M227.15,70.933a.585.585,0,0,1-.18-.445.574.574,0,0,1,.18-.445.658.658,0,0,1,.467-.172.629.629,0,0,1,.46.172.612.612,0,0,1,.18.445.585.585,0,0,1-.18.445.629.629,0,0,1-.46.172A.658.658,0,0,1,227.15,70.933Zm.036,5.881a.141.141,0,0,1-.036-.108V72a.176.176,0,0,1,.036-.108.146.146,0,0,1,.108-.043h.646a.146.146,0,0,1,.108.043.141.141,0,0,1,.036.108v4.7a.176.176,0,0,1-.036.108.132.132,0,0,1-.108.036h-.646A.118.118,0,0,1,227.185,76.814Z" transform="translate(-222.072 -69.87)"/><path class="a" d="M231.264,77.31a1.93,1.93,0,0,1-.754-1.027,3.861,3.861,0,0,1-.18-1.2,3.723,3.723,0,0,1,.165-1.178,1.967,1.967,0,0,1,.754-1.02,2.183,2.183,0,0,1,1.285-.366,2.107,2.107,0,0,1,1.235.366,2.01,2.01,0,0,1,.754,1.005,4.047,4.047,0,0,1,0,2.384,1.955,1.955,0,0,1-.747,1.027,2.359,2.359,0,0,1-2.513.007Zm1.96-.668a1.232,1.232,0,0,0,.424-.625,3.418,3.418,0,0,0,.108-.926,3.6,3.6,0,0,0-.1-.912,1.219,1.219,0,0,0-.424-.625,1.156,1.156,0,0,0-.718-.223,1.107,1.107,0,0,0-.7.223,1.264,1.264,0,0,0-.424.625,3.134,3.134,0,0,0-.108.912,3.277,3.277,0,0,0,.108.926,1.124,1.124,0,0,0,1.142.847A1.1,1.1,0,0,0,233.224,76.642Z" transform="translate(-223.02 -70.617)"/><path class="a" d="M241.65,73a1.69,1.69,0,0,1,.474,1.264v3.2a.146.146,0,0,1-.043.108.141.141,0,0,1-.108.036h-.646a.176.176,0,0,1-.108-.036.132.132,0,0,1-.036-.108V74.447a1.1,1.1,0,0,0-.287-.8.99.99,0,0,0-.754-.3,1.062,1.062,0,0,0-.711.251.975.975,0,0,0-.338.675v3.181a.176.176,0,0,1-.036.108.132.132,0,0,1-.108.036H238.3a.176.176,0,0,1-.108-.036.141.141,0,0,1-.036-.108v-4.7a.176.176,0,0,1,.036-.108.146.146,0,0,1,.108-.043h.646a.146.146,0,0,1,.108.043.141.141,0,0,1,.036.108v.273c0,.022.007.036.022.036s.022,0,.029-.007a1.49,1.49,0,0,1,1.235-.524A1.747,1.747,0,0,1,241.65,73Z" transform="translate(-225.227 -70.62)"/><path class="a" d="M248.314,72.735a1.638,1.638,0,0,1,.689.589,1.585,1.585,0,0,1,.237.862v3.267a.176.176,0,0,1-.036.108.132.132,0,0,1-.108.036h-.646a.176.176,0,0,1-.108-.036.141.141,0,0,1-.036-.108v-.273c0-.022-.007-.036-.022-.036a.032.032,0,0,0-.036.007,1.942,1.942,0,0,1-.653.395,2.333,2.333,0,0,1-.819.136,1.831,1.831,0,0,1-1.178-.366,1.333,1.333,0,0,1-.46-1.113A1.477,1.477,0,0,1,245.679,75a2.294,2.294,0,0,1,1.5-.438h1.092c.036,0,.05-.014.05-.05v-.259a.91.91,0,0,0-.251-.675,1.074,1.074,0,0,0-.761-.237,1.258,1.258,0,0,0-.653.151.711.711,0,0,0-.33.409.144.144,0,0,1-.165.115l-.7-.086a.243.243,0,0,1-.108-.043.078.078,0,0,1-.029-.086,1.332,1.332,0,0,1,.632-.919,2.416,2.416,0,0,1,1.343-.359A2.335,2.335,0,0,1,248.314,72.735Zm-.4,3.871a.822.822,0,0,0,.388-.7v-.567a.045.045,0,0,0-.05-.05h-.912a1.668,1.668,0,0,0-.926.23.713.713,0,0,0-.345.632.644.644,0,0,0,.259.553,1.138,1.138,0,0,0,.675.187A1.566,1.566,0,0,0,247.912,76.606Z" transform="translate(-227.194 -70.617)"/><path class="a" d="M254.9,72.859a.141.141,0,0,1-.108.036h-1.005c-.036,0-.05.014-.05.05v2.564a.8.8,0,0,0,.18.6.828.828,0,0,0,.582.18h.237a.176.176,0,0,1,.108.036.141.141,0,0,1,.036.108v.51c0,.093-.05.144-.151.158l-.4.007a1.921,1.921,0,0,1-1.127-.266,1.16,1.16,0,0,1-.373-.991V72.938c0-.036-.014-.05-.05-.05h-.539a.176.176,0,0,1-.108-.036.141.141,0,0,1-.036-.108v-.481a.176.176,0,0,1,.036-.108.146.146,0,0,1,.108-.043h.539c.036,0,.05-.014.05-.05v-1.1a.146.146,0,0,1,.043-.108.141.141,0,0,1,.108-.036h.61a.176.176,0,0,1,.108.036.141.141,0,0,1,.036.108v1.1c0,.036.014.05.05.05h1.005a.146.146,0,0,1,.108.043.141.141,0,0,1,.036.108v.481A.146.146,0,0,1,254.9,72.859Z" transform="translate(-229.154 -70.138)"/></g><g transform="translate(108.291 0.108)"><path class="a" d="M260.592,76.251q.054-.086.108-.086a.115.115,0,0,1,.086.029l.4.244a.161.161,0,0,1,.079.129l-.022.079a1.86,1.86,0,0,1-.754.754,2.307,2.307,0,0,1-1.135.273,2.116,2.116,0,0,1-1.178-.309,1.907,1.907,0,0,1-.725-.89,3.68,3.68,0,0,1-.244-1.407,4.185,4.185,0,0,1,.108-1.092,1.851,1.851,0,0,1,.7-1.07,2.074,2.074,0,0,1,1.285-.395,1.929,1.929,0,0,1,1.422.488,2.475,2.475,0,0,1,.639,1.407,8.8,8.8,0,0,1,.072.883.133.133,0,0,1-.151.151h-3.1c-.036,0-.05.014-.05.05a2.282,2.282,0,0,0,.072.531,1.087,1.087,0,0,0,.431.618,1.362,1.362,0,0,0,.8.223A1.207,1.207,0,0,0,260.592,76.251Zm-1.982-2.707a1.034,1.034,0,0,0-.366.567,2.556,2.556,0,0,0-.086.553c0,.036.014.05.05.05h2.226c.036,0,.05-.014.05-.05a3.832,3.832,0,0,0-.057-.481,1.118,1.118,0,0,0-.388-.618,1.138,1.138,0,0,0-.725-.23A1.094,1.094,0,0,0,258.61,73.544Z" transform="translate(-257.21 -70.722)"/><path class="a" d="M274.662,70.056a.141.141,0,0,1,.036.108V70.7a.176.176,0,0,1-.036.108.132.132,0,0,1-.108.036H272.73c-.036,0-.05.014-.05.05v5.853a.176.176,0,0,1-.036.108.141.141,0,0,1-.108.036h-.646a.176.176,0,0,1-.108-.036.132.132,0,0,1-.036-.108V70.889c0-.036-.014-.05-.05-.05h-1.752a.176.176,0,0,1-.108-.036.141.141,0,0,1-.036-.108v-.531a.176.176,0,0,1,.036-.108.141.141,0,0,1,.108-.036h4.61A.176.176,0,0,1,274.662,70.056Z" transform="translate(-260.759 -70.02)"/></g><g transform="translate(122.409)"><path class="a" d="M280.252,76.251q.054-.086.108-.086a.115.115,0,0,1,.086.029l.4.244a.161.161,0,0,1,.079.129l-.022.079a1.86,1.86,0,0,1-.754.754,2.307,2.307,0,0,1-1.135.273,2.116,2.116,0,0,1-1.178-.309,1.907,1.907,0,0,1-.725-.89,3.679,3.679,0,0,1-.244-1.407,4.187,4.187,0,0,1,.108-1.092,1.852,1.852,0,0,1,.7-1.07,2.074,2.074,0,0,1,1.285-.395,1.929,1.929,0,0,1,1.422.488,2.475,2.475,0,0,1,.639,1.407,8.8,8.8,0,0,1,.072.883.133.133,0,0,1-.151.151h-3.1c-.036,0-.05.014-.05.05a2.282,2.282,0,0,0,.072.531,1.087,1.087,0,0,0,.431.618,1.362,1.362,0,0,0,.8.223A1.207,1.207,0,0,0,280.252,76.251Zm-1.982-2.707a1.034,1.034,0,0,0-.366.567,2.558,2.558,0,0,0-.086.553c0,.036.014.05.05.05h2.226c.036,0,.05-.014.05-.05a3.827,3.827,0,0,0-.057-.481,1.118,1.118,0,0,0-.388-.618,1.138,1.138,0,0,0-.725-.23A1.094,1.094,0,0,0,278.27,73.544Z" transform="translate(-276.87 -70.614)"/><path class="a" d="M285.074,77.5a1.52,1.52,0,0,1-.689-.488,1.061,1.061,0,0,1-.244-.682v-.057a.176.176,0,0,1,.036-.108.141.141,0,0,1,.108-.036h.61a.24.24,0,0,1,.108.022c.029.014.036.029.036.05v.079a.579.579,0,0,0,.3.481,1.314,1.314,0,0,0,.754.208,1.222,1.222,0,0,0,.725-.194.579.579,0,0,0,.273-.488.456.456,0,0,0-.258-.424,4.329,4.329,0,0,0-.826-.3,7.058,7.058,0,0,1-.941-.323,1.8,1.8,0,0,1-.639-.46,1.143,1.143,0,0,1-.258-.768,1.245,1.245,0,0,1,.517-1.048,2.235,2.235,0,0,1,1.372-.388,2.564,2.564,0,0,1,1.005.18,1.536,1.536,0,0,1,.675.5,1.2,1.2,0,0,1,.237.725.137.137,0,0,1-.036.093.176.176,0,0,1-.108.036h-.589a.24.24,0,0,1-.108-.022c-.029-.014-.036-.029-.036-.05v-.057a.557.557,0,0,0-.28-.474,1.312,1.312,0,0,0-.761-.194,1.36,1.36,0,0,0-.7.165.514.514,0,0,0-.273.452.466.466,0,0,0,.258.431,4.69,4.69,0,0,0,.84.316,9.9,9.9,0,0,1,.948.309,1.7,1.7,0,0,1,.646.452,1.125,1.125,0,0,1,.266.783,1.259,1.259,0,0,1-.524,1.063,2.321,2.321,0,0,1-1.408.395A2.714,2.714,0,0,1,285.074,77.5Z" transform="translate(-278.919 -70.631)"/><path class="a" d="M293.378,72.859a.141.141,0,0,1-.108.036h-1.005c-.036,0-.05.014-.05.05v2.564a.8.8,0,0,0,.18.6.828.828,0,0,0,.582.18h.237a.176.176,0,0,1,.108.036.141.141,0,0,1,.036.108v.51c0,.093-.05.144-.151.158l-.4.007a1.921,1.921,0,0,1-1.127-.266,1.16,1.16,0,0,1-.373-.991V72.938c0-.036-.014-.05-.05-.05h-.539a.176.176,0,0,1-.108-.036.141.141,0,0,1-.036-.108v-.481a.176.176,0,0,1,.036-.108.146.146,0,0,1,.108-.043h.539c.036,0,.05-.014.05-.05v-1.1a.146.146,0,0,1,.043-.108.141.141,0,0,1,.108-.036h.61a.176.176,0,0,1,.108.036.141.141,0,0,1,.036.108v1.1c0,.036.014.05.05.05h1.005a.146.146,0,0,1,.108.043.141.141,0,0,1,.036.108v.481A.146.146,0,0,1,293.378,72.859Z" transform="translate(-280.732 -70.138)"/><path class="a" d="M296.19,70.933a.585.585,0,0,1-.18-.445.574.574,0,0,1,.18-.445.658.658,0,0,1,.467-.172.629.629,0,0,1,.46.172.612.612,0,0,1,.18.445.585.585,0,0,1-.18.445.629.629,0,0,1-.46.172A.658.658,0,0,1,296.19,70.933Zm.036,5.881a.141.141,0,0,1-.036-.108V72a.177.177,0,0,1,.036-.108.146.146,0,0,1,.108-.043h.646a.146.146,0,0,1,.108.043.141.141,0,0,1,.036.108v4.7a.176.176,0,0,1-.036.108.132.132,0,0,1-.108.036h-.646A.107.107,0,0,1,296.225,76.814Z" transform="translate(-282.265 -69.87)"/><path class="a" d="M303.09,73a1.69,1.69,0,0,1,.474,1.264v3.2a.146.146,0,0,1-.043.108.141.141,0,0,1-.108.036h-.646a.176.176,0,0,1-.108-.036.132.132,0,0,1-.036-.108V74.447a1.1,1.1,0,0,0-.287-.8.99.99,0,0,0-.754-.3,1.061,1.061,0,0,0-.711.251.975.975,0,0,0-.337.675v3.181a.177.177,0,0,1-.036.108.132.132,0,0,1-.108.036h-.646a.176.176,0,0,1-.108-.036.141.141,0,0,1-.036-.108v-4.7a.176.176,0,0,1,.036-.108.146.146,0,0,1,.108-.043h.646a.146.146,0,0,1,.108.043.141.141,0,0,1,.036.108v.273c0,.022.007.036.022.036s.022,0,.029-.007a1.49,1.49,0,0,1,1.235-.524A1.747,1.747,0,0,1,303.09,73Z" transform="translate(-283.277 -70.62)"/><path class="a" d="M310.033,72.642a.146.146,0,0,1,.108-.043h.646a.146.146,0,0,1,.108.043.141.141,0,0,1,.036.108v4.6a2,2,0,0,1-.675,1.695,2.867,2.867,0,0,1-1.8.517q-.162,0-.452-.022c-.093,0-.136-.05-.136-.158l.022-.582a.129.129,0,0,1,.05-.108.135.135,0,0,1,.115-.029c.093.007.223.007.381.007a1.794,1.794,0,0,0,1.178-.309,1.306,1.306,0,0,0,.366-1.048v-.165a.033.033,0,0,0-.022-.036c-.014,0-.029,0-.036.014a1.522,1.522,0,0,1-1.2.474,2.148,2.148,0,0,1-1.156-.33,1.71,1.71,0,0,1-.711-.984,4.371,4.371,0,0,1-.129-1.2,4.059,4.059,0,0,1,.151-1.257,1.821,1.821,0,0,1,1.788-1.307,1.629,1.629,0,0,1,1.257.481c.014.022.029.029.036.022a.061.061,0,0,0,.022-.036V72.75A.153.153,0,0,1,310.033,72.642Zm-.057,3.023c.007-.115.014-.316.014-.589s-.007-.467-.014-.582a1.675,1.675,0,0,0-.057-.33,1.093,1.093,0,0,0-1.731-.6,1.232,1.232,0,0,0-.395.6,2.848,2.848,0,0,0-.108.912,2.905,2.905,0,0,0,.1.926,1.091,1.091,0,0,0,1.092.826,1.063,1.063,0,0,0,.7-.23,1.075,1.075,0,0,0,.352-.6A2.562,2.562,0,0,0,309.976,75.665Z" transform="translate(-285.287 -70.617)"/></g></g><path class="a" d="M112.442,33.5v8.818H106.36V17.18h9.852q4.481,0,6.829,2.226A7.847,7.847,0,0,1,125.39,25.4a8.284,8.284,0,0,1-1.048,4.179,7.253,7.253,0,0,1-3.109,2.88A11,11,0,0,1,116.22,33.5h-3.777Zm6.757-8.115q0-3.307-3.662-3.31h-3.1v6.542h3.1Q119.2,28.63,119.2,25.388Z" transform="translate(-106.36 -17.18)"/><path class="a" d="M146.029,25.32a7.49,7.49,0,0,1,3.892-1.07v6.506h-1.745a5.97,5.97,0,0,0-3.749,1.034,4.144,4.144,0,0,0-1.336,3.483v9.034H137.01V24.465h6.082V28.2A8.726,8.726,0,0,1,146.029,25.32Z" transform="translate(-115 -19.173)"/><path class="a" d="M169.608,25.234a6.222,6.222,0,0,1,2.42,2.808V24.451h6.046V44.293h-6.046V40.7a6.185,6.185,0,0,1-2.42,2.808,7.166,7.166,0,0,1-3.914,1.034,8.039,8.039,0,0,1-4.395-1.228,8.384,8.384,0,0,1-3.059-3.54,12.285,12.285,0,0,1-1.12-5.407,12.219,12.219,0,0,1,1.12-5.422,8.409,8.409,0,0,1,3.059-3.519,8.039,8.039,0,0,1,4.395-1.228A7.308,7.308,0,0,1,169.608,25.234ZM164.5,30.821a5.007,5.007,0,0,0-1.192,3.555A5.007,5.007,0,0,0,164.5,37.93a4.464,4.464,0,0,0,6.291-.036,4.955,4.955,0,0,0,1.228-3.519,4.95,4.95,0,0,0-1.228-3.54,4.473,4.473,0,0,0-6.291-.014Z" transform="translate(-120.669 -19.159)"/><path class="a" d="M210.4,35.481H196.63a4.626,4.626,0,0,0,1.135,3.217,3.665,3.665,0,0,0,2.628.977,3.6,3.6,0,0,0,2.24-.675,3.169,3.169,0,0,0,1.171-1.745h6.434A8.363,8.363,0,0,1,208.529,41a9.064,9.064,0,0,1-3.346,2.6,10.53,10.53,0,0,1-4.517.941,10.672,10.672,0,0,1-5.178-1.228,8.753,8.753,0,0,1-3.54-3.54,10.987,10.987,0,0,1-1.278-5.407,11.08,11.08,0,0,1,1.264-5.422,8.615,8.615,0,0,1,3.54-3.519,11.682,11.682,0,0,1,10.384-.022,8.541,8.541,0,0,1,3.468,3.4,10.111,10.111,0,0,1,1.228,5.034A7.177,7.177,0,0,1,210.4,35.481Zm-7.023-5.494a3.854,3.854,0,0,0-2.686-.977,3.959,3.959,0,0,0-2.772,1,4.168,4.168,0,0,0-1.242,2.916h7.756A3.692,3.692,0,0,0,203.373,29.988Z" transform="translate(-130.126 -19.159)"/><path class="a" d="M233.835,25.234a6.222,6.222,0,0,1,2.42,2.808V24.451H242.3V44.192a11.417,11.417,0,0,1-1.07,5,8.186,8.186,0,0,1-3.275,3.54,10.547,10.547,0,0,1-5.479,1.314,11.232,11.232,0,0,1-7.167-2.118,8.592,8.592,0,0,1-3.217-5.745H228.1a2.991,2.991,0,0,0,1.3,1.881,4.736,4.736,0,0,0,2.65.675,4.242,4.242,0,0,0,3.038-1.084,4.58,4.58,0,0,0,1.156-3.468V40.7a6.185,6.185,0,0,1-2.42,2.808,7.166,7.166,0,0,1-3.914,1.034,8.039,8.039,0,0,1-4.395-1.228,8.384,8.384,0,0,1-3.059-3.54,12.285,12.285,0,0,1-1.12-5.407,12.219,12.219,0,0,1,1.12-5.422,8.409,8.409,0,0,1,3.059-3.519,8.039,8.039,0,0,1,4.395-1.228A7.316,7.316,0,0,1,233.835,25.234Zm-5.106,5.587a5.008,5.008,0,0,0-1.192,3.555,5.008,5.008,0,0,0,1.192,3.555,4.464,4.464,0,0,0,6.291-.036,4.955,4.955,0,0,0,1.228-3.519,4.95,4.95,0,0,0-1.228-3.54,4.473,4.473,0,0,0-6.291-.014Z" transform="translate(-138.772 -19.159)"/><path class="a" d="M275.991,24.55V44.391h-6.118V40.8a6.527,6.527,0,0,1-2.542,2.772,7.372,7.372,0,0,1-3.928,1.034,6.867,6.867,0,0,1-5.422-2.276,9.114,9.114,0,0,1-2.011-6.262V24.55h6.046V35.329a4.437,4.437,0,0,0,1.048,3.145,3.689,3.689,0,0,0,2.829,1.12,3.735,3.735,0,0,0,2.916-1.171,4.8,4.8,0,0,0,1.07-3.339V24.55Z" transform="translate(-148.534 -19.258)"/><path class="a" d="M302.652,26.089a8.185,8.185,0,0,1,2.829,4.976h-5.687a3.163,3.163,0,0,0-1.12-1.9,3.418,3.418,0,0,0-2.19-.7,2.407,2.407,0,0,0-1.565.445,1.54,1.54,0,0,0-.531,1.264,1.476,1.476,0,0,0,.977,1.386,15.694,15.694,0,0,0,3.073.926,31.391,31.391,0,0,1,3.734,1.084,6.141,6.141,0,0,1,2.528,1.8,4.979,4.979,0,0,1,1.07,3.346,5.126,5.126,0,0,1-.926,3.023,6.1,6.1,0,0,1-2.664,2.061,10.458,10.458,0,0,1-4.122.747,10.613,10.613,0,0,1-6.434-1.781,7.472,7.472,0,0,1-2.951-5.084h5.867a2.63,2.63,0,0,0,1.084,1.953,4.067,4.067,0,0,0,2.434.675,2.258,2.258,0,0,0,1.565-.481,1.608,1.608,0,0,0,.531-1.264,1.506,1.506,0,0,0-.977-1.472,18.191,18.191,0,0,0-3.181-.941,24.933,24.933,0,0,1-3.626-1,6.012,6.012,0,0,1-2.456-1.723,4.805,4.805,0,0,1-1.034-3.253,5.317,5.317,0,0,1,2.025-4.323,8.809,8.809,0,0,1,5.723-1.652A9.127,9.127,0,0,1,302.652,26.089Z" transform="translate(-157.752 -19.159)"/></g><path class="b" d="M35.306,8.09A27.216,27.216,0,1,0,62.523,35.306,27.245,27.245,0,0,0,35.306,8.09ZM47.7,34.322c-3.009,5.091-8.984,5.745-9.659,5.8l-2.959.668L37.554,51.8a2.634,2.634,0,0,1-.338,2,2.186,2.186,0,0,1-.524.553c-.1.086-.23.194-.395.338a2.8,2.8,0,0,1-.732.381,3.9,3.9,0,0,0-.359.165l-.072.036a17.373,17.373,0,0,1-1.781.388,9.163,9.163,0,0,1-1.465.18,1.739,1.739,0,0,1-.273-.014l.014-.165-.036.158a3.031,3.031,0,0,1-2.4-1.142,2.674,2.674,0,0,1-.4-.926c-1.508-5.709-2.93-11.526-4.208-17.306-1.135-5.113-2.19-10.326-3.145-15.5a2.629,2.629,0,0,1-.014-1.106,2.679,2.679,0,0,1,.352-.883,2.6,2.6,0,0,1,1.63-1.171l8.222-2.09c.682-.266,7.009-2.556,12.229,1.178a12.817,12.817,0,0,1,4.8,7.554C49.022,25.863,50.142,30.2,47.7,34.322Z" transform="translate(-2.281 -2.281)"/><path class="b" d="M42.583,39.318s-2.19-9.68-2.1-9.371l3.181-.711a3.828,3.828,0,0,1,3.1.244c.926.618,1.135,1.745,1.551,3.993.366,1.96.553,2.944.043,3.713-.474.725-1.264,1.127-2.908,1.494Z" transform="translate(-11.41 -8.181)"/><path class="b" d="M33.026,0A33.026,33.026,0,1,0,66.052,33.026,33.025,33.025,0,0,0,33.026,0Zm0,61.262A28.236,28.236,0,1,1,61.262,33.026,28.269,28.269,0,0,1,33.026,61.262Z"/><path class="b" d="M295.538,61.22H254.57v1.364h40.968a.682.682,0,0,0,0-1.364Z" transform="translate(-71.761 -17.257)"/><path class="b" d="M186.21,61.328a.694.694,0,0,0-.338-.108H107.082a.682.682,0,0,0,0,1.364h78.784a.608.608,0,0,0,.338-.108V61.328Z" transform="translate(-29.993 -17.257)"/></svg>