<svg xmlns="http://www.w3.org/2000/svg" viewBox="0 0 271.868 80"><defs><style>.a{fill:#fff;}.b{fill:#e62a29;}</style></defs><g transform="translate(93.778 15.403)"><g transform="translate(0.043 45.503)"><g transform="translate(0 0.13)"><path class="a" d="M106.453,78.241a.169.169,0,0,1-.043-.13V70.193a.212.212,0,0,1,.043-.13.17.17,0,0,1,.13-.043h.777a.212.212,0,0,1,.13.043.17.17,0,0,1,.043.13v7.919a.212.212,0,0,1-.043.13.17.17,0,0,1-.13.043h-.777A.143.143,0,0,1,106.453,78.241Z" transform="translate(-106.41 -70.02)"/><path class="a" d="M114.017,73.1a2.032,2.032,0,0,1,.57,1.52v3.843a.176.176,0,0,1-.052.13.17.17,0,0,1-.13.043h-.777a.212.212,0,0,1-.13-.043.159.159,0,0,1-.043-.13V74.836a1.32,1.32,0,0,0-.345-.959,1.19,1.19,0,0,0-.907-.363,1.276,1.276,0,0,0-.855.3,1.173,1.173,0,0,0-.406.812v3.826a.212.212,0,0,1-.043.13.159.159,0,0,1-.13.043h-.777a.212.212,0,0,1-.13-.043.17.17,0,0,1-.043-.13V72.8a.212.212,0,0,1,.043-.13.176.176,0,0,1,.13-.052h.777a.176.176,0,0,1,.13.052.169.169,0,0,1,.043.13v.328c0,.026.009.043.026.043s.026,0,.035-.009a1.792,1.792,0,0,1,1.485-.63A2.087,2.087,0,0,1,114.017,73.1Z" transform="translate(-106.875 -70.362)"/><path class="a" d="M120.057,73.273a.17.17,0,0,1-.13.043h-1.209c-.043,0-.06.017-.06.06v3.083a.962.962,0,0,0,.216.717,1,1,0,0,0,.7.216h.285a.212.212,0,0,1,.13.043.17.17,0,0,1,.043.13v.613c0,.112-.06.173-.181.19l-.484.009a2.31,2.31,0,0,1-1.356-.32,1.4,1.4,0,0,1-.449-1.192v-3.5c0-.043-.017-.06-.06-.06h-.648a.212.212,0,0,1-.13-.043.17.17,0,0,1-.043-.13v-.579a.212.212,0,0,1,.043-.13.176.176,0,0,1,.13-.052h.648c.043,0,.06-.017.06-.06V70.993a.176.176,0,0,1,.052-.13.17.17,0,0,1,.13-.043h.734a.212.212,0,0,1,.13.043.17.17,0,0,1,.043.13v1.321c0,.043.017.06.06.06h1.209a.176.176,0,0,1,.13.052.17.17,0,0,1,.043.13v.579A.13.13,0,0,1,120.057,73.273Z" transform="translate(-107.811 -70.129)"/></g><g transform="translate(13.377)"><path class="a" d="M125.968,77.009q.065-.1.13-.1a.138.138,0,0,1,.1.035l.484.294a.193.193,0,0,1,.1.155l-.026.1a2.236,2.236,0,0,1-.907.907,2.774,2.774,0,0,1-1.364.328,2.545,2.545,0,0,1-1.416-.371,2.293,2.293,0,0,1-.872-1.071,4.425,4.425,0,0,1-.294-1.693,5.033,5.033,0,0,1,.13-1.313,2.227,2.227,0,0,1,.846-1.287,2.494,2.494,0,0,1,1.546-.475,2.319,2.319,0,0,1,1.71.587,2.976,2.976,0,0,1,.769,1.693,10.556,10.556,0,0,1,.086,1.062.16.16,0,0,1-.181.181h-3.731c-.043,0-.06.017-.06.06a2.742,2.742,0,0,0,.086.639,1.307,1.307,0,0,0,.518.743,1.638,1.638,0,0,0,.967.268A1.452,1.452,0,0,0,125.968,77.009Zm-2.375-3.256a1.244,1.244,0,0,0-.44.682,3.077,3.077,0,0,0-.1.665c0,.043.017.06.06.06h2.677c.043,0,.06-.017.06-.06a4.612,4.612,0,0,0-.069-.579,1.345,1.345,0,0,0-.466-.743,1.369,1.369,0,0,0-.872-.276A1.3,1.3,0,0,0,123.593,73.754Z" transform="translate(-121.9 -70.23)"/><path class="a" d="M129.513,78.241a.17.17,0,0,1-.043-.13V70.193a.212.212,0,0,1,.043-.13.17.17,0,0,1,.13-.043h.777a.212.212,0,0,1,.13.043.17.17,0,0,1,.043.13v7.919a.212.212,0,0,1-.043.13.159.159,0,0,1-.13.043h-.777A.143.143,0,0,1,129.513,78.241Z" transform="translate(-122.933 -69.89)"/><path class="a" d="M132.773,78.241a.17.17,0,0,1-.043-.13V70.193a.212.212,0,0,1,.043-.13.17.17,0,0,1,.13-.043h.777a.212.212,0,0,1,.13.043.17.17,0,0,1,.043.13v7.919a.212.212,0,0,1-.043.13.159.159,0,0,1-.13.043H132.9A.143.143,0,0,1,132.773,78.241Z" transform="translate(-123.377 -69.89)"/><path class="a" d="M136.046,71.148a.7.7,0,0,1-.216-.535.69.69,0,0,1,.216-.535.791.791,0,0,1,.561-.207.756.756,0,0,1,.553.207.736.736,0,0,1,.216.535.7.7,0,0,1-.216.535.756.756,0,0,1-.553.207A.791.791,0,0,1,136.046,71.148Zm.043,7.073a.17.17,0,0,1-.043-.13V72.435a.212.212,0,0,1,.043-.13.176.176,0,0,1,.13-.052H137a.176.176,0,0,1,.13.052.17.17,0,0,1,.043.13v5.657a.212.212,0,0,1-.043.13.159.159,0,0,1-.13.043h-.777A.143.143,0,0,1,136.089,78.221Z" transform="translate(-123.8 -69.87)"/><path class="a" d="M143.113,72.667a.176.176,0,0,1,.13-.052h.777a.176.176,0,0,1,.13.052.17.17,0,0,1,.043.13v5.527a2.4,2.4,0,0,1-.812,2.038,3.448,3.448,0,0,1-2.159.622q-.194,0-.544-.026c-.112,0-.164-.06-.164-.19l.026-.7a.155.155,0,0,1,.06-.13.162.162,0,0,1,.138-.035c.112.009.268.009.458.009a2.157,2.157,0,0,0,1.416-.371,1.571,1.571,0,0,0,.44-1.261v-.2a.04.04,0,0,0-.026-.043c-.017,0-.035,0-.043.017a1.83,1.83,0,0,1-1.442.57,2.584,2.584,0,0,1-1.39-.4,2.057,2.057,0,0,1-.855-1.183,5.257,5.257,0,0,1-.155-1.442,4.882,4.882,0,0,1,.181-1.511,2.19,2.19,0,0,1,2.15-1.572,1.959,1.959,0,0,1,1.511.579c.017.026.035.035.043.026a.073.073,0,0,0,.026-.043V72.8A.184.184,0,0,1,143.113,72.667Zm-.069,3.636c.009-.138.017-.38.017-.708s-.009-.561-.017-.7a2.012,2.012,0,0,0-.069-.4,1.315,1.315,0,0,0-2.081-.717,1.481,1.481,0,0,0-.475.717,3.424,3.424,0,0,0-.13,1.1,3.494,3.494,0,0,0,.121,1.114,1.311,1.311,0,0,0,1.313.993,1.279,1.279,0,0,0,.846-.276,1.292,1.292,0,0,0,.423-.717A3.057,3.057,0,0,0,143.043,76.3Z" transform="translate(-124.252 -70.231)"/><path class="a" d="M150.7,77.009q.065-.1.13-.1a.138.138,0,0,1,.1.035l.484.294a.193.193,0,0,1,.1.155l-.026.1a2.236,2.236,0,0,1-.907.907,2.774,2.774,0,0,1-1.364.328,2.545,2.545,0,0,1-1.416-.371,2.293,2.293,0,0,1-.872-1.071,4.426,4.426,0,0,1-.294-1.693,5.033,5.033,0,0,1,.13-1.313,2.227,2.227,0,0,1,.846-1.287,2.494,2.494,0,0,1,1.546-.475,2.319,2.319,0,0,1,1.71.587,2.976,2.976,0,0,1,.769,1.693,10.552,10.552,0,0,1,.086,1.062.16.16,0,0,1-.181.181h-3.722c-.043,0-.06.017-.06.06a2.74,2.74,0,0,0,.086.639,1.307,1.307,0,0,0,.518.743,1.638,1.638,0,0,0,.967.268A1.447,1.447,0,0,0,150.7,77.009Zm-2.375-3.256a1.243,1.243,0,0,0-.44.682,3.073,3.073,0,0,0-.1.665c0,.043.017.06.06.06h2.677c.043,0,.06-.017.06-.06a4.62,4.62,0,0,0-.069-.579,1.345,1.345,0,0,0-.466-.743,1.369,1.369,0,0,0-.872-.276A1.3,1.3,0,0,0,148.323,73.754Z" transform="translate(-125.273 -70.23)"/><path class="a" d="M158.407,73.1a2.032,2.032,0,0,1,.57,1.52v3.843a.176.176,0,0,1-.052.13.17.17,0,0,1-.13.043h-.777a.212.212,0,0,1-.13-.043.159.159,0,0,1-.043-.13V74.836a1.32,1.32,0,0,0-.345-.959,1.19,1.19,0,0,0-.907-.363,1.277,1.277,0,0,0-.855.3,1.173,1.173,0,0,0-.406.812v3.826a.212.212,0,0,1-.043.13.159.159,0,0,1-.13.043h-.777a.212.212,0,0,1-.13-.043.17.17,0,0,1-.043-.13V72.8a.212.212,0,0,1,.043-.13.176.176,0,0,1,.13-.052h.777a.176.176,0,0,1,.13.052.17.17,0,0,1,.043.13v.328c0,.026.009.043.026.043s.026,0,.035-.009a1.792,1.792,0,0,1,1.485-.63A2.1,2.1,0,0,1,158.407,73.1Z" transform="translate(-126.307 -70.233)"/><path class="a" d="M164.447,73.273a.17.17,0,0,1-.13.043h-1.209c-.043,0-.06.017-.06.06v3.083a.962.962,0,0,0,.216.717,1,1,0,0,0,.7.216h.285a.212.212,0,0,1,.13.043.17.17,0,0,1,.043.13v.613c0,.112-.06.173-.181.19l-.484.009a2.31,2.31,0,0,1-1.356-.32,1.4,1.4,0,0,1-.449-1.192v-3.5c0-.043-.017-.06-.06-.06h-.648a.212.212,0,0,1-.13-.043.169.169,0,0,1-.043-.13v-.579a.212.212,0,0,1,.043-.13.176.176,0,0,1,.13-.052h.648c.043,0,.06-.017.06-.06V70.993a.176.176,0,0,1,.052-.13.17.17,0,0,1,.13-.043h.734a.212.212,0,0,1,.13.043.17.17,0,0,1,.043.13v1.321c0,.043.017.06.06.06h1.209a.176.176,0,0,1,.13.052.17.17,0,0,1,.043.13v.579A.149.149,0,0,1,164.447,73.273Z" transform="translate(-127.243 -70)"/><path class="a" d="M173.4,78.046a2.428,2.428,0,0,1-1.019-.959,2.775,2.775,0,0,1-.363-1.425V72.606a2.669,2.669,0,0,1,.363-1.408,2.5,2.5,0,0,1,1.019-.941,3.262,3.262,0,0,1,1.5-.337,3.319,3.319,0,0,1,1.5.328,2.414,2.414,0,0,1,1.01.915,2.567,2.567,0,0,1,.363,1.373c0,.078-.06.13-.181.138l-.777.043h-.043a.155.155,0,0,1-.095-.026c-.026-.017-.035-.035-.035-.043V72.58a1.62,1.62,0,0,0-.475-1.218,1.7,1.7,0,0,0-1.261-.458,1.774,1.774,0,0,0-1.269.458,1.62,1.62,0,0,0-.475,1.218v3.143a1.62,1.62,0,0,0,.475,1.218,1.977,1.977,0,0,0,2.53,0,1.653,1.653,0,0,0,.475-1.218.118.118,0,0,1,.043-.1.194.194,0,0,1,.13-.026l.777.043c.121.017.181.035.181.06v.06a2.588,2.588,0,0,1-.363,1.373,2.434,2.434,0,0,1-1.01.924,3.319,3.319,0,0,1-1.5.328A3.237,3.237,0,0,1,173.4,78.046Z" transform="translate(-128.737 -69.877)"/><path class="a" d="M181.333,78.28a2.321,2.321,0,0,1-.907-1.235,4.644,4.644,0,0,1-.216-1.442,4.479,4.479,0,0,1,.2-1.416,2.366,2.366,0,0,1,.907-1.226,2.626,2.626,0,0,1,1.546-.44,2.534,2.534,0,0,1,1.485.44,2.418,2.418,0,0,1,.907,1.209,4.867,4.867,0,0,1,0,2.867,2.351,2.351,0,0,1-.9,1.235,2.836,2.836,0,0,1-3.023.009Zm2.358-.8a1.482,1.482,0,0,0,.51-.751,4.11,4.11,0,0,0,.13-1.114,4.328,4.328,0,0,0-.121-1.1,1.466,1.466,0,0,0-.51-.751,1.39,1.39,0,0,0-.864-.268,1.332,1.332,0,0,0-.838.268,1.52,1.52,0,0,0-.51.751,3.77,3.77,0,0,0-.129,1.1,3.941,3.941,0,0,0,.129,1.114,1.351,1.351,0,0,0,1.373,1.019A1.307,1.307,0,0,0,183.69,77.477Z" transform="translate(-129.854 -70.231)"/><path class="a" d="M195.677,73.075a2.068,2.068,0,0,1,.518,1.494v3.886a.176.176,0,0,1-.052.13.17.17,0,0,1-.13.043h-.769a.212.212,0,0,1-.13-.043.159.159,0,0,1-.043-.13V74.8a1.328,1.328,0,0,0-.328-.941,1.132,1.132,0,0,0-.872-.345,1.2,1.2,0,0,0-.89.345,1.258,1.258,0,0,0-.345.924v3.67a.212.212,0,0,1-.043.13.159.159,0,0,1-.13.043H191.7a.212.212,0,0,1-.13-.043.159.159,0,0,1-.043-.13V74.8a1.328,1.328,0,0,0-.328-.941,1.132,1.132,0,0,0-.872-.345,1.145,1.145,0,0,0-.872.345,1.284,1.284,0,0,0-.328.924v3.67a.212.212,0,0,1-.043.13.159.159,0,0,1-.13.043h-.777a.212.212,0,0,1-.13-.043.17.17,0,0,1-.043-.13V72.8a.212.212,0,0,1,.043-.13.176.176,0,0,1,.13-.052h.777a.176.176,0,0,1,.13.052.17.17,0,0,1,.043.13v.32c0,.026.009.043.026.043a.038.038,0,0,0,.043-.009,1.89,1.89,0,0,1,1.5-.613,2.09,2.09,0,0,1,1.019.233,1.643,1.643,0,0,1,.665.665c.026.035.052.035.086,0a1.646,1.646,0,0,1,.734-.682,2.4,2.4,0,0,1,1.036-.216A1.883,1.883,0,0,1,195.677,73.075Z" transform="translate(-130.917 -70.234)"/><path class="a" d="M204.419,75.638a4.789,4.789,0,0,1-.181,1.434,2.415,2.415,0,0,1-.82,1.218,2.3,2.3,0,0,1-1.451.44,1.84,1.84,0,0,1-.76-.155,1.7,1.7,0,0,1-.6-.449c-.017-.017-.035-.026-.043-.017s-.026.017-.026.043v2.556a.212.212,0,0,1-.043.13.159.159,0,0,1-.13.043h-.777a.212.212,0,0,1-.13-.043.159.159,0,0,1-.043-.13V72.8a.212.212,0,0,1,.043-.13.176.176,0,0,1,.13-.052h.777a.176.176,0,0,1,.13.052.17.17,0,0,1,.043.13v.311c0,.026.009.043.026.043a.038.038,0,0,0,.043-.009,1.932,1.932,0,0,1,.6-.458,1.845,1.845,0,0,1,.76-.164,2.237,2.237,0,0,1,1.408.423,2.385,2.385,0,0,1,.82,1.183A4.194,4.194,0,0,1,204.419,75.638Zm-1.14-.017a3.125,3.125,0,0,0-.294-1.468,1.177,1.177,0,0,0-1.131-.648,1.119,1.119,0,0,0-1.028.639,3.1,3.1,0,0,0-.285,1.485,3.057,3.057,0,0,0,.311,1.511,1.1,1.1,0,0,0,1,.6,1.186,1.186,0,0,0,1.054-.57A2.858,2.858,0,0,0,203.279,75.62Z" transform="translate(-132.473 -70.231)"/><path class="a" d="M210.277,72.779a1.969,1.969,0,0,1,.829.708,1.906,1.906,0,0,1,.285,1.036v3.929a.212.212,0,0,1-.043.13.159.159,0,0,1-.13.043h-.777a.212.212,0,0,1-.13-.043.17.17,0,0,1-.043-.13v-.328c0-.026-.009-.043-.026-.043a.038.038,0,0,0-.043.009,2.336,2.336,0,0,1-.786.475,2.805,2.805,0,0,1-.984.164,2.2,2.2,0,0,1-1.416-.44,1.6,1.6,0,0,1-.553-1.339,1.776,1.776,0,0,1,.648-1.451,2.759,2.759,0,0,1,1.8-.527h1.313c.043,0,.06-.017.06-.06V74.6a1.1,1.1,0,0,0-.3-.812,1.292,1.292,0,0,0-.915-.285,1.512,1.512,0,0,0-.786.181.855.855,0,0,0-.4.492.173.173,0,0,1-.2.138l-.846-.1a.293.293,0,0,1-.13-.052.094.094,0,0,1-.035-.1,1.6,1.6,0,0,1,.76-1.105,2.905,2.905,0,0,1,1.615-.432A2.835,2.835,0,0,1,210.277,72.779Zm-.484,4.655a.988.988,0,0,0,.466-.838v-.682a.055.055,0,0,0-.06-.06h-1.1a2.006,2.006,0,0,0-1.114.276.857.857,0,0,0-.415.76.775.775,0,0,0,.311.665,1.369,1.369,0,0,0,.812.225A1.9,1.9,0,0,0,209.793,77.434Z" transform="translate(-133.435 -70.231)"/><path class="a" d="M214.773,78.494a1.828,1.828,0,0,1-.829-.587,1.276,1.276,0,0,1-.294-.82v-.069a.212.212,0,0,1,.043-.13.17.17,0,0,1,.13-.043h.734a.288.288,0,0,1,.13.026c.035.017.043.035.043.06v.1a.7.7,0,0,0,.363.579,1.58,1.58,0,0,0,.907.25,1.47,1.47,0,0,0,.872-.233.7.7,0,0,0,.328-.587.548.548,0,0,0-.311-.51,5.207,5.207,0,0,0-.993-.363,8.49,8.49,0,0,1-1.131-.389,2.166,2.166,0,0,1-.769-.553,1.375,1.375,0,0,1-.311-.924,1.5,1.5,0,0,1,.622-1.261,2.688,2.688,0,0,1,1.649-.466,3.084,3.084,0,0,1,1.209.216,1.847,1.847,0,0,1,.812.6,1.445,1.445,0,0,1,.285.872.164.164,0,0,1-.043.112.212.212,0,0,1-.13.043h-.708a.288.288,0,0,1-.13-.026c-.035-.017-.043-.035-.043-.06v-.069a.67.67,0,0,0-.337-.57,1.578,1.578,0,0,0-.915-.233,1.636,1.636,0,0,0-.846.2.618.618,0,0,0-.328.544.561.561,0,0,0,.311.518,5.639,5.639,0,0,0,1.01.38,11.9,11.9,0,0,1,1.14.371,2.047,2.047,0,0,1,.777.544,1.353,1.353,0,0,1,.32.941,1.514,1.514,0,0,1-.63,1.278,2.791,2.791,0,0,1-1.693.475A3.263,3.263,0,0,1,214.773,78.494Z" transform="translate(-134.415 -70.238)"/></g><g transform="translate(98.225)"><path class="a" d="M221.273,78.494a1.828,1.828,0,0,1-.829-.587,1.276,1.276,0,0,1-.294-.82v-.069a.212.212,0,0,1,.043-.13.17.17,0,0,1,.13-.043h.734a.288.288,0,0,1,.13.026c.035.017.043.035.043.06v.1a.7.7,0,0,0,.363.579,1.58,1.58,0,0,0,.907.25,1.47,1.47,0,0,0,.872-.233.7.7,0,0,0,.328-.587.548.548,0,0,0-.311-.51,5.206,5.206,0,0,0-.993-.363,8.489,8.489,0,0,1-1.131-.389,2.166,2.166,0,0,1-.769-.553,1.375,1.375,0,0,1-.311-.924,1.5,1.5,0,0,1,.622-1.261,2.688,2.688,0,0,1,1.649-.466,3.084,3.084,0,0,1,1.209.216,1.847,1.847,0,0,1,.812.6,1.445,1.445,0,0,1,.285.872.164.164,0,0,1-.043.112.212.212,0,0,1-.13.043h-.708a.288.288,0,0,1-.13-.026c-.035-.017-.043-.035-.043-.06v-.069a.67.67,0,0,0-.337-.57,1.578,1.578,0,0,0-.915-.233,1.636,1.636,0,0,0-.846.2.619.619,0,0,0-.328.544.561.561,0,0,0,.311.518,5.64,5.64,0,0,0,1.01.38,11.905,11.905,0,0,1,1.14.371,2.047,2.047,0,0,1,.777.544,1.353,1.353,0,0,1,.32.941,1.514,1.514,0,0,1-.63,1.278,2.791,2.791,0,0,1-1.693.475A3.263,3.263,0,0,1,221.273,78.494Z" transform="translate(-220.15 -70.238)"/><path class="a" d="M227.186,71.148a.7.7,0,0,1-.216-.535.69.69,0,0,1,.216-.535.791.791,0,0,1,.561-.207.756.756,0,0,1,.553.207.736.736,0,0,1,.216.535.7.7,0,0,1-.216.535.756.756,0,0,1-.553.207A.791.791,0,0,1,227.186,71.148Zm.043,7.073a.169.169,0,0,1-.043-.13V72.435a.212.212,0,0,1,.043-.13.175.175,0,0,1,.129-.052h.777a.176.176,0,0,1,.13.052.17.17,0,0,1,.043.13v5.657a.212.212,0,0,1-.043.13.159.159,0,0,1-.13.043h-.777A.142.142,0,0,1,227.229,78.221Z" transform="translate(-221.08 -69.87)"/><path class="a" d="M231.453,78.28a2.321,2.321,0,0,1-.907-1.235,4.643,4.643,0,0,1-.216-1.442,4.477,4.477,0,0,1,.2-1.416,2.366,2.366,0,0,1,.907-1.226,2.626,2.626,0,0,1,1.546-.44,2.534,2.534,0,0,1,1.485.44,2.417,2.417,0,0,1,.907,1.209,4.866,4.866,0,0,1,0,2.867,2.351,2.351,0,0,1-.9,1.235,2.836,2.836,0,0,1-3.023.009Zm2.358-.8a1.482,1.482,0,0,0,.51-.751,4.111,4.111,0,0,0,.13-1.114,4.33,4.33,0,0,0-.121-1.1,1.467,1.467,0,0,0-.509-.751,1.39,1.39,0,0,0-.864-.268,1.332,1.332,0,0,0-.838.268,1.52,1.52,0,0,0-.51.751,3.769,3.769,0,0,0-.129,1.1,3.943,3.943,0,0,0,.129,1.114,1.351,1.351,0,0,0,1.373,1.019A1.324,1.324,0,0,0,233.81,77.477Z" transform="translate(-221.539 -70.231)"/><path class="a" d="M242.357,73.1a2.032,2.032,0,0,1,.57,1.52v3.843a.176.176,0,0,1-.052.13.17.17,0,0,1-.13.043h-.777a.212.212,0,0,1-.13-.043.159.159,0,0,1-.043-.13V74.836a1.32,1.32,0,0,0-.345-.959,1.19,1.19,0,0,0-.907-.363,1.277,1.277,0,0,0-.855.3,1.173,1.173,0,0,0-.406.812v3.826a.212.212,0,0,1-.043.13.159.159,0,0,1-.13.043h-.777a.212.212,0,0,1-.13-.043.17.17,0,0,1-.043-.13V72.8a.212.212,0,0,1,.043-.13.176.176,0,0,1,.13-.052h.777a.176.176,0,0,1,.13.052.169.169,0,0,1,.043.13v.328c0,.026.009.043.026.043s.026,0,.035-.009a1.792,1.792,0,0,1,1.485-.63A2.1,2.1,0,0,1,242.357,73.1Z" transform="translate(-222.607 -70.233)"/><path class="a" d="M248.957,72.779a1.97,1.97,0,0,1,.829.708,1.906,1.906,0,0,1,.285,1.036v3.929a.212.212,0,0,1-.043.13.159.159,0,0,1-.13.043h-.777a.212.212,0,0,1-.13-.043.17.17,0,0,1-.043-.13v-.328c0-.026-.009-.043-.026-.043a.038.038,0,0,0-.043.009,2.336,2.336,0,0,1-.786.475,2.805,2.805,0,0,1-.985.164,2.2,2.2,0,0,1-1.416-.44,1.6,1.6,0,0,1-.553-1.339,1.776,1.776,0,0,1,.648-1.451,2.759,2.759,0,0,1,1.8-.527h1.313c.043,0,.06-.017.06-.06V74.6a1.1,1.1,0,0,0-.3-.812,1.292,1.292,0,0,0-.915-.285,1.512,1.512,0,0,0-.786.181.854.854,0,0,0-.4.492.173.173,0,0,1-.2.138l-.846-.1a.292.292,0,0,1-.13-.052.094.094,0,0,1-.035-.1,1.6,1.6,0,0,1,.76-1.105,2.905,2.905,0,0,1,1.615-.432A2.808,2.808,0,0,1,248.957,72.779Zm-.484,4.655a.988.988,0,0,0,.466-.838v-.682a.055.055,0,0,0-.06-.06h-1.1a2.005,2.005,0,0,0-1.114.276.857.857,0,0,0-.415.76.775.775,0,0,0,.311.665,1.369,1.369,0,0,0,.812.225A1.883,1.883,0,0,0,248.473,77.434Z" transform="translate(-223.559 -70.231)"/><path class="a" d="M255.467,73.273a.17.17,0,0,1-.13.043h-1.209c-.043,0-.06.017-.06.06v3.083a.962.962,0,0,0,.216.717,1,1,0,0,0,.7.216h.285a.212.212,0,0,1,.13.043.17.17,0,0,1,.043.13v.613c0,.112-.06.173-.181.19l-.484.009a2.31,2.31,0,0,1-1.356-.32,1.4,1.4,0,0,1-.449-1.192v-3.5c0-.043-.017-.06-.06-.06h-.648a.212.212,0,0,1-.13-.043.17.17,0,0,1-.043-.13v-.579a.212.212,0,0,1,.043-.13.176.176,0,0,1,.13-.052h.648c.043,0,.06-.017.06-.06V70.993a.176.176,0,0,1,.052-.13.17.17,0,0,1,.13-.043h.734a.212.212,0,0,1,.13.043.17.17,0,0,1,.043.13v1.321c0,.043.017.06.06.06h1.209a.176.176,0,0,1,.13.052.17.17,0,0,1,.043.13v.579A.176.176,0,0,1,255.467,73.273Z" transform="translate(-224.507 -70)"/></g><g transform="translate(130.23 0.13)"><path class="a" d="M261.277,77.009q.065-.1.13-.1a.138.138,0,0,1,.1.035l.484.294a.193.193,0,0,1,.095.155l-.026.1a2.237,2.237,0,0,1-.907.907,2.774,2.774,0,0,1-1.364.328,2.545,2.545,0,0,1-1.416-.371,2.293,2.293,0,0,1-.872-1.071,4.425,4.425,0,0,1-.294-1.693,5.033,5.033,0,0,1,.13-1.313,2.226,2.226,0,0,1,.846-1.287,2.494,2.494,0,0,1,1.546-.475,2.319,2.319,0,0,1,1.71.587,2.976,2.976,0,0,1,.769,1.693,10.56,10.56,0,0,1,.086,1.062.16.16,0,0,1-.181.181h-3.731c-.043,0-.06.017-.06.06a2.744,2.744,0,0,0,.086.639,1.308,1.308,0,0,0,.518.743,1.638,1.638,0,0,0,.967.268A1.452,1.452,0,0,0,261.277,77.009Zm-2.383-3.256a1.243,1.243,0,0,0-.44.682,3.071,3.071,0,0,0-.1.665c0,.043.017.06.061.06h2.677c.043,0,.06-.017.06-.06a4.6,4.6,0,0,0-.069-.579,1.345,1.345,0,0,0-.466-.743,1.369,1.369,0,0,0-.872-.276A1.316,1.316,0,0,0,258.894,73.754Z" transform="translate(-257.21 -70.36)"/><path class="a" d="M275.647,70.063a.17.17,0,0,1,.043.13v.639a.212.212,0,0,1-.043.13.159.159,0,0,1-.13.043h-2.193c-.043,0-.06.017-.06.06V78.1a.212.212,0,0,1-.043.13.17.17,0,0,1-.13.043h-.777a.212.212,0,0,1-.13-.043.159.159,0,0,1-.043-.13V71.065c0-.043-.017-.06-.06-.06h-2.107a.212.212,0,0,1-.13-.043.17.17,0,0,1-.043-.13v-.639a.212.212,0,0,1,.043-.13.17.17,0,0,1,.13-.043h5.544A.212.212,0,0,1,275.647,70.063Z" transform="translate(-258.927 -70.02)"/></g><g transform="translate(147.208)"><path class="a" d="M280.937,77.009q.065-.1.13-.1a.138.138,0,0,1,.1.035l.484.294a.193.193,0,0,1,.095.155l-.026.1a2.236,2.236,0,0,1-.907.907,2.774,2.774,0,0,1-1.364.328,2.545,2.545,0,0,1-1.416-.371,2.293,2.293,0,0,1-.872-1.071,4.425,4.425,0,0,1-.294-1.693A5.035,5.035,0,0,1,277,74.272a2.227,2.227,0,0,1,.846-1.287,2.494,2.494,0,0,1,1.546-.475,2.319,2.319,0,0,1,1.71.587,2.976,2.976,0,0,1,.769,1.693,10.578,10.578,0,0,1,.086,1.062.16.16,0,0,1-.181.181h-3.731c-.043,0-.06.017-.06.06a2.743,2.743,0,0,0,.086.639,1.307,1.307,0,0,0,.518.743,1.638,1.638,0,0,0,.967.268A1.452,1.452,0,0,0,280.937,77.009Zm-2.383-3.256a1.243,1.243,0,0,0-.44.682,3.072,3.072,0,0,0-.1.665c0,.043.017.06.06.06h2.677c.043,0,.061-.017.061-.06a4.611,4.611,0,0,0-.069-.579,1.344,1.344,0,0,0-.466-.743,1.368,1.368,0,0,0-.872-.276A1.316,1.316,0,0,0,278.554,73.754Z" transform="translate(-276.87 -70.23)"/><path class="a" d="M285.263,78.494a1.827,1.827,0,0,1-.829-.587,1.276,1.276,0,0,1-.294-.82v-.069a.212.212,0,0,1,.043-.13.17.17,0,0,1,.13-.043h.734a.288.288,0,0,1,.129.026c.035.017.043.035.043.06v.1a.7.7,0,0,0,.363.579,1.581,1.581,0,0,0,.907.25,1.47,1.47,0,0,0,.872-.233.7.7,0,0,0,.328-.587.549.549,0,0,0-.311-.51,5.2,5.2,0,0,0-.993-.363,8.487,8.487,0,0,1-1.131-.389,2.166,2.166,0,0,1-.769-.553,1.375,1.375,0,0,1-.311-.924,1.5,1.5,0,0,1,.622-1.261,2.688,2.688,0,0,1,1.649-.466,3.084,3.084,0,0,1,1.209.216,1.847,1.847,0,0,1,.812.6,1.445,1.445,0,0,1,.285.872.164.164,0,0,1-.043.112.212.212,0,0,1-.13.043h-.708a.289.289,0,0,1-.13-.026c-.035-.017-.043-.035-.043-.06v-.069a.67.67,0,0,0-.337-.57,1.578,1.578,0,0,0-.915-.233,1.636,1.636,0,0,0-.846.2.618.618,0,0,0-.328.544.561.561,0,0,0,.311.518,5.644,5.644,0,0,0,1.01.38,11.9,11.9,0,0,1,1.14.371,2.047,2.047,0,0,1,.777.544,1.353,1.353,0,0,1,.32.941,1.514,1.514,0,0,1-.63,1.278,2.791,2.791,0,0,1-1.693.475A3.263,3.263,0,0,1,285.263,78.494Z" transform="translate(-277.862 -70.238)"/><path class="a" d="M293.947,73.273a.17.17,0,0,1-.129.043h-1.209c-.043,0-.06.017-.06.06v3.083a.962.962,0,0,0,.216.717,1,1,0,0,0,.7.216h.285a.212.212,0,0,1,.129.043.169.169,0,0,1,.043.13v.613c0,.112-.06.173-.181.19l-.484.009a2.31,2.31,0,0,1-1.356-.32,1.4,1.4,0,0,1-.449-1.192v-3.5c0-.043-.017-.06-.061-.06h-.648a.212.212,0,0,1-.13-.043.169.169,0,0,1-.043-.13v-.579a.212.212,0,0,1,.043-.13.176.176,0,0,1,.13-.052h.648c.043,0,.061-.017.061-.06V70.993a.176.176,0,0,1,.052-.13.17.17,0,0,1,.13-.043h.734a.212.212,0,0,1,.13.043.17.17,0,0,1,.043.13v1.321c0,.043.017.06.06.06h1.209a.176.176,0,0,1,.13.052.17.17,0,0,1,.043.13v.579A.176.176,0,0,1,293.947,73.273Z" transform="translate(-278.739 -70)"/><path class="a" d="M296.226,71.148a.7.7,0,0,1-.216-.535.69.69,0,0,1,.216-.535.791.791,0,0,1,.561-.207.756.756,0,0,1,.553.207.736.736,0,0,1,.216.535.7.7,0,0,1-.216.535.756.756,0,0,1-.553.207A.791.791,0,0,1,296.226,71.148Zm.043,7.073a.17.17,0,0,1-.043-.13V72.435a.212.212,0,0,1,.043-.13.176.176,0,0,1,.13-.052h.777a.176.176,0,0,1,.13.052.17.17,0,0,1,.043.13v5.657a.212.212,0,0,1-.043.13.159.159,0,0,1-.13.043H296.4A.128.128,0,0,1,296.269,78.221Z" transform="translate(-279.481 -69.87)"/><path class="a" d="M303.8,73.1a2.032,2.032,0,0,1,.57,1.52v3.843a.176.176,0,0,1-.052.13.17.17,0,0,1-.13.043h-.777a.212.212,0,0,1-.13-.043.159.159,0,0,1-.043-.13V74.836a1.32,1.32,0,0,0-.345-.959,1.19,1.19,0,0,0-.907-.363,1.277,1.277,0,0,0-.855.3,1.173,1.173,0,0,0-.406.812v3.826a.213.213,0,0,1-.043.13.159.159,0,0,1-.13.043h-.777a.212.212,0,0,1-.13-.043.17.17,0,0,1-.043-.13V72.8a.212.212,0,0,1,.043-.13.176.176,0,0,1,.13-.052h.777a.176.176,0,0,1,.13.052.17.17,0,0,1,.043.13v.328c0,.026.009.043.026.043s.026,0,.035-.009a1.792,1.792,0,0,1,1.485-.63A2.1,2.1,0,0,1,303.8,73.1Z" transform="translate(-279.97 -70.233)"/><path class="a" d="M310.7,72.667a.176.176,0,0,1,.13-.052h.777a.176.176,0,0,1,.13.052.169.169,0,0,1,.043.13v5.527a2.4,2.4,0,0,1-.812,2.038,3.448,3.448,0,0,1-2.159.622q-.194,0-.544-.026c-.112,0-.164-.06-.164-.19l.026-.7a.155.155,0,0,1,.06-.13.162.162,0,0,1,.138-.035c.112.009.268.009.458.009a2.157,2.157,0,0,0,1.416-.371,1.571,1.571,0,0,0,.44-1.261v-.2a.04.04,0,0,0-.026-.043c-.017,0-.035,0-.043.017a1.83,1.83,0,0,1-1.442.57,2.584,2.584,0,0,1-1.39-.4,2.057,2.057,0,0,1-.855-1.183,5.257,5.257,0,0,1-.156-1.442,4.883,4.883,0,0,1,.181-1.511,2.19,2.19,0,0,1,2.15-1.572,1.959,1.959,0,0,1,1.511.579c.017.026.035.035.043.026a.074.074,0,0,0,.026-.043V72.8A.184.184,0,0,1,310.7,72.667Zm-.069,3.636c.009-.138.017-.38.017-.708s-.009-.561-.017-.7a2.014,2.014,0,0,0-.069-.4,1.315,1.315,0,0,0-2.081-.717,1.482,1.482,0,0,0-.475.717,3.423,3.423,0,0,0-.13,1.1A3.494,3.494,0,0,0,308,76.708a1.311,1.311,0,0,0,1.313.993,1.279,1.279,0,0,0,.846-.276,1.292,1.292,0,0,0,.423-.717A3.085,3.085,0,0,0,310.633,76.3Z" transform="translate(-280.943 -70.231)"/></g></g><path class="a" d="M113.675,36.809v10.6H106.36V17.18h11.848q5.389,0,8.213,2.677a9.437,9.437,0,0,1,2.824,7.2,9.963,9.963,0,0,1-1.261,5.026,8.723,8.723,0,0,1-3.739,3.463,13.231,13.231,0,0,1-6.028,1.261h-4.543Zm8.126-9.759q0-3.977-4.4-3.981h-3.722v7.867H117.4Q121.8,30.95,121.8,27.051Z" transform="translate(-106.36 -17.18)"/><path class="a" d="M147.857,25.537a9.008,9.008,0,0,1,4.681-1.287v7.824h-2.1a7.18,7.18,0,0,0-4.508,1.244q-1.606,1.244-1.606,4.188V48.37H137.01V24.509h7.315V29A10.494,10.494,0,0,1,147.857,25.537Z" transform="translate(-110.541 -18.144)"/><path class="a" d="M172.138,25.444a7.483,7.483,0,0,1,2.91,3.377V24.5h7.271V48.363h-7.271V44.045a7.438,7.438,0,0,1-2.91,3.377,8.617,8.617,0,0,1-4.707,1.244,9.668,9.668,0,0,1-5.285-1.477,10.083,10.083,0,0,1-3.679-4.258,14.775,14.775,0,0,1-1.347-6.5,14.7,14.7,0,0,1,1.347-6.52,10.112,10.112,0,0,1,3.679-4.232,9.668,9.668,0,0,1,5.285-1.477A8.789,8.789,0,0,1,172.138,25.444ZM166,32.162a6.022,6.022,0,0,0-1.434,4.275A6.022,6.022,0,0,0,166,40.712a5.369,5.369,0,0,0,7.565-.043,5.958,5.958,0,0,0,1.477-4.232,5.953,5.953,0,0,0-1.477-4.258A5.379,5.379,0,0,0,166,32.162Z" transform="translate(-113.284 -18.138)"/><path class="a" d="M214.393,37.767H197.838a5.563,5.563,0,0,0,1.364,3.869,4.407,4.407,0,0,0,3.161,1.174A4.327,4.327,0,0,0,205.057,42a3.81,3.81,0,0,0,1.408-2.1H214.2a10.058,10.058,0,0,1-2.055,4.508,10.9,10.9,0,0,1-4.024,3.126,12.663,12.663,0,0,1-5.432,1.131,12.834,12.834,0,0,1-6.227-1.477,10.526,10.526,0,0,1-4.258-4.258,13.213,13.213,0,0,1-1.537-6.5,13.325,13.325,0,0,1,1.52-6.52,10.36,10.36,0,0,1,4.258-4.232,14.048,14.048,0,0,1,12.488-.026,10.271,10.271,0,0,1,4.171,4.085,12.16,12.16,0,0,1,1.477,6.054A8.628,8.628,0,0,1,214.393,37.767Zm-8.446-6.606a4.635,4.635,0,0,0-3.23-1.174,4.761,4.761,0,0,0-3.333,1.2,5.012,5.012,0,0,0-1.494,3.506h9.327A4.44,4.44,0,0,0,205.947,31.161Z" transform="translate(-117.861 -18.138)"/><path class="a" d="M236.367,25.444a7.482,7.482,0,0,1,2.91,3.377V24.5h7.271v23.74a13.73,13.73,0,0,1-1.287,6.011,9.844,9.844,0,0,1-3.938,4.258,12.684,12.684,0,0,1-6.589,1.58,13.508,13.508,0,0,1-8.619-2.548,10.333,10.333,0,0,1-3.869-6.909h7.228a3.6,3.6,0,0,0,1.563,2.263,5.7,5.7,0,0,0,3.187.812,5.1,5.1,0,0,0,3.653-1.3,5.508,5.508,0,0,0,1.39-4.171V44.045a7.439,7.439,0,0,1-2.91,3.377,8.618,8.618,0,0,1-4.707,1.244,9.668,9.668,0,0,1-5.285-1.477,10.083,10.083,0,0,1-3.679-4.258,14.775,14.775,0,0,1-1.347-6.5,14.7,14.7,0,0,1,1.347-6.52,10.112,10.112,0,0,1,3.679-4.232,9.668,9.668,0,0,1,5.285-1.477A8.8,8.8,0,0,1,236.367,25.444Zm-6.14,6.719a6.022,6.022,0,0,0-1.434,4.275,6.022,6.022,0,0,0,1.434,4.275,5.369,5.369,0,0,0,7.565-.043,5.958,5.958,0,0,0,1.477-4.232,5.953,5.953,0,0,0-1.477-4.258,5.379,5.379,0,0,0-7.565-.017Z" transform="translate(-122.044 -18.138)"/><path class="a" d="M280.047,24.55V48.411h-7.358V44.093a7.85,7.85,0,0,1-3.057,3.333,8.866,8.866,0,0,1-4.724,1.244,8.258,8.258,0,0,1-6.52-2.738A10.961,10.961,0,0,1,255.97,38.4V24.55h7.271V37.513A5.336,5.336,0,0,0,264.5,41.3a4.436,4.436,0,0,0,3.4,1.347,4.492,4.492,0,0,0,3.506-1.408,5.767,5.767,0,0,0,1.287-4.016V24.55Z" transform="translate(-126.768 -18.185)"/><path class="a" d="M305.484,26.471a9.844,9.844,0,0,1,3.4,5.985h-6.84a3.8,3.8,0,0,0-1.347-2.289,4.111,4.111,0,0,0-2.634-.838,2.9,2.9,0,0,0-1.883.535,1.852,1.852,0,0,0-.639,1.52,1.775,1.775,0,0,0,1.174,1.667,18.875,18.875,0,0,0,3.7,1.114,37.756,37.756,0,0,1,4.491,1.3,7.384,7.384,0,0,1,3.04,2.159,5.987,5.987,0,0,1,1.287,4.024,6.164,6.164,0,0,1-1.114,3.636,7.342,7.342,0,0,1-3.2,2.479,12.577,12.577,0,0,1-4.957.9,12.763,12.763,0,0,1-7.738-2.142,8.986,8.986,0,0,1-3.549-6.114h7.056a3.163,3.163,0,0,0,1.3,2.349,4.891,4.891,0,0,0,2.928.812,2.715,2.715,0,0,0,1.883-.579,1.934,1.934,0,0,0,.639-1.52A1.812,1.812,0,0,0,301.3,39.7a21.877,21.877,0,0,0-3.826-1.131,29.982,29.982,0,0,1-4.361-1.2,7.23,7.23,0,0,1-2.954-2.073,5.779,5.779,0,0,1-1.244-3.912,6.394,6.394,0,0,1,2.435-5.2c1.624-1.33,3.921-1.986,6.883-1.986A10.976,10.976,0,0,1,305.484,26.471Z" transform="translate(-131.228 -18.138)"/></g><path class="b" d="M40.82,8.09A33.015,33.015,0,1,0,73.55,41.1,32.908,32.908,0,0,0,40.82,8.09ZM55.726,39.91c-3.618,6.176-10.8,6.969-11.615,7.038l-3.558.81,2.971,13.353a3.218,3.218,0,0,1-.406,2.422,2.643,2.643,0,0,1-.63.671c-.121.1-.276.235-.475.409a3.359,3.359,0,0,1-.881.462,4.666,4.666,0,0,0-.432.2l-.086.044a20.743,20.743,0,0,1-2.142.47,10.929,10.929,0,0,1-1.762.218,2.073,2.073,0,0,1-.328-.017l.017-.2-.043.192A3.634,3.634,0,0,1,33.471,64.6a3.258,3.258,0,0,1-.484-1.124c-1.814-6.925-3.523-13.981-5.061-20.993-1.364-6.2-2.634-12.526-3.783-18.806a3.216,3.216,0,0,1-.017-1.341,3.266,3.266,0,0,1,.423-1.071,3.126,3.126,0,0,1,1.96-1.42L36.4,17.306c.82-.322,8.429-3.1,14.707,1.429A15.572,15.572,0,0,1,56.874,27.9C57.315,29.649,58.662,34.91,55.726,39.91Z" transform="translate(-1.104 -1.104)"/><path class="b" d="M43.01,41.4s-2.634-11.641-2.53-11.27l3.826-.855a4.6,4.6,0,0,1,3.722.294c1.114.743,1.364,2.1,1.865,4.8.44,2.358.665,3.541.052,4.465-.57.872-1.52,1.356-3.5,1.8Z" transform="translate(-5.521 -3.747)"/><path class="b" d="M39.717,0A40,40,0,1,0,79.433,40,39.859,39.859,0,0,0,39.717,0Zm0,74.2A34.2,34.2,0,1,1,73.673,40,34.118,34.118,0,0,1,39.717,74.2Z"/><path class="b" d="M303.838,61.22H254.57v1.641h49.268a.82.82,0,1,0,0-1.641Z" transform="translate(-32.799 -7.966)"/><path class="b" d="M202.38,61.35a.835.835,0,0,0-.406-.13H107.22a.82.82,0,0,0,0,1.641h94.745a.731.731,0,0,0,.406-.13V61.35Z" transform="translate(-13.496 -7.966)"/></svg>