<svg xmlns="http://www.w3.org/2000/svg"  viewBox="0 0 20 12" style="margin-top: 3px">
  <g fill="none">
    <polygon fill="#73AF00" points="3 12 3 9 20 9 20 12"/>
    <polygon fill="#FF4B55" points="3 0 3 9 20 9 20 0"/>
    <polygon fill="#F5F5F5" points="3 12 0 12 0 0 3 0"/>
    <path fill="#FF4B55" width="24" height="24" d="M0.5,11.4325832 L0.617898076,11.4325832 L0.617898076,11.121453 L0.5,11.121453 L0.5,11.4325832 Z M1.44099432,11.4325832 L1.55893016,11.4325832 L1.55893016,11.121453 L1.44099432,11.121453 L1.44099432,11.4325832 Z M2.38259285,11.4325832 L2.49996224,11.4325832 L2.49996224,11.121453 L2.38259285,11.121453 L2.38259285,11.4325832 Z M0.971101376,10.5983987 L1.08782878,10.5983987 L1.08782878,10.3391116 L0.971101376,10.3391116 L0.971101376,10.5983987 Z M1.91266215,10.5983987 L2.03003153,10.5983987 L2.03003153,10.3391116 L1.91266215,10.3391116 L1.91266215,10.5983987 Z M0.5,9.92201938 L0.617898076,9.92201938 L0.617898076,9.61088918 L0.5,9.61088918 L0.5,9.92201938 Z M1.44099432,9.92201938 L1.55893016,9.92201938 L1.55893016,9.61088918 L1.44099432,9.61088918 L1.44099432,9.92201938 Z M2.38259285,9.92201938 L2.49996224,9.92201938 L2.49996224,9.61088918 L2.38259285,9.61088918 L2.38259285,9.92201938 Z M0.736438134,10.3391116 L0.853165537,10.3391116 L0.853165537,10.0775134 L0.971101376,10.0775134 L0.971101376,9.81822635 L1.08782878,9.81822635 L1.08782878,10.0775134 L1.20636884,10.0775134 L1.20636884,10.3391116 L1.32309624,10.3391116 L1.32309624,10.5983987 L1.20636884,10.5983987 L1.20636884,10.8598903 L1.08782878,10.8598903 L1.08782878,11.1213819 L0.971101376,11.1213819 L0.971101376,10.8598903 L0.853165537,10.8598903 L0.853165537,10.5983987 L0.736438134,10.5983987 L0.736438134,10.3391116 Z M1.67747021,10.3391116 L1.79536829,10.3391116 L1.79536829,10.0775134 L1.91269991,10.0775134 L1.91269991,9.81822635 L2.0300693,9.81822635 L2.0300693,10.0775134 L2.14740092,10.0775134 L2.14740092,10.3391116 L2.26529899,10.3391116 L2.26529899,10.5983987 L2.14740092,10.5983987 L2.14740092,10.8598903 L2.0300693,10.8598903 L2.0300693,11.1213819 L1.91269991,11.1213819 L1.91269991,10.8598903 L1.79536829,10.8598903 L1.79536829,10.5983987 L1.67747021,10.5983987 L1.67747021,10.3391116 Z M1.91266215,9.29748328 L1.91266215,9.5567703 L1.79419762,9.5567703 L1.79419762,9.8182619 L1.67747021,9.8182619 L1.67747021,10.0775489 L1.55893016,10.0775489 L1.55893016,10.3391472 L1.44099432,10.3391472 L1.44099432,10.0775489 L1.32305848,10.0775489 L1.32305848,9.8182619 L1.20633107,9.8182619 L1.20633107,9.5567703 L1.08779102,9.5567703 L1.08779102,9.29748328 L0.971063613,9.29748328 L0.971063613,9.5567703 L0.853127773,9.5567703 L0.853127773,9.8182619 L0.73640037,9.8182619 L0.73640037,10.0775489 L0.617860312,10.0775489 L0.617860312,10.3391472 L0.5,10.3391472 L0.5,10.5984342 L0.617898076,10.5984342 L0.617898076,10.8599258 L0.736438134,10.8599258 L0.736438134,11.1214174 L0.853165537,11.1214174 L0.853165537,11.3807045 L0.971101376,11.3807045 L0.971101376,11.640027 L1.08903722,11.640027 L1.08903722,11.3807045 L1.20636884,11.3807045 L1.20636884,11.1214174 L1.32309624,11.1214174 L1.32309624,10.8599258 L1.44103208,10.8599258 L1.44103208,10.5984342 L1.55896792,10.5984342 L1.55896792,10.8599258 L1.67750798,10.8599258 L1.67750798,11.1214174 L1.79540605,11.1214174 L1.79540605,11.3807045 L1.91273767,11.3807045 L1.91273767,11.640027 L2.03010706,11.640027 L2.03010706,11.3807045 L2.14743868,11.3807045 L2.14743868,11.1214174 L2.26533676,11.1214174 L2.26533676,10.8599258 L2.3832726,10.8599258 L2.3832726,10.5984342 L2.5,10.5984342 L2.5,10.3391472 L2.38263061,10.3391472 L2.38263061,10.0775489 L2.26533676,10.0775489 L2.26533676,9.8182619 L2.14743868,9.8182619 L2.14743868,9.5567703 L2.03010706,9.5567703 L2.03010706,9.29748328 L1.91266215,9.29748328 Z M2.20419743,9.03826737 L2.26288212,9.03826737 L2.26288212,8.934581 L2.32213327,8.934581 L2.32213327,9.03826737 L2.38138441,9.03826737 L2.38138441,9.14191817 L2.32213327,9.14191817 L2.32213327,9.24788023 L2.26288212,9.24788023 L2.26288212,9.14191817 L2.20419743,9.14191817 L2.20419743,9.03826737 Z M2.20419743,8.67522286 L2.20419743,8.82858339 L2.14615472,8.82858339 L2.14615472,8.98638863 L2.08690357,8.98638863 L2.08690357,9.19383247 L2.14615472,9.19383247 L2.14615472,9.34936201 L2.20419743,9.34936201 L2.20419743,9.50489156 L2.38142218,9.50489156 L2.38142218,9.34936201 L2.44010687,9.34936201 L2.44010687,9.19383247 L2.49814958,9.19383247 L2.49814958,8.98638863 L2.44010687,8.98638863 L2.44010687,8.82858339 L2.38142218,8.82858339 L2.38142218,8.67522286 L2.20419743,8.67522286 Z M0.617898076,9.03595611 L0.677149223,9.03595611 L0.677149223,8.93230531 L0.73640037,8.93230531 L0.73640037,9.03595611 L0.793838863,9.03595611 L0.793838863,9.14191817 L0.73640037,9.14191817 L0.73640037,9.24560454 L0.677149223,9.24560454 L0.677149223,9.14191817 L0.617898076,9.14191817 L0.617898076,9.03595611 Z M0.617898076,8.67294717 L0.617898076,8.82854783 L0.559213383,8.82854783 L0.559213383,8.98407737 L0.5,8.98407737 L0.5,9.19376135 L0.559213383,9.19376135 L0.559213383,9.3492909 L0.617898076,9.3492909 L0.617898076,9.50482044 L0.793876626,9.50482044 L0.793876626,9.3492909 L0.853127773,9.3492909 L0.853127773,9.19376135 L0.910641793,9.19376135 L0.910641793,8.98407737 L0.853127773,8.98407737 L0.853127773,8.82854783 L0.793876626,8.82854783 L0.793876626,8.67294717 L0.617898076,8.67294717 Z M1.264978,9.03595611 L1.32302071,9.03595611 L1.32302071,8.93230531 L1.38291384,8.93230531 L1.38291384,9.03595611 L1.44095655,9.03595611 L1.44095655,9.14191817 L1.38291384,9.14191817 L1.38291384,9.24560454 L1.32302071,9.24560454 L1.32302071,9.14191817 L1.264978,9.14191817 L1.264978,9.03595611 Z M1.55893016,9.03595611 L1.6181813,9.03595611 L1.6181813,8.93230531 L1.67743245,8.93230531 L1.67743245,9.03595611 L1.73547516,9.03595611 L1.73547516,9.14191817 L1.67743245,9.14191817 L1.67743245,9.24560454 L1.6181813,9.24560454 L1.6181813,9.14191817 L1.55893016,9.14191817 L1.55893016,9.03595611 Z M1.55893016,8.67294717 L1.55893016,8.82854783 L1.44099432,8.82854783 L1.44099432,8.67294717 L1.26501577,8.67294717 L1.26501577,8.82854783 L1.20633107,8.82854783 L1.20633107,8.98407737 L1.14707993,8.98407737 L1.14707993,9.19376135 L1.20633107,9.19376135 L1.20633107,9.3492909 L1.26501577,9.3492909 L1.26501577,9.50482044 L1.44099432,9.50482044 L1.44099432,9.3492909 L1.55893016,9.3492909 L1.55893016,9.50482044 L1.73551292,9.50482044 L1.73551292,9.3492909 L1.79536829,9.3492909 L1.79536829,9.19376135 L1.85288231,9.19376135 L1.85288231,8.98407737 L1.79536829,8.98407737 L1.79536829,8.82854783 L1.73551292,8.82854783 L1.73551292,8.67294717 L1.55893016,8.67294717 Z M0.5,8.56698511 L0.617898076,8.56698511 L0.617898076,8.25589046 L0.5,8.25589046 L0.5,8.56698511 Z M1.44099432,8.56698511 L1.55893016,8.56698511 L1.55893016,8.25589046 L1.44099432,8.25589046 L1.44099432,8.56698511 Z M2.38259285,8.56698511 L2.49996224,8.56698511 L2.49996224,8.25589046 L2.38259285,8.25589046 L2.38259285,8.56698511 Z M0.5,7.26606971 L0.617898076,7.26606971 L0.617898076,7.05869698 L0.5,7.05869698 L0.5,7.26606971 Z M2.38259285,7.26606971 L2.49996224,7.26606971 L2.49996224,7.05869698 L2.38259285,7.05869698 L2.38259285,7.26606971 Z M1.44099432,6.53784724 L1.55893016,6.53784724 L1.55893016,6.27856021 L1.44099432,6.27856021 L1.44099432,6.53784724 Z M0.5,5.83447963 L0.5,5.99000917 L0.5,5.99224931 L0.5,6.14777885 L0.617898076,6.14777885 L0.617898076,5.99224931 L0.617898076,5.99000917 L0.617898076,5.83447963 L0.5,5.83447963 Z M1.14704216,5.83447963 L1.14704216,5.99000917 L1.14704216,5.99224931 L1.14704216,6.14777885 L1.264978,6.14777885 L1.264978,5.99224931 L1.264978,5.99000917 L1.264978,5.83447963 L1.14704216,5.83447963 Z M1.73551292,5.83447963 L1.73551292,5.99000917 L1.73551292,5.99224931 L1.73551292,6.14777885 L1.85284455,6.14777885 L1.85284455,5.99224931 L1.85284455,5.99000917 L1.85284455,5.83447963 L1.73551292,5.83447963 Z M2.38259285,5.83447963 L2.38259285,5.99000917 L2.38259285,5.99224931 L2.38259285,6.14777885 L2.49996224,6.14777885 L2.49996224,5.99224931 L2.49996224,5.99000917 L2.49996224,5.83447963 L2.38259285,5.83447963 Z M1.6181813,5.65189064 L1.6181813,5.75557701 L1.55893016,5.75557701 L1.55893016,5.83447963 L1.44099432,5.83447963 L1.44099432,5.75557701 L1.38295161,5.75557701 L1.38295161,5.65189064 L1.26501577,5.65189064 L1.26501577,5.80742019 L1.32305848,5.80742019 L1.32305848,5.88632281 L1.38295161,5.88632281 L1.38295161,5.99000917 L1.38295161,5.99224931 L1.38295161,6.09373109 L1.32305848,6.09373109 L1.32305848,6.17263371 L1.26501577,6.17263371 L1.26501577,6.32816326 L1.38295161,6.32816326 L1.38295161,6.22451245 L1.44099432,6.22451245 L1.44099432,6.14781441 L1.55893016,6.14781441 L1.55893016,6.22451245 L1.6181813,6.22451245 L1.6181813,6.32816326 L1.73551292,6.32816326 L1.73551292,6.17263371 L1.67747021,6.17263371 L1.67747021,6.09373109 L1.61821907,6.09373109 L1.61821907,5.99224931 L1.61821907,5.99000917 L1.61821907,5.88632281 L1.67747021,5.88632281 L1.67747021,5.80742019 L1.73551292,5.80742019 L1.73551292,5.65189064 L1.6181813,5.65189064 Z M1.44099432,5.70366271 L1.55893016,5.70366271 L1.55893016,5.44437568 L1.44099432,5.44437568 L1.44099432,5.70366271 Z M0.5,4.9235615 L0.617898076,4.9235615 L0.617898076,4.71618877 L0.5,4.71618877 L0.5,4.9235615 Z M2.38259285,4.9235615 L2.49996224,4.9235615 L2.49996224,4.71618877 L2.38259285,4.71618877 L2.38259285,4.9235615 Z M0.5,3.72640358 L0.617898076,3.72640358 L0.617898076,3.41306879 L0.5,3.41306879 L0.5,3.72640358 Z M1.44099432,3.72640358 L1.55893016,3.72640358 L1.55893016,3.41306879 L1.44099432,3.41306879 L1.44099432,3.72640358 Z M2.38259285,3.72640358 L2.49996224,3.72640358 L2.49996224,3.41306879 L2.38259285,3.41306879 L2.38259285,3.72640358 Z M0.971101376,5.994525 L0.971101376,5.98776903 L0.971101376,5.88628725 L1.08782878,5.88628725 L1.08782878,5.70590285 L1.20636884,5.70590285 L1.20636884,5.49621887 L1.38295161,5.49621887 L1.38295161,5.2505149 L1.44099432,5.2505149 L1.44099432,5.13100534 L1.50028323,5.13100534 L1.55893016,5.13100534 L1.55893016,5.2482392 L1.6181813,5.2482392 L1.6181813,5.49625442 L1.79533053,5.49625442 L1.79533053,5.59994079 L1.79533053,5.70590285 L1.91266215,5.70590285 L1.91266215,5.88628725 L2.03003153,5.88628725 L2.03003153,5.99000917 L2.03003153,6.09369554 L1.91266215,6.09369554 L1.91266215,6.27856021 L1.79533053,6.27856021 L1.79533053,6.38224658 L1.79533053,6.48593294 L1.6181813,6.48593294 L1.6181813,6.73170803 L1.55893016,6.73170803 L1.55893016,6.84894189 L1.50028323,6.84894189 L1.44099432,6.84894189 L1.44099432,6.73170803 L1.38295161,6.73170803 L1.38295161,6.48593294 L1.20636884,6.48593294 L1.20636884,6.2784891 L1.08782878,6.2784891 L1.08782878,6.09362442 L0.971101376,6.09362442 L0.971101376,5.994525 Z M1.91266215,3.09966289 L1.91266215,3.3611545 L1.79419762,3.3611545 L1.79419762,3.62044152 L1.67747021,3.62044152 L1.67747021,3.8820398 L1.55893016,3.8820398 L1.55893016,4.08941253 L1.55893016,4.14129126 L1.44099432,4.14129126 L1.44099432,3.88200424 L1.32305848,3.88200424 L1.32305848,3.62040596 L1.20633107,3.62040596 L1.20633107,3.36111894 L1.08779102,3.36111894 L1.08779102,3.09962733 L0.971063613,3.09962733 L0.971063613,3.36111894 L0.853127773,3.36111894 L0.853127773,3.62040596 L0.735191934,3.62040596 L0.735191934,3.88200424 L0.617860312,3.88200424 L0.617860312,4.08937697 L0.617860312,4.14125571 L0.5,4.14125571 L0.5,4.40274731 L0.617898076,4.40274731 L0.617898076,4.66423892 L0.735229697,4.66423892 L0.735229697,4.92352594 L0.853165537,4.92352594 L0.853165537,5.18284852 L0.971101376,5.18284852 L0.971101376,4.92352594 L1.08782878,4.92352594 L1.08782878,4.66423892 L1.20636884,4.66423892 L1.20636884,4.40274731 L1.08782878,4.40274731 L1.08782878,4.08934141 L1.20636884,4.08934141 L1.20636884,4.14122015 L1.20636884,4.29902539 L1.32309624,4.29902539 L1.32309624,4.71615321 L1.38298937,4.71615321 L1.38298937,4.97316454 L1.2064066,4.97540468 L1.2064066,5.18284852 L1.08786654,5.18284852 L1.08786654,5.33837807 L0.97113914,5.33837807 L0.97113914,5.59986967 L0.853203301,5.59986967 L0.853203301,5.33837807 L0.735267461,5.33837807 L0.735267461,5.18284852 L0.61793584,5.18284852 L0.61793584,5.02724786 L0.5,5.02724786 L0.5,5.49618331 L0.617898076,5.49618331 L0.617898076,5.70586729 L0.735229697,5.70586729 L0.735229697,5.88625169 L0.853165537,5.88625169 L0.853165537,5.99000917 L0.853165537,5.99224931 L0.853165537,6.09373109 L0.735229697,6.09373109 L0.735229697,6.27859577 L0.617898076,6.27859577 L0.617898076,6.48603962 L0.5,6.48603962 L0.5,6.95497506 L0.617898076,6.95497506 L0.617898076,6.79713426 L0.735229697,6.79713426 L0.735229697,6.64160472 L0.853165537,6.64160472 L0.853165537,6.38231769 L0.971101376,6.38231769 L0.971101376,6.64160472 L1.08782878,6.64160472 L1.08782878,6.79713426 L1.20636884,6.79713426 L1.20636884,7.00681824 L1.38295161,7.00905838 L1.38295161,7.26606971 L1.32305848,7.26606971 L1.32305848,7.68319753 L1.20633107,7.68319753 L1.20633107,7.83872708 L1.20633107,7.89288151 L1.08779102,7.89288151 L1.08779102,7.57723547 L1.20633107,7.57723547 L1.20633107,7.31794845 L1.08779102,7.31794845 L1.08779102,7.05866143 L0.971063613,7.05866143 L0.971063613,6.79706315 L0.853127773,6.79706315 L0.853127773,7.05866143 L0.735191934,7.05866143 L0.735191934,7.31794845 L0.617860312,7.31794845 L0.617860312,7.57723547 L0.5,7.57723547 L0.5,7.83872708 L0.617898076,7.83872708 L0.617898076,7.89288151 L0.617898076,8.0980141 L0.736438134,8.0980141 L0.736438134,8.35961238 L0.853165537,8.35961238 L0.853165537,8.62110399 L0.971101376,8.62110399 L0.971101376,8.88039101 L1.08782878,8.88039101 L1.08782878,8.62110399 L1.20636884,8.62110399 L1.20636884,8.35961238 L1.32309624,8.35961238 L1.32309624,8.0980141 L1.44103208,8.0980141 L1.44103208,7.83872708 L1.55896792,7.83872708 L1.55896792,7.89288151 L1.55896792,8.0980141 L1.67750798,8.0980141 L1.67750798,8.35961238 L1.79540605,8.35961238 L1.79540605,8.62110399 L1.91273767,8.62110399 L1.91273767,8.88039101 L2.03010706,8.88039101 L2.03010706,8.62110399 L2.14743868,8.62110399 L2.14743868,8.35961238 L2.26533676,8.35961238 L2.26533676,8.0980141 L2.38263061,8.0980141 L2.38263061,7.83872708 L2.49996224,7.83872708 L2.49996224,7.57723547 L2.38259285,7.57723547 L2.38259285,7.31794845 L2.26529899,7.31794845 L2.26529899,7.05866143 L2.14740092,7.05866143 L2.14740092,6.79706315 L2.0300693,6.79706315 L2.0300693,7.05866143 L1.91269991,7.05866143 L1.91269991,7.31794845 L1.79423538,7.31794845 L1.79423538,7.57723547 L1.91269991,7.57723547 L1.91269991,7.83872708 L1.91269991,7.89288151 L1.79423538,7.89288151 L1.79423538,7.83872708 L1.79423538,7.68319753 L1.67750798,7.68319753 L1.67750798,7.26606971 L1.66070316,7.26606971 L1.61825683,7.26606971 L1.61825683,7.00678269 L1.66070316,7.00678269 L1.69246238,7.00678269 L1.73555069,7.00678269 L1.79540605,7.00678269 L1.79540605,6.79709871 L1.91273767,6.79709871 L1.91273767,6.64156916 L2.03010706,6.64156916 L2.03010706,6.38228214 L2.14743868,6.38228214 L2.14743868,6.64156916 L2.26533676,6.64156916 L2.26533676,6.79709871 L2.3832726,6.79709871 L2.3832726,6.9549395 L2.5,6.9549395 L2.5,6.48600406 L2.38323483,6.48600406 L2.38323483,6.27856021 L2.26529899,6.27856021 L2.26529899,6.09369554 L2.14740092,6.09369554 L2.14740092,5.99224931 L2.14740092,5.99000917 L2.14740092,5.88632281 L2.26529899,5.88632281 L2.26529899,5.7059384 L2.38323483,5.7059384 L2.38323483,5.49625442 L2.5,5.49625442 L2.5,5.02731898 L2.38323483,5.02731898 L2.38323483,5.18291964 L2.26529899,5.18291964 L2.26529899,5.33844918 L2.14740092,5.33844918 L2.14740092,5.59994079 L2.0300693,5.59994079 L2.0300693,5.33844918 L1.91269991,5.33844918 L1.91269991,5.18291964 L1.79536829,5.18291964 L1.79536829,4.9754758 L1.73551292,4.9754758 L1.69242461,4.9754758 L1.6606654,4.9754758 L1.61821907,4.9754758 L1.61821907,4.71618877 L1.6606654,4.71618877 L1.67747021,4.71618877 L1.67747021,4.29906095 L1.79419762,4.29906095 L1.79419762,4.14125571 L1.79419762,4.08937697 L1.91266215,4.08937697 L1.91266215,4.14125571 L1.91266215,4.40274731 L1.79419762,4.40274731 L1.79419762,4.66423892 L1.91266215,4.66423892 L1.91266215,4.92352594 L2.03003153,4.92352594 L2.03003153,5.18284852 L2.14736315,5.18284852 L2.14736315,4.92352594 L2.26526123,4.92352594 L2.26526123,4.66423892 L2.38255509,4.66423892 L2.38255509,4.40274731 L2.5,4.40274731 L2.5,4.14125571 L2.38263061,4.14125571 L2.38263061,3.88196868 L2.26533676,3.88196868 L2.26533676,3.6203704 L2.14743868,3.6203704 L2.14743868,3.36108338 L2.03010706,3.36108338 L2.03010706,3.09959178 L1.91266215,3.09959178 L1.91266215,3.09966289 Z M0.617898076,2.84037587 L0.676016314,2.84037587 L0.676016314,2.7366895 L0.736438134,2.7366895 L0.736438134,2.84037587 L0.793876626,2.84037587 L0.793876626,2.94406223 L0.736438134,2.94406223 L0.736438134,3.05002429 L0.676016314,3.05002429 L0.676016314,2.94406223 L0.617898076,2.94406223 L0.617898076,2.84037587 Z M0.617898076,2.63069189 L0.559213383,2.63069189 L0.559213383,2.78849713 L0.5,2.78849713 L0.5,2.99594097 L0.559213383,2.99594097 L0.559213383,3.15374621 L0.617898076,3.15374621 L0.617898076,3.30934687 L0.793876626,3.30934687 L0.793876626,3.15374621 L0.853127773,3.15374621 L0.853127773,2.99594097 L0.910641793,2.99594097 L0.910641793,2.78849713 L0.853127773,2.78849713 L0.853127773,2.63069189 L0.793876626,2.63069189 L0.793876626,2.47740248 L0.617898076,2.47740248 C0.617898076,2.47740248 0.617898076,2.63069189 0.617898076,2.63069189 Z M1.264978,2.84037587 L1.32302071,2.84037587 L1.32302071,2.7366895 L1.38291384,2.7366895 L1.38291384,2.84037587 L1.44095655,2.84037587 L1.44095655,2.94406223 L1.38291384,2.94406223 L1.38291384,3.05002429 L1.32302071,3.05002429 L1.32302071,2.94406223 L1.264978,2.94406223 L1.264978,2.84037587 Z M1.55893016,2.84037587 L1.6181813,2.84037587 L1.6181813,2.7366895 L1.67743245,2.7366895 L1.67743245,2.84037587 L1.73547516,2.84037587 L1.73547516,2.94406223 L1.67743245,2.94406223 L1.67743245,3.05002429 L1.6181813,3.05002429 L1.6181813,2.94406223 L1.55893016,2.94406223 L1.55893016,2.84037587 Z M1.264978,2.63069189 L1.20629331,2.63069189 L1.20629331,2.78849713 L1.14704216,2.78849713 L1.14704216,2.99594097 L1.20629331,2.99594097 L1.20629331,3.15374621 L1.264978,3.15374621 L1.264978,3.30934687 L1.44095655,3.30934687 L1.44095655,3.15374621 L1.55889239,3.15374621 L1.55889239,3.30934687 L1.73547516,3.30934687 L1.73547516,3.15374621 L1.79533053,3.15374621 L1.79533053,2.99594097 L1.85284455,2.99594097 L1.85284455,2.78849713 L1.79533053,2.78849713 L1.79533053,2.63069189 L1.73547516,2.63069189 L1.73547516,2.47740248 L1.55889239,2.47740248 L1.55889239,2.63069189 L1.44095655,2.63069189 L1.44095655,2.47740248 L1.264978,2.47740248 L1.264978,2.63069189 Z M2.20419743,2.83813573 L2.26288212,2.83813573 L2.26288212,2.73665395 L2.32213327,2.73665395 L2.32213327,2.83813573 L2.38138441,2.83813573 L2.38138441,2.94409779 L2.32213327,2.94409779 L2.32213327,3.04774859 L2.26288212,3.04774859 L2.26288212,2.94409779 L2.20419743,2.94409779 L2.20419743,2.83813573 Z M2.20419743,2.47516234 L2.20419743,2.63069189 L2.14615472,2.63069189 L2.14615472,2.78849713 L2.08690357,2.78849713 L2.08690357,2.99594097 L2.14615472,2.99594097 L2.14615472,3.15147052 L2.20419743,3.15147052 L2.20419743,3.30707118 L2.38142218,3.30707118 L2.38142218,3.15147052 L2.44010687,3.15147052 L2.44010687,2.99594097 L2.49814958,2.99594097 L2.49814958,2.78849713 L2.44010687,2.78849713 L2.44010687,2.63069189 L2.38142218,2.63069189 L2.38142218,2.47516234 L2.20419743,2.47516234 Z M0.5,2.37144042 L0.617898076,2.37144042 L0.617898076,2.06031021 L0.5,2.06031021 L0.5,2.37144042 Z M1.44099432,2.37144042 L1.55893016,2.37144042 L1.55893016,2.06031021 L1.44099432,2.06031021 L1.44099432,2.37144042 Z M2.38259285,2.37144042 L2.49996224,2.37144042 L2.49996224,2.06031021 L2.38259285,2.06031021 L2.38259285,2.37144042 Z M0.971101376,1.64321795 L1.08782878,1.64321795 L1.08782878,1.38161967 L0.971101376,1.38161967 L0.971101376,1.64321795 Z M1.91266215,1.64321795 L2.03003153,1.64321795 L2.03003153,1.38161967 L1.91266215,1.38161967 L1.91266215,1.64321795 Z M0.5,0.8608766 L0.617898076,0.8608766 L0.617898076,0.549746393 L0.5,0.549746393 L0.5,0.8608766 Z M1.44099432,0.8608766 L1.55893016,0.8608766 L1.55893016,0.549746393 L1.44099432,0.549746393 L1.44099432,0.8608766 Z M2.38259285,0.8608766 L2.49996224,0.8608766 L2.49996224,0.549746393 L2.38259285,0.549746393 L2.38259285,0.8608766 Z M0.736438134,1.38165523 L0.853165537,1.38165523 L0.853165537,1.1223682 L0.971101376,1.1223682 L0.971101376,0.8608766 L1.08782878,0.8608766 L1.08782878,1.1223682 L1.20636884,1.1223682 L1.20636884,1.38165523 L1.32309624,1.38165523 L1.32309624,1.64325351 L1.20636884,1.64325351 L1.20636884,1.90254053 L1.08782878,1.90254053 L1.08782878,2.16403213 L0.971101376,2.16403213 L0.971101376,1.90254053 L0.853165537,1.90254053 L0.853165537,1.64325351 L0.736438134,1.64325351 L0.736438134,1.38165523 Z M1.67747021,1.38165523 L1.79536829,1.38165523 L1.79536829,1.1223682 L1.91269991,1.1223682 L1.91269991,0.8608766 L2.0300693,0.8608766 L2.0300693,1.1223682 L2.14740092,1.1223682 L2.14740092,1.38165523 L2.26529899,1.38165523 L2.26529899,1.64325351 L2.14740092,1.64325351 L2.14740092,1.90254053 L2.0300693,1.90254053 L2.0300693,2.16403213 L1.91269991,2.16403213 L1.91269991,1.90254053 L1.79536829,1.90254053 L1.79536829,1.64325351 L1.67747021,1.64325351 L1.67747021,1.38165523 Z M1.91266215,0.340026855 L1.91266215,0.601625133 L1.79533053,0.601625133 L1.79533053,0.860912158 L1.67743245,0.860912158 L1.67743245,1.12240376 L1.55889239,1.12240376 L1.55889239,1.38169079 L1.44095655,1.38169079 L1.44095655,1.12240376 L1.32302071,1.12240376 L1.32302071,0.860912158 L1.20629331,0.860912158 L1.20629331,0.601625133 L1.08899945,0.601625133 L1.08899945,0.340026855 L0.971063613,0.340026855 L0.971063613,0.601625133 L0.853127773,0.601625133 L0.853127773,0.860912158 L0.73640037,0.860912158 L0.73640037,1.12240376 L0.617860312,1.12240376 L0.617860312,1.38169079 L0.5,1.38169079 L0.5,1.64328906 L0.617898076,1.64328906 L0.617898076,1.90257609 L0.736438134,1.90257609 L0.736438134,2.16406769 L0.853165537,2.16406769 L0.853165537,2.4255593 L0.971101376,2.4255593 L0.971101376,2.68484632 L1.08782878,2.68484632 L1.08782878,2.4255593 L1.20636884,2.4255593 L1.20636884,2.16406769 L1.32309624,2.16406769 L1.32309624,1.90257609 L1.44103208,1.90257609 L1.44103208,1.64328906 L1.55896792,1.64328906 L1.55896792,1.90257609 L1.67750798,1.90257609 L1.67750798,2.16406769 L1.79423538,2.16406769 L1.79423538,2.4255593 L1.91269991,2.4255593 L1.91269991,2.68484632 L2.0300693,2.68484632 L2.0300693,2.4255593 L2.14740092,2.4255593 L2.14740092,2.16406769 L2.26529899,2.16406769 L2.26529899,1.90257609 L2.38259285,1.90257609 L2.38259285,1.64328906 L2.49996224,1.64328906 L2.49996224,1.38169079 L2.38319707,1.38169079 L2.38319707,1.12240376 L2.26526123,1.12240376 L2.26526123,0.860912158 L2.14736315,0.860912158 L2.14736315,0.601625133 L2.03003153,0.601625133 L2.03003153,0.340026855 C2.03003153,0.340026855 1.91266215,0.340026855 1.91266215,0.340026855 Z"/>
  </g>
</svg>
