<svg width="168" height="120" viewBox="0 0 168 120" fill="none" xmlns="http://www.w3.org/2000/svg">
<path fill-rule="evenodd" clip-rule="evenodd" d="M6 29H162V111.731C162 116.298 158.298 120 153.731 120H14.2687C9.70204 120 6 116.298 6 111.731V29Z" fill="#E3E7EC"/>
<path d="M0 8.26875C0 3.70205 3.70205 0 8.26875 0H159.731C164.298 0 168 3.70205 168 8.26875V20H0V8.26875Z" fill="#E3E7EC"/>
<ellipse cx="12" cy="10.2812" rx="4" ry="4.1125" fill="white"/>
<ellipse cx="26" cy="10.2812" rx="4" ry="4.1125" fill="white"/>
<ellipse cx="39.998" cy="10.2812" rx="4" ry="4.1125" fill="white"/>
<path fill-rule="evenodd" clip-rule="evenodd" d="M0 20H168V107.731C168 112.298 164.298 116 159.731 116H8.26875C3.70205 116 0 112.298 0 107.731V20Z" fill="white"/>
<rect opacity="0.7" x="8" y="28" width="152" height="80" rx="4" fill="#ECEFF4"/>
<g transform="translate(60 44)">
<path d="M18.6348 0C28.9265 0 37.2704 8.34304 37.2705 18.6348L37.2637 19.1162C37.15 23.603 35.449 27.6945 32.7031 30.8535L35.6455 33.7959C37.264 32.9602 39.3023 33.2212 40.6592 34.5781L46.7412 40.6592C48.4202 42.3386 48.4204 45.0619 46.7412 46.7412C45.0619 48.4205 42.3386 48.4202 40.6592 46.7412L34.5771 40.6592C33.2869 39.3687 32.989 37.4624 33.6816 35.8867L30.6631 32.8682C27.4171 35.6143 23.2195 37.2705 18.6348 37.2705L18.1543 37.2637C8.08463 37.0087 0 28.7659 0 18.6348C0.00015771 8.34314 8.34314 0.00015772 18.6348 0ZM18.6348 5.7334C11.5099 5.73356 5.73356 11.5099 5.7334 18.6348C5.7334 25.7598 11.5098 31.536 18.6348 31.5361C25.7599 31.5361 31.5361 25.7599 31.5361 18.6348C31.536 11.5098 25.7598 5.7334 18.6348 5.7334Z" fill="#C1C7D0"/>
</g>
</svg>
