<svg width="168" height="120" viewBox="0 0 168 120" fill="none" xmlns="http://www.w3.org/2000/svg">
<path fill-rule="evenodd" clip-rule="evenodd" d="M6 29H162V111.731C162 116.298 158.298 120 153.731 120H14.2687C9.70204 120 6 116.298 6 111.731V29Z" fill="#E3E7EC"/>
<path d="M0 8.26875C0 3.70205 3.70205 0 8.26875 0H159.731C164.298 0 168 3.70205 168 8.26875V20H0V8.26875Z" fill="#E3E7EC"/>
<ellipse cx="12" cy="10.2814" rx="4" ry="4.1125" fill="white"/>
<ellipse cx="26" cy="10.2814" rx="4" ry="4.1125" fill="white"/>
<ellipse cx="39.998" cy="10.2814" rx="4" ry="4.1125" fill="white"/>
<path fill-rule="evenodd" clip-rule="evenodd" d="M0 20H168V107.731C168 112.298 164.298 116 159.731 116H8.26875C3.70205 116 0 112.298 0 107.731V20Z" fill="white"/>
<rect opacity="0.7" x="8" y="28" width="152" height="80" rx="4" fill="#ECEFF4"/>
<path fill-rule="evenodd" clip-rule="evenodd" d="M66 44C64.3431 44 63 45.3431 63 47V89C63 90.6569 64.3431 92 66 92C67.6569 92 69 90.6569 69 89V47C69 45.3431 67.6569 44 66 44ZM100.79 72H73V46H100.996C103.985 46 105.918 49.1597 104.557 51.8213L101.301 58.1879C101.084 58.7092 101.076 59.2941 101.277 59.8215L104.391 66.2583C105.676 68.9145 103.741 72 100.79 72ZM95.0377 52.9722C95.935 53.7895 96.0012 55.1809 95.1854 56.0799L86.317 65.8538L81.029 60.5557C80.1715 59.6965 80.1715 58.3036 81.029 57.4444C81.8865 56.5853 83.2768 56.5853 84.1343 57.4444L86.1656 59.4796L91.9359 53.1202C92.7517 52.2211 94.1404 52.1549 95.0377 52.9722Z" fill="#C1C7D0"/>
</svg>
