<svg width="168" height="123" viewBox="0 0 168 123" fill="none" xmlns="http://www.w3.org/2000/svg">
<g opacity="0.82">
<g filter="url(#filter0_i_19613_9581)">
<path fill-rule="evenodd" clip-rule="evenodd" d="M6 32H162V114.731C162 119.298 158.298 123 153.731 123H14.2687C9.70204 123 6 119.298 6 114.731V32Z" fill="#E3E7EC"/>
</g>
<path d="M0 8.26875C0 3.70205 3.70205 0 8.26875 0H159.731C164.298 0 168 3.70205 168 8.26875V19.5H0V8.26875Z" fill="#E3E7EC"/>
<ellipse cx="12.6004" cy="9.74986" rx="4.2" ry="4.17857" fill="white"/>
<ellipse cx="26.6004" cy="9.74986" rx="4.2" ry="4.17857" fill="white"/>
<ellipse cx="40.5984" cy="9.74986" rx="4.2" ry="4.17857" fill="white"/>
<path fill-rule="evenodd" clip-rule="evenodd" d="M0 19.5H168V108.731C168 113.298 164.298 117 159.731 117H8.26875C3.70205 117 0 113.298 0 108.731V19.5Z" fill="#FEFEFE"/>
<rect opacity="0.56" x="6.00195" y="28.6572" width="156.001" height="79.186" rx="3.9375" fill="#E7EAEE"/>
<path fill-rule="evenodd" clip-rule="evenodd" d="M100.647 64.7784L106.57 70.6954L106.57 70.6957C107.255 71.4047 107.515 72.4222 107.254 73.3727C106.993 74.3233 106.251 75.0662 105.3 75.3267C104.35 75.5872 103.332 75.3271 102.623 74.6425L77.3636 49.3829C76.6787 48.6738 76.4185 47.6564 76.6794 46.7059C76.94 45.7549 77.6825 45.0124 78.633 44.7519C79.5835 44.4914 80.6013 44.7511 81.31 45.436L87.2275 51.3531L93.9261 44.6545C94.4903 44.0899 95.3131 43.8695 96.084 44.0763C96.8551 44.2827 97.4571 44.8851 97.6638 45.6561C97.8702 46.427 97.6498 47.2498 97.0856 47.814L90.387 54.5126L97.4874 61.6189L104.186 54.9203C104.751 54.3557 105.573 54.1353 106.344 54.3421C107.115 54.5485 107.717 55.1508 107.924 55.9218C108.13 56.6928 107.91 57.5155 107.345 58.0798L100.647 64.7784ZM75.7833 52.5426L73.0198 55.3057C70.4296 57.8959 68.7603 61.2638 68.2669 64.8936C67.7739 68.5235 68.4846 72.2144 70.2902 75.4022C70.5841 75.9211 70.865 76.3901 71.1431 76.8195L60.7837 87.2753C60.0988 87.9843 59.8387 89.0018 60.0995 89.9522C60.36 90.9027 61.1026 91.6457 62.0531 91.9062C63.0036 92.1667 64.0215 91.9066 64.7301 91.2221L75.0761 80.7794C75.5339 81.079 76.0368 81.3812 76.5977 81.6989C79.7848 83.504 83.4766 84.2147 87.1056 83.7217C90.7355 83.2288 94.1033 81.5591 96.6936 78.9688L99.4567 76.2057L75.7833 52.5426Z" fill="#C1C7D0"/>
</g>
<defs>
<filter id="filter0_i_19613_9581" x="6" y="32" width="156" height="91" filterUnits="userSpaceOnUse" color-interpolation-filters="sRGB">
<feFlood flood-opacity="0" result="BackgroundImageFix"/>
<feBlend mode="normal" in="SourceGraphic" in2="BackgroundImageFix" result="shape"/>
<feColorMatrix in="SourceAlpha" type="matrix" values="0 0 0 0 0 0 0 0 0 0 0 0 0 0 0 0 0 0 127 0" result="hardAlpha"/>
<feOffset dy="2.75625"/>
<feComposite in2="hardAlpha" operator="arithmetic" k2="-1" k3="1"/>
<feColorMatrix type="matrix" values="0 0 0 0 0 0 0 0 0 0.509804 0 0 0 0 0.607843 0 0 0 0.15 0"/>
<feBlend mode="normal" in2="shape" result="effect1_innerShadow_19613_9581"/>
</filter>
</defs>
</svg>
