<svg width="168" height="123" viewBox="0 0 168 123" fill="none" xmlns="http://www.w3.org/2000/svg">
<g opacity="0.82">
<g filter="url(#filter0_i_21206_37106)">
<path fill-rule="evenodd" clip-rule="evenodd" d="M6 32H162V114.731C162 119.298 158.298 123 153.731 123H14.2687C9.70204 123 6 119.298 6 114.731V32Z" fill="#E3E7EC"/>
</g>
<path d="M0 8.26875C0 3.70205 3.70205 0 8.26875 0H159.731C164.298 0 168 3.70205 168 8.26875V19.5H0V8.26875Z" fill="#E3E7EC"/>
<ellipse cx="12.6004" cy="9.74888" rx="4.2" ry="4.17857" fill="white"/>
<ellipse cx="26.6004" cy="9.74888" rx="4.2" ry="4.17857" fill="white"/>
<ellipse cx="40.5984" cy="9.74888" rx="4.2" ry="4.17857" fill="white"/>
<path fill-rule="evenodd" clip-rule="evenodd" d="M0 19.5H168V108.731C168 113.298 164.298 117 159.731 117H8.26875C3.70205 117 0 113.298 0 108.731V19.5Z" fill="#F7F7F8"/>
<rect x="6.00195" y="28.6562" width="156.001" height="79.186" rx="3.9375" fill="#E3E7EC"/>
</g>
<path fill-rule="evenodd" clip-rule="evenodd" d="M81.3526 46.4748C82.526 44.5084 85.474 44.5084 86.6474 46.4748L110.59 86.5994C111.759 88.5579 110.29 91 107.943 91H60.0573C57.7105 91 56.2413 88.5579 57.4099 86.5994L81.3526 46.4748ZM83.319 61.5653C82.1436 61.5653 81.2126 62.5208 81.2881 63.6495L81.9433 73.4498C82.0103 74.4526 82.8752 75.233 83.9194 75.233C84.9394 75.233 85.7926 74.4875 85.8905 73.5105L86.8732 63.7119C86.9886 62.5613 86.0487 61.5653 84.8475 61.5653H83.319ZM85.6124 78.5233C85.9877 78.9533 86.1753 79.4804 86.1753 80.1046C86.1753 80.7011 85.9877 81.2143 85.6124 81.6443C85.2233 82.0743 84.6536 82.2893 83.9032 82.2893C83.1667 82.2893 82.6039 82.0743 82.2148 81.6443C81.8118 81.2143 81.6103 80.7011 81.6103 80.1046C81.6103 79.4804 81.8118 78.9533 82.2148 78.5233C82.6039 78.0933 83.1667 77.8783 83.9032 77.8783C84.6536 77.8783 85.2233 78.0933 85.6124 78.5233Z" fill="#C1C7D0"/>
<defs>
<filter id="filter0_i_21206_37106" x="6" y="32" width="156" height="91" filterUnits="userSpaceOnUse" color-interpolation-filters="sRGB">
<feFlood flood-opacity="0" result="BackgroundImageFix"/>
<feBlend mode="normal" in="SourceGraphic" in2="BackgroundImageFix" result="shape"/>
<feColorMatrix in="SourceAlpha" type="matrix" values="0 0 0 0 0 0 0 0 0 0 0 0 0 0 0 0 0 0 127 0" result="hardAlpha"/>
<feOffset dy="2.75625"/>
<feComposite in2="hardAlpha" operator="arithmetic" k2="-1" k3="1"/>
<feColorMatrix type="matrix" values="0 0 0 0 0 0 0 0 0 0.509804 0 0 0 0 0.607843 0 0 0 0.15 0"/>
<feBlend mode="normal" in2="shape" result="effect1_innerShadow_21206_37106"/>
</filter>
</defs>
</svg>
