<svg xmlns="http://www.w3.org/2000/svg" width="28" height="28" viewBox="0 0 28 28">
  <path fill-rule="evenodd" d="M10.57782,27.4831876 L10.3966198,22.5688331 C6.81726854,23.5535751 7.67279529,24.3293363 5.5333658,22.1899068 C3.39275342,20.0492944 4.24903388,20.7207594 5.23243523,17.1324928 L0.463453084,17.1324928 L-5.34294831e-16,16.8274888 L3.1020753,13.0666466 L8.60713005,13.1434181 C11.9267075,9.14070105 14.9686482,5.3543681 16.2442632,4.07875306 C20.112082,0.21093429 26.890564,-0.32978751 27.6173706,0.144638755 C27.7547607,0.951950788 27.5474261,7.57610225 23.6445196,11.4790094 C22.3674247,12.7561043 18.6534608,15.9317256 14.4554005,19.1854138 L14.5317516,24.6603248 L10.9572277,27.8625953 L10.57782,27.4831876 Z M22.9383676,6.1393287 C23.7667948,6.1393287 24.4383676,5.46775582 24.4383676,4.6393287 C24.4383676,3.81090157 23.7667948,3.1393287 22.9383676,3.1393287 C22.1099405,3.1393287 21.4383676,3.81090157 21.4383676,4.6393287 C21.4383676,5.46775582 22.1099405,6.1393287 22.9383676,6.1393287 Z"/>
</svg>
