<svg width="103" height="24" viewBox="0 0 103 24" fill="none" xmlns="http://www.w3.org/2000/svg">
<path d="M94.2363 15.8011V3.82617H96.754V15.8011H94.2363Z" fill="white"/>
<path d="M70.7549 15.802V7.11934H73.1596V9.57243L72.8206 8.86233C73.0789 8.24906 73.4931 7.78641 74.0633 7.4744C74.6336 7.15162 75.3275 6.99023 76.1452 6.99023V9.31421C76.0376 9.30345 75.9408 9.29808 75.8547 9.29808C75.7687 9.28732 75.6772 9.28194 75.5804 9.28194C74.8918 9.28194 74.3323 9.48098 73.9019 9.87907C73.4823 10.2664 73.2725 10.8743 73.2725 11.7027V15.802H70.7549Z" fill="white"/>
<path d="M65.0251 15.9311C64.0998 15.9311 63.2768 15.7374 62.5559 15.3501C61.8458 14.9628 61.2809 14.4356 60.8613 13.7685C60.4525 13.0907 60.248 12.3214 60.248 11.4607C60.248 10.5892 60.4525 9.81989 60.8613 9.15283C61.2809 8.475 61.8458 7.9478 62.5559 7.57123C63.2768 7.1839 64.0998 6.99023 65.0251 6.99023C65.9396 6.99023 66.7573 7.1839 67.4782 7.57123C68.1991 7.9478 68.7639 8.46962 69.1728 9.13669C69.5816 9.80376 69.786 10.5784 69.786 11.4607C69.786 12.3214 69.5816 13.0907 69.1728 13.7685C68.7639 14.4356 68.1991 14.9628 67.4782 15.3501C66.7573 15.7374 65.9396 15.9311 65.0251 15.9311ZM65.0251 13.8653C65.4447 13.8653 65.8213 13.7685 66.1548 13.5748C66.4884 13.3812 66.752 13.1068 66.9456 12.7518C67.1393 12.386 67.2361 11.9556 67.2361 11.4607C67.2361 10.955 67.1393 10.5246 66.9456 10.1696C66.752 9.81451 66.4884 9.54016 66.1548 9.34649C65.8213 9.15283 65.4447 9.05599 65.0251 9.05599C64.6055 9.05599 64.2289 9.15283 63.8954 9.34649C63.5619 9.54016 63.2929 9.81451 63.0885 10.1696C62.8948 10.5246 62.798 10.955 62.798 11.4607C62.798 11.9556 62.8948 12.386 63.0885 12.7518C63.2929 13.1068 63.5619 13.3812 63.8954 13.5748C64.2289 13.7685 64.6055 13.8653 65.0251 13.8653Z" fill="white"/>
<path d="M55.4397 15.9311C54.7081 15.9311 54.0679 15.7697 53.5192 15.4469C52.9705 15.1242 52.5401 14.6346 52.2281 13.9783C51.9269 13.3112 51.7762 12.472 51.7762 11.4607C51.7762 10.4385 51.9215 9.59933 52.212 8.94302C52.5025 8.28671 52.9221 7.79717 53.4708 7.4744C54.0195 7.15162 54.6758 6.99023 55.4397 6.99023C56.2574 6.99023 56.9891 7.17852 57.6346 7.55509C58.2909 7.9209 58.8074 8.43734 59.1839 9.10441C59.5713 9.77148 59.7649 10.5569 59.7649 11.4607C59.7649 12.3752 59.5713 13.166 59.1839 13.8331C58.8074 14.5001 58.2909 15.0166 57.6346 15.3824C56.9891 15.7482 56.2574 15.9311 55.4397 15.9311ZM50.3076 18.9329L50.3076 7.11934H52.7123V8.89461L52.6639 11.4768L52.8253 14.0429V18.9329H50.3076ZM55.004 13.8653C55.4236 13.8653 55.7948 13.7685 56.1176 13.5748C56.4511 13.3812 56.7147 13.1068 56.9084 12.7518C57.1128 12.386 57.215 11.9556 57.215 11.4607C57.215 10.955 57.1128 10.5246 56.9084 10.1696C56.7147 9.81451 56.4511 9.54016 56.1176 9.34649C55.7948 9.15283 55.4236 9.05599 55.004 9.05599C54.5844 9.05599 54.2078 9.15283 53.8743 9.34649C53.5407 9.54016 53.2771 9.81451 53.0835 10.1696C52.8898 10.5246 52.793 10.955 52.793 11.4607C52.793 11.9556 52.8898 12.386 53.0835 12.7518C53.2771 13.1068 53.5407 13.3812 53.8743 13.5748C54.2078 13.7685 54.5844 13.8653 55.004 13.8653Z" fill="white"/>
<path d="M87.361 15.9311C88.0927 15.9311 88.7328 15.7697 89.2816 15.4469C89.8303 15.1242 90.2606 14.6346 90.5727 13.9783C90.8739 13.3112 91.0245 12.472 91.0245 11.4607C91.0245 10.4385 90.8793 9.59933 90.5888 8.94302C90.2983 8.28671 89.8787 7.79717 89.33 7.4744C88.7813 7.15162 88.1249 6.99023 87.361 6.99023C86.5433 6.99023 85.8117 7.17852 85.1662 7.55509C84.5099 7.9209 83.9934 8.43734 83.6169 9.10441C83.2295 9.77148 83.0359 10.5569 83.0359 11.4607C83.0359 12.3752 83.2295 13.166 83.6169 13.8331C83.9934 14.5001 84.5099 15.0166 85.1662 15.3824C85.8117 15.7482 86.5433 15.9311 87.361 15.9311ZM92.4932 15.8101L92.4932 7.11934H90.0885V8.89461L90.1369 11.4768L89.9755 14.0429V15.8101H92.4932ZM87.7968 13.8653C87.3772 13.8653 87.006 13.7685 86.6832 13.5748C86.3497 13.3812 86.0861 13.1068 85.8924 12.7518C85.688 12.386 85.5858 11.9556 85.5858 11.4607C85.5858 10.955 85.688 10.5246 85.8924 10.1696C86.0861 9.81451 86.3497 9.54016 86.6832 9.34649C87.006 9.15283 87.3772 9.05599 87.7968 9.05599C88.2164 9.05599 88.593 9.15283 88.9265 9.34649C89.26 9.54016 89.5236 9.81451 89.7173 10.1696C89.911 10.5246 90.0078 10.955 90.0078 11.4607C90.0078 11.9556 89.911 12.386 89.7173 12.7518C89.5236 13.1068 89.26 13.3812 88.9265 13.5748C88.593 13.7685 88.2164 13.8653 87.7968 13.8653Z" fill="white"/>
<path d="M21.887 15.9311C21.1554 15.9311 20.5152 15.7697 19.9665 15.4469C19.4178 15.1242 18.9874 14.6346 18.6754 13.9783C18.3741 13.3112 18.2235 12.472 18.2235 11.4607C18.2235 10.4385 18.3688 9.59933 18.6593 8.94302C18.9498 8.28671 19.3694 7.79717 19.9181 7.4744C20.4668 7.15162 21.1231 6.99023 21.887 6.99023C22.7047 6.99023 23.4363 7.17852 24.0819 7.55509C24.7382 7.9209 25.2546 8.43734 25.6312 9.10441C26.0185 9.77148 26.2122 10.5569 26.2122 11.4607C26.2122 12.3752 26.0185 13.166 25.6312 13.8331C25.2546 14.5001 24.7382 15.0166 24.0819 15.3824C23.4363 15.7482 22.7047 15.9311 21.887 15.9311ZM16.7549 18.9329V7.11934H19.1596V8.89461L19.1111 11.4768L19.2725 14.0429V18.9329H16.7549ZM21.4513 13.8653C21.8709 13.8653 22.2421 13.7685 22.5648 13.5748C22.8984 13.3812 23.162 13.1068 23.3556 12.7518C23.5601 12.386 23.6623 11.9556 23.6623 11.4607C23.6623 10.955 23.5601 10.5246 23.3556 10.1696C23.162 9.81451 22.8984 9.54016 22.5648 9.34649C22.2421 9.15283 21.8709 9.05599 21.4513 9.05599C21.0316 9.05599 20.6551 9.15283 20.3215 9.34649C19.988 9.54016 19.7244 9.81451 19.5307 10.1696C19.3371 10.5246 19.2402 10.955 19.2402 11.4607C19.2402 11.9556 19.3371 12.386 19.5307 12.7518C19.7244 13.1068 19.988 13.3812 20.3215 13.5748C20.6551 13.7685 21.0316 13.8653 21.4513 13.8653Z" fill="white"/>
<path d="M46.9021 15.9305C45.88 15.9305 45.0838 15.6723 44.5136 15.1558C43.9433 14.6286 43.6582 13.8486 43.6582 12.8157V5.19824H46.1758V12.7835C46.1758 13.1493 46.2727 13.4344 46.4663 13.6388C46.66 13.8325 46.9236 13.9293 47.2571 13.9293C47.6552 13.9293 48.6289 13.9293 48.984 13.9293V15.9305C48.7742 15.9305 47.2019 15.9305 46.9021 15.9305ZM43.6582 9.31362V7.37697H48.984V9.31362H43.6582Z" fill="white"/>
<path d="M80.4382 15.9305C79.4161 15.9305 78.6199 15.6723 78.0497 15.1558C77.4795 14.6286 77.1943 13.8486 77.1943 12.8157V5.19824H79.712V12.7835C79.712 13.1493 79.8088 13.4344 80.0025 13.6388C80.1961 13.8325 80.4597 13.9293 80.7933 13.9293C81.1914 13.9293 82.1651 13.9293 82.5201 13.9293V15.9305C82.3103 15.9305 80.738 15.9305 80.4382 15.9305ZM77.1943 9.31362V7.37697H82.5201V9.31362H77.1943Z" fill="white"/>
<path d="M37.2178 15.802V7.11934H39.6224V9.57243L39.2835 8.86233C39.5418 8.24906 39.956 7.78641 40.5262 7.4744C41.0965 7.15162 41.7904 6.99023 42.6081 6.99023V9.31421C42.5005 9.30345 42.4037 9.29808 42.3176 9.29808C42.2315 9.28732 42.1401 9.28194 42.0433 9.28194C41.3547 9.28194 40.7952 9.48098 40.3648 9.87907C39.9452 10.2664 39.7354 10.8743 39.7354 11.7027V15.802H37.2178Z" fill="white"/>
<path d="M31.4753 15.9311C30.55 15.9311 29.7269 15.7374 29.0061 15.3501C28.296 14.9628 27.7311 14.4356 27.3115 13.7685C26.9027 13.0907 26.6982 12.3214 26.6982 11.4607C26.6982 10.5892 26.9027 9.81989 27.3115 9.15283C27.7311 8.475 28.296 7.9478 29.0061 7.57123C29.7269 7.1839 30.55 6.99023 31.4753 6.99023C32.3898 6.99023 33.2075 7.1839 33.9284 7.57123C34.6493 7.9478 35.2141 8.46962 35.623 9.13669C36.0318 9.80376 36.2362 10.5784 36.2362 11.4607C36.2362 12.3214 36.0318 13.0907 35.623 13.7685C35.2141 14.4356 34.6493 14.9628 33.9284 15.3501C33.2075 15.7374 32.3898 15.9311 31.4753 15.9311ZM31.4753 13.8653C31.8949 13.8653 32.2715 13.7685 32.605 13.5748C32.9386 13.3812 33.2022 13.1068 33.3958 12.7518C33.5895 12.386 33.6863 11.9556 33.6863 11.4607C33.6863 10.955 33.5895 10.5246 33.3958 10.1696C33.2022 9.81451 32.9386 9.54016 32.605 9.34649C32.2715 9.15283 31.8949 9.05599 31.4753 9.05599C31.0557 9.05599 30.6791 9.15283 30.3456 9.34649C30.0121 9.54016 29.7431 9.81451 29.5387 10.1696C29.345 10.5246 29.2482 10.955 29.2482 11.4607C29.2482 11.9556 29.345 12.386 29.5387 12.7518C29.7431 13.1068 30.0121 13.3812 30.3456 13.5748C30.6791 13.7685 31.0557 13.8653 31.4753 13.8653Z" fill="white"/>
<path d="M11.4429 15.9311C10.453 15.9311 9.58154 15.7374 8.8284 15.3501C8.08602 14.9628 7.5104 14.4356 7.10155 13.7685C6.69271 13.0907 6.48828 12.3214 6.48828 11.4607C6.48828 10.5892 6.68733 9.81989 7.08541 9.15283C7.49426 8.475 8.04836 7.9478 8.74771 7.57123C9.44705 7.1839 10.2378 6.99023 11.1201 6.99023C11.9701 6.99023 12.734 7.17314 13.4118 7.53895C14.1004 7.894 14.6437 8.41044 15.0418 9.08827C15.4399 9.75534 15.6389 10.5569 15.6389 11.4929C15.6389 11.5898 15.6336 11.7027 15.6228 11.8319C15.6121 11.9502 15.6013 12.0632 15.5905 12.1708H8.74771V10.7021H14.2672L13.2988 11.1379C13.2988 10.686 13.2074 10.2933 13.0245 9.95976C12.8416 9.62623 12.5887 9.36801 12.266 9.1851C11.9432 8.99144 11.5666 8.89461 11.1362 8.89461C10.7059 8.89461 10.3239 8.99144 9.99039 9.1851C9.66761 9.36801 9.41477 9.63161 9.23187 9.9759C9.04896 10.3094 8.95751 10.7075 8.95751 11.1702V11.5575C8.95751 12.0309 9.05972 12.4505 9.26415 12.8163C9.47933 13.1714 9.77521 13.4457 10.1518 13.6394C10.5391 13.8223 10.991 13.9138 11.5074 13.9138C11.9701 13.9138 12.3735 13.8438 12.7178 13.704C13.0729 13.5641 13.3957 13.3543 13.6862 13.0745L15.0257 14.527C14.6276 14.9789 14.1273 15.3286 13.5248 15.576C12.9223 15.8127 12.2283 15.9311 11.4429 15.9311Z" fill="white"/>
<path d="M0.664062 15.802V7.11934H3.06874V9.57243L2.72982 8.86233C2.98804 8.24906 3.40227 7.78641 3.97251 7.4744C4.54274 7.15162 5.23671 6.99023 6.0544 6.99023V9.31421C5.94681 9.30345 5.84998 9.29808 5.76391 9.29808C5.67783 9.28732 5.58638 9.28194 5.48955 9.28194C4.80096 9.28194 4.24148 9.48098 3.81112 9.87907C3.39151 10.2664 3.18171 10.8743 3.18171 11.7027V15.802H0.664062Z" fill="white"/>
<path d="M0.664062 15.802V7.11934H3.06874V9.57243L2.72982 8.86233C2.98804 8.24906 3.40227 7.78641 3.97251 7.4744C4.54274 7.15162 5.23671 6.99023 6.0544 6.99023V9.31421C5.94681 9.30345 5.84998 9.29808 5.76391 9.29808C5.67783 9.28732 5.58638 9.28194 5.48955 9.28194C4.80096 9.28194 4.24148 9.48098 3.81112 9.87907C3.39151 10.2664 3.18171 10.8743 3.18171 11.7027V15.802H0.664062Z" fill="white"/>
</svg>
