<svg width="14" height="3" viewBox="0 0 14 3" fill="none" xmlns="http://www.w3.org/2000/svg">
<path fill-rule="evenodd" clip-rule="evenodd" d="M1.30811 2.47705C1.72868 2.47705 2.05339 2.36108 2.28223 2.12915C2.51107 1.89722 2.62549 1.60498 2.62549 1.25244C2.62549 0.893717 2.51107 0.595296 2.28223 0.357178C2.05339 0.119059 1.72868 0 1.30811 0C0.893717 0 0.572103 0.119059 0.343262 0.357178C0.114421 0.595296 0 0.893717 0 1.25244C0 1.61117 0.117513 1.90495 0.352539 2.13379C0.587565 2.36263 0.906087 2.47705 1.30811 2.47705ZM6.61475 2.47705C7.03532 2.47705 7.36003 2.36108 7.58887 2.12915C7.81771 1.89722 7.93213 1.60498 7.93213 1.25244C7.93213 0.893717 7.81771 0.595296 7.58887 0.357178C7.36003 0.119059 7.03532 0 6.61475 0C6.20036 0 5.87874 0.119059 5.6499 0.357178C5.42106 0.595296 5.30664 0.893717 5.30664 1.25244C5.30664 1.61117 5.42415 1.90495 5.65918 2.13379C5.89421 2.36263 6.21273 2.47705 6.61475 2.47705ZM12.8955 2.12915C12.6667 2.36108 12.342 2.47705 11.9214 2.47705C11.5194 2.47705 11.2008 2.36263 10.9658 2.13379C10.7308 1.90495 10.6133 1.61117 10.6133 1.25244C10.6133 0.893717 10.7277 0.595296 10.9565 0.357178C11.1854 0.119059 11.507 0 11.9214 0C12.342 0 12.6667 0.119059 12.8955 0.357178C13.1243 0.595296 13.2388 0.893717 13.2388 1.25244C13.2388 1.60498 13.1243 1.89722 12.8955 2.12915Z" fill="#A2AAB5"/>
</svg>
