<svg width="12" height="12" viewBox="0 0 12 12" fill="none" xmlns="http://www.w3.org/2000/svg">
<path d="M3.5 1.5C3.5 1.22386 3.27614 1 3 1C2.72386 1 2.5 1.22386 2.5 1.5V7.15147V8.15148L8.43934 8.15148L7.10345 9.67728C6.90818 9.87254 6.90818 10.1891 7.10345 10.3844C7.29871 10.5797 7.61529 10.5797 7.81055 10.3844L10 8.00504C10.1953 7.80977 10.1953 7.49319 10 7.29793L7.81055 5C7.61529 4.80474 7.29871 4.80474 7.10345 5C6.90818 5.19526 6.90818 5.51184 7.10345 5.70711L8.43934 7.15148L3.5 7.15148L3.5 1.5Z" fill="#C1C7D0"/>
</svg>
