<svg xmlns="http://www.w3.org/2000/svg" width="250" height="125" viewBox="0 0 250 125">
  <g fill="none" fill-rule="evenodd">
    <rect width="250" height="125"/>
    <g stroke="#F5F5F5" transform="translate(1 16)">
      <path d="M-2.84217094e-14 87.5L248 87.5M-2.84217094e-14 65.5L248 65.5M-2.84217094e-14 44.5L248 44.5M-2.84217094e-14 22.5L248 22.5M-2.84217094e-14.5L248 .5"/>
    </g>
    <rect width="30" height="110" fill="#B4E4E3" transform="translate(70 15)"/>
    <rect width="30" height="65" fill="#64969E" transform="translate(110 60)"/>
    <rect width="30" height="45" fill="#64969E" transform="translate(150 80)"/>
    <g transform="translate(190 95)">
      <rect width="30" height="30" fill="#B4E4E3"/>
      <rect width="30" height="25" y="5" fill="#F5CC90"/>
      <rect width="30" height="20" y="10" fill="#E89583"/>
      <rect width="30" height="15" y="15" fill="#D6E4AA"/>
    </g>
    <g transform="translate(150 80)">
      <rect width="30" height="30" fill="#B4E4E3"/>
      <rect width="30" height="25" y="5" fill="#F5CC90"/>
      <rect width="30" height="20" y="10" fill="#E89583"/>
      <rect width="30" height="30" y="15" fill="#D6E4AA"/>
    </g>
    <g transform="translate(110 60)">
      <rect width="30" height="30" fill="#B4E4E3"/>
      <rect width="30" height="25" y="5" fill="#F5CC90"/>
      <rect width="30" height="20" y="10" fill="#E89583"/>
      <rect width="30" height="50" y="15" fill="#D6E4AA"/>
    </g>
    <g transform="translate(70 15)">
      <rect width="30" height="85" fill="#B4E4E3"/>
      <rect width="30" height="75" y="12" fill="#F6CC90"/>
      <rect width="30" height="70" y="24" fill="#EA9583"/>
      <rect width="30" height="74" y="36" fill="#D6E4AA"/>
    </g>
    <g transform="translate(30 33)">
      <rect width="30" height="85" fill="#B4E4E3"/>
      <rect width="30" height="75" y="12" fill="#F6CC90"/>
      <rect width="30" height="68" y="24" fill="#EA9583"/>
      <rect width="30" height="56" y="36" fill="#D6E4AA"/>
    </g>
    <g transform="translate(70 15)">
      <rect width="30" height="110" fill="#B4E4E3"/>
      <rect width="30" height="25" y="5" fill="#F5CC90"/>
      <rect width="30" height="20" y="10" fill="#E89583"/>
      <rect width="30" height="95" y="15" fill="#D6E4AA"/>
    </g>
    <g transform="translate(30 33)">
      <rect width="30" height="92" fill="#B4E4E3"/>
      <rect width="30" height="25" y="5" fill="#F5CC90"/>
      <rect width="30" height="20" y="10" fill="#E89583"/>
      <rect width="30" height="77" y="15" fill="#D6E4AA"/>
    </g>
  </g>
</svg>
