<svg xmlns="http://www.w3.org/2000/svg" width="250" height="125" viewBox="0 0 250 125">
    <g fill="none" fill-rule="evenodd">
        <path d="M0 0h250v125H0z"/>
        <g stroke="#F5F5F5">
            <path d="M1 103.5h248M1 81.5h248M1 60.5h248M1 38.5h248M1 16.5h248"/>
        </g>
        <path fill="#999" d="M63.08 62.46c1.128 0 2.015.279 2.662.838.647.56.97 1.325.97 2.296 0 1.109-.352 1.978-1.058 2.608-.706.63-1.678.944-2.919.944-1.206 0-2.126-.192-2.76-.578v-1.172c.34.22.766.392 1.274.516a6.29 6.29 0 0 0 1.501.187c.86 0 1.527-.203 2.003-.608.476-.405.714-.991.714-1.758 0-1.494-.915-2.24-2.746-2.24-.464 0-1.084.07-1.86.212l-.63-.403.402-5.01h5.325v1.12h-4.285l-.27 3.216a8.534 8.534 0 0 1 1.677-.169zm12.326 1.171c0 1.85-.291 3.233-.875 4.146-.583.913-1.476 1.37-2.677 1.37-1.152 0-2.029-.468-2.63-1.403-.6-.935-.9-2.306-.9-4.113 0-1.865.29-3.25.871-4.152.581-.904 1.468-1.355 2.659-1.355 1.162 0 2.045.47 2.648 1.413.603.942.904 2.307.904 4.094zm-5.852 0c0 1.558.183 2.692.55 3.402.366.71.95 1.066 1.75 1.066.81 0 1.398-.36 1.761-1.08.364-.72.546-1.85.546-3.388 0-1.538-.182-2.664-.546-3.38-.363-.715-.95-1.073-1.761-1.073-.8 0-1.384.353-1.75 1.059-.367.705-.55 1.837-.55 3.394z"/>
        <path fill="#CCC" d="M86 56v-4h-6v4h6zm-21 0v-4h-6v4h6zm7 0v-4h-6v4h6zm7 0v-4h-6v4h6z"/>
        <path fill="#999" d="M171.771 69h-7.039v-1.047l2.82-2.835c.86-.869 1.426-1.49 1.7-1.86.273-.371.478-.733.615-1.084.136-.352.205-.73.205-1.135 0-.572-.174-1.025-.52-1.36-.347-.334-.828-.5-1.443-.5-.444 0-.866.072-1.264.219-.397.146-.84.413-1.329.798l-.644-.827c.986-.82 2.06-1.23 3.222-1.23 1.006 0 1.795.257 2.366.772.571.515.857 1.207.857 2.076 0 .679-.19 1.35-.571 2.014-.381.665-1.094 1.504-2.14 2.52l-2.343 2.292v.06h5.508V69zm8.635-5.369c0 1.85-.291 3.233-.875 4.146-.583.913-1.476 1.37-2.677 1.37-1.152 0-2.029-.468-2.63-1.403-.6-.935-.9-2.306-.9-4.113 0-1.865.29-3.25.871-4.152.581-.904 1.468-1.355 2.659-1.355 1.162 0 2.045.47 2.648 1.413.603.942.904 2.307.904 4.094zm-5.852 0c0 1.558.183 2.692.55 3.402.366.71.95 1.066 1.75 1.066.81 0 1.398-.36 1.761-1.08.364-.72.546-1.85.546-3.388 0-1.538-.182-2.664-.546-3.38-.363-.715-.95-1.073-1.761-1.073-.8 0-1.384.353-1.75 1.059-.367.705-.55 1.837-.55 3.394z"/>
        <path fill="#CCC" d="M191 56v-4h-6v4h6zm-21 0v-4h-6v4h6zm7 0v-4h-6v4h6zm7 0v-4h-6v4h6z"/>
        <g stroke-width="20">
            <path stroke="#D6E4AA" d="M72.5 95c1.808 0 3.594-.147 5.347-.436C93.412 91.994 105 78.46 105 62.5c0-4.078-.747-8.037-2.184-11.744-3.832-9.883-12.333-17.36-22.658-19.85A32.609 32.609 0 0 0 72.5 30c-1.45 0-2.886.094-4.302.281C52.149 32.397 40 46.15 40 62.5c0 16.456 12.303 30.266 28.481 32.255 1.324.163 2.665.245 4.019.245z"/>
            <path d="M72.5 95c1.808 0 3.594-.147 5.347-.436C93.412 91.994 105 78.46 105 62.5c0-4.078-.747-8.037-2.184-11.744-3.832-9.883-12.333-17.36-22.658-19.85A32.609 32.609 0 0 0 72.5 30c-1.45 0-2.886.094-4.302.281C52.149 32.397 40 46.15 40 62.5c0 16.456 12.303 30.266 28.481 32.255 1.324.163 2.665.245 4.019.245z"/>
        </g>
        <g stroke-width="20">
            <path stroke="#D6E4AA" d="M177.5 95c-1.808 0-3.594-.147-5.347-.436C156.588 91.994 145 78.46 145 62.5c0-4.078.747-8.037 2.184-11.744 3.832-9.883 12.333-17.36 22.658-19.85 2.483-.6 5.046-.906 7.658-.906 1.45 0 2.886.094 4.302.281C197.851 32.397 210 46.15 210 62.5c0 16.456-12.303 30.266-28.481 32.255A32.925 32.925 0 0 1 177.5 95z"/>
            <path d="M177.5 95c-1.808 0-3.594-.147-5.347-.436C156.588 91.994 145 78.46 145 62.5c0-4.078.747-8.037 2.184-11.744 3.832-9.883 12.333-17.36 22.658-19.85 2.483-.6 5.046-.906 7.658-.906 1.45 0 2.886.094 4.302.281C197.851 32.397 210 46.15 210 62.5c0 16.456-12.303 30.266-28.481 32.255A32.925 32.925 0 0 1 177.5 95z"/>
        </g>
    </g>
</svg>
