<svg xmlns="http://www.w3.org/2000/svg" width="250" height="125" viewBox="0 0 250 125">
  <g fill="none" fill-rule="evenodd">
    <rect width="250" height="125"/>
    <g stroke="#F5F5F5" transform="translate(1 16)">
      <path d="M-2.84217094e-14 87.5L248 87.5M-2.84217094e-14 65.5L248 65.5M-2.84217094e-14 44.5L248 44.5M-2.84217094e-14 22.5L248 22.5M-2.84217094e-14.5L248 .5"/>
    </g>
    <g transform="translate(121 17)">
      <path fill="#D7E4B3" d="M43,86 C66.7482442,86 86,66.7482442 86,43 C86,19.2517558 68.1546282,0.020627618 43,-4.97379915e-13 C19.2517558,-4.97379915e-13 0,19.2517558 0,43 C0,66.7482442 19.2517558,86 43,86 Z"/>
      <path fill="#EE9583" d="M73.7875838,12.980001 C65.9674667,5.00232069 55.0577179,0.0556841349 43,0.0556841349 C42.9930951,7.52683343 42.9930951,21.8416054 43,43 C43,43 53.2625279,32.9933337 73.7875838,12.980001 Z"/>
    </g>
    <path fill="#CCC" d="M77 31L77 25 66 25 66 31 77 31zM89 31L89 25 78 25 78 31 89 31zM41 31L41 25 30 25 30 31 41 31zM53 31L53 25 42 25 42 31 53 31zM65 31L65 25 54 25 54 31 65 31zM41 41L41 35 30 35 30 41 41 41zM53 41L53 35 42 35 42 41 53 41z"/>
  </g>
</svg>
