<svg xmlns="http://www.w3.org/2000/svg" width="250" height="125" viewBox="0 0 250 125">
  <g fill="none" fill-rule="evenodd">
    <rect width="250" height="125"/>
    <g stroke="#F5F5F5" transform="translate(1 16)">
      <path d="M-2.84217094e-14 87.5L248 87.5M-2.84217094e-14 65.5L248 65.5M-2.84217094e-14 44.5L248 44.5M-2.84217094e-14 22.5L248 22.5M-2.84217094e-14.5L248 .5"/>
    </g>
    <g transform="translate(122 17)">
      <path fill="#D7E4B3" d="M43,86 C66.7482442,86 86,66.7482442 86,43 C65.2833054,22.7375649 56.0891704,13.3212715 43,0 C19.2517558,0 0,19.2517558 0,43 C0,66.7482442 19.2517558,86 43,86 Z"/>
      <path fill="#EE9583" d="M86.050918,43 C86.050918,19.2517558 66.7528814,0.0556841349 43,0.0556841349 C42.9930951,7.52683343 42.9930951,21.8416054 43,43 C64.2192532,43 78.5695592,43 86.050918,43 Z"/>
    </g>
    <path fill="#CCC" d="M94,31 L94,25 L83,25 L83,31 L94,31 Z M58,31 L58,25 L47,25 L47,31 L58,31 Z M70,31 L70,25 L59,25 L59,31 L70,31 Z M82,31 L82,25 L71,25 L71,31 L82,31 Z"/>
    <polygon fill="#CCC" points="58 41 58 35 47 35 47 41"/>
    <polygon fill="#CCC" points="21 25 27.999 33.082 27.999 34.688 27.999 40.944 30.984 38.487 30.984 33.08 37 25" transform="matrix(-1 0 0 1 58 0)"/>
  </g>
</svg>
