<svg xmlns="http://www.w3.org/2000/svg" width="250" height="125" viewBox="0 0 250 125">
    <g fill="none" fill-rule="evenodd">
        <path d="M0 0h250v125H0z"/>
        <g stroke="#F5F5F5">
            <path d="M1 103.5h248M1 81.5h248M1 60.5h248M1 38.5h248M1 16.5h248"/>
        </g>
        <path d="M164.5 20c2.376 0 4.706.195 6.976.57C191.629 23.898 207 41.404 207 62.5a42.396 42.396 0 0 1-2.86 15.359c-4.982 12.85-16.034 22.675-29.636 25.957A42.609 42.609 0 0 1 164.5 105c-1.902 0-3.774-.125-5.61-.367C138.07 101.888 122 84.071 122 62.5c0-21.698 16.26-39.599 37.261-42.18A42.925 42.925 0 0 1 164.5 20z"/>
        <path fill="#CCC" d="M77 31v-6H66v6h11zm12 0v-6H78v6h11zm-48 0v-6H30v6h11zm12 0v-6H42v6h11zm12 0v-6H54v6h11zM41 41v-6H30v6h11zm12 0v-6H42v6h11z"/>
    </g>
</svg>
