<svg xmlns="http://www.w3.org/2000/svg" width="250" height="125" viewBox="0 0 250 125">
    <g fill="none" fill-rule="evenodd">
        <path d="M0 0h250v125H0z"/>
        <g stroke="#F5F5F5">
            <path d="M1 103.5h248M1 81.5h248M1 60.5h248M1 38.5h248M1 16.5h248"/>
        </g>
        <g transform="translate(30 20)">
            <path fill="#CCC" d="M62 7V1H51v6h11zm12 0V1H63v6h11zM11 7V1H0v6h11zm12 0V1H12v6h11zm12 0V1H24v6h11zM11 17v-6H0v6z"/>
            <circle cx="127" cy="9" r="2.5" stroke="#F7CC90" stroke-width="11"/>
            <circle cx="101" cy="9" r="2.5" stroke="#EE9583" stroke-width="11"/>
            <circle cx="153" cy="9" r="2.5" stroke="#B3E4E3" stroke-width="11"/>
            <text fill="#9A9A9A" font-family="OpenSans-ExtraBold, Open Sans" font-size="13" font-weight="600" opacity=".7">
                <tspan x="176" y="14">%</tspan>
            </text>
        </g>
        <g transform="translate(30 53)">
            <path fill="#CCC" d="M62 7V1H51v6h11zm12 0V1H63v6h11zM11 7V1H0v6h11zm12 0V1H12v6h11zm12 0V1H24v6h11zM11 17v-6H0v6z"/>
            <circle cx="127" cy="9" r="2.5" stroke="#F7CC90" stroke-width="11"/>
            <circle cx="101" cy="9" r="2.5" stroke="#EE9583" stroke-width="11"/>
            <circle cx="153" cy="9" r="2.5" stroke="#B3E4E3" stroke-width="11"/>
            <text fill="#9A9A9A" font-family="OpenSans-ExtraBold, Open Sans" font-size="13" font-weight="600" opacity=".7">
                <tspan x="176" y="14">%</tspan>
            </text>
        </g>
        <g transform="translate(30 86)">
            <path fill="#CCC" d="M62 7V1H51v6h11zm12 0V1H63v6h11zM11 7V1H0v6h11zm12 0V1H12v6h11zm12 0V1H24v6h11zM11 17v-6H0v6z"/>
            <circle cx="127" cy="9" r="2.5" stroke="#F7CC90" stroke-width="11"/>
            <circle cx="101" cy="9" r="2.5" stroke="#EE9583" stroke-width="11"/>
            <circle cx="153" cy="9" r="2.5" stroke="#B3E4E3" stroke-width="11"/>
            <text fill="#9A9A9A" font-family="OpenSans-ExtraBold, Open Sans" font-size="13" font-weight="600" opacity=".7">
                <tspan x="176" y="14">%</tspan>
            </text>
        </g>
    </g>
</svg>
