<svg xmlns="http://www.w3.org/2000/svg" width="250" height="125" viewBox="0 0 250 125">
  <g fill="none" fill-rule="evenodd">
    <rect width="250" height="125"/>
    <g stroke="#F5F5F5" transform="translate(1 16)">
      <path d="M-2.84217094e-14 87.5L248 87.5M-2.84217094e-14 65.5L248 65.5M-2.84217094e-14 44.5L248 44.5M-2.84217094e-14 22.5L248 22.5M-2.84217094e-14.5L248 .5"/>
    </g>
    <g transform="translate(30 21)">
      <g transform="translate(93)">
        <path fill="#EE9583" d="M8,82 C3.581722,82 0,78.418278 0,74 C0,69.581722 3.581722,66 8,66 C12.418278,66 16,69.581722 16,74 C16,78.418278 12.418278,82 8,82 Z M8,77 C9.65685425,77 11,75.6568542 11,74 C11,72.3431458 9.65685425,71 8,71 C6.34314575,71 5,72.3431458 5,74 C5,75.6568542 6.34314575,77 8,77 Z"/>
        <path fill="#EECD93" d="M34,82 C29.581722,82 26,78.418278 26,74 C26,69.581722 29.581722,66 34,66 C38.418278,66 42,69.581722 42,74 C42,78.418278 38.418278,82 34,82 Z M34,77 C35.6568542,77 37,75.6568542 37,74 C37,72.3431458 35.6568542,71 34,71 C32.3431458,71 31,72.3431458 31,74 C31,75.6568542 32.3431458,77 34,77 Z"/>
        <path fill="#BFE2E3" d="M60,82 C55.581722,82 52,78.418278 52,74 C52,69.581722 55.581722,66 60,66 C64.418278,66 68,69.581722 68,74 C68,78.418278 64.418278,82 60,82 Z M60,77 C61.6568542,77 63,75.6568542 63,74 C63,72.3431458 61.6568542,71 60,71 C58.3431458,71 57,72.3431458 57,74 C57,75.6568542 58.3431458,77 60,77 Z"/>
        <path fill="#EE9583" d="M8,49 C3.581722,49 0,45.418278 0,41 C0,36.581722 3.581722,33 8,33 C12.418278,33 16,36.581722 16,41 C16,45.418278 12.418278,49 8,49 Z M8,44 C9.65685425,44 11,42.6568542 11,41 C11,39.3431458 9.65685425,38 8,38 C6.34314575,38 5,39.3431458 5,41 C5,42.6568542 6.34314575,44 8,44 Z"/>
        <path fill="#EECD93" d="M34,49 C29.581722,49 26,45.418278 26,41 C26,36.581722 29.581722,33 34,33 C38.418278,33 42,36.581722 42,41 C42,45.418278 38.418278,49 34,49 Z M34,44 C35.6568542,44 37,42.6568542 37,41 C37,39.3431458 35.6568542,38 34,38 C32.3431458,38 31,39.3431458 31,41 C31,42.6568542 32.3431458,44 34,44 Z"/>
        <path fill="#BFE2E3" d="M60,49 C55.581722,49 52,45.418278 52,41 C52,36.581722 55.581722,33 60,33 C64.418278,33 68,36.581722 68,41 C68,45.418278 64.418278,49 60,49 Z M60,44 C61.6568542,44 63,42.6568542 63,41 C63,39.3431458 61.6568542,38 60,38 C58.3431458,38 57,39.3431458 57,41 C57,42.6568542 58.3431458,44 60,44 Z"/>
        <path fill="#EE9583" d="M8,16 C3.581722,16 0,12.418278 0,8 C0,3.581722 3.581722,0 8,0 C12.418278,0 16,3.581722 16,8 C16,12.418278 12.418278,16 8,16 Z M8,11 C9.65685425,11 11,9.65685425 11,8 C11,6.34314575 9.65685425,5 8,5 C6.34314575,5 5,6.34314575 5,8 C5,9.65685425 6.34314575,11 8,11 Z"/>
        <path fill="#EECD93" d="M34,16 C29.581722,16 26,12.418278 26,8 C26,3.581722 29.581722,0 34,0 C38.418278,0 42,3.581722 42,8 C42,12.418278 38.418278,16 34,16 Z M34,11 C35.6568542,11 37,9.65685425 37,8 C37,6.34314575 35.6568542,5 34,5 C32.3431458,5 31,6.34314575 31,8 C31,9.65685425 32.3431458,11 34,11 Z"/>
        <path fill="#BFE2E3" d="M60,16 C55.581722,16 52,12.418278 52,8 C52,3.581722 55.581722,0 60,0 C64.418278,0 68,3.581722 68,8 C68,12.418278 64.418278,16 60,16 Z M60,11 C61.6568542,11 63,9.65685425 63,8 C63,6.34314575 61.6568542,5 60,5 C58.3431458,5 57,6.34314575 57,8 C57,9.65685425 58.3431458,11 60,11 Z"/>
      </g>
      <path fill="#CCC" d="M62,6 L62,0 L51,0 L51,6 L62,6 Z M74,6 L74,0 L63,0 L63,6 L74,6 Z M11,6 L11,0 L0,0 L0,6 L11,6 Z M23,6 L23,0 L12,0 L12,6 L23,6 Z M35,6 L35,0 L24,0 L24,6 L35,6 Z"/>
      <polygon fill="#CCC" points="11 16 11 10 0 10 0 16"/>
      <path fill="#9A9A9A" d="M178.145508,6.51269531 C178.145508,6.99935139 178.185709,7.35058486 178.266113,7.56640625 C178.346517,7.78222764 178.467122,7.89013672 178.62793,7.89013672 C178.788738,7.89013672 178.908284,7.78434351 178.986572,7.57275391 C179.06486,7.36116431 179.104004,7.00781498 179.104004,6.51269531 C179.104004,6.02603923 179.06486,5.67480577 178.986572,5.45898438 C178.908284,5.24316298 178.788738,5.13525391 178.62793,5.13525391 C178.46289,5.13525391 178.341228,5.24527885 178.262939,5.46533203 C178.184651,5.68538521 178.145508,6.03450282 178.145508,6.51269531 Z M181.020996,6.48730469 C181.020996,7.41829893 180.811526,8.13875071 180.392578,8.64868164 C179.973631,9.15861258 179.376957,9.41357422 178.602539,9.41357422 C177.874671,9.41357422 177.298098,9.15014912 176.872803,8.62329102 C176.447508,8.09643291 176.234863,7.38444459 176.234863,6.48730469 C176.234863,5.55631045 176.442218,4.8400904 176.856934,4.33862305 C177.271649,3.8371557 177.853512,3.58642578 178.602539,3.58642578 C179.343103,3.58642578 179.931313,3.84667708 180.367188,4.3671875 C180.803062,4.88769792 181.020996,5.59439658 181.020996,6.48730469 Z M185.648438,3.71972656 L180.500488,13 L178.615234,13 L183.763184,3.71972656 L185.648438,3.71972656 Z M185.204102,10.2070312 C185.204102,10.6936873 185.244303,11.0449208 185.324707,11.2607422 C185.405111,11.4765636 185.525715,11.5844727 185.686523,11.5844727 C185.86849,11.5844727 185.994384,11.4606946 186.064209,11.2131348 C186.134034,10.9655749 186.168945,10.6302104 186.168945,10.2070312 C186.168945,9.78385205 186.134034,9.44848757 186.064209,9.20092773 C185.994384,8.9533679 185.86849,8.82958984 185.686523,8.82958984 C185.521484,8.82958984 185.399821,8.93961479 185.321533,9.15966797 C185.243245,9.37972115 185.204102,9.72883875 185.204102,10.2070312 Z M188.07959,10.1816406 C188.07959,11.1084031 187.869061,11.826739 187.447998,12.3366699 C187.026935,12.8466009 186.431319,13.1015625 185.661133,13.1015625 C184.933265,13.1015625 184.356692,12.8381374 183.931396,12.3112793 C183.506101,11.7844212 183.293457,11.0745487 183.293457,10.1816406 C183.293457,9.25064639 183.500812,8.53442634 183.915527,8.03295898 C184.330243,7.53149163 184.912106,7.28076172 185.661133,7.28076172 C186.401696,7.28076172 186.989907,7.54101302 187.425781,8.06152344 C187.861656,8.58203385 188.07959,9.28873251 188.07959,10.1816406 Z" opacity=".7"/>
    </g>
    <g transform="translate(30 54)">
      <path fill="#CCC" d="M62,6 L62,0 L51,0 L51,6 L62,6 Z M74,6 L74,0 L63,0 L63,6 L74,6 Z M11,6 L11,0 L0,0 L0,6 L11,6 Z M23,6 L23,0 L12,0 L12,6 L23,6 Z M35,6 L35,0 L24,0 L24,6 L35,6 Z"/>
      <polygon fill="#CCC" points="11 16 11 10 0 10 0 16"/>
      <path fill="#9A9A9A" d="M178.145508,6.51269531 C178.145508,6.99935139 178.185709,7.35058486 178.266113,7.56640625 C178.346517,7.78222764 178.467122,7.89013672 178.62793,7.89013672 C178.788738,7.89013672 178.908284,7.78434351 178.986572,7.57275391 C179.06486,7.36116431 179.104004,7.00781498 179.104004,6.51269531 C179.104004,6.02603923 179.06486,5.67480577 178.986572,5.45898438 C178.908284,5.24316298 178.788738,5.13525391 178.62793,5.13525391 C178.46289,5.13525391 178.341228,5.24527885 178.262939,5.46533203 C178.184651,5.68538521 178.145508,6.03450282 178.145508,6.51269531 Z M181.020996,6.48730469 C181.020996,7.41829893 180.811526,8.13875071 180.392578,8.64868164 C179.973631,9.15861258 179.376957,9.41357422 178.602539,9.41357422 C177.874671,9.41357422 177.298098,9.15014912 176.872803,8.62329102 C176.447508,8.09643291 176.234863,7.38444459 176.234863,6.48730469 C176.234863,5.55631045 176.442218,4.8400904 176.856934,4.33862305 C177.271649,3.8371557 177.853512,3.58642578 178.602539,3.58642578 C179.343103,3.58642578 179.931313,3.84667708 180.367188,4.3671875 C180.803062,4.88769792 181.020996,5.59439658 181.020996,6.48730469 Z M185.648438,3.71972656 L180.500488,13 L178.615234,13 L183.763184,3.71972656 L185.648438,3.71972656 Z M185.204102,10.2070312 C185.204102,10.6936873 185.244303,11.0449208 185.324707,11.2607422 C185.405111,11.4765636 185.525715,11.5844727 185.686523,11.5844727 C185.86849,11.5844727 185.994384,11.4606946 186.064209,11.2131348 C186.134034,10.9655749 186.168945,10.6302104 186.168945,10.2070312 C186.168945,9.78385205 186.134034,9.44848757 186.064209,9.20092773 C185.994384,8.9533679 185.86849,8.82958984 185.686523,8.82958984 C185.521484,8.82958984 185.399821,8.93961479 185.321533,9.15966797 C185.243245,9.37972115 185.204102,9.72883875 185.204102,10.2070312 Z M188.07959,10.1816406 C188.07959,11.1084031 187.869061,11.826739 187.447998,12.3366699 C187.026935,12.8466009 186.431319,13.1015625 185.661133,13.1015625 C184.933265,13.1015625 184.356692,12.8381374 183.931396,12.3112793 C183.506101,11.7844212 183.293457,11.0745487 183.293457,10.1816406 C183.293457,9.25064639 183.500812,8.53442634 183.915527,8.03295898 C184.330243,7.53149163 184.912106,7.28076172 185.661133,7.28076172 C186.401696,7.28076172 186.989907,7.54101302 187.425781,8.06152344 C187.861656,8.58203385 188.07959,9.28873251 188.07959,10.1816406 Z" opacity=".7"/>
    </g>
    <g transform="translate(30 87)">
      <path fill="#CCC" d="M62,6 L62,0 L51,0 L51,6 L62,6 Z M74,6 L74,0 L63,0 L63,6 L74,6 Z M11,6 L11,0 L0,0 L0,6 L11,6 Z M23,6 L23,0 L12,0 L12,6 L23,6 Z M35,6 L35,0 L24,0 L24,6 L35,6 Z"/>
      <polygon fill="#CCC" points="11 16 11 10 0 10 0 16"/>
      <path fill="#9A9A9A" d="M178.145508,6.51269531 C178.145508,6.99935139 178.185709,7.35058486 178.266113,7.56640625 C178.346517,7.78222764 178.467122,7.89013672 178.62793,7.89013672 C178.788738,7.89013672 178.908284,7.78434351 178.986572,7.57275391 C179.06486,7.36116431 179.104004,7.00781498 179.104004,6.51269531 C179.104004,6.02603923 179.06486,5.67480577 178.986572,5.45898438 C178.908284,5.24316298 178.788738,5.13525391 178.62793,5.13525391 C178.46289,5.13525391 178.341228,5.24527885 178.262939,5.46533203 C178.184651,5.68538521 178.145508,6.03450282 178.145508,6.51269531 Z M181.020996,6.48730469 C181.020996,7.41829893 180.811526,8.13875071 180.392578,8.64868164 C179.973631,9.15861258 179.376957,9.41357422 178.602539,9.41357422 C177.874671,9.41357422 177.298098,9.15014912 176.872803,8.62329102 C176.447508,8.09643291 176.234863,7.38444459 176.234863,6.48730469 C176.234863,5.55631045 176.442218,4.8400904 176.856934,4.33862305 C177.271649,3.8371557 177.853512,3.58642578 178.602539,3.58642578 C179.343103,3.58642578 179.931313,3.84667708 180.367188,4.3671875 C180.803062,4.88769792 181.020996,5.59439658 181.020996,6.48730469 Z M185.648438,3.71972656 L180.500488,13 L178.615234,13 L183.763184,3.71972656 L185.648438,3.71972656 Z M185.204102,10.2070312 C185.204102,10.6936873 185.244303,11.0449208 185.324707,11.2607422 C185.405111,11.4765636 185.525715,11.5844727 185.686523,11.5844727 C185.86849,11.5844727 185.994384,11.4606946 186.064209,11.2131348 C186.134034,10.9655749 186.168945,10.6302104 186.168945,10.2070312 C186.168945,9.78385205 186.134034,9.44848757 186.064209,9.20092773 C185.994384,8.9533679 185.86849,8.82958984 185.686523,8.82958984 C185.521484,8.82958984 185.399821,8.93961479 185.321533,9.15966797 C185.243245,9.37972115 185.204102,9.72883875 185.204102,10.2070312 Z M188.07959,10.1816406 C188.07959,11.1084031 187.869061,11.826739 187.447998,12.3366699 C187.026935,12.8466009 186.431319,13.1015625 185.661133,13.1015625 C184.933265,13.1015625 184.356692,12.8381374 183.931396,12.3112793 C183.506101,11.7844212 183.293457,11.0745487 183.293457,10.1816406 C183.293457,9.25064639 183.500812,8.53442634 183.915527,8.03295898 C184.330243,7.53149163 184.912106,7.28076172 185.661133,7.28076172 C186.401696,7.28076172 186.989907,7.54101302 187.425781,8.06152344 C187.861656,8.58203385 188.07959,9.28873251 188.07959,10.1816406 Z" opacity=".7"/>
    </g>
  </g>
</svg>
