<svg xmlns="http://www.w3.org/2000/svg" width="250" height="125" viewBox="0 0 250 125">
  <g fill="none" fill-rule="evenodd">
    <rect width="250" height="125"/>
    <g stroke="#F5F5F5" transform="translate(1 16)">
      <path d="M-2.84217094e-14 108.5L248 108.5M-2.84217094e-14 87.5L248 87.5M-2.84217094e-14 65.5L248 65.5M-2.84217094e-14 44.5L248 44.5M-2.84217094e-14 22.5L248 22.5M-2.84217094e-14.5L248 .5"/>
    </g>
    <polyline fill="#E9E9E9" points="0 125 0 81.01 6.522 60.625 46.739 71.354 126.087 38.094 172.826 59.552 215.217 22 250 28.438 250 125" opacity=".4"/>
    <polyline fill="#E9E9E9" points="0 125 0 81.113 18.478 76.831 47.826 108.944 95.652 59.704 140.217 71.479 172.826 87.535 216.304 49 250 51.141 250 125" opacity=".5"/>
  </g>
</svg>
