<svg xmlns="http://www.w3.org/2000/svg" width="250" height="125" viewBox="0 0 250 125">
  <g fill="none" fill-rule="evenodd">
    <rect width="250" height="125"/>
    <g stroke="#F5F5F5" transform="translate(1 16)">
      <path d="M-2.84217094e-14 87.5L248 87.5M-2.84217094e-14 65.5L248 65.5M-2.84217094e-14 44.5L248 44.5M-2.84217094e-14 22.5L248 22.5M-2.84217094e-14.5L248 .5"/>
    </g>
    <g transform="translate(29 20)">
      <rect width="18" height="20" x="173" fill="#B6E4E3"/>
      <path fill="#CCC" d="M151,13 L151,7 L140,7 L140,13 L151,13 Z M139,13 L139,7 L128,7 L128,13 L139,13 Z M41,13 L41,7 L30,7 L30,13 L41,13 Z M29,13 L29,7 L18,7 L18,13 L29,13 Z M53,13 L53,7 L42,7 L42,13 L53,13 Z M96,13 L96,7 L85,7 L85,13 L96,13 Z M65,13 L65,7 L54,7 L54,13 L65,13 Z M108,13 L108,7 L97,7 L97,13 L108,13 Z"/>
      <path fill="#999" d="M12.4837646,6.5037513 L10.4837646,6.5037513 C10.4462646,6.31685122 10.0587646,5.86628853 9.48376465,5.50250087 L11.4188232,3.5 L9.48376465,3.5 L8.48376465,5.50250087 C8.08376465,4.8783881 7.78688965,4.83500058 7.48376465,5.50250087 C7.18063965,4.83500058 6.88376465,4.8783881 6.48376465,5.50250087 L5.48364258,3.5 L3.35522461,3.5 L5.48364258,5.50250087 C5.90864258,5.86628853 4.52126465,6.31685122 4.48376465,6.5037513 L2.48376465,6.5037513 L2.48376465,8.50625217 L4.48376465,8.50625217 L4.48376465,9.50750261 L2.48376465,9.50750261 L2.48376465,11.5100035 L4.48376465,11.5100035 L4.48376465,12.5112539 L2.48376465,12.5112539 L2.48376465,14.4974991 L4.48376465,14.4974991 C4.88688965,15.6923253 6.09626465,16.5 7.48376465,16.5 C8.87126465,16.5 10.0806396,15.6923253 10.4837646,14.4974991 L12.4837646,14.4974991 L12.4837646,12.5112539 L10.4837646,12.5112539 L10.4837646,11.5100035 L12.4837646,11.5100035 L12.4837646,9.50750261 L10.4837646,9.50750261 L10.4837646,8.50625217 L12.4837646,8.50625217 L12.4837646,6.5037513 Z M8.48376465,12.4837646 L6.48376465,12.4837646 L6.48376465,11.4837646 L8.48376465,11.4837646 L8.48376465,12.4837646 Z M8.48376465,9.48376465 L6.48376465,9.48376465 L6.48376465,8.48376465 L8.48376465,8.48376465 L8.48376465,9.48376465 Z" opacity=".98" transform="rotate(90 7.484 10)"/>
    </g>
    <g transform="translate(29 53)">
      <rect width="18" height="20" x="173" fill="#B6E4E3"/>
      <path fill="#CCC" d="M151,13 L151,7 L140,7 L140,13 L151,13 Z M139,13 L139,7 L128,7 L128,13 L139,13 Z M41,13 L41,7 L30,7 L30,13 L41,13 Z M29,13 L29,7 L18,7 L18,13 L29,13 Z M53,13 L53,7 L42,7 L42,13 L53,13 Z M96,13 L96,7 L85,7 L85,13 L96,13 Z M65,13 L65,7 L54,7 L54,13 L65,13 Z M108,13 L108,7 L97,7 L97,13 L108,13 Z"/>
      <path fill="#999" d="M12.4837646,6.5037513 L10.4837646,6.5037513 C10.4462646,6.31685122 10.0587646,5.86628853 9.48376465,5.50250087 L11.4188232,3.5 L9.48376465,3.5 L8.48376465,5.50250087 C8.08376465,4.8783881 7.78688965,4.83500058 7.48376465,5.50250087 C7.18063965,4.83500058 6.88376465,4.8783881 6.48376465,5.50250087 L5.48364258,3.5 L3.35522461,3.5 L5.48364258,5.50250087 C5.90864258,5.86628853 4.52126465,6.31685122 4.48376465,6.5037513 L2.48376465,6.5037513 L2.48376465,8.50625217 L4.48376465,8.50625217 L4.48376465,9.50750261 L2.48376465,9.50750261 L2.48376465,11.5100035 L4.48376465,11.5100035 L4.48376465,12.5112539 L2.48376465,12.5112539 L2.48376465,14.4974991 L4.48376465,14.4974991 C4.88688965,15.6923253 6.09626465,16.5 7.48376465,16.5 C8.87126465,16.5 10.0806396,15.6923253 10.4837646,14.4974991 L12.4837646,14.4974991 L12.4837646,12.5112539 L10.4837646,12.5112539 L10.4837646,11.5100035 L12.4837646,11.5100035 L12.4837646,9.50750261 L10.4837646,9.50750261 L10.4837646,8.50625217 L12.4837646,8.50625217 L12.4837646,6.5037513 Z M8.48376465,12.4837646 L6.48376465,12.4837646 L6.48376465,11.4837646 L8.48376465,11.4837646 L8.48376465,12.4837646 Z M8.48376465,9.48376465 L6.48376465,9.48376465 L6.48376465,8.48376465 L8.48376465,8.48376465 L8.48376465,9.48376465 Z" opacity=".98" transform="rotate(90 7.484 10)"/>
    </g>
    <g transform="translate(29 86)">
      <rect width="18" height="20" x="173" fill="#B6E4E3"/>
      <path fill="#CCC" d="M151,13 L151,7 L140,7 L140,13 L151,13 Z M139,13 L139,7 L128,7 L128,13 L139,13 Z M41,13 L41,7 L30,7 L30,13 L41,13 Z M29,13 L29,7 L18,7 L18,13 L29,13 Z M53,13 L53,7 L42,7 L42,13 L53,13 Z M96,13 L96,7 L85,7 L85,13 L96,13 Z M65,13 L65,7 L54,7 L54,13 L65,13 Z M108,13 L108,7 L97,7 L97,13 L108,13 Z"/>
      <path fill="#999" d="M12.4837646,6.5037513 L10.4837646,6.5037513 C10.4462646,6.31685122 10.0587646,5.86628853 9.48376465,5.50250087 L11.4188232,3.5 L9.48376465,3.5 L8.48376465,5.50250087 C8.08376465,4.8783881 7.78688965,4.83500058 7.48376465,5.50250087 C7.18063965,4.83500058 6.88376465,4.8783881 6.48376465,5.50250087 L5.48364258,3.5 L3.35522461,3.5 L5.48364258,5.50250087 C5.90864258,5.86628853 4.52126465,6.31685122 4.48376465,6.5037513 L2.48376465,6.5037513 L2.48376465,8.50625217 L4.48376465,8.50625217 L4.48376465,9.50750261 L2.48376465,9.50750261 L2.48376465,11.5100035 L4.48376465,11.5100035 L4.48376465,12.5112539 L2.48376465,12.5112539 L2.48376465,14.4974991 L4.48376465,14.4974991 C4.88688965,15.6923253 6.09626465,16.5 7.48376465,16.5 C8.87126465,16.5 10.0806396,15.6923253 10.4837646,14.4974991 L12.4837646,14.4974991 L12.4837646,12.5112539 L10.4837646,12.5112539 L10.4837646,11.5100035 L12.4837646,11.5100035 L12.4837646,9.50750261 L10.4837646,9.50750261 L10.4837646,8.50625217 L12.4837646,8.50625217 L12.4837646,6.5037513 Z M8.48376465,12.4837646 L6.48376465,12.4837646 L6.48376465,11.4837646 L8.48376465,11.4837646 L8.48376465,12.4837646 Z M8.48376465,9.48376465 L6.48376465,9.48376465 L6.48376465,8.48376465 L8.48376465,8.48376465 L8.48376465,9.48376465 Z" opacity=".98" transform="rotate(90 7.484 10)"/>
    </g>
  </g>
</svg>
