<svg width="16" height="15" viewBox="0 0 16 15" fill="none" xmlns="http://www.w3.org/2000/svg">
<path d="M13.351 6.41294C13.4892 6.26492 13.4892 6.02495 13.351 5.87694L8.62546 0.814293L8.63197 0.807324L8.25673 0.405321C8.11857 0.257309 7.89458 0.257308 7.75642 0.40532L2.64915 5.87694C2.51099 6.02495 2.51099 6.26492 2.64915 6.41294L2.77423 6.54694C2.91239 6.69495 3.13638 6.69495 3.27454 6.54694L7.54553 1.97127V14.3852C7.54553 14.6363 7.74904 14.8398 8.00008 14.8398C8.25112 14.8398 8.45462 14.6363 8.45462 14.3852V1.97127L12.7256 6.54694C12.8638 6.69495 13.0878 6.69495 13.2259 6.54694L13.351 6.41294Z" fill="#00829B"/>
</svg>
