<svg xmlns="http://www.w3.org/2000/svg" width="22" height="22" viewBox="0 0 22 22">
    <g fill-rule="evenodd" transform="translate(-17, -18)">
        <path d="M5.5 13.5h11c.552 0 1 .448 1 1s-.448 1-1 1h-11c-.552 0-1-.448-1-1s.448-1 1-1z" transform="translate(17 18) rotate(90 11 14.5)"/>
        <path d="M1 0h20c.552 0 1 .448 1 1s-.448 1-1 1H1c-.552 0-1-.448-1-1s.448-1 1-1z" transform="translate(17 18) rotate(-180 11 1)"/>
        <path d="M11.768 4.922l6.29 7.548c.354.424.296 1.055-.128 1.408-.3.25-.72.303-1.073.133L11 11.2l-5.857 2.811c-.498.24-1.095.03-1.334-.468-.17-.353-.118-.773.133-1.073l6.29-7.548c.353-.424.984-.482 1.408-.128.047.039.09.081.128.128z" transform="translate(17 18)"/>
    </g>
</svg>
