<svg width="16" height="16" viewBox="0 0 16 16" fill="none" xmlns="http://www.w3.org/2000/svg">
    <path fill-rule="evenodd" clip-rule="evenodd" d="M1.5 1C1.22386 1 1 1.22386 1 1.5V11.6443V12.0078V12.6443H5.65796V14.7996C5.65796 14.9597 5.83685 15.0549 5.96969 14.9654L9.91169 12.3102C10.0294 12.2309 10.0294 12.0577 9.91169 11.9785L5.96969 9.32322C5.83685 9.23374 5.65796 9.32893 5.65796 9.4891V11.6443H2V1.5C2 1.22386 1.77614 1 1.5 1ZM11.6404 1.37343C11.6395 1.16632 11.8067 0.999132 12.0138 1C12.2209 1.00087 12.3895 1.16947 12.3904 1.37658L12.3999 3.65142L14.6234 3.66077C14.8305 3.66164 14.9991 3.83024 15 4.03735C15.0009 4.24446 14.8337 4.41164 14.6266 4.41077L12.4031 4.40142L12.4125 6.62657C12.4133 6.83368 12.2461 7.00087 12.039 7C11.8319 6.99913 11.6633 6.83053 11.6625 6.62342L11.6531 4.39827L9.37658 4.38869C9.16947 4.38782 9.00087 4.21922 9 4.01212C8.99913 3.80501 9.16632 3.63782 9.37343 3.6387L11.6499 3.64827L11.6404 1.37343Z" fill="#C1C7D0"/>
</svg>
