<svg width="16" height="16" viewBox="0 0 16 16" fill="none" xmlns="http://www.w3.org/2000/svg">
<path fill-rule="evenodd" clip-rule="evenodd" d="M9.09274 3.9005C8.73329 3.8475 8.36824 3.82031 7.99857 3.82031C5.24814 3.82031 2.75391 5.3251 0.913419 7.76927C0.763235 7.96951 0.763235 8.24927 0.913419 8.44951C1.96574 9.84868 3.23177 10.9398 4.63721 11.6177L5.59758 9.95428C5.16811 9.3959 4.92888 8.68344 4.97723 7.91356C5.07146 6.40583 6.29355 5.18374 7.80128 5.08951C8.00364 5.07678 8.20209 5.08395 8.39487 5.10925L9.09274 3.9005ZM7.5704 6.53726C6.91301 6.71877 6.41623 7.30374 6.37304 8.00485C6.36111 8.18597 6.37894 8.36119 6.42211 8.52616L7.5704 6.53726ZM8.40693 9.68836L9.57198 7.67042C9.61947 7.84184 9.6395 8.02467 9.62703 8.21393C9.5808 8.92533 9.07318 9.51577 8.40693 9.68836ZM7.58598 11.1103C7.78386 11.1373 7.9878 11.1453 8.19588 11.1322C9.70066 11.035 10.9228 9.81294 11.0199 8.30816C11.0687 7.53228 10.8253 6.81472 10.3895 6.25442L11.3462 4.59741C12.7571 5.27484 14.028 6.36849 15.0837 7.77221C15.2339 7.97246 15.2339 8.25221 15.0837 8.45246C13.2432 10.8966 10.749 12.4014 7.99857 12.4014C7.62335 12.4014 7.2529 12.3734 6.88822 12.3188L7.58598 11.1103Z" fill="#C1C7D0"/>
<path d="M10.504 2.25891C10.7111 1.90019 11.1698 1.77729 11.5285 1.98439C11.8872 2.1915 12.0101 2.65019 11.803 3.00891L5.35303 14.1806C5.14592 14.5394 4.68723 14.6623 4.32851 14.4552C3.96979 14.2481 3.84688 13.7894 4.05399 13.4306L10.504 2.25891Z" fill="#C1C7D0"/>
</svg>
