<svg width="16" height="16" viewBox="0 0 16 16" fill="none" xmlns="http://www.w3.org/2000/svg">
<g clip-path="url(#clip0_6612_160489)">
<path fill-rule="evenodd" clip-rule="evenodd" d="M9.98028 2.48494L13.5158 6.02048C14.6093 7.11395 14.6093 8.88681 13.5158 9.98028L9.98028 13.5158C8.88681 14.6093 7.11395 14.6093 6.02048 13.5158L2.48494 9.98028C1.39148 8.88681 1.39148 7.11395 2.48494 6.02048L6.02048 2.48494C7.11395 1.39148 8.88681 1.39148 9.98028 2.48494ZM5.17195 1.63642C6.73405 0.0743194 9.26671 0.0743196 10.8288 1.63642L14.3643 5.17195C15.9264 6.73405 15.9264 9.26671 14.3643 10.8288L10.8288 14.3643C9.26671 15.9264 6.73405 15.9264 5.17195 14.3643L1.63642 10.8288C0.0743194 9.26671 0.0743196 6.73405 1.63642 5.17195L5.17195 1.63642ZM8.73359 4.82321C8.74096 4.5973 8.55983 4.41016 8.3338 4.41016H7.66173C7.43554 4.41016 7.25435 4.59754 7.26195 4.8236L7.40106 8.96012C7.40831 9.17568 7.58516 9.34668 7.80084 9.34668H8.19878C8.41461 9.34668 8.59153 9.17545 8.59857 8.95973L8.73359 4.82321ZM7.42383 10.3574C7.2806 10.4941 7.20898 10.6667 7.20898 10.875C7.20898 11.0768 7.2806 11.2477 7.42383 11.3877C7.57031 11.5277 7.76237 11.5977 8 11.5977C8.24089 11.5977 8.43294 11.5277 8.57617 11.3877C8.7194 11.2477 8.79102 11.0768 8.79102 10.875C8.79102 10.6667 8.7194 10.4941 8.57617 10.3574C8.43294 10.2174 8.24089 10.1475 8 10.1475C7.76237 10.1475 7.57031 10.2174 7.42383 10.3574Z" fill="#DC5959"/>
</g>
<defs>
<clipPath id="clip0_6612_160489">
<rect width="16" height="16" fill="white"/>
</clipPath>
</defs>
</svg>
