<svg width="16" height="16" viewBox="0 0 16 16" fill="none" xmlns="http://www.w3.org/2000/svg">
<g clip-path="url(#clip0_6612_160489)">
<path fill-rule="evenodd" clip-rule="evenodd" d="M15 8C15 11.866 11.866 15 8 15C4.13401 15 1 11.866 1 8C1 4.13401 4.13401 1 8 1C11.866 1 15 4.13401 15 8ZM16 8C16 12.4183 12.4183 16 8 16C3.58172 16 0 12.4183 0 8C0 3.58172 3.58172 0 8 0C12.4183 0 16 3.58172 16 8ZM8.73359 4.8193C8.74096 4.59339 8.55983 4.40625 8.3338 4.40625H7.66173C7.43554 4.40625 7.25435 4.59364 7.26195 4.81969L7.40106 8.95622C7.40831 9.17178 7.58516 9.34277 7.80084 9.34277H8.19878C8.41461 9.34277 8.59153 9.17154 8.59857 8.95582L8.73359 4.8193ZM7.42383 10.3535C7.2806 10.4902 7.20898 10.6628 7.20898 10.8711C7.20898 11.0729 7.2806 11.2438 7.42383 11.3838C7.57031 11.5238 7.76237 11.5938 8 11.5938C8.24089 11.5938 8.43294 11.5238 8.57617 11.3838C8.7194 11.2438 8.79102 11.0729 8.79102 10.8711C8.79102 10.6628 8.7194 10.4902 8.57617 10.3535C8.43294 10.2135 8.24089 10.1436 8 10.1436C7.76237 10.1436 7.57031 10.2135 7.42383 10.3535Z" fill="#DC5959"/>
</g>
<defs>
<clipPath id="clip0_6612_160489">
<rect width="16" height="16" fill="white"/>
</clipPath>
</defs>
</svg>
