<svg width="16" height="16" viewBox="0 0 16 16" fill="none" xmlns="http://www.w3.org/2000/svg">
<path fill-rule="evenodd" clip-rule="evenodd" d="M7.99857 3.82031C5.24814 3.82031 2.75391 5.3251 0.913419 7.76927C0.763235 7.96951 0.763235 8.24927 0.913419 8.44951C2.75391 10.8966 5.24814 12.4014 7.99857 12.4014C10.749 12.4014 13.2432 10.8966 15.0837 8.45246C15.2339 8.25221 15.2339 7.97246 15.0837 7.77221C13.2432 5.3251 10.749 3.82031 7.99857 3.82031ZM8.19588 11.1322C6.37011 11.2471 4.86238 9.74227 4.97723 7.91356C5.07146 6.40583 6.29355 5.18374 7.80128 5.08951C9.62704 4.97466 11.1348 6.47945 11.0199 8.30816C10.9228 9.81294 9.70066 11.035 8.19588 11.1322ZM6.37304 8.00485C6.30826 8.98841 7.12102 9.79823 8.10458 9.73639C8.91439 9.68633 9.57402 9.02964 9.62703 8.21393C9.69182 7.23038 8.87905 6.42056 7.8955 6.4824C7.08274 6.53541 6.4231 7.19209 6.37304 8.00485Z" fill="#C1C7D0"/>
</svg>
