<svg xmlns="http://www.w3.org/2000/svg" width="15" height="14" viewBox="0 0 15 14" fill="none">
    <path fill-rule="evenodd" clip-rule="evenodd" d="M13.2817 1.08596L8.58993 6.67232C8.43153 6.85569 8.33732 7.08554 8.33732 7.33504V12.9126L6.66254 12V7.69689C6.66254 7.22695 6.49186 6.76969 6.17611 6.39374L1.71829 1.08596L13.2817 1.08596ZM13.2817 0H1.71829C0.716181 0 0.144162 1.02163 0.745424 1.73753L5.20324 7.04531C5.36112 7.23329 5.44646 7.46192 5.44646 7.69689V12C5.44646 12.4113 5.7067 12.7874 6.11869 12.9713L7.79347 13.884C8.60204 14.245 9.5534 13.7199 9.5534 12.9126V7.33504L14.2546 1.73753C14.8558 1.02163 14.2838 0 13.2817 0Z" fill="#A2AAB5"/>
</svg>
