<svg xmlns="http://www.w3.org/2000/svg" width="16" height="16" viewBox="0 0 16 16" fill="none">
    <path d="M6.82255 13.5148L6.84059 13.5228L6.85794 13.5323L8.51335 14.4344C8.76171 14.5391 9.02975 14.512 9.23505 14.3987C9.44387 14.2834 9.5534 14.103 9.5534 13.9126V8.33504V8.15292L9.67052 8.01347L14.3717 2.41597C14.3717 2.41597 14.3717 2.41597 14.3717 2.41597C14.5301 2.22732 14.5313 2.01991 14.4331 1.84458C14.3308 1.66184 14.1067 1.5 13.7817 1.5H2.21829C1.89331 1.5 1.66918 1.66184 1.56686 1.84457C1.46869 2.01991 1.46986 2.22732 1.6283 2.41597L6.08612 7.72374C6.31597 7.99742 6.44646 8.3387 6.44646 8.69689V13C6.44646 13.1908 6.56846 13.4013 6.82255 13.5148Z" fill="#009DBB" stroke="#009DBB"/>
</svg>
