<svg width="16" height="16" viewBox="0 0 16 16" fill="none" xmlns="http://www.w3.org/2000/svg">
<path d="M8.00078 15.2008C11.9772 15.2008 15.2008 11.9772 15.2008 8.00078C15.2008 4.02433 11.9772 0.800781 8.00078 0.800781C4.02433 0.800781 0.800781 4.02433 0.800781 8.00078C0.800781 11.9772 4.02433 15.2008 8.00078 15.2008Z" stroke="#C1C7D0" stroke-linecap="round" stroke-linejoin="round"/>
<path fill-rule="evenodd" clip-rule="evenodd" d="M6.80078 7.30651C6.80078 7.04878 7.00971 6.83984 7.26745 6.83984H8.04523C8.30296 6.83984 8.51189 7.04878 8.51189 7.30651V11.5065H8.823C9.08074 11.5065 9.28967 11.7154 9.28967 11.9732C9.28967 12.2309 9.08074 12.4398 8.823 12.4398H8.04523C7.78749 12.4398 7.57856 12.2309 7.57856 11.9732V7.77318H7.26745C7.00971 7.77318 6.80078 7.56424 6.80078 7.30651Z" fill="#C1C7D0"/>
<path d="M7.99566 5.94444C8.5326 5.94444 8.96788 5.50917 8.96788 4.97222C8.96788 4.43528 8.5326 4 7.99566 4C7.45872 4 7.02344 4.43528 7.02344 4.97222C7.02344 5.50917 7.45872 5.94444 7.99566 5.94444Z" fill="#C1C7D0"/>
</svg>
