<svg width="16" height="16" viewBox="0 0 16 16" fill="none" xmlns="http://www.w3.org/2000/svg">
    <path d="M5.86549 5C5.97595 5 6.06549 5.08954 6.06549 5.2V10.8C6.06549 10.9105 5.97595 11 5.86549 11H5.2C5.08954 11 5 10.9105 5 10.8V5.2C5 5.08954 5.08954 5 5.2 5H5.86549Z" fill="#C1C7D0"/>
    <path d="M9.18557 11H7.86537L7.87386 10.1799H9.18557C9.56762 10.1799 9.88741 10.0989 10.1449 9.93681C10.4053 9.77472 10.6006 9.54258 10.7307 9.24038C10.8638 8.93819 10.9303 8.5783 10.9303 8.16071V7.83516C10.9303 7.51099 10.8921 7.2239 10.8156 6.9739C10.7421 6.7239 10.6317 6.51374 10.4845 6.34341C10.3402 6.17308 10.1619 6.04396 9.94967 5.95604C9.74025 5.86813 9.49828 5.82418 9.22377 5.82418H7.8399V5H9.22377C9.63412 5 10.0091 5.06731 10.3487 5.20192C10.6883 5.33379 10.9812 5.52473 11.2274 5.77473C11.4764 6.02473 11.6675 6.32418 11.8005 6.67308C11.9335 7.02198 12 7.41209 12 7.84341V8.16071C12 8.59203 11.9335 8.98214 11.8005 9.33104C11.6675 9.67994 11.4764 9.9794 11.2274 10.2294C10.9784 10.4766 10.6812 10.6676 10.336 10.8022C9.99353 10.9341 9.61007 11 9.18557 11ZM8.45543 5V11H7.58993C7.47948 11 7.38993 10.9105 7.38993 10.8V5.2C7.38993 5.08954 7.47948 5 7.58993 5H8.45543Z" fill="#C1C7D0"/>
    <rect x="1.5" y="2.5" width="13" height="11" rx="2.5" stroke="#C1C7D0"/>
</svg>
