<svg width="36" height="16" viewBox="0 0 36 16" fill="none" xmlns="http://www.w3.org/2000/svg">
<path d="M12.4379 10.7388C12.714 10.7388 12.9379 10.9627 12.9379 11.2388V11.3931C12.9379 11.6693 12.714 11.8931 12.4379 11.8931H9.46961H8.5V10.7388H12.4379ZM8.96961 4.11222C9.24575 4.11222 9.46961 4.33608 9.46961 4.61222V11.8931H8.5C8.22386 11.8931 8 11.6693 8 11.3931V4.61222C8 4.33608 8.22386 4.11222 8.5 4.11222H8.96961Z" fill="#C1C7D0"/>
<path d="M19.8691 7.80494V8.20574C19.8691 8.79359 19.7907 9.32265 19.6339 9.79292C19.4772 10.2596 19.2545 10.6569 18.9659 10.9846C18.6774 11.3124 18.3336 11.5636 17.9345 11.7381C17.5355 11.9127 17.092 12 16.6039 12C16.1229 12 15.6811 11.9127 15.2786 11.7381C14.8795 11.5636 14.534 11.3124 14.2418 10.9846C13.9497 10.6569 13.7234 10.2596 13.5631 9.79292C13.4028 9.32265 13.3226 8.79359 13.3226 8.20574V7.80494C13.3226 7.21354 13.4028 6.68448 13.5631 6.21777C13.7234 5.75106 13.9479 5.35382 14.2365 5.02605C14.5251 4.69472 14.8688 4.44177 15.2679 4.2672C15.6705 4.09263 16.1122 4.00534 16.5932 4.00534C17.0813 4.00534 17.5248 4.09263 17.9238 4.2672C18.3229 4.44177 18.6667 4.69472 18.9552 5.02605C19.2474 5.35382 19.4718 5.75106 19.6286 6.21777C19.7889 6.68448 19.8691 7.21354 19.8691 7.80494ZM18.3834 8.20574V7.79426C18.3834 7.3703 18.3442 6.998 18.2659 6.67735C18.1875 6.35315 18.0717 6.08061 17.9185 5.85972C17.7653 5.63883 17.5765 5.47317 17.352 5.36273C17.1276 5.24872 16.8746 5.19172 16.5932 5.19172C16.3082 5.19172 16.0552 5.24872 15.8343 5.36273C15.617 5.47317 15.4318 5.63883 15.2786 5.85972C15.1254 6.08061 15.0078 6.35315 14.9259 6.67735C14.8475 6.998 14.8083 7.3703 14.8083 7.79426V8.20574C14.8083 8.62614 14.8475 8.99844 14.9259 9.32265C15.0078 9.64685 15.1254 9.92118 15.2786 10.1456C15.4353 10.3665 15.6241 10.534 15.845 10.648C16.0659 10.762 16.3189 10.819 16.6039 10.819C16.8889 10.819 17.1418 10.762 17.3627 10.648C17.5836 10.534 17.7689 10.3665 17.9185 10.1456C18.0717 9.92118 18.1875 9.64685 18.2659 9.32265C18.3442 8.99844 18.3834 8.62614 18.3834 8.20574Z" fill="#C1C7D0"/>
<path d="M25.5874 9.77917C25.6559 9.53117 25.8635 9.33333 26.1208 9.33333H26.5979C26.8888 9.33333 27.1227 9.58263 27.0553 9.86566C26.9819 10.174 26.8648 10.4579 26.7041 10.7174C26.4547 11.1165 26.1073 11.43 25.662 11.658C25.2167 11.886 24.6769 12 24.0428 12C23.5547 12 23.1147 11.9145 22.7228 11.7435C22.3344 11.5689 22.0013 11.3213 21.7234 11.0007C21.4491 10.6765 21.2389 10.2881 21.0929 9.83567C20.9468 9.37965 20.8737 8.8684 20.8737 8.30194V7.70875C20.8737 7.14228 20.9486 6.63104 21.0982 6.17502C21.2478 5.71899 21.4616 5.33066 21.7395 5.01002C22.0209 4.68582 22.3576 4.43643 22.7495 4.26186C23.145 4.08729 23.5867 4 24.0748 4C24.709 4 25.2452 4.11757 25.6834 4.35271C26.1216 4.58428 26.4618 4.90314 26.7041 5.30929C26.8598 5.57042 26.9758 5.8566 27.0521 6.16781C27.1222 6.45409 26.8875 6.70942 26.5928 6.70942H26.1311C25.8717 6.70942 25.6626 6.50885 25.5985 6.25756C25.5628 6.11768 25.5162 5.99041 25.4589 5.87575C25.3485 5.64774 25.181 5.47495 24.9566 5.35738C24.7357 5.23625 24.4418 5.17568 24.0748 5.17568C23.7898 5.17568 23.5386 5.22912 23.3213 5.33601C23.1075 5.44289 22.9294 5.60321 22.7869 5.81697C22.6444 6.02717 22.5375 6.2908 22.4663 6.60788C22.395 6.9214 22.3594 7.28479 22.3594 7.69806V8.30194C22.3594 8.69739 22.3914 9.05188 22.4556 9.3654C22.5197 9.67891 22.6195 9.94433 22.7548 10.1617C22.8902 10.379 23.0648 10.5446 23.2786 10.6587C23.4923 10.7727 23.747 10.8297 24.0428 10.8297C24.4026 10.8297 24.6947 10.7727 24.9192 10.6587C25.1472 10.5446 25.32 10.3772 25.4375 10.1563C25.499 10.0443 25.5489 9.91862 25.5874 9.77917Z" fill="#C1C7D0"/>
<rect x="0.5" y="0.5" width="34.1423" height="15" rx="3.5" stroke="#C1C7D0"/>
</svg>
