<svg width="40" height="14" viewBox="0 0 40 14" fill="none" xmlns="http://www.w3.org/2000/svg">
    <path d="M8.93152 4V9.92288H8V4H8.93152Z" fill="#C1C7D0"/>
    <path d="M9.77065 7.88303V7.79434C9.77065 7.49357 9.81427 7.21465 9.90152 6.95758C9.98877 6.69794 10.1145 6.47301 10.2787 6.28278C10.4455 6.08997 10.6483 5.94087 10.8869 5.83548C11.1281 5.72751 11.4002 5.67352 11.703 5.67352C12.0083 5.67352 12.2804 5.72751 12.519 5.83548C12.7602 5.94087 12.9642 6.08997 13.131 6.28278C13.2978 6.47301 13.4249 6.69794 13.5121 6.95758C13.5994 7.21465 13.643 7.49357 13.643 7.79434V7.88303C13.643 8.1838 13.5994 8.46273 13.5121 8.71979C13.4249 8.97686 13.2978 9.2018 13.131 9.3946C12.9642 9.58483 12.7615 9.73393 12.5229 9.8419C12.2842 9.9473 12.0135 10 11.7107 10C11.4053 10 11.132 9.9473 10.8908 9.8419C10.6521 9.73393 10.4494 9.58483 10.2826 9.3946C10.1158 9.2018 9.98877 8.97686 9.90152 8.71979C9.81427 8.46273 9.77065 8.1838 9.77065 7.88303ZM10.6983 7.79434V7.88303C10.6983 8.07069 10.7176 8.24807 10.7561 8.41517C10.7945 8.58226 10.8549 8.72879 10.937 8.85476C11.0191 8.98072 11.1243 9.07969 11.2526 9.15167C11.3809 9.22365 11.5336 9.25964 11.7107 9.25964C11.8826 9.25964 12.0314 9.22365 12.1572 9.15167C12.2855 9.07969 12.3907 8.98072 12.4728 8.85476C12.5549 8.72879 12.6152 8.58226 12.6537 8.41517C12.6948 8.24807 12.7153 8.07069 12.7153 7.88303V7.79434C12.7153 7.60925 12.6948 7.43445 12.6537 7.26992C12.6152 7.10283 12.5536 6.95501 12.469 6.82648C12.3868 6.69794 12.2816 6.59769 12.1533 6.52571C12.0276 6.45116 11.8775 6.41388 11.703 6.41388C11.5285 6.41388 11.3771 6.45116 11.2488 6.52571C11.123 6.59769 11.0191 6.69794 10.937 6.82648C10.8549 6.95501 10.7945 7.10283 10.7561 7.26992C10.7176 7.43445 10.6983 7.60925 10.6983 7.79434Z" fill="#C1C7D0"/>
    <path d="M16.1219 9.25964C16.2733 9.25964 16.4093 9.23008 16.5299 9.17095C16.6531 9.10925 16.7519 9.02442 16.8263 8.91645C16.9033 8.80848 16.9456 8.6838 16.9533 8.54242H17.8271C17.822 8.81234 17.7424 9.05784 17.5885 9.27892C17.4345 9.5 17.2305 9.67609 16.9764 9.8072C16.7224 9.93573 16.4414 10 16.1334 10C15.8152 10 15.5381 9.94602 15.302 9.83805C15.0659 9.72751 14.8696 9.57584 14.7131 9.38303C14.5565 9.19023 14.4385 8.96787 14.3589 8.71594C14.282 8.46401 14.2435 8.19409 14.2435 7.90617V7.77121C14.2435 7.48329 14.282 7.21337 14.3589 6.96144C14.4385 6.70694 14.5565 6.48329 14.7131 6.29049C14.8696 6.09769 15.0659 5.9473 15.302 5.83933C15.5381 5.72879 15.814 5.67352 16.1296 5.67352C16.4632 5.67352 16.7557 5.74036 17.0072 5.87404C17.2587 6.00514 17.4563 6.18895 17.6 6.42545C17.7463 6.65938 17.822 6.93188 17.8271 7.24293H16.9533C16.9456 7.08869 16.9071 6.94987 16.8379 6.82648C16.7711 6.70051 16.6762 6.60026 16.553 6.52571C16.4324 6.45116 16.2874 6.41388 16.118 6.41388C15.9307 6.41388 15.7755 6.45244 15.6523 6.52956C15.5291 6.60411 15.4329 6.70694 15.3636 6.83805C15.2943 6.96658 15.2443 7.11183 15.2135 7.27378C15.1852 7.43316 15.1711 7.59897 15.1711 7.77121V7.90617C15.1711 8.07841 15.1852 8.2455 15.2135 8.40745C15.2417 8.56941 15.2905 8.71465 15.3597 8.84319C15.4316 8.96915 15.5291 9.07069 15.6523 9.14782C15.7755 9.22237 15.932 9.25964 16.1219 9.25964Z" fill="#C1C7D0"/>
    <path d="M20.8872 9.08612V7.0964C20.8872 6.9473 20.8603 6.81877 20.8064 6.7108C20.7525 6.60283 20.6704 6.51928 20.5601 6.46015C20.4523 6.40103 20.3163 6.37147 20.152 6.37147C20.0006 6.37147 19.8698 6.39717 19.7594 6.44859C19.6491 6.5 19.5631 6.56941 19.5015 6.65681C19.4399 6.74422 19.4091 6.84319 19.4091 6.95373H18.4853C18.4853 6.7892 18.5251 6.62982 18.6047 6.47558C18.6842 6.32134 18.7997 6.1838 18.9511 6.06298C19.1025 5.94216 19.2834 5.84704 19.4938 5.77763C19.7043 5.70823 19.9403 5.67352 20.2021 5.67352C20.5152 5.67352 20.7923 5.72622 21.0335 5.83162C21.2773 5.93702 21.4685 6.0964 21.6071 6.30977C21.7482 6.52057 21.8188 6.78535 21.8188 7.10411V8.95887C21.8188 9.1491 21.8316 9.32005 21.8573 9.47172C21.8855 9.62082 21.9253 9.75064 21.9766 9.86118V9.92288H21.0258C20.9822 9.82262 20.9476 9.69537 20.9219 9.54113C20.8988 9.38432 20.8872 9.23265 20.8872 9.08612ZM21.022 7.3856L21.0297 7.96015H20.3638C20.1918 7.96015 20.0404 7.97686 19.9095 8.01028C19.7787 8.04113 19.6696 8.0874 19.5824 8.1491C19.4951 8.2108 19.4297 8.28535 19.386 8.37275C19.3424 8.46015 19.3206 8.55913 19.3206 8.66967C19.3206 8.78021 19.3463 8.88175 19.3976 8.97429C19.4489 9.06427 19.5233 9.13496 19.6208 9.18638C19.7209 9.23779 19.8415 9.2635 19.9827 9.2635C20.1726 9.2635 20.3381 9.22494 20.4792 9.14782C20.6229 9.06812 20.7358 8.97172 20.818 8.85861C20.9001 8.74293 20.9437 8.63368 20.9488 8.53085L21.2491 8.94344C21.2183 9.04884 21.1657 9.16195 21.0913 9.28278C21.0168 9.4036 20.9193 9.51928 20.7987 9.62982C20.6807 9.73779 20.5383 9.82648 20.3715 9.89589C20.2072 9.9653 20.0173 10 19.8018 10C19.5298 10 19.2872 9.94602 19.0743 9.83805C18.8613 9.72751 18.6945 9.57969 18.5739 9.3946C18.4532 9.20694 18.3929 8.99486 18.3929 8.75835C18.3929 8.53728 18.434 8.3419 18.5161 8.17224C18.6008 8 18.724 7.85604 18.8856 7.74036C19.0499 7.62468 19.25 7.53728 19.4861 7.47815C19.7222 7.41645 19.9917 7.3856 20.2945 7.3856H21.022Z" fill="#C1C7D0"/>
    <path d="M24.698 5.75064V6.42931H22.35V5.75064H24.698ZM23.0274 4.72879H23.9551V8.76992C23.9551 8.89846 23.9731 8.99743 24.009 9.06684C24.0475 9.13368 24.1001 9.17866 24.1668 9.2018C24.2335 9.22494 24.3118 9.2365 24.4016 9.2365C24.4658 9.2365 24.5273 9.23265 24.5864 9.22494C24.6454 9.21722 24.6929 9.20951 24.7288 9.2018L24.7326 9.91131C24.6557 9.93445 24.5658 9.95501 24.4632 9.97301C24.3631 9.991 24.2476 10 24.1168 10C23.9038 10 23.7152 9.96273 23.5509 9.88818C23.3867 9.81105 23.2584 9.68638 23.166 9.51414C23.0736 9.3419 23.0274 9.11311 23.0274 8.82776V4.72879Z" fill="#C1C7D0"/>
    <path d="M25.1445 7.88303V7.79434C25.1445 7.49357 25.1881 7.21465 25.2754 6.95758C25.3626 6.69794 25.4884 6.47301 25.6526 6.28278C25.8194 6.08997 26.0221 5.94087 26.2608 5.83548C26.502 5.72751 26.774 5.67352 27.0768 5.67352C27.3822 5.67352 27.6542 5.72751 27.8929 5.83548C28.1341 5.94087 28.3381 6.08997 28.5049 6.28278C28.6717 6.47301 28.7987 6.69794 28.886 6.95758C28.9732 7.21465 29.0168 7.49357 29.0168 7.79434V7.88303C29.0168 8.1838 28.9732 8.46273 28.886 8.71979C28.7987 8.97686 28.6717 9.2018 28.5049 9.3946C28.3381 9.58483 28.1354 9.73393 27.8967 9.8419C27.6581 9.9473 27.3873 10 27.0845 10C26.7792 10 26.5059 9.9473 26.2646 9.8419C26.026 9.73393 25.8233 9.58483 25.6565 9.3946C25.4897 9.2018 25.3626 8.97686 25.2754 8.71979C25.1881 8.46273 25.1445 8.1838 25.1445 7.88303ZM26.0722 7.79434V7.88303C26.0722 8.07069 26.0914 8.24807 26.1299 8.41517C26.1684 8.58226 26.2287 8.72879 26.3108 8.85476C26.3929 8.98072 26.4982 9.07969 26.6265 9.15167C26.7548 9.22365 26.9075 9.25964 27.0845 9.25964C27.2565 9.25964 27.4053 9.22365 27.531 9.15167C27.6593 9.07969 27.7646 8.98072 27.8467 8.85476C27.9288 8.72879 27.9891 8.58226 28.0276 8.41517C28.0686 8.24807 28.0892 8.07069 28.0892 7.88303V7.79434C28.0892 7.60925 28.0686 7.43445 28.0276 7.26992C27.9891 7.10283 27.9275 6.95501 27.8428 6.82648C27.7607 6.69794 27.6555 6.59769 27.5272 6.52571C27.4014 6.45116 27.2513 6.41388 27.0768 6.41388C26.9023 6.41388 26.7509 6.45116 26.6226 6.52571C26.4969 6.59769 26.3929 6.69794 26.3108 6.82648C26.2287 6.95501 26.1684 7.10283 26.1299 7.26992C26.0914 7.43445 26.0722 7.60925 26.0722 7.79434Z" fill="#C1C7D0"/>
    <path d="M30.7259 6.54499V9.92288H29.7982V5.75064H30.6836L30.7259 6.54499ZM32 5.72365L31.9923 6.5874C31.9358 6.57712 31.8743 6.56941 31.8075 6.56427C31.7434 6.55913 31.6792 6.55656 31.6151 6.55656C31.456 6.55656 31.3161 6.57969 31.1955 6.62596C31.0749 6.66967 30.9735 6.73393 30.8914 6.81877C30.8119 6.90103 30.7503 7.00129 30.7067 7.11954C30.663 7.23779 30.6374 7.37018 30.6297 7.51671L30.418 7.53213C30.418 7.26992 30.4436 7.02699 30.4949 6.80334C30.5463 6.57969 30.6233 6.38303 30.7259 6.21337C30.8311 6.0437 30.962 5.91131 31.1185 5.8162C31.2776 5.72108 31.4611 5.67352 31.669 5.67352C31.7254 5.67352 31.7857 5.67866 31.8499 5.68895C31.9166 5.69923 31.9666 5.7108 32 5.72365Z" fill="#C1C7D0"/>
    <rect x="0.5" y="0.5" width="39" height="13" rx="3.5" stroke="#C1C7D0"/>
</svg>
