<svg width="16" height="16" viewBox="0 0 16 16" fill="none" xmlns="http://www.w3.org/2000/svg">
    <path fill-rule="evenodd" clip-rule="evenodd" d="M6.11947 12.7062L13.5872 5.23847C14.3675 4.45819 14.3675 3.19312 13.5872 2.41284C12.8069 1.63257 11.5418 1.63257 10.7616 2.41284L3.29384 9.88057L2.22963 13.2689C2.13277 13.5773 2.42273 13.8673 2.7311 13.7704L6.11947 12.7062ZM4.0627 10.7698L5.23019 11.9373L3.52811 12.4719L4.0627 10.7698ZM10.2943 4.29433L4.64785 9.94077L6.05926 11.3522L11.7057 5.70574L10.2943 4.29433ZM11.0014 3.58722L12.4128 4.99863L12.8801 4.53136C13.2698 4.14161 13.2698 3.5097 12.8801 3.11995C12.4903 2.7302 11.8584 2.7302 11.4687 3.11995L11.0014 3.58722Z" fill="#C1C7D0"/>
</svg>
