<svg width="16" height="16" viewBox="0 0 16 16" fill="none" xmlns="http://www.w3.org/2000/svg">
<g clip-path="url(#clip0_5884_28215)">
<path fill-rule="evenodd" clip-rule="evenodd" d="M8.00017 1L15.4963 5.17773C15.9758 5.44497 16.1424 6.04074 15.8684 6.50841C15.5944 6.97609 14.9835 7.13857 14.504 6.87133L8.00017 3.24662L1.49631 6.87133C1.01679 7.13857 0.405938 6.97609 0.131928 6.50841C-0.142082 6.04074 0.0245147 5.44497 0.504032 5.17773L8.00017 1Z"/>
<path fill-rule="evenodd" clip-rule="evenodd" d="M8.00017 5L15.4963 9.17773C15.9758 9.44497 16.1424 10.0407 15.8684 10.5084C15.5944 10.9761 14.9835 11.1386 14.504 10.8713L8.00017 7.24662L1.49631 10.8713C1.01679 11.1386 0.405938 10.9761 0.131928 10.5084C-0.142082 10.0407 0.0245147 9.44497 0.504032 9.17773L8.00017 5Z"/>
<path fill-rule="evenodd" clip-rule="evenodd" d="M8.00017 9L15.4963 13.1777C15.9758 13.445 16.1424 14.0407 15.8684 14.5084C15.5944 14.9761 14.9835 15.1386 14.504 14.8713L8.00017 11.2466L1.49631 14.8713C1.01679 15.1386 0.405938 14.9761 0.131928 14.5084C-0.142082 14.0407 0.0245147 13.445 0.504032 13.1777L8.00017 9Z"/>
</g>
<defs>
<clipPath id="clip0_5884_28215">
<rect width="16" height="16" fill="white"/>
</clipPath>
</defs>
</svg>
