<svg width="16" height="16" viewBox="0 0 16 16" fill="none" xmlns="http://www.w3.org/2000/svg">
<g clip-path="url(#clip0_7619_171731)">
<path fill-rule="evenodd" clip-rule="evenodd" d="M9.98028 2.48494L13.5158 6.02048C14.6093 7.11395 14.6093 8.88681 13.5158 9.98028L9.98028 13.5158C8.88681 14.6093 7.11395 14.6093 6.02048 13.5158L2.48494 9.98028C1.39148 8.88681 1.39148 7.11395 2.48494 6.02048L6.02048 2.48494C7.11395 1.39148 8.88681 1.39148 9.98028 2.48494ZM5.17195 1.63642C6.73405 0.0743194 9.26671 0.0743196 10.8288 1.63642L14.3643 5.17195C15.9264 6.73405 15.9264 9.26671 14.3643 10.8288L10.8288 14.3643C9.26671 15.9264 6.73405 15.9264 5.17195 14.3643L1.63642 10.8288C0.0743194 9.26671 0.0743196 6.73405 1.63642 5.17195L5.17195 1.63642ZM11.7391 6.65883C11.9317 6.46091 11.9273 6.14435 11.7294 5.9518C11.5315 5.75924 11.2149 5.76359 11.0224 5.96152L7.48923 9.59317L5.73909 7.7945C5.54652 7.59659 5.22996 7.59226 5.03205 7.78484C4.83414 7.97741 4.82981 8.29396 5.02238 8.49188L7.13091 10.6589C7.22504 10.7556 7.35429 10.8102 7.48928 10.8102C7.62426 10.8102 7.75351 10.7556 7.84764 10.6588L11.7391 6.65883Z" fill="#3AA76D"/>
</g>
<defs>
<clipPath id="clip0_7619_171731">
<rect width="16" height="16" fill="white"/>
</clipPath>
</defs>
</svg>
