<svg width="16" height="16" viewBox="0 0 16 16" fill="none" xmlns="http://www.w3.org/2000/svg">
<g clip-path="url(#clip0_7619_171711)">
<path fill-rule="evenodd" clip-rule="evenodd" d="M15 8C15 11.866 11.866 15 8 15C4.13401 15 1 11.866 1 8C1 4.13401 4.13401 1 8 1C11.866 1 15 4.13401 15 8ZM16 8C16 12.4183 12.4183 16 8 16C3.58172 16 0 12.4183 0 8C0 3.58172 3.58172 0 8 0C12.4183 0 16 3.58172 16 8ZM11.4301 6.41839C11.6611 6.18088 11.6559 5.80101 11.4184 5.56994C11.1809 5.33887 10.801 5.3441 10.5699 5.58161L7.10849 9.13959L5.43003 7.41459C5.19894 7.1771 4.81907 7.1719 4.58158 7.40299C4.34408 7.63408 4.33889 8.01394 4.56997 8.25144L6.6785 10.4184C6.79146 10.5345 6.94656 10.6 7.10855 10.6C7.27053 10.6 7.42563 10.5345 7.53858 10.4184L11.4301 6.41839Z" fill="#3AA76D"/>
</g>
<defs>
<clipPath id="clip0_7619_171711">
<rect width="16" height="16" fill="white"/>
</clipPath>
</defs>
</svg>
