<svg width="16" height="16" viewBox="0 0 16 16" fill="none" xmlns="http://www.w3.org/2000/svg">
<path d="M2.63206 12.5027C0.150902 9.53548 0.542832 5.11687 3.50746 2.63351C6.47209 0.150148 10.8868 0.542427 13.3679 3.50969C15.8491 6.47695 15.4572 10.8956 12.4925 13.3789C11.3021 14.3761 9.87639 14.91 8.43669 14.999C8.16277 15.016 7.927 14.8074 7.91008 14.5333C7.89316 14.2591 8.10151 14.0231 8.37543 14.0062C9.61051 13.9299 10.8324 13.4724 11.8547 12.6161C14.3984 10.4853 14.7347 6.69408 12.6058 4.14811C10.4769 1.60215 6.68903 1.26557 4.14532 3.39634C1.60321 5.52577 1.26576 9.3136 3.39021 11.8595L4.62487 10.6249L5.37136 14.6287L1.36756 13.8822L2.68906 12.5607C2.66884 12.5432 2.64976 12.5239 2.63206 12.5027Z" fill="#A2AAB5"/>
<path d="M7.00002 4.5C7.00002 4.22386 7.22387 4 7.50002 4C7.77616 4 8.00002 4.22386 8.00002 4.5V8.29285L9.85551 10.1483C10.0508 10.3436 10.0508 10.6602 9.85551 10.8554C9.66024 11.0507 9.34366 11.0507 9.1484 10.8554L7.16213 8.86918L7.15484 8.86174C7.05945 8.77069 7.00002 8.64229 7.00002 8.5V4.5Z" fill="#A2AAB5"/>
</svg>
