<?xml version="1.0" encoding="UTF-8" standalone="no"?>
<svg width="18px" height="18px" viewBox="0 0 18 18" version="1.1" xmlns="http://www.w3.org/2000/svg" xmlns:xlink="http://www.w3.org/1999/xlink">
    <!-- Generator: Sketch 41.2 (35397) - http://www.bohemiancoding.com/sketch -->
    <title>fb</title>
    <desc>Created with Sketch.</desc>
    <defs></defs>
    <g id="#Other-pages" stroke="none" stroke-width="1" fill="none" fill-rule="evenodd">
        <g id="Socials-1" transform="translate(-1130.000000, -805.000000)" fill="#FFFFFF">
            <g id="socials" transform="translate(910.000000, 804.000000)">
                <g id="fb" transform="translate(220.000000, 1.000000)">
                    <path d="M9,17.9932555 L0.991382387,17.9932555 C0.445110558,17.9932555 0,17.5481445 0,17.001873 L0,0.991383643 C0,0.445112675 0.445110558,0 0.991382387,0 L17.0086163,0 C17.554894,0 18,0.445112675 18,0.991383643 L18,17.0086174 C18,17.5548891 17.554894,18 17.0086163,18 L17.0086163,17.9932555 L12,17.9932555 L12,18 L9,18 L9,17.9932555 Z M9,17.9932555 L12,17.9932555 L12,11 L14,11 L15,8 L12,8 L12,6 C11.8419682,5.41350407 12.0866589,4.8208314 13,5 L15,5 L15,2 C14.7170751,2.08251967 13.7459665,2 13,2 C10.2667756,2 8.66100348,3.41041195 9,6 L9,8 L6,8 L6,11 L9,11 L9,17.9932555 Z" id="Combined-Shape"></path>
                </g>
            </g>
        </g>
    </g>
</svg>