<svg width="16" height="16" viewBox="0 0 16 16" fill="none" xmlns="http://www.w3.org/2000/svg">
<path fill-rule="evenodd" clip-rule="evenodd" d="M5.51729 3.0002C5.7949 3.00779 6.01338 3.22508 6.00529 3.48553V9.99211L11.0748 9.99221L9.92183 8.79222C9.72545 8.60798 9.72545 8.30927 9.92183 8.12502C10.0193 8.03356 10.1469 7.9875 10.2746 7.98685C10.4042 7.98618 10.5341 8.03224 10.633 8.12502L13 10.464L10.633 12.8618C10.4366 13.0461 10.1182 13.0461 9.92183 12.8618C9.72545 12.6776 9.72545 12.3789 9.92183 12.1946L11.0748 10.9948H5.5C5.22386 10.9948 5 10.771 5 10.4948V3.45805C5.00809 3.1976 5.23969 2.99262 5.51729 3.0002Z" fill="#A2AAB5"/>
</svg>
