<?xml version="1.0" encoding="UTF-8" standalone="no"?>
<svg width="18px" height="18px" viewBox="0 0 18 18" version="1.1" xmlns="http://www.w3.org/2000/svg" xmlns:xlink="http://www.w3.org/1999/xlink">
    <!-- Generator: sketchtool 42 (36781) - http://www.bohemiancoding.com/sketch -->
    <title>476C0FB9-B5B9-45B6-91DD-C3D847E53890</title>
    <desc>Created with sketchtool.</desc>
    <defs>
    </defs>
    <g id="Landing_v4" stroke="none" stroke-width="1" fill="none" fill-rule="evenodd">
        <g id="LOGIN" transform="translate(-430.000000, -744.000000)" fill="#82D9E5">
            <g id="TWEETS&amp;Socials1" transform="translate(125.000000, 411.000000)">
                <g id="socials1" transform="translate(56.000000, 331.000000)">
                    <g id="Slack" opacity="0.800000012" transform="translate(249.000000, 2.000000)">
                        <path d="M11.6704918,1.10655738 C11.3901639,0.26557377 10.4901639,-0.191803279 9.64918033,0.0737704918 C8.80819672,0.354098361 8.35081967,1.25409836 8.61639344,2.09508197 L12.7622951,14.842623 C13.042623,15.6245902 13.8983607,16.0672131 14.7098361,15.8311475 C15.5655738,15.5803279 16.0819672,14.6803264 15.8016393,13.8540969 C15.8016393,13.8245902 11.6704918,1.10655738 11.6704918,1.10655738 Z" id="Fill-1"></path>
                        <path d="M5.25245902,3.20163934 C4.97213115,2.36065574 4.07213115,1.90327869 3.23114754,2.16885246 C2.39016393,2.43442623 1.93278689,3.34918033 2.19836066,4.19016393 L6.3442623,16.9377054 C6.62459016,17.719673 7.48032787,18.162296 8.29180328,17.9262295 C9.14754098,17.6754103 9.66393443,16.7754094 9.38360656,15.9491803 C9.38360656,15.9196721 5.25245902,3.20163934 5.25245902,3.20163934 Z" id="Fill-3"></path>
                        <path d="M16.8934426,11.6704918 C17.7344262,11.3901639 18.1918033,10.4901639 17.9262295,9.64918033 C17.6459016,8.80819672 16.7459016,8.35081967 15.904918,8.61639344 L3.14262295,12.7622951 C2.36065574,13.042623 1.91803279,13.8983607 2.15409836,14.7098361 C2.40491803,15.5655738 3.30491803,16.0819672 4.13114754,15.8016393 C4.16065574,15.8016393 16.8934426,11.6704918 16.8934426,11.6704918 Z" id="Fill-4"></path>
                        <path d="M5.79836066,15.2704918 C6.62459016,15.004918 7.70163934,14.6508197 8.85245902,14.2819672 C8.58688525,13.4557377 8.23278689,12.3786885 7.86393443,11.2278703 L4.80983607,12.2163934 L5.79836066,15.2704918 Z" id="Fill-5"></path>
                        <path d="M12.2163934,13.1901639 C13.3672146,12.8213115 14.4442623,12.4672131 15.2704918,12.2016393 C15.004918,11.3754113 14.6508197,10.2983607 14.2819672,9.14754098 L11.2278703,10.1360656 L12.2163934,13.1901639 Z" id="Fill-6"></path>
                        <path d="M14.7983607,5.25245902 C15.6393443,4.97213115 16.0967213,4.07213115 15.8311475,3.23114754 C15.5655738,2.39016393 14.6508197,1.93278689 13.8098375,2.19836066 L1.06229508,6.3442623 C0.280327869,6.62459016 -0.162295082,7.48032787 0.0737704918,8.29180328 C0.324590164,9.14754098 1.22459016,9.66393443 2.05081967,9.38360656 C2.08032787,9.38360656 14.7983607,5.25245902 14.7983607,5.25245902 Z" id="Fill-7"></path>
                        <path d="M3.71803279,8.85245902 C4.5442623,8.58688525 5.62131148,8.23278689 6.77213115,7.86393443 C6.40327869,6.71311475 6.04918033,5.63606557 5.78360656,4.80983607 L2.7295082,5.79836066 L3.71803279,8.85245902 Z" id="Fill-8"></path>
                        <path d="M10.1360656,6.75737705 C11.2868852,6.38852459 12.3639344,6.03442623 13.1901625,5.76885246 C12.82131,4.61803279 12.4672116,3.54098361 12.2016393,2.7147541 L9.14754098,3.71803279 L10.1360656,6.75737705 Z" id="Fill-9"></path>
                    </g>
                </g>
            </g>
        </g>
    </g>
</svg>
