<svg xmlns="http://www.w3.org/2000/svg" width="20" height="20" viewBox="0 0 20 20">
  <path fill="#39C2D7" fill-rule="evenodd" d="M0,10 C0,4.47714167 4.4771325,0 10,0 C15.5228667,0 20,4.47714167 20,10 C20,15.522855 15.5228667,20 10,20 C4.4771325,20 0,15.522855 0,10 Z M1.08725226,9.85714544 C1.00050381,14.8269606 5.21256641,18.8962163 10.1823537,18.9829642 C15.1521976,19.0697132 18.9706245,14.8709386 19.057373,9.90112347 C19.1441213,4.93131551 15.1994839,1.09717138 10.22964,1.01042243 C5.25985273,0.923674472 1.17400058,4.88733748 1.08725226,9.85714544 Z M9.93331667,13.6108333 C9.90381667,13.7344108 9.84034167,13.8472617 9.75000833,13.936685 C9.59249167,14.0950842 9.3722,14.1743342 9.14998333,14.1525017 C8.792975,14.177405 8.4669,13.9501825 8.3667,13.6066692 L6.01669333,11.2583333 C5.75327583,10.9615667 5.7666525,10.5110333 6.04705833,10.2303583 C6.32746417,9.94968333 6.778005,9.93601667 7.07499167,10.1991583 L8.8917,12.0191642 L12.6083917,5.43 C12.7162167,5.232725 12.8991667,5.087375 13.1156917,5.02696667 C13.3322667,4.96655 13.56405,4.99619167 13.7583917,5.10916667 C14.1606667,5.35734167 14.2933667,5.87991667 14.0583833,6.29 L9.93331667,13.6108333 Z"/>
</svg>
