<svg xmlns="http://www.w3.org/2000/svg" width="20" height="17" viewBox="0 0 20 17">
  <path fill="#777" fill-rule="evenodd" d="M9.72181454,3.24489796 C12.299533,3.24489796 14.3915944,5.25632653 14.3915944,7.73469388 C14.3915944,8.31387755 14.2701801,8.86612245 14.06004,9.37346939 L16.7918612,12 C18.2021348,10.8685714 19.3135424,9.40489796 20,7.73469388 C18.3795864,3.79265306 14.3962642,1 9.72181454,1 C8.41427618,1 7.16277518,1.2244898 6,1.62857143 L8.0173449,3.56367347 C8.54503002,3.36612245 9.11941294,3.24489796 9.72181454,3.24489796 L9.72181454,3.24489796 Z M0.9,1.14078947 L2.95199955,3.18078947 L3.36149955,3.58789474 C1.8765,4.74210526 0.702,6.27657895 0,8.05263158 C1.557,11.9805263 5.4,14.7631579 9.9,14.7631579 C11.295,14.7631579 12.627,14.4947377 13.8465,14.0071053 L14.229,14.3873684 L16.8525,17 L18,15.8636838 L2.0475,0 L0.9,1.14078947 L0.9,1.14078947 Z M5.51563586,6 L7.01876303,7.2875 C6.97498263,7.46666667 6.94579569,7.64583333 6.94579569,7.83333333 C6.94579569,9.2125 8.25434329,10.3333333 9.86448923,10.3333333 C10.0833912,10.3333333 10.2925643,10.3083333 10.4968728,10.2708333 L12,11.5583333 C11.3530229,11.8333333 10.6330785,12 9.86448923,12 C7.17929117,12 5,10.1333333 5,7.83333333 C5,7.175 5.19457957,6.55833333 5.51563586,6 L5.51563586,6 Z M10,5.01421801 L12.985782,8 L13,7.8436019 C13,6.27488152 11.7251185,5 10.1563981,5 L10,5.01421801 L10,5.01421801 Z"/>
</svg>
