<svg width="48" height="48" viewBox="0 0 48 48" fill="none" xmlns="http://www.w3.org/2000/svg">
<path d="M12 26.6396L12 30.5845C12 30.8814 12.1554 31.1557 12.4075 31.3042L23.5925 37.8887C23.8446 38.0371 24.1554 38.0371 24.4075 37.8887L35.5925 31.3042C35.8446 31.1557 36 30.8814 36 30.5845V25.2811L24 32.3706L16.8905 28.1853L16.8905 23.7606L12 26.6396Z" fill="#1DBDD6"/>
<path d="M24 15.6294L31.1095 19.8147V24.3059L36 21.4269V17.4155C36 17.1186 35.8446 16.8443 35.5925 16.6958L24.4075 10.1113C24.1554 9.96288 23.8446 9.96288 23.5925 10.1113L12.4075 16.6958C12.1554 16.8443 12 17.1186 12 17.4155L12 22.8109L24 15.6294Z" fill="#1DBDD6"/>
</svg>
