<svg xmlns="http://www.w3.org/2000/svg" width="320" height="568" viewBox="0 0 320 568" xmlns:xlink="http://www.w3.org/1999/xlink">
  <defs>
    <path id="b" d="M6.94442125,157.24918 C3.16803923,156.946066 0.317473339,155.672683 0.317473339,155.672683 C0.317473339,155.672683 3.16803923,154.399299 6.94442125,154.096185 C7.24753536,150.319803 8.52091879,147.469237 8.52091879,147.469237 C8.52091879,147.469237 9.79430221,150.319803 10.0974163,154.096185 C13.8737983,154.399299 16.7243642,155.672683 16.7243642,155.672683 C16.7243642,155.672683 13.8737983,156.946066 10.0974163,157.24918 C9.79430221,161.025562 8.52091879,163.876128 8.52091879,163.876128 C8.52091879,163.876128 7.24753536,161.025562 6.94442125,157.24918 Z"/>
    <filter id="a" width="173.1%" height="173.1%" x="-36.6%" y="-36.6%" filterUnits="objectBoundingBox">
      <feOffset in="SourceAlpha" result="shadowOffsetOuter1"/>
      <feGaussianBlur stdDeviation="2" in="shadowOffsetOuter1" result="shadowBlurOuter1"/>
      <feColorMatrix values="0 0 0 0 0.639215686 0 0 0 0 0.776470588 0 0 0 0 0.266666667 0 0 0 0.5 0" in="shadowBlurOuter1"/>
    </filter>
    <path id="d" d="M126.192712,326.241624 C124.116159,326.074778 122.548811,325.374624 122.548811,325.374624 C122.548811,325.374624 124.116159,324.67447 126.192712,324.507624 C126.35775,322.369873 127.060705,320.561936 127.060705,320.561936 C127.060705,320.561936 127.763661,322.369873 127.928699,324.507624 C130.005252,324.67447 131.5726,325.374624 131.5726,325.374624 C131.5726,325.374624 130.005252,326.074778 127.928699,326.241624 C127.763661,328.379375 127.060705,330.187312 127.060705,330.187312 C127.060705,330.187312 126.35775,328.379375 126.192712,326.241624 Z"/>
    <filter id="c" width="233%" height="224.7%" x="-66.5%" y="-62.3%" filterUnits="objectBoundingBox">
      <feOffset in="SourceAlpha" result="shadowOffsetOuter1"/>
      <feGaussianBlur stdDeviation="2" in="shadowOffsetOuter1" result="shadowBlurOuter1"/>
      <feColorMatrix values="0 0 0 0 0.639215686 0 0 0 0 0.776470588 0 0 0 0 0.266666667 0 0 0 0.5 0" in="shadowBlurOuter1"/>
    </filter>
    <path id="f" d="M81.5823755,493.903642 C79.5058224,493.736796 77.9384742,493.036642 77.9384742,493.036642 C77.9384742,493.036642 79.5058224,492.336488 81.5823755,492.169642 C81.7474139,490.031892 82.4503692,488.223954 82.4503692,488.223954 C82.4503692,488.223954 83.1533245,490.031892 83.3183628,492.169642 C85.3949159,492.336488 86.9622642,493.036642 86.9622642,493.036642 C86.9622642,493.036642 85.3949159,493.736796 83.3183628,493.903642 C83.1533245,496.041393 82.4503692,497.84933 82.4503692,497.84933 C82.4503692,497.84933 81.7474139,496.041393 81.5823755,493.903642 Z"/>
    <filter id="e" width="233%" height="224.7%" x="-66.5%" y="-62.3%" filterUnits="objectBoundingBox">
      <feOffset in="SourceAlpha" result="shadowOffsetOuter1"/>
      <feGaussianBlur stdDeviation="2" in="shadowOffsetOuter1" result="shadowBlurOuter1"/>
      <feColorMatrix values="0 0 0 0 0.639215686 0 0 0 0 0.776470588 0 0 0 0 0.266666667 0 0 0 0.5 0" in="shadowBlurOuter1"/>
    </filter>
    <path id="h" d="M167.209939,6.30725133 C165.133386,6.14040565 163.566038,5.44025157 163.566038,5.44025157 C163.566038,5.44025157 165.133386,4.7400975 167.209939,4.57325181 C167.374977,2.43550104 168.077933,0.627563577 168.077933,0.627563577 C168.077933,0.627563577 168.780888,2.43550104 168.945926,4.57325181 C171.022479,4.7400975 172.589828,5.44025157 172.589828,5.44025157 C172.589828,5.44025157 171.022479,6.14040565 168.945926,6.30725133 C168.780888,8.4450021 168.077933,10.2529396 168.077933,10.2529396 C168.077933,10.2529396 167.374977,8.4450021 167.209939,6.30725133 Z"/>
    <filter id="g" width="233%" height="224.7%" x="-66.5%" y="-62.3%" filterUnits="objectBoundingBox">
      <feOffset in="SourceAlpha" result="shadowOffsetOuter1"/>
      <feGaussianBlur stdDeviation="2" in="shadowOffsetOuter1" result="shadowBlurOuter1"/>
      <feColorMatrix values="0 0 0 0 0.639215686 0 0 0 0 0.776470588 0 0 0 0 0.266666667 0 0 0 0.5 0" in="shadowBlurOuter1"/>
    </filter>
    <path id="j" d="M276.651284,440.310533 C274.574731,440.143687 273.007383,439.443533 273.007383,439.443533 C273.007383,439.443533 274.574731,438.743379 276.651284,438.576533 C276.816323,436.438782 277.519278,434.630845 277.519278,434.630845 C277.519278,434.630845 278.222233,436.438782 278.387272,438.576533 C280.463825,438.743379 282.031173,439.443533 282.031173,439.443533 C282.031173,439.443533 280.463825,440.143687 278.387272,440.310533 C278.222233,442.448283 277.519278,444.256221 277.519278,444.256221 C277.519278,444.256221 276.816323,442.448283 276.651284,440.310533 Z"/>
    <filter id="i" width="233%" height="224.7%" x="-66.5%" y="-62.3%" filterUnits="objectBoundingBox">
      <feOffset in="SourceAlpha" result="shadowOffsetOuter1"/>
      <feGaussianBlur stdDeviation="2" in="shadowOffsetOuter1" result="shadowBlurOuter1"/>
      <feColorMatrix values="0 0 0 0 0.639215686 0 0 0 0 0.776470588 0 0 0 0 0.266666667 0 0 0 0.5 0" in="shadowBlurOuter1"/>
    </filter>
  </defs>
  <g fill="none" fill-rule="evenodd" transform="translate(16.532 31.11)">
    <use fill="black" filter="url(#a)" xlink:href="#b"/>
    <use fill="#FFFFFF" xlink:href="#b"/>
    <use fill="black" filter="url(#c)" xlink:href="#d"/>
    <use fill="#FFFFFF" xlink:href="#d"/>
    <use fill="black" filter="url(#e)" xlink:href="#f"/>
    <use fill="#FFFFFF" xlink:href="#f"/>
    <g>
      <use fill="black" filter="url(#g)" xlink:href="#h"/>
      <use fill="#FFFFFF" xlink:href="#h"/>
    </g>
    <g>
      <use fill="black" filter="url(#i)" xlink:href="#j"/>
      <use fill="#FFFFFF" xlink:href="#j"/>
    </g>
  </g>
</svg>
