<svg xmlns="http://www.w3.org/2000/svg" width="67" height="24" viewBox="0 0 67 24" xmlns:xlink="http://www.w3.org/1999/xlink">
  <defs>
    <path id="a" d="M46.7108084,23.841743 L39.5777957,24.2335637 L33.8954638,19.1717528 C26.0520183,20.1657652 18.8002861,19.9511555 16.1118369,19.9511555 C7.89571517,19.9511547 0.705135952,13.1970417 7.81597009e-14,12.2026818 C0.265646604,10.9383068 7.96958009,4.37266237 16.1118369,4.37266237 C18.7971709,4.37266237 25.9843688,4.37493318 33.6915554,5.09398161 L39.4051732,0 L46.628836,0.693394606 L46.4620581,1.5022451 L43.0048971,6.52190601 C47.8168722,9.2636945 46.4489024,7.65564407 46.4489024,12.1619089 C46.4489024,16.6656836 48.0953608,14.948648 43.2913586,17.6796413 L46.7108084,23.043041 L46.7108084,23.841743 Z"/>
    <filter id="b" width="200%" height="200%" x="-50%" y="-50%" filterUnits="objectBoundingBox">
      <feOffset dx="-2" dy="2" in="SourceAlpha" result="shadowOffsetInner1"/>
      <feComposite in="shadowOffsetInner1" in2="SourceAlpha" operator="arithmetic" k2="-1" k3="1" result="shadowInnerInner1"/>
      <feColorMatrix values="0 0 0 0 0.101960784 0 0 0 0 0.611764706 0 0 0 0 0.690196078 0 0 0 0.645918252 0" in="shadowInnerInner1"/>
    </filter>
    <path id="c" d="M16.40625,17.40625 C18.9950848,17.40625 21.09375,15.3075848 21.09375,12.71875 C21.09375,10.1299152 18.9950848,8.03125 16.40625,8.03125 C13.8174152,8.03125 11.71875,10.1299152 11.71875,12.71875 C11.71875,15.3075848 13.8174152,17.40625 16.40625,17.40625 Z"/>
    <filter id="d" width="200%" height="200%" x="-50%" y="-50%" filterUnits="objectBoundingBox">
      <feOffset dx="-1" dy="1" in="SourceAlpha" result="shadowOffsetInner1"/>
      <feComposite in="shadowOffsetInner1" in2="SourceAlpha" operator="arithmetic" k2="-1" k3="1" result="shadowInnerInner1"/>
      <feColorMatrix values="0 0 0 0 0.089948302 0 0 0 0 0.541315669 0 0 0 0 0.610756803 0 0 0 1 0" in="shadowInnerInner1"/>
    </filter>
    <path id="e" d="M50.8450255,16.7176216 C50.8911348,16.7360653 47.7200255,15.9363713 50.987883,16.7705555 C58.59375,19.5312499 67.2512755,11.7046007 67.2512755,11.7046007 C67.2512755,11.7046007 56.25,5.46875005 50.8450255,8.12387157 C47.7200255,9.68637148 47.7200255,10.047648 47.7200255,12.4207466 C47.7200255,14.7938451 46.9387755,15.1551218 50.8450255,16.7176216 Z"/>
    <filter id="f" width="200%" height="200%" x="-50%" y="-50%" filterUnits="objectBoundingBox">
      <feOffset dx="-1" dy="2" in="SourceAlpha" result="shadowOffsetInner1"/>
      <feComposite in="shadowOffsetInner1" in2="SourceAlpha" operator="arithmetic" k2="-1" k3="1" result="shadowInnerInner1"/>
      <feColorMatrix values="0 0 0 0 0.101960784 0 0 0 0 0.611764706 0 0 0 0 0.690196078 0 0 0 0.653985507 0" in="shadowInnerInner1"/>
    </filter>
  </defs>
  <g fill="none" fill-rule="evenodd" transform="rotate(180 33.5 12)">
    <use fill="#39C2D7" xlink:href="#a"/>
    <use fill="black" filter="url(#b)" xlink:href="#a"/>
    <g opacity=".465">
      <use fill="#1A9CB0" xlink:href="#c"/>
      <use fill="black" filter="url(#d)" xlink:href="#c"/>
    </g>
    <g>
      <use fill="#3FD8EF" xlink:href="#e"/>
      <use fill="black" filter="url(#f)" xlink:href="#e"/>
    </g>
  </g>
</svg>
