<svg width="168" height="120" viewBox="0 0 168 120" fill="none" xmlns="http://www.w3.org/2000/svg">
<path fill-rule="evenodd" clip-rule="evenodd" d="M6 30H162V111.731C162 116.298 158.298 120 153.731 120H14.2687C9.70204 120 6 116.298 6 111.731V30Z" fill="#E3E7EC"/>
<path d="M0 8.26875C0 3.70205 3.70205 0 8.26875 0H159.731C164.298 0 168 3.70205 168 8.26875V20H0V8.26875Z" fill="#E3E7EC"/>
<circle cx="12" cy="10" r="4" fill="white"/>
<circle cx="26" cy="10" r="4" fill="white"/>
<circle cx="39.998" cy="10" r="4" fill="white"/>
<path fill-rule="evenodd" clip-rule="evenodd" d="M0 20H168V107.731C168 112.298 164.298 116 159.731 116H8.26875C3.70205 116 0 112.298 0 107.731V20Z" fill="white"/>
<rect opacity="0.7" x="8" y="28" width="152" height="80" rx="4" fill="#ECEFF4"/>
<path fill-rule="evenodd" clip-rule="evenodd" d="M62.8242 55.5756C62.5899 55.81 62.5899 56.1899 62.8242 56.4242L71.5756 65.1756C71.81 65.41 72.1899 65.41 72.4242 65.1756L81.1756 56.4242C81.41 56.1899 81.41 55.81 81.1756 55.5756L72.4242 46.8242C72.1899 46.5899 71.81 46.5899 71.5756 46.8242L62.8242 55.5756ZM86.834 79.4651C86.5951 79.6986 86.5929 80.0823 86.8291 80.3185L95.6813 89.1707C95.9175 89.407 96.3012 89.4047 96.5347 89.1658L105.185 80.3135C105.415 80.0785 105.413 79.7023 105.181 79.4699L96.5299 70.8193C96.2975 70.5869 95.9214 70.5847 95.6863 70.8145L86.834 79.4651ZM86.8169 56.4217C86.5858 56.188 86.5858 55.8118 86.8169 55.5781L95.4675 46.8267C95.7005 46.591 96.0804 46.5888 96.316 46.8218L105.168 55.5732C105.406 55.8081 105.406 56.1917 105.168 56.4266L96.316 65.1781C96.0804 65.411 95.7005 65.4088 95.4675 65.1732L86.8169 56.4217ZM62.8267 79.4675C62.591 79.7005 62.5888 80.0804 62.8218 80.316L71.5732 89.1683C71.8081 89.4059 72.1917 89.4059 72.4266 89.1683L81.1781 80.316C81.411 80.0804 81.4088 79.7005 81.1732 79.4675L72.4217 70.8169C72.188 70.5858 71.8118 70.5858 71.5781 70.8169L62.8267 79.4675Z" fill="#C1C7D0"/>
</svg>
