<svg width="1432" height="245" viewBox="0 0 1432 245" fill="none" xmlns="http://www.w3.org/2000/svg">
<path fill-rule="evenodd" clip-rule="evenodd" d="M568.813 46.9636C568.813 47.8561 568.788 48.7428 568.739 49.623C583.68 35.9397 603.586 27.5902 625.443 27.5902C670.021 27.5902 706.487 62.3222 709.256 106.202C718.501 101.172 729.099 98.3154 740.364 98.3154C757.381 98.3154 772.875 104.835 784.484 115.512C798.55 73.4118 838.293 43.0668 885.123 43.0668C939.52 43.0668 984.354 84.0099 990.49 136.76C995.622 136.185 1000.84 135.889 1006.12 135.889C1022.76 135.889 1038.71 138.817 1053.48 144.186C1059.88 125.845 1077.32 112.686 1097.84 112.686C1123.78 112.686 1144.81 133.712 1144.81 159.649C1144.81 167.648 1142.81 175.18 1139.28 181.772C1154.5 166.405 1175.61 156.886 1198.95 156.886C1208.65 156.886 1217.97 158.531 1226.64 161.557C1226.6 160.189 1226.58 158.815 1226.58 157.437C1226.58 80.8455 1288.67 18.756 1365.26 18.756C1441.85 18.756 1503.94 80.8455 1503.94 157.437C1503.94 157.533 1503.94 157.629 1503.94 157.724L1508.36 157.439L1473 523.203H61.3326V278.065C24.4762 254.768 0.000244141 213.658 0.000244141 166.831C0.000244141 94.2069 58.8739 35.3332 131.498 35.3332C162.999 35.3332 191.913 46.4096 214.557 64.8802C228.959 35.5916 259.093 15.4349 293.935 15.4349C314.741 15.4349 333.869 22.6227 348.969 34.6508C372.222 17.0405 401.2 6.59304 432.618 6.59304C451.389 6.59304 469.289 10.3225 485.618 17.0809C494.232 6.64881 507.264 0 521.849 0C547.787 0 568.813 21.0263 568.813 46.9636ZM1128.37 195.34C1126.6 196.854 1124.72 198.238 1122.74 199.479C1123.3 200.359 1123.86 201.246 1124.41 202.14C1125.63 199.807 1126.95 197.538 1128.37 195.34Z" fill="url(#paint0_linear_22514_197188)"/>
<path fill-rule="evenodd" clip-rule="evenodd" d="M975.195 78.5078C949.983 78.5078 929.411 98.3749 928.28 123.308C916.693 117.276 903.523 113.867 889.556 113.867C844.982 113.867 808.519 148.592 805.744 192.466C796.497 187.436 785.898 184.578 774.631 184.578C757.615 184.578 742.121 191.097 730.511 201.774C716.446 159.674 676.703 129.329 629.872 129.329C575.475 129.329 530.641 170.272 524.505 223.023C519.374 222.447 514.157 222.151 508.871 222.151C492.238 222.151 476.29 225.079 461.512 230.448C455.119 212.108 437.674 198.948 417.154 198.948C391.217 198.948 370.19 219.974 370.19 245.911C370.19 253.91 372.19 261.442 375.717 268.034C360.497 252.667 339.383 243.148 316.046 243.148C306.345 243.148 297.028 244.793 288.359 247.819C288.399 246.451 288.419 245.077 288.419 243.699C288.419 167.108 226.329 105.018 149.738 105.018C73.1468 105.018 11.0573 167.108 11.0573 243.699C11.0573 243.795 11.0574 243.89 11.0576 243.986L6.63867 243.7L41.9995 609.464H1453.67V364.33C1490.52 341.032 1515 299.924 1515 253.099C1515 180.475 1456.12 121.601 1383.5 121.601C1352 121.601 1323.08 132.678 1300.44 151.15C1286.04 121.865 1255.9 101.711 1221.06 101.711C1200.26 101.711 1181.13 108.901 1166.02 120.931C1142.77 103.324 1113.8 92.8779 1082.38 92.8779C1059.5 92.8779 1037.92 98.4185 1018.89 108.231C1012.02 90.8236 995.046 78.5078 975.195 78.5078ZM386.628 281.602C388.396 283.116 390.278 284.5 392.259 285.741C391.691 286.621 391.133 287.508 390.584 288.402C389.37 286.069 388.049 283.8 386.628 281.602Z" fill="url(#paint1_linear_22514_197188)"/>
<defs>
<linearGradient id="paint0_linear_22514_197188" x1="754.182" y1="-50.8648" x2="754.182" y2="523.203" gradientUnits="userSpaceOnUse">
<stop stop-color="white"/>
<stop offset="1" stop-color="#F6F6F7"/>
</linearGradient>
<linearGradient id="paint1_linear_22514_197188" x1="760.819" y1="32.8472" x2="760.819" y2="279.895" gradientUnits="userSpaceOnUse">
<stop stop-color="#E9ECF0"/>
<stop offset="1" stop-color="#F6F6F7"/>
</linearGradient>
</defs>
</svg>
