<svg width="16" height="16" viewBox="0 0 16 16" fill="none" xmlns="http://www.w3.org/2000/svg">
<path fill-rule="evenodd" clip-rule="evenodd" d="M9 7H7V9H9V7ZM7 6C6.44772 6 6 6.44772 6 7V9C6 9.55228 6.44772 10 7 10H9C9.55228 10 10 9.55228 10 9V7C10 6.44772 9.55228 6 9 6H7Z" fill="#A2AAB5"/>
<path fill-rule="evenodd" clip-rule="evenodd" d="M15 7H13V9H15V7ZM13 6C12.4477 6 12 6.44772 12 7V9C12 9.55228 12.4477 10 13 10H15C15.5523 10 16 9.55228 16 9V7C16 6.44772 15.5523 6 15 6H13Z" fill="#A2AAB5"/>
<path fill-rule="evenodd" clip-rule="evenodd" d="M9 1H7V3H9V1ZM7 0C6.44772 0 6 0.447715 6 1V3C6 3.55228 6.44772 4 7 4H9C9.55228 4 10 3.55228 10 3V1C10 0.447715 9.55228 0 9 0H7Z" fill="#A2AAB5"/>
<path fill-rule="evenodd" clip-rule="evenodd" d="M15 1H13V3H15V1ZM13 0C12.4477 0 12 0.447715 12 1V3C12 3.55228 12.4477 4 13 4H15C15.5523 4 16 3.55228 16 3V1C16 0.447715 15.5523 0 15 0H13Z" fill="#A2AAB5"/>
<path fill-rule="evenodd" clip-rule="evenodd" d="M15 13H13V15H15V13ZM13 12C12.4477 12 12 12.4477 12 13V15C12 15.5523 12.4477 16 13 16H15C15.5523 16 16 15.5523 16 15V13C16 12.4477 15.5523 12 15 12H13Z" fill="#A2AAB5"/>
<path fill-rule="evenodd" clip-rule="evenodd" d="M9 13H7V15H9V13ZM7 12C6.44772 12 6 12.4477 6 13V15C6 15.5523 6.44772 16 7 16H9C9.55228 16 10 15.5523 10 15V13C10 12.4477 9.55228 12 9 12H7Z" fill="#A2AAB5"/>
<path fill-rule="evenodd" clip-rule="evenodd" d="M3 13H1V15H3V13ZM1 12C0.447715 12 0 12.4477 0 13V15C0 15.5523 0.447715 16 1 16H3C3.55228 16 4 15.5523 4 15V13C4 12.4477 3.55228 12 3 12H1Z" fill="#A2AAB5"/>
<path fill-rule="evenodd" clip-rule="evenodd" d="M3 7H1V9H3V7ZM1 6C0.447715 6 0 6.44772 0 7V9C0 9.55228 0.447715 10 1 10H3C3.55228 10 4 9.55228 4 9V7C4 6.44772 3.55228 6 3 6H1Z" fill="#A2AAB5"/>
<path fill-rule="evenodd" clip-rule="evenodd" d="M3 1H1V3H3V1ZM1 0C0.447715 0 0 0.447715 0 1V3C0 3.55228 0.447715 4 1 4H3C3.55228 4 4 3.55228 4 3V1C4 0.447715 3.55228 0 3 0H1Z" fill="#A2AAB5"/>
</svg>
