<svg width="16" height="16" viewBox="0 0 16 16" fill="none" xmlns="http://www.w3.org/2000/svg">
<path fill-rule="evenodd" clip-rule="evenodd" d="M15 7H7V9H15V7ZM7 6C6.44772 6 6 6.44772 6 7V9C6 9.55228 6.44772 10 7 10H15C15.5523 10 16 9.55228 16 9V7C16 6.44772 15.5523 6 15 6H7Z" fill="#00758C"/>
<path fill-rule="evenodd" clip-rule="evenodd" d="M15 1H7V3H15V1ZM7 0C6.44772 0 6 0.447715 6 1V3C6 3.55228 6.44772 4 7 4H15C15.5523 4 16 3.55228 16 3V1C16 0.447715 15.5523 0 15 0H7Z" fill="#00758C"/>
<path fill-rule="evenodd" clip-rule="evenodd" d="M15 13H7V15H15V13ZM7 12C6.44772 12 6 12.4477 6 13V15C6 15.5523 6.44772 16 7 16H15C15.5523 16 16 15.5523 16 15V13C16 12.4477 15.5523 12 15 12H7Z" fill="#00758C"/>
<path fill-rule="evenodd" clip-rule="evenodd" d="M3 13H1V15H3V13ZM1 12C0.447715 12 0 12.4477 0 13V15C0 15.5523 0.447715 16 1 16H3C3.55228 16 4 15.5523 4 15V13C4 12.4477 3.55228 12 3 12H1Z" fill="#00758C"/>
<path fill-rule="evenodd" clip-rule="evenodd" d="M3 7H1V9H3V7ZM1 6C0.447715 6 0 6.44772 0 7V9C0 9.55228 0.447715 10 1 10H3C3.55228 10 4 9.55228 4 9V7C4 6.44772 3.55228 6 3 6H1Z" fill="#00758C"/>
<path fill-rule="evenodd" clip-rule="evenodd" d="M3 1H1V3H3V1ZM1 0C0.447715 0 0 0.447715 0 1V3C0 3.55228 0.447715 4 1 4H3C3.55228 4 4 3.55228 4 3V1C4 0.447715 3.55228 0 3 0H1Z" fill="#00758C"/>
</svg>
