<svg width="16" height="16" viewBox="0 0 16 16" fill="none" xmlns="http://www.w3.org/2000/svg">
<path fill-rule="evenodd" clip-rule="evenodd" d="M8 1C4.13401 1 1 4.13401 1 8C1 11.866 4.13401 15 8 15C11.866 15 15 11.866 15 8C15 4.13401 11.866 1 8 1ZM0 8C0 3.58172 3.58172 0 8 0C12.4183 0 16 3.58172 16 8C16 12.4183 12.4183 16 8 16C3.58172 16 0 12.4183 0 8Z" fill="#A2AAB5"/>
<path fill-rule="evenodd" clip-rule="evenodd" d="M6.80078 7.30627C6.80078 7.04853 7.00971 6.8396 7.26745 6.8396H8.04523C8.30296 6.8396 8.51189 7.04853 8.51189 7.30627V11.5063H8.823C9.08074 11.5063 9.28967 11.7152 9.28967 11.9729C9.28967 12.2307 9.08074 12.4396 8.823 12.4396H8.04523C7.78749 12.4396 7.57856 12.2307 7.57856 11.9729V7.77293H7.26745C7.00971 7.77293 6.80078 7.564 6.80078 7.30627Z" fill="#A2AAB5"/>
<path d="M7.99703 5.94444C8.53397 5.94444 8.96925 5.50917 8.96925 4.97222C8.96925 4.43528 8.53397 4 7.99703 4C7.46008 4 7.0248 4.43528 7.0248 4.97222C7.0248 5.50917 7.46008 5.94444 7.99703 5.94444Z" fill="#A2AAB5"/>
</svg>
