<svg width="168" height="123" viewBox="0 0 168 123" fill="none" xmlns="http://www.w3.org/2000/svg">
<g opacity="0.82">
<g filter="url(#filter0_i_7821_28154)">
<path fill-rule="evenodd" clip-rule="evenodd" d="M6 32H162V114.731C162 119.298 158.298 123 153.731 123H14.2687C9.70204 123 6 119.298 6 114.731V32Z" fill="#E3E7EC"/>
</g>
<path d="M0 8.26875C0 3.70205 3.70205 0 8.26875 0H159.731C164.298 0 168 3.70205 168 8.26875V19.5H0V8.26875Z" fill="#E3E7EC"/>
<ellipse cx="12.6004" cy="9.74986" rx="4.2" ry="4.17857" fill="white"/>
<ellipse cx="26.6004" cy="9.74986" rx="4.2" ry="4.17857" fill="white"/>
<ellipse cx="40.5984" cy="9.74986" rx="4.2" ry="4.17857" fill="white"/>
<path fill-rule="evenodd" clip-rule="evenodd" d="M0 19.4995H168V108.731C168 113.297 164.298 117 159.731 117H8.26875C3.70205 117 0 113.297 0 108.731V19.4995Z" fill="#FEFEFE"/>
<rect opacity="0.56" x="6.00195" y="28.657" width="156.001" height="79.186" rx="3.9375" fill="#E7EAEE"/>
</g>
<path d="M60.0035 78.2625C60.0031 78.6115 60.0938 78.9552 60.2673 79.2624C60.4409 79.5696 60.6919 79.8307 60.9976 80.0222L82.792 93.6555C83.1509 93.8803 83.5708 94 84 94C84.4292 94 84.8491 93.8803 85.208 93.6555L107.002 80.0222C107.309 79.8311 107.56 79.5702 107.735 79.2629C107.909 78.9557 108 78.6118 108 78.2625C108 77.9131 107.909 77.5693 107.735 77.2621C107.56 76.9548 107.309 76.6939 107.002 76.5028L101.208 72.8993L107.002 69.2958C107.309 69.1047 107.56 68.8437 107.735 68.5365C107.909 68.2292 108 67.8854 108 67.536C108 67.1867 107.909 66.8429 107.735 66.5356C107.56 66.2284 107.309 65.9674 107.002 65.7763L101.208 62.1728L107.002 58.5693C107.309 58.3782 107.56 58.1173 107.735 57.81C107.909 57.5028 108 57.1589 108 56.8096C108 56.4602 107.909 56.1164 107.735 55.8092C107.56 55.5019 107.309 55.241 107.002 55.0499L85.208 41.3445C84.8491 41.1197 84.4292 41 84 41C83.5708 41 83.1509 41.1197 82.792 41.3445L60.9976 54.9778C60.6912 55.1689 60.4396 55.4298 60.2654 55.7371C60.0912 56.0443 60 56.3882 60 56.7375C60 57.0869 60.0912 57.4307 60.2654 57.7379C60.4396 58.0452 60.6912 58.3061 60.9976 58.4972L66.7922 62.1007L60.9976 65.7043C60.6912 65.8953 60.4396 66.1563 60.2654 66.4635C60.0912 66.7708 60 67.1146 60 67.464C60 67.8133 60.0912 68.1571 60.2654 68.4644C60.4396 68.7716 60.6912 69.0326 60.9976 69.2237L66.7922 72.8272L60.9976 76.4307C60.6809 76.6287 60.4231 76.9013 60.2489 77.2222C60.0748 77.543 59.9903 77.9013 60.0035 78.2625ZM66.226 67.494L70.7875 64.6292L82.7417 72.1245C83.1005 72.3493 83.5204 72.469 83.9497 72.469C84.3789 72.469 84.7988 72.3493 85.1577 72.1245L97.2125 64.6292L101.78 67.5L84 78.6168L66.226 67.494ZM70.7875 75.3977L82.7417 82.893C83.1005 83.1178 83.5204 83.2375 83.9497 83.2375C84.3789 83.2375 84.7988 83.1178 85.1577 82.893L97.2125 75.3977L101.799 78.2685L84 89.3793L66.2197 78.2625L70.7875 75.3977Z" fill="#CACFD7"/>
<defs>
<filter id="filter0_i_7821_28154" x="6" y="32" width="156" height="91" filterUnits="userSpaceOnUse" color-interpolation-filters="sRGB">
<feFlood flood-opacity="0" result="BackgroundImageFix"/>
<feBlend mode="normal" in="SourceGraphic" in2="BackgroundImageFix" result="shape"/>
<feColorMatrix in="SourceAlpha" type="matrix" values="0 0 0 0 0 0 0 0 0 0 0 0 0 0 0 0 0 0 127 0" result="hardAlpha"/>
<feOffset dy="2.75625"/>
<feComposite in2="hardAlpha" operator="arithmetic" k2="-1" k3="1"/>
<feColorMatrix type="matrix" values="0 0 0 0 0 0 0 0 0 0.509804 0 0 0 0 0.607843 0 0 0 0.15 0"/>
<feBlend mode="normal" in2="shape" result="effect1_innerShadow_7821_28154"/>
</filter>
</defs>
</svg>
