<svg width="168" height="120" viewBox="0 0 168 120" fill="none" xmlns="http://www.w3.org/2000/svg">
    <path fill-rule="evenodd" clip-rule="evenodd" d="M6 30H162V111.731C162 116.298 158.298 120 153.731 120H14.2687C9.70204 120 6 116.298 6 111.731V30Z" fill="#E3E7EC"/>
    <path d="M0 8.26875C0 3.70205 3.70205 0 8.26875 0H159.731C164.298 0 168 3.70205 168 8.26875V20H0V8.26875Z" fill="#E3E7EC"/>
    <ellipse cx="12.2" cy="10" rx="4.2" ry="4" fill="white"/>
    <ellipse cx="26.2" cy="10" rx="4.2" ry="4" fill="white"/>
    <ellipse cx="40.198" cy="10" rx="4.2" ry="4" fill="white"/>
    <path fill-rule="evenodd" clip-rule="evenodd" d="M0 20H168V107.731C168 112.298 164.298 116 159.731 116H8.26875C3.70205 116 0 112.298 0 107.731V20Z" fill="#FEFEFE"/>
    <rect opacity="0.7" x="8" y="28" width="152" height="80" rx="3.9375" fill="#ECEFF4"/>
    <g clip-path="url(#clip0_9294_18707)">
        <path fill-rule="evenodd" clip-rule="evenodd" d="M91.5363 62.6351C91.5363 69.7602 85.7602 75.5363 78.6351 75.5363C71.5099 75.5363 65.7339 69.7602 65.7339 62.6351C65.7339 55.5099 71.5099 49.7339 78.6351 49.7339C85.7602 49.7339 91.5363 55.5099 91.5363 62.6351ZM90.6636 76.8686C87.4176 79.6145 83.2197 81.2701 78.6351 81.2701C68.3432 81.2701 60 72.9269 60 62.6351C60 52.3432 68.3432 44 78.6351 44C88.9269 44 97.2701 52.3432 97.2701 62.6351C97.2701 67.3103 95.5484 71.5834 92.7045 74.855L95.6452 77.7957C97.2638 76.9599 99.3019 77.2204 100.659 78.5774L106.741 84.6591C108.42 86.3385 108.42 89.0613 106.741 90.7407C105.061 92.4201 102.338 92.4201 100.659 90.7407L94.5772 84.6591C93.2866 83.3685 92.9878 81.4617 93.6808 79.8857L90.6636 76.8686Z" fill="#C1C7D0"/>
    </g>
    <defs>
        <clipPath id="clip0_9294_18707">
            <rect width="48" height="48" fill="white" transform="translate(60 44)"/>
        </clipPath>
    </defs>
</svg>
