<svg xmlns="http://www.w3.org/2000/svg" width="14" height="14" viewBox="0 0 14 14" fill="none">
    <path fill-rule="evenodd" clip-rule="evenodd" d="M6.78156 0.0515588C6.91905 -0.0171863 7.08088 -0.0171863 7.21836 0.0515588L13.7299 3.30737C13.8953 3.3901 13.9998 3.5592 13.9998 3.74419C13.9998 3.92917 13.8953 4.09827 13.7299 4.181L7.21836 7.43681C7.08088 7.50556 6.91905 7.50556 6.78156 7.43681L0.270067 4.181C0.104618 4.09827 0.000107004 3.92917 0.000107004 3.74419C0.000107004 3.5592 0.104618 3.3901 0.270067 3.30737L6.78156 0.0515588ZM1.58048 3.74419L6.99996 6.45398L12.4194 3.74419L6.99996 1.03439L1.58048 3.74419Z" fill="#A2AAB5"/>
    <path fill-rule="evenodd" clip-rule="evenodd" d="M0.0516647 10.0374C0.172285 9.79616 0.465631 9.69838 0.706871 9.819L6.99996 12.9656L13.2931 9.819C13.5343 9.69838 13.8276 9.79616 13.9483 10.0374C14.0689 10.2787 13.9711 10.572 13.7299 10.6926L7.21836 13.9484C7.08088 14.0172 6.91905 14.0172 6.78156 13.9484L0.270067 10.6926C0.0288265 10.572 -0.0689554 10.2787 0.0516647 10.0374Z" fill="#A2AAB5"/>
    <path fill-rule="evenodd" clip-rule="evenodd" d="M0.0516647 6.77905C0.172285 6.5378 0.465631 6.44002 0.706871 6.56064L6.99996 9.70725L13.2931 6.56064C13.5343 6.44002 13.8276 6.5378 13.9483 6.77905C14.0689 7.0203 13.9711 7.31365 13.7299 7.43427L7.21836 10.6901C7.08088 10.7588 6.91905 10.7588 6.78156 10.6901L0.270067 7.43427C0.0288265 7.31365 -0.0689554 7.0203 0.0516647 6.77905Z" fill="#A2AAB5"/>
    <path d="M10.2782 5.92022C10.0372 5.79925 9.93982 5.50575 10.0608 5.26468C10.1818 5.02362 10.4753 4.92627 10.7163 5.04725L13.7306 6.55998C13.9716 6.68096 14.069 6.97446 13.948 7.21552C13.827 7.45659 13.5335 7.55394 13.2925 7.43296L10.2782 5.92022Z" fill="#A2AAB5"/>
    <path d="M0.272528 9.80974C0.0314667 9.93072 -0.065881 10.2242 0.0550958 10.4653C0.176073 10.7064 0.469563 10.8037 0.710625 10.6827L3.72488 9.16999C3.96594 9.04901 4.06329 8.75551 3.94231 8.51445C3.82134 8.27338 3.52785 8.17603 3.28679 8.29701L0.272528 9.80974Z" fill="#A2AAB5"/>
    <path d="M10.2782 9.17C10.0372 9.04902 9.93982 8.75552 10.0608 8.51446C10.1818 8.27339 10.4753 8.17604 10.7163 8.29702L13.7306 9.80975C13.9716 9.93073 14.069 10.2242 13.948 10.4653C13.827 10.7064 13.5335 10.8037 13.2925 10.6827L10.2782 9.17Z" fill="#A2AAB5"/>
    <path d="M0.272528 6.55997C0.0314667 6.68095 -0.065881 6.97445 0.0550958 7.21551C0.176073 7.45658 0.469563 7.55393 0.710625 7.43295L3.72488 5.92022C3.96594 5.79924 4.06329 5.50574 3.94231 5.26467C3.82134 5.02361 3.52785 4.92626 3.28679 5.04724L0.272528 6.55997Z" fill="#A2AAB5"/>
</svg>
