<svg xmlns="http://www.w3.org/2000/svg" width="30" height="30" viewBox="0 0 30 30">
  <path fill-rule="evenodd" d="M15,16.5 C13.3458,16.5 12,15.1542 12,13.5 C12,11.8458 13.3458,10.5 15,10.5 C16.6542,10.5 18,11.8458 18,13.5 C18,15.1542 16.6542,16.5 15,16.5 L15,16.5 Z M29.8188334,14.1836312 C26.7963392,8.12014184 21.2814683,4.5 15.0666474,4.5 C8.86007451,4.5 3.29609089,8.11339007 0.182869405,14.1653617 C-0.0593200309,14.636 -0.0608196559,15.2039433 0.177620718,15.6761702 C3.28971748,21.8274326 8.83795504,25.5 15.0194093,25.5 C21.2038627,25.5 26.7356044,21.8250496 29.8173338,15.6698156 C30.0501505,15.2051348 30.0505255,14.6487092 29.8188334,14.1836312 L29.8188334,14.1836312 Z M15.0166379,22.5 C9.89645279,22.5 5.25438614,19.6875254 2.44244187,14.9310508 C5.25558543,10.2612203 9.91524172,7.5 15.0666085,7.5 C20.2123785,7.5 24.820865,10.2583729 27.550058,14.9229153 C24.7672965,19.684678 20.1388219,22.5 15.0166379,22.5 L15.0166379,22.5 Z M9,13.4985 C9,16.8059806 11.6910194,19.4969999 14.9985,19.4969999 C18.3059806,19.4969999 20.9969999,16.8059806 20.9969999,13.4985 C20.9969999,10.1910194 20.1577148,7.5 14.9985,7.5 C9.83928509,7.5 9,10.1910194 9,13.4985 Z"/>
</svg>
