<svg width="168" height="120" viewBox="0 0 168 120" fill="none" xmlns="http://www.w3.org/2000/svg">
<path fill-rule="evenodd" clip-rule="evenodd" d="M6 30H162V111.731C162 116.298 158.298 120 153.731 120H14.2687C9.70204 120 6 116.298 6 111.731V30Z" fill="#E3E7EC"/>
<path d="M0 8.26875C0 3.70205 3.70205 0 8.26875 0H159.731C164.298 0 168 3.70205 168 8.26875V20H0V8.26875Z" fill="#E3E7EC"/>
<ellipse cx="12.2" cy="10" rx="4.2" ry="4" fill="white"/>
<ellipse cx="26.2" cy="10" rx="4.2" ry="4" fill="white"/>
<ellipse cx="40.198" cy="10" rx="4.2" ry="4" fill="white"/>
<path fill-rule="evenodd" clip-rule="evenodd" d="M0 20H168V107.731C168 112.298 164.298 116 159.731 116H8.26875C3.70205 116 0 112.298 0 107.731V20Z" fill="#FEFEFE"/>
<rect opacity="0.7" x="8" y="28" width="152" height="80" rx="3.9375" fill="#ECEFF4"/>
<path fill-rule="evenodd" clip-rule="evenodd" d="M84 68C89.5228 68 94 63.5228 94 58C94 52.4772 89.5228 48 84 48C78.4772 48 74 52.4772 74 58C74 63.5228 78.4772 68 84 68ZM100.074 86.6653C101 85.6083 101 83.7405 101 80.4693C101 78 93.165 73 83.5 73C73.835 73 66 78 66 80.4693C66 83.7405 66 85.6083 66.9257 86.6653C68.4661 88.4242 72.5693 87.9385 83.5 87.9385C94.4307 87.9385 98.5339 88.4242 100.074 86.6653Z" fill="#C1C7D0"/>
</svg>
