<svg width="16" height="16" viewBox="0 0 16 16" fill="none" xmlns="http://www.w3.org/2000/svg">
<path fill-rule="evenodd" clip-rule="evenodd" d="M7.69244 1.10532C7.87299 0.964892 8.12582 0.964892 8.30638 1.10532L14.8064 5.90502C14.9282 5.99975 14.9994 6.1454 14.9994 6.29969V13.1696C14.9994 13.6558 14.8062 14.1221 14.4624 14.466C14.1186 14.8098 13.6523 15.0029 13.1661 15.0029H10.5C10.2239 15.0029 10 14.7791 10 14.5029C10 14.2268 10.2239 14.0029 10.5 14.0029H13.1661C13.3871 14.0029 13.599 13.9151 13.7553 13.7589C13.9116 13.6026 13.9994 13.3906 13.9994 13.1696V6.54424L7.99941 2.13343L2 6.63281V10.0549C2 10.3311 1.77614 10.5549 1.5 10.5549C1.22386 10.5549 1 10.3311 1 10.0549V6.38827C1 6.23398 1.07124 6.08832 1.19303 5.99359L7.69244 1.10532Z" fill="#A2AAB5"/>
<path d="M6.29226 12.5162C6.5684 12.5162 6.79226 12.7323 6.79226 12.9988C6.79226 13.2653 6.5684 13.4814 6.29226 13.4814L1.5 13.4814C1.22386 13.4814 1 13.2653 1 12.9988C1 12.7323 1.22386 12.5162 1.5 12.5162H6.29226Z" fill="#A2AAB5"/>
<path d="M7.14412 12.6579C7.34081 12.4678 7.6597 12.4678 7.85639 12.6579C8.05308 12.848 8.05308 13.1563 7.85639 13.3464L6.29226 14.8603C6.09557 15.0505 5.77668 15.0505 5.57999 14.8603C5.3833 14.6702 5.3833 14.362 5.57999 14.1718L7.14412 12.6579Z" fill="#A2AAB5"/>
<path d="M7.85624 12.6599C8.05293 12.85 8.05293 13.1583 7.85624 13.3484C7.65955 13.5385 7.34066 13.5385 7.14397 13.3484L5.57999 11.834C5.3833 11.6439 5.3833 11.3356 5.57999 11.1455C5.77668 10.9554 6.09557 10.9554 6.29226 11.1455L7.85624 12.6599Z" fill="#A2AAB5"/>
</svg>
