<svg width="28" height="32" viewBox="0 0 28 32" fill="none" xmlns="http://www.w3.org/2000/svg">
<path d="M4.61336e-07 19.0167L6.58633e-07 23.5251C6.73483e-07 23.8644 0.181247 24.178 0.475466 24.3477L13.5245 31.8727C13.8188 32.0424 14.1812 32.0424 14.4755 31.8727L27.5245 24.3477C27.8188 24.178 28 23.8644 28 23.5251V17.4641L14 25.5664L5.70558 20.7832L5.70558 15.7265L4.61336e-07 19.0167Z" fill="#F6F6F7"/>
<path d="M14 6.43361L22.2944 11.2168V16.3496L28 13.0594V8.47491C28 8.13557 27.8188 7.82201 27.5245 7.65234L14.4755 0.127253C14.1812 -0.0424177 13.8188 -0.0424177 13.5245 0.127253L0.475466 7.65234C0.181247 7.82201 -1.48503e-08 8.13557 0 8.47491L2.69843e-07 14.641L14 6.43361Z" fill="#F6F6F7"/>
</svg>
