<svg xmlns="http://www.w3.org/2000/svg" width="144" height="24" viewBox="0 0 144 24">
    <g fill="#FFF" fill-rule="nonzero">
        <path d="M20 9.714V14l5-5.143c-.825-2.85-2.599-5.271-5-6.857v7.714zM19 8V1.6C17.188.5 15.157-.004 13.4 0c-1.008 0-1.709.06-2.4 0l8 8zM6.727 10.2L10 7H2.636C1.134 9.405.626 12.265 1 15l5.727-4.8zM24.792 16.987s1.487-4.62 1.161-6.987L18 17l6.792-.013zM7 14.385v-2.553s-4.939 4.396-4.907 4.47C3.068 18.607 4.78 20.623 7 22v-7.615zM10.714 6H15L9.857 1C7.248 1.728 4.714 3.503 3 6h7.714zM17.286 18h-5.14l5.14 5.449c.78 0 6.051-3.043 7.714-5.449h-7.714zM11.13 19.055L8 16v6.56A12.343 12.343 0 0 0 13.813 24c.734 0 1.465-.065 2.187-.193l-4.87-4.752z"/>
        <g>
            <path d="M37.053 14.25H35.7v4.902H33V5.734h4.321c1.357 0 2.405.35 3.145 1.048.74.699 1.108 1.702 1.105 3.009 0 1.78-.648 3.027-1.944 3.74l2.363 5.493v.13h-2.918l-2.02-4.904zM35.7 11.994h1.54c.469.032.924-.17 1.215-.539.29-.423.432-.93.405-1.442.005-1.352-.517-2.028-1.566-2.028H35.7v4.01zm11.129 7.338c-1.34 0-2.383-.399-3.132-1.197-.75-.798-1.124-1.94-1.124-3.428v-.788c0-1.573.344-2.786 1.031-3.64.688-.854 1.674-1.28 2.959-1.28 1.258 0 2.2.4 2.828 1.2.627.801.95 1.99.966 3.565v1.278H45.18c.036.747.2 1.293.488 1.638.29.345.735.518 1.336.518.825.02 1.62-.312 2.184-.912l1.024 1.574c-.361.475-.842.845-1.392 1.074-.625.274-1.3.411-1.982.402l-.008-.004zm-1.631-6.105h2.608v-.25a2.832 2.832 0 0 0-.296-1.367c-.184-.31-.504-.465-.958-.465a1.082 1.082 0 0 0-.998.493c-.201.328-.32.858-.356 1.589zm14.193 1.258c0 1.567-.269 2.767-.807 3.602-.538.834-1.338 1.253-2.4 1.258a2.32 2.32 0 0 1-1.954-.986v4.634h-2.596V9.183h2.413l.103.912a2.34 2.34 0 0 1 2.036-1.097c1.062 0 1.862.387 2.4 1.162.538.774.813 1.962.824 3.564v.76h-.019zm-2.597-.646c0-.967-.106-1.651-.319-2.052a1.115 1.115 0 0 0-1.067-.604 1.24 1.24 0 0 0-1.17.675v4.686c.233.432.7.686 1.189.647a1.08 1.08 0 0 0 1.073-.656c.2-.437.3-1.118.3-2.042v-.658l-.006.004zm3.648 0c0-1.51.356-2.699 1.069-3.564.713-.865 1.699-1.295 2.958-1.29 1.272 0 2.264.43 2.975 1.29.712.86 1.068 2.051 1.07 3.575v.629c0 1.516-.353 2.704-1.06 3.564-.705.86-1.694 1.286-2.966 1.28-1.277 0-2.271-.428-2.981-1.285-.71-.856-1.065-2.044-1.065-3.564v-.635zm2.616.656c0 1.792.476 2.688 1.428 2.688.878 0 1.35-.748 1.42-2.243v-1.103c0-.914-.126-1.593-.378-2.036a1.176 1.176 0 0 0-1.07-.662c-.444.001-.847.26-1.035.662-.249.442-.373 1.12-.373 2.036v.658h.008zm11.718-2.803l-.866-.073c-.713 0-1.195.313-1.447.94v6.586h-2.608V9.183h2.46l.075 1.077c.411-.838.98-1.258 1.705-1.258.245-.009.49.032.719.12l-.038 2.57zm4.47-4.964v2.455h1.335v1.947h-1.335v4.957c-.025.28.03.562.161.81.108.15.318.223.63.223.207.005.414-.017.616-.065l-.026 2.042c-.46.17-.947.254-1.438.25-1.677 0-2.528-.965-2.551-2.896v-5.32h-1.151V9.182h1.15V6.728h2.609zm6.545 7.702v4.718h-2.708V5.73h4.57c1.326 0 2.384.411 3.174 1.234.79.824 1.185 1.892 1.185 3.206s-.39 2.352-1.17 3.113c-.78.762-1.861 1.143-3.244 1.143h-1.805l-.002.004zm0-2.258h1.862c.456.027.899-.16 1.197-.507.28-.338.42-.827.42-1.468a2.658 2.658 0 0 0-.435-1.597 1.388 1.388 0 0 0-1.157-.615h-1.887v4.194-.007zm6.904 1.678c0-1.511.357-2.7 1.07-3.565.712-.865 1.698-1.295 2.958-1.289 1.272 0 2.263.43 2.975 1.29.711.859 1.068 2.05 1.069 3.574v.629c0 1.517-.353 2.705-1.059 3.564-.706.86-1.695 1.287-2.966 1.281-1.278 0-2.272-.428-2.982-1.285-.71-.857-1.065-2.045-1.065-3.564v-.635zm2.617.656c0 1.792.476 2.688 1.427 2.688.878 0 1.351-.748 1.42-2.244v-1.103c0-.914-.126-1.592-.378-2.035a1.176 1.176 0 0 0-1.069-.663c-.444.002-.848.26-1.035.663-.25.441-.374 1.12-.374 2.035v.659h.009zm11.717-2.803l-.866-.074c-.712 0-1.195.313-1.446.94v6.587H102.1V9.183h2.46l.073 1.077c.41-.838.98-1.258 1.704-1.258.246-.009.49.032.72.12l-.028 2.58zm4.46-4.975v2.455h1.335v1.947h-1.335v4.957c-.025.28.03.562.161.81.108.15.317.223.63.223.207.005.414-.017.616-.065l-.024 2.042c-.46.17-.947.254-1.438.25-1.677 0-2.528-.965-2.551-2.896v-5.32h-1.151V9.182h1.15V6.728h2.609-.002zm7.317 12.42a3.64 3.64 0 0 1-.22-.774c-.43.62-1.144.98-1.898.958a2.807 2.807 0 0 1-2.078-.839 2.912 2.912 0 0 1-.823-2.146c0-1.045.333-1.852 1-2.424.666-.572 1.626-.863 2.878-.874h.793v-.789c0-.448-.077-.765-.23-.95a.826.826 0 0 0-.674-.276c-.651 0-.977.38-.977 1.143h-2.608a2.887 2.887 0 0 1 1.036-2.282 3.86 3.86 0 0 1 2.62-.897c1.093 0 1.94.284 2.54.851.599.568.899 1.38.899 2.437v4.69c.012.86.135 1.531.369 2.016v.158h-2.627v-.002zm-1.54-1.862c.258.008.513-.052.739-.174.183-.1.338-.244.45-.42V14.62h-.628a1.338 1.338 0 0 0-1.049.42 1.627 1.627 0 0 0-.381 1.134c.003.745.293 1.117.87 1.117v-.004zm8.094 1.862h-2.617V5h2.617v14.152-.004zm1.78-1.328c-.013-.387.14-.762.419-1.031a1.503 1.503 0 0 1 1.092-.405c.401-.013.792.13 1.088.4.289.266.447.645.434 1.036.015.394-.145.773-.438 1.036a1.564 1.564 0 0 1-1.082.392 1.533 1.533 0 0 1-1.082-.396 1.342 1.342 0 0 1-.43-1.027l-.001-.005zm4.71-11.222a1.346 1.346 0 0 1 .388-.996 1.57 1.57 0 0 1 2.063 0c.262.264.402.624.388.996a1.42 1.42 0 1 1-2.836.006l-.003-.006zm2.736 12.547h-2.614V9.183h2.617v9.969l-.003-.007zm1.342-5.306c0-1.51.357-2.699 1.07-3.564.712-.865 1.698-1.295 2.958-1.29 1.272 0 2.263.43 2.975 1.29.711.86 1.068 2.051 1.069 3.575v.629c0 1.516-.353 2.704-1.059 3.564-.706.86-1.694 1.286-2.966 1.28-1.278 0-2.272-.428-2.982-1.285-.71-.856-1.065-2.044-1.065-3.564v-.635zm2.617.656c0 1.792.476 2.688 1.428 2.688.877 0 1.35-.748 1.419-2.243v-1.103c0-.914-.126-1.593-.377-2.036a1.176 1.176 0 0 0-1.07-.662c-.444.001-.848.26-1.035.662-.25.442-.374 1.12-.374 2.036v.658h.009z"/>
        </g>
    </g>
</svg>
