<svg xmlns="http://www.w3.org/2000/svg" width="20" height="16" viewBox="0 0 20 16">
    <path fill="#6F898D" fill-rule="evenodd" d="M20 2c-.739.217-1.528.433-2 1 .494-.97 1.144-1.762 1-3-.346.756-1.223 1.094-2 1-.905-.51-1.973-1-3-1-2.417 0-4.252 1.807-4 4-.252.354-.216.664 0 1-3.558-.214-6.578-1.819-9-4 .046.339-.159 1.03 0 2-.159 1.175.565 2.405 2 3-1.004.11-1.633-.07-2 0-.188-.357-.188-.336 0 0-.188 1.637 1.223 3.263 3 4-.241-.269-.607-.219-1 0-.243-.219-.5-.247-1 0 .764 1.314 2.285 2.48 4 3-1.327.596-3.097 1.244-5 1-.35.244-.678.222-1 0 1.814 1.33 3.97 2 6 2 7.835 0 11.96-6.154 12-11-.04-.66-.048-.84 0-1 .757-.588 1.452-1.3 2-2z" opacity=".5"/>
</svg>
