<?xml version="1.0" encoding="UTF-8"?>
<svg width="24px" height="21px" viewBox="0 0 24 21" version="1.1" xmlns="http://www.w3.org/2000/svg" xmlns:xlink="http://www.w3.org/1999/xlink">
    <!-- Generator: Sketch 52.5 (67469) - http://www.bohemiancoding.com/sketch -->
    <title>Group 4</title>
    <desc>Created with Sketch.</desc>
    <g id="plugin" stroke="none" stroke-width="1" fill="none" fill-rule="evenodd">
        <g id="2_Settings_General_MG-Copy" transform="translate(-254.000000, -100.000000)">
            <g id="Group-4" transform="translate(254.000000, 100.000000)">
                <rect id="Rectangle" fill="#8B572A" x="0" y="0" width="24" height="21"></rect>
                <path d="M0,0 L6,0 L6,5 L0,5 L0,0 Z M9,0 L15,0 L15,5 L9,5 L9,0 Z M18,0 L24,0 L24,5 L18,5 L18,0 Z M0,8 L6,8 L6,13 L0,13 L0,8 Z M9,8 L15,8 L15,13 L9,13 L9,8 Z M18,8 L24,8 L24,13 L18,13 L18,8 Z M0,16 L6,16 L6,21 L0,21 L0,16 Z M9,16 L15,16 L15,21 L9,21 L9,16 Z M18,16 L24,16 L24,21 L18,21 L18,16 Z" id="Combined-Shape" fill="#AF6E36"></path>
            </g>
        </g>
    </g>
</svg>