<?xml version="1.0" encoding="UTF-8"?>
<svg width="24px" height="16px" viewBox="0 0 24 16" version="1.1" xmlns="http://www.w3.org/2000/svg" xmlns:xlink="http://www.w3.org/1999/xlink">
    <!-- Generator: Sketch 52.5 (67469) - http://www.bohemiancoding.com/sketch -->
    <title>Group 2 Copy 6</title>
    <desc>Created with Sketch.</desc>
    <g id="plugin" stroke="none" stroke-width="1" fill="none" fill-rule="evenodd">
        <g id="2_Settings_General_MG-Copy" transform="translate(-283.000000, -337.000000)">
            <g id="Group-2-Copy-6" transform="translate(283.000000, 337.000000)">
                <path d="M20.2938947,5.21211429 C18.6735604,6.08266667 18.6688793,9.76929524 18.6688793,9.81150476 L7.55613622,12.5122286 L7.05867492,12.2941714 L1.39289164,9.81142857 C1.39289164,9.81142857 1.80416099,0.832304762 13.9304768,1.70445714 C15.3017461,1.80312381 16.8227368,2.02750476 18.5090526,2.40548571 L20.2938947,5.21211429 Z" id="Path" fill="#777777"></path>
                <ellipse id="Oval" fill="#999999" cx="21.2643715" cy="2.78506667" rx="2.71608669" ry="2.78506667"></ellipse>
                <path d="M20.0005449,11.1761524 L20.0005449,14.6797714 C20.0005449,15.4333714 19.4061176,15.9856 18.672,15.9243429 C14.461226,15.5710476 10.2342539,15.4763429 6.01493498,15.6410667 C4.47217337,15.7007238 2.9302291,15.7954286 1.39058824,15.9243429 C0.656470588,15.9856 0.0612260062,15.4333714 0.0612260062,14.6797714 L0.0612260062,11.1761524 C0.0612260062,10.4225524 0.656470588,9.75260952 1.39058824,9.69127619 C3.11026625,9.54727619 4.83306502,9.44617143 6.55586378,9.38811429 L6.55660681,9.38811429 C10.5958142,9.25127619 14.6412632,9.35306667 18.672,9.69127619 C19.4061176,9.75260952 20.0005449,10.4226286 20.0005449,11.1761524 Z" id="Path" fill="#999999"></path>
            </g>
        </g>
    </g>
</svg>