<?xml version="1.0" encoding="UTF-8"?>
<svg width="18px" height="27px" viewBox="0 0 18 27" version="1.1" xmlns="http://www.w3.org/2000/svg" xmlns:xlink="http://www.w3.org/1999/xlink">
    <!-- Generator: Sketch 52.5 (67469) - http://www.bohemiancoding.com/sketch -->
    <title>sock copy 3</title>
    <desc>Created with Sketch.</desc>
    <g id="plugin" stroke="none" stroke-width="1" fill="none" fill-rule="evenodd">
        <g id="2_Settings_General_MG-Copy" transform="translate(-285.000000, -249.000000)">
            <g id="sock-copy-3" transform="translate(294.000000, 262.500000) scale(-1, 1) translate(-294.000000, -262.500000) translate(285.000000, 249.000000)">
                <path d="M3.89340229,2.93314363 L3.89340229,12.5687027 C3.89340229,13.1621704 3.65929824,13.7309189 3.24331647,14.148262 L2.01305091,15.382164 C-0.616758503,18.0201187 -0.639112162,22.3198242 1.96326317,24.9857941 C4.56563856,27.6515579 8.80735188,27.6742172 11.4373645,25.0362625 L14.8887735,21.5741272 C16.4118723,20.0462723 17.2702538,17.9655304 17.273302,15.7935334 L17.2919978,2.93314363 L3.89340229,2.93314363 Z" id="Path" fill="#777777"></path>
                <path d="M17.4259167,7.60322573 L3.75948338,7.60322573 C3.46360188,7.60322573 3.2236046,7.35994719 3.2236046,7.06002043 L3.2236046,0.543205248 C3.2236046,0.24327849 3.46360188,0 3.75948338,0 L17.4259167,0 C17.7220014,0 17.9617955,0.24327849 17.9617955,0.543205248 L17.9617955,7.06002043 C17.9617955,7.35994719 17.7220014,7.60322573 17.4259167,7.60322573 Z" id="Path" fill="#999999"></path>
                <path d="M15.1358833,15.6375961 C12.3489884,15.6375961 10.0896405,17.9276276 10.0896405,20.7526245 C10.0896405,22.3023148 10.769599,23.690712 11.8433887,24.6288071 L14.8887735,21.5741272 C16.3364794,20.1218719 17.1830744,18.1698761 17.2659863,16.1148834 C16.6187455,15.8087769 15.8971279,15.6375961 15.1358833,15.6375961 Z" id="Path" fill="#999999"></path>
            </g>
        </g>
    </g>
</svg>