<svg xmlns="http://www.w3.org/2000/svg" xmlns:xlink="http://www.w3.org/1999/xlink" width="20" height="20" viewBox="-2 -2 20 20">
  <path id="ic_add-shared-wdgt-a" d="M8.8,4 L7.2,4 L7.2,7.2 L4,7.2 L4,8.8 L7.2,8.8 L7.2,12 L8.8,12 L8.8,8.8 L12,8.8 L12,7.2 L8.8,7.2 L8.8,4 L8.8,4 Z M8,0 C3.584,0 0,3.584 0,8 C0,12.416 3.584,16 8,16 C12.416,16 16,12.416 16,8 C16,3.584 12.416,0 8,0 L8,0 Z M8,14.4 C4.472,14.4 1.6,11.528 1.6,8 C1.6,4.472 4.472,1.6 8,1.6 C11.528,1.6 14.4,4.472 14.4,8 C14.4,11.528 11.528,14.4 8,14.4 L8,14.4 Z"/>
</svg>