<svg xmlns="http://www.w3.org/2000/svg" xmlns:xlink="http://www.w3.org/1999/xlink" width="20" height="20" viewBox="-2 -2 20 20">
  <path id="ic_full-screen-a" d="M10.6666667,0 L12.7111111,2.04444444 L10.1422222,4.59555556 L11.4044444,5.85777778 L13.9555556,3.28888889 L16,5.33333333 L16,0 L10.6666667,0 Z M0,5.33333333 L2.04444444,3.28888889 L4.59555556,5.85777778 L5.85777778,4.59555556 L3.28888889,2.04444444 L5.33333333,0 L0,0 L0,5.33333333 Z M5.33333333,16 L3.28888889,13.9555556 L5.85777778,11.4044444 L4.59555556,10.1422222 L2.04444444,12.7111111 L0,10.6666667 L0,16 L5.33333333,16 Z M16,10.6666667 L13.9555556,12.7111111 L11.4044444,10.1422222 L10.1422222,11.4044444 L12.7111111,13.9555556 L10.6666667,16 L16,16 L16,10.6666667 Z"/>
</svg>
