<svg xmlns="http://www.w3.org/2000/svg" width="17" height="18" viewBox="0 0 17 18">
  <path fill="#777" fill-rule="evenodd" d="M13,7 C12.5813953,5.24642857 11.1204651,4 9,4 L4,4 L4,14 L10,14 C11.647907,14 13,12.7857143 13,11 C13,10.2071429 12.275814,9.28214286 11,9 C12.007907,8.36785714 12.5813953,7.58928571 13,7 Z M6,6 L9,6 C10.2555556,6 11,6.44666667 11,7 C11,7.55333333 10.2555556,8 9,8 L6,8 L6,6 L6,6 Z M6,12 L6,10 L9,10 C10.33,10 11,10.4466667 11,11.3333333 C11,11.5533333 10.33,12 9,12 L6,12 Z"/>
</svg>
