<svg xmlns="http://www.w3.org/2000/svg" width="17" height="18" viewBox="0 0 17 18">
  <path fill="#777" d="M8.5,4 C5.09090909,4 2.17954545,6.12045455 1,9.11363636 C2.17954545,12.1068182 5.09090909,14.2272727 8.5,14.2272727 C11.9125,14.2272727 14.8204545,12.1068182 16,9.11363636 C14.8204545,6.12045455 11.9125,4 8.5,4 Z M8.5,12.5227273 C6.61818182,12.5227273 5.09090909,10.9954545 5.09090909,9.11363636 C5.09090909,7.23181818 6.61818182,5.70454545 8.5,5.70454545 C10.3818182,5.70454545 11.9090909,7.23181818 11.9090909,9.11363636 C11.9090909,10.9954545 10.3818182,12.5227273 8.5,12.5227273 Z M8.5,7.06818182 C7.37159091,7.06818182 6.45454545,7.98522727 6.45454545,9.11363636 C6.45454545,10.2420455 7.37159091,11.1590909 8.5,11.1590909 C9.62840909,11.1590909 10.5454545,10.2420455 10.5454545,9.11363636 C10.5454545,7.98522727 9.62840909,7.06818182 8.5,7.06818182 Z"/>
</svg>
