<svg xmlns="http://www.w3.org/2000/svg" width="17" height="18" viewBox="0 0 17 18">
  <path fill="#777" fill-rule="evenodd" d="M16,9 C15.8300395,8.7538275 15.7206862,9.06387098 15,10 C15.2832664,9.57485158 14.9762866,9.75049852 14,10 C15.0474332,9.92880934 15.4005258,10.0718551 16,10 C15.8801066,10.5269472 16,10.8336641 16,11 C16,11.7811073 15.798421,12.2182286 15,12 C14.9920928,12.8436476 14.416341,13 14,13 C13.0408401,13 12.4848509,12.894878 12,13 L12,11 C12.22398,11.7491689 12.4703544,11.842315 13,12 C13.0079065,11.9860283 13.2740435,12.0219561 14,12 C13.9407135,12.0219561 14.2384707,11.9527618 14,12 C14.6231894,11.6759807 14.7193676,11.4537607 14,11 C14.7193676,10.8735848 14.6086968,10.6793086 14,10 C14.1660068,10.4504319 13.8129142,10.3932136 14,10 L13,10 L14,10 C13.7839285,9.44710579 14.1113297,9.38789148 14,10 C14.525034,9.15103068 14.6284585,8.94810523 14,9 C14.6284585,8.21889333 14.3544164,7.99800399 14,8 C13.6165998,7.99800399 13.4235846,8.0299398 14,8 C13.0309608,8.15768495 12.8129129,8.26812962 13,9 L12,8 C12.534917,7.19161485 13.1633692,7 14,7 C14.4914391,7 14.9637664,7.1224206 15,7 C15.656787,7.61211034 15.8300395,7.95275896 16,9 Z M10,13 L8,13 L8,9 L4,9 L4,13 L2,13 L2,4 L4,4 L4,7 L8,7 L8,4 L10,4 L10,13 Z"/>
</svg>
