<svg xmlns="http://www.w3.org/2000/svg" width="17" height="18" viewBox="0 0 17 18">
  <path fill="#777" fill-rule="evenodd" d="M16,13 L12,13 L12,12 L14,10 C13.8700476,10.1786896 14.146848,9.86648772 14,10 C14.4067583,9.51854262 14.5003246,9.35738442 14,10 C14.6146851,9.06068705 14.6432749,8.90694618 14,9 C14.6432749,8.5104506 14.5802475,8.33378345 14,9 C14.3281345,8.10182005 14.1598451,8.04383007 14,8 C13.728394,8.04383007 13.5139712,8.09642564 14,9 C13.0981146,8.30681105 12.8810927,8.45650611 13,9 L12,8 C12.2807032,7.59743639 12.5133194,7.42211784 13,7 C12.8823921,7.21712693 13.0838196,7.13823359 14,7 C13.5204689,7.02764639 13.764781,7 14,7 C14.3911649,7 14.7056517,7.06743021 14,7 C15.2514634,7.33715509 15.4632871,7.52595968 15,8 C15.7647831,8.01146446 15.8401559,8.28927693 16,9 C15.8401559,8.87457992 15.7940226,9.13014041 16,10 C15.6094862,9.60755345 15.4665377,9.85232511 15,10 C15.0792713,10.3540134 14.7381441,10.7113935 14,11 L14,12 L16,12 L16,13 Z M10,13 L8,13 L8,9 L4,9 L4,13 L2,13 L2,4 L4,4 L4,7 L8,7 L8,4 L10,4 L10,13 Z"/>
</svg>
