<svg xmlns="http://www.w3.org/2000/svg" width="17" height="18" viewBox="0 0 17 18">
  <path fill="#777" fill-rule="evenodd" d="M5,7 L8,7 L8,5 L5,5 C2.79852366,5 1,6.792 1,9 C1,11.208 2.79852366,13 5,13 L8,13 L8,11 L5,11 C3.64158163,11.48 2.52553346,10.368 3,9 C2.52553346,7.632 3.64158163,6.52 5,7 Z M12,10 L12,8 L5,8 L5,10 L12,10 Z M9,5 L9,7 L12,7 C13.3517904,6.52 14.4706389,7.632 14,9 C14.4706389,10.368 13.3517904,11.48 12,11 L9,11 L9,13 L12,13 C14.1969637,13 16,11.208 16,9 C16,6.792 14.1969637,5 12,5 L9,5 Z"/>
</svg>
