<svg width="32" height="32" viewBox="0 0 32 32" fill="none" xmlns="http://www.w3.org/2000/svg">
  <rect width="32" height="32" rx="16" fill="#ECEFF4"/>
  <path fill-rule="evenodd" clip-rule="evenodd" d="M15.9999 9.46161L9.41877 16.0003L15.9999 22.539L22.5811 16.0003L15.9999 9.46161ZM16.2819 8.33206C16.1259 8.17707 15.874 8.17707 15.718 8.33206L8.28556 15.7165C8.12812 15.873 8.12812 16.1276 8.28555 16.2841L15.718 23.6685C15.874 23.8235 16.1259 23.8235 16.2819 23.6685L23.7144 16.2841C23.8718 16.1276 23.8718 15.873 23.7144 15.7165L16.2819 8.33206Z" fill="#A2AAB5"/>
  <path fill-rule="evenodd" clip-rule="evenodd" d="M16.0079 12.9813L12.9132 16.0152L16.0078 19.1798L19.0896 16.0152L16.0079 12.9813ZM16.2894 11.8551C16.1339 11.7021 15.8845 11.7018 15.7287 11.8545L11.7852 15.7206C11.6276 15.8751 11.625 16.1281 11.7793 16.2859L15.7227 20.3186C15.8799 20.4793 16.1385 20.479 16.2953 20.318L20.2224 16.2853C20.3759 16.1277 20.3733 15.8756 20.2165 15.7212L16.2894 11.8551Z" fill="#A2AAB5"/>
</svg>
