<svg width="32" height="32" viewBox="0 0 32 40" fill="none" xmlns="http://www.w3.org/2000/svg">
  <rect y="4" width="32" height="32" rx="16" fill="#ECEFF4"/>
  <path fill-rule="evenodd" clip-rule="evenodd" d="M9.242 14.8093L13.1814 21.9176C13.5985 21.5054 14.0921 21.141 14.822 20.9315C15.8206 20.6448 17.197 20.6645 19.3454 21.0716C20.4452 21.28 21.3385 20.6102 22.014 19.487C22.5198 18.646 22.8292 17.6584 22.9494 16.9163C21.8151 17.1436 19.9792 17.2875 18.24 16.7383C17.0022 16.3475 16.4433 15.6734 15.9953 15.133C15.9219 15.0445 15.8514 14.9595 15.7815 14.88C15.5365 14.6015 15.2974 14.3811 14.9489 14.221C14.5965 14.0592 14.0909 13.9406 13.2904 13.9406C11.1399 13.9406 9.82103 14.4611 9.242 14.8093ZM13.6775 22.7993L15.8532 26.5467L14.9831 27L12.638 22.9608L8 14.5919L8.25835 14.3471C8.80636 13.828 10.4836 13 13.2904 13C14.1921 13 14.8567 13.1334 15.3821 13.3747C15.9113 13.6177 16.2573 13.9516 16.5443 14.2778C16.6317 14.3772 16.7135 14.4749 16.7934 14.5703C17.2317 15.0936 17.6129 15.5488 18.554 15.846C20.4617 16.4484 22.5586 16.0948 23.3465 15.846L24 15.6396V16.2922C24 17.1854 23.6239 18.7104 22.8768 19.9526C22.1376 21.1817 20.9031 22.3259 19.1507 21.9939C17.0437 21.5947 15.8668 21.6144 15.11 21.8317C14.4871 22.0105 14.1056 22.3335 13.6775 22.7993Z" fill="#A2AAB5"/>
</svg>
