<svg width="32" height="32" viewBox="0 0 32 32" fill="none" xmlns="http://www.w3.org/2000/svg">
  <rect width="32" height="32" rx="16" fill="#ECEFF4"/>
  <path fill-rule="evenodd" clip-rule="evenodd" d="M21.9976 10.0002C18.8681 10.1207 16.1592 11.6472 14.5238 14.0183L14.4437 14.1345L11.0834 15.6214L13.4081 16.2432L13.2599 16.7368C13.2172 16.879 13.1782 17.023 13.1524 17.1612L14.8334 18.867L15.7712 18.6327L16.3738 20.9311L17.8907 17.5444L18.0066 17.4649C20.3654 15.8457 21.8932 13.1387 21.9976 10.0116V10.0002ZM21.974 9.00042C18.5807 9.12655 15.6106 10.7615 13.7826 13.3336L10.5523 14.7629L10.5458 14.766C10.3694 14.8502 10.2228 14.9863 10.126 15.1562C10.0291 15.3261 9.98643 15.5215 10.0038 15.7163C10.0213 15.9111 10.0979 16.0959 10.2233 16.2459C10.3488 16.3959 10.517 16.5039 10.7056 16.5555L12.175 16.9485C12.1168 17.271 12.125 17.3806 12.1593 17.4832C12.1921 17.5817 12.248 17.6709 12.3221 17.7433L14.2602 19.71C14.3815 19.8332 14.5455 19.9033 14.7172 19.9057H14.8218L15.0496 19.8437L15.4349 21.2933C15.4885 21.4886 15.6002 21.6597 15.7549 21.7856C15.9096 21.9116 16.0998 21.9861 16.2988 21.999H16.381C16.569 21.9969 16.748 21.9411 16.9011 21.8392C17.0533 21.7378 17.1734 21.595 17.2471 21.4275L18.6892 18.208C21.2499 16.3961 22.8868 13.4276 22.9973 10.0361L22.9976 10.028V9.69762C23.0039 9.62558 22.9981 9.55283 22.9805 9.48238C22.958 9.39227 22.9164 9.30802 22.8587 9.23526C22.7776 9.14316 22.701 9.08815 22.6153 9.05148C22.533 9.01624 22.4442 8.99874 22.3548 9.00007H21.9833L21.974 9.00042ZM18.2656 13C18.0536 13 17.8503 13.084 17.7003 13.2333C17.5881 13.345 17.5116 13.4874 17.4805 13.6425C17.4494 13.7975 17.4651 13.9583 17.5256 14.1045C17.586 14.2506 17.6886 14.3757 17.8203 14.4637C17.952 14.5517 18.107 14.5987 18.2656 14.5987C18.4242 14.5987 18.5792 14.5517 18.7109 14.4637C18.8426 14.3757 18.9452 14.2506 19.0056 14.1045C19.0661 13.9583 19.0818 13.7975 19.0507 13.6425C19.0196 13.4874 18.9431 13.345 18.8309 13.2333C18.6809 13.084 18.4776 13 18.2656 13ZM16.9947 12.5246C17.3323 12.1886 17.7893 12 18.2656 12C18.7419 12 19.1989 12.1886 19.5365 12.5246C19.7889 12.776 19.9611 13.0966 20.0312 13.4459C20.1012 13.7952 20.0659 14.1574 19.9297 14.4867C19.7935 14.8159 19.5627 15.0972 19.2664 15.2952C18.9702 15.4931 18.6219 15.5987 18.2656 15.5987C17.9093 15.5987 17.561 15.4931 17.2648 15.2952C16.9685 15.0972 16.7377 14.8159 16.6015 14.4867C16.4653 14.1574 16.43 13.7952 16.5 13.4459C16.5701 13.0966 16.7422 12.776 16.9947 12.5246Z" fill="#A2AAB5"/>
  <path fill-rule="evenodd" clip-rule="evenodd" d="M9.29292 22.7071C9.00378 22.418 8.91981 21.9819 9.08088 21.6061L10.2194 19.0534C10.3501 18.7484 10.6236 18.5281 10.9494 18.4653C11.2753 18.4026 11.611 18.5055 11.8456 18.7402L13.2599 20.1544C13.4945 20.389 13.5975 20.7248 13.5347 21.0506C13.472 21.3764 13.2517 21.6499 12.9467 21.7806L10.3939 22.9192C10.0181 23.0802 9.58206 22.9963 9.29292 22.7071ZM10 22L12.5528 20.8615L11.1385 19.4473L10 22Z" fill="#A2AAB5"/>
</svg>
