<svg width="32" height="32" viewBox="0 0 32 40" fill="none" xmlns="http://www.w3.org/2000/svg">
  <rect y="4" width="32" height="32" rx="16" fill="white"/>
  <path fill-rule="evenodd" clip-rule="evenodd" d="M10.3774 24.169C8.07494 21.0636 8.72579 16.6798 11.8311 14.3773C13.0928 13.4419 14.5668 12.9936 16.0259 13.0001C16.2824 13.0012 16.4894 13.21 16.4882 13.4665C16.4871 13.723 16.2783 13.9301 16.0218 13.9289C14.7565 13.9234 13.4794 14.3116 12.3843 15.1235C9.69111 17.1204 9.12663 20.9225 11.1235 23.6157C11.2763 23.8218 11.2331 24.1126 11.0271 24.2654C10.821 24.4182 10.5302 24.375 10.3774 24.169ZM20.0547 14.8516C20.2275 14.662 20.5212 14.6484 20.7108 14.8212C21.0411 15.1222 21.347 15.4592 21.6227 15.8311C23.9251 18.9364 23.2743 23.3202 20.169 25.6227C18.922 26.5473 17.4675 26.9959 16.0251 27C15.7686 27.0007 15.5601 26.7934 15.5594 26.5369C15.5586 26.2804 15.766 26.0719 16.0225 26.0711C17.2733 26.0676 18.5334 25.679 19.6158 24.8765C22.309 22.8796 22.8735 19.0775 20.8766 16.3843C20.6368 16.0609 20.3713 15.7685 20.0851 15.5077C19.8955 15.3349 19.8819 15.0411 20.0547 14.8516Z" fill="#A2AAB5"/>
  <path fill-rule="evenodd" clip-rule="evenodd" d="M13.0364 26.0797L9.3174 25.3863L12.343 22.3607L13.0364 26.0797Z" fill="#A2AAB5"/>
  <path fill-rule="evenodd" clip-rule="evenodd" d="M19.1935 14.3494L22.9125 15.0428L19.8869 18.0684L19.1935 14.3494Z" fill="#A2AAB5"/>
</svg>
