<svg width="16" height="16" viewBox="0 0 16 16" fill="none" xmlns="http://www.w3.org/2000/svg">
<path fill-rule="evenodd" clip-rule="evenodd" d="M10 1.5C10 1.22386 10.2239 1 10.5 1H15.5C15.6979 1 15.8772 1.11673 15.9573 1.29772C16.0373 1.47871 16.0031 1.6899 15.87 1.83634L11.6303 6.5H15.5C15.7761 6.5 16 6.72386 16 7C16 7.27614 15.7761 7.5 15.5 7.5H10.5C10.3021 7.5 10.1228 7.38327 10.0427 7.20228C9.96268 7.02129 9.9969 6.8101 10.13 6.66366L14.3697 2H10.5C10.2239 2 10 1.77614 10 1.5Z" fill="#A2AAB5"/>
<path fill-rule="evenodd" clip-rule="evenodd" d="M4 6.5C3.72386 6.5 3.5 6.27614 3.5 6C3.5 5.72386 3.72386 5.5 4 5.5H8C8.20223 5.5 8.38455 5.62182 8.46194 5.80866C8.53933 5.9955 8.49655 6.21055 8.35355 6.35355L5.20711 9.5H8C8.27614 9.5 8.5 9.72386 8.5 10C8.5 10.2761 8.27614 10.5 8 10.5H4C3.79777 10.5 3.61545 10.3782 3.53806 10.1913C3.46067 10.0045 3.50345 9.78944 3.64645 9.64645L6.79289 6.5H4Z" fill="#A2AAB5"/>
<path fill-rule="evenodd" clip-rule="evenodd" d="M0.375008 12.75C0.167903 12.75 1.09468e-05 12.5821 1.09468e-05 12.375C1.09468e-05 12.1679 0.167903 12 0.375008 12H2.62499C2.77666 12 2.9134 12.0914 2.97144 12.2315C3.02949 12.3716 2.9974 12.5329 2.89016 12.6402L1.28033 14.25H2.62499C2.8321 14.25 2.99999 14.4179 2.99999 14.625C2.99999 14.8321 2.8321 15 2.62499 15H0.375008C0.223336 15 0.0865984 14.9086 0.0285559 14.7685C-0.0294865 14.6284 0.00259665 14.4671 0.109845 14.3598L1.71967 12.75H0.375008Z" fill="#A2AAB5"/>
</svg>
