<svg width="16" height="16" viewBox="0 0 16 16" fill="none" xmlns="http://www.w3.org/2000/svg">
<path fill-rule="evenodd" clip-rule="evenodd" d="M11 6C11 7.65685 9.65685 9 8 9C6.34315 9 5 7.65685 5 6C5 4.34315 6.34315 3 8 3C9.65685 3 11 4.34315 11 6ZM10 6C10 7.10457 9.10457 8 8 8C6.89543 8 6 7.10457 6 6C6 4.89543 6.89543 4 8 4C9.10457 4 10 4.89543 10 6Z" fill="#A2AAB5"/>
<path fill-rule="evenodd" clip-rule="evenodd" d="M8 16C12.4183 16 16 12.4183 16 8C16 3.58172 12.4183 0 8 0C3.58172 0 0 3.58172 0 8C0 12.4183 3.58172 16 8 16ZM8 15C9.48725 15 10.8662 14.5362 12 13.7453V13.1667C12 12.592 11.7717 12.0409 11.3654 11.6346C10.9591 11.2283 10.408 11 9.83333 11H6.16667C5.59203 11 5.04093 11.2283 4.6346 11.6346C4.22827 12.0409 4 12.592 4 13.1667V13.7453C5.13383 14.5362 6.51275 15 8 15ZM12.0725 10.9275C12.6055 11.4605 12.9288 12.1639 12.9896 12.9096C14.2329 11.6462 15 9.91267 15 8C15 4.13401 11.866 1 8 1C4.13401 1 1 4.13401 1 8C1 9.91267 1.76711 11.6462 3.01044 12.9096C3.07115 12.1639 3.39452 11.4605 3.9275 10.9275C4.52136 10.3336 5.32681 10 6.16667 10H9.83333C10.6732 10 11.4786 10.3336 12.0725 10.9275Z" fill="#A2AAB5"/>
</svg>
