<svg xmlns="http://www.w3.org/2000/svg" width="320" height="146" viewBox="0 0 320 146" xmlns:xlink="http://www.w3.org/1999/xlink">
  <defs>
    <rect id="c" width="320" height="146"/>
    <rect id="e" width="150" height="146"/>
    <path id="a" d="M10,5.00302505 C10,2.23993061 12.2290419,0 14.9966729,0 L135.003327,0 C137.762913,0 140,2.24679708 140,5.00302505 L140,84 L10,84 L10,5.00302505 Z"/>
    <mask id="g" width="130" height="84" x="0" y="0" fill="white">
      <use xlink:href="#a"/>
    </mask>
    <rect id="b" width="120" height="76" x="15" y="8"/>
    <mask id="h" width="120" height="76" x="0" y="0" fill="white">
      <use xlink:href="#b"/>
    </mask>
    <ellipse id="i" cx="15" cy="15" rx="15" ry="15"/>
    <circle id="k" cx="15" cy="15" r="15"/>
    <ellipse id="m" cx="15" cy="15" rx="15" ry="15"/>
  </defs>
  <g fill="none" fill-rule="evenodd">
    <mask id="d" fill="white">
      <use xlink:href="#c"/>
    </mask>
    <g mask="url(#d)">
      <path stroke="#39C2D7" d="M95.9924179 114.325391C77.9604297 99.7374967 55.0005907 91 30 91 19.6660398 91 9.68075652 92.4928633.248047335 95.2746929M320.538773 40.7473449C304.471686 30.7648709 285.510874 25 265.203603 25 218.176028 25 178.36941 55.9165959 165 98.5335373M301.458838 146.409248C293.263611 123.997113 271.749969 108 246.5 108 238.943759 108 231.722124 109.432622 225.091896 112.041065" stroke-dasharray="3 4" opacity=".25"/>
      <g transform="translate(85)">
        <mask id="f" fill="white">
          <use xlink:href="#e"/>
        </mask>
        <g transform="translate(0 97)" opacity=".5" mask="url(#f)">
          <use fill="#D7F3F4" fill-opacity=".5" stroke="#91D9E5" stroke-opacity=".15" stroke-width="2" mask="url(#g)" xlink:href="#a"/>
          <use fill="#FCFEFE" stroke="#39C2D7" stroke-opacity=".15" stroke-width="2" mask="url(#h)" xlink:href="#b"/>
          <rect width="53" height="8" x="67" y="36" fill="#D7F3F4" rx="4"/>
          <path fill="#D7F3F4" d="M44,32 C36.265,32 30,38.3270297 30,46.1386139 C30,53.950198 36.265,60.2772277 44,60.2772277 C51.735,60.2772277 58,53.950198 58,46.1386139 C58,38.3270297 51.735,32 44,32 Z M44,36.2415842 C46.317,36.2415842 48.2,38.1432277 48.2,40.4831683 C48.2,42.8301782 46.317,44.7247525 44,44.7247525 C41.683,44.7247525 39.8,42.8301782 39.8,40.4831683 C39.8,38.1432277 41.683,36.2415842 44,36.2415842 Z M44,56.3184173 C40.493,56.3184173 37.413,54.5086733 35.6,51.7657822 C35.635,48.9592673 41.207,47.4110891 44,47.4110891 C46.793,47.4110891 52.358,48.9592673 52.4,51.7657822 C50.587,54.5086733 47.507,56.3184173 44,56.3184173 Z"/>
        </g>
      </g>
      <g opacity=".4" transform="translate(285 127)">
        <mask id="j" fill="white">
          <use xlink:href="#i"/>
        </mask>
        <use fill="#D0F0F1" xlink:href="#i"/>
        <path fill="#FFFFFF" d="M10 9.00087166C10 8.4481055 10.4438648 8 11 8L11 8C11.5522847 8 12 8.44463086 12 9.00087166L12 22.9991283C12 23.5518945 11.5561352 24 11 24L11 24C10.4477153 24 10 23.5553691 10 22.9991283L10 9.00087166zM6 14.9953976C6 14.4456547 6.44386482 14 7 14L7 14C7.55228475 14 8 14.4556644 8 14.9953976L8 23.0046024C8 23.5543453 7.55613518 24 7 24L7 24C6.44771525 24 6 23.5443356 6 23.0046024L6 14.9953976z" mask="url(#j)"/>
        <rect width="2" height="20" x="14" y="4" fill="#FFFFFF" mask="url(#j)" rx="1"/>
        <rect width="2" height="13" x="18" y="11" fill="#FFFFFF" mask="url(#j)" rx="1"/>
        <path fill="#FFFFFF" d="M22,18.0029293 C22,17.4490268 22.4438648,17 23,17 L23,17 C23.5522847,17 24,17.4378814 24,18.0029293 L24,22.9970707 C24,23.5509732 23.5561352,24 23,24 L23,24 C22.4477153,24 22,23.5621186 22,22.9970707 L22,18.0029293 Z" mask="url(#j)"/>
      </g>
      <g opacity=".4" transform="translate(250 10)">
        <mask id="l" fill="white">
          <use xlink:href="#k"/>
        </mask>
        <use fill="#D0F0F1" xlink:href="#k"/>
        <polyline fill="#FFFFFF" points="3 19 11 11 14 14 18 8 26 19" mask="url(#l)"/>
      </g>
      <g opacity=".4" transform="translate(16 73)">
        <mask id="n" fill="white">
          <use xlink:href="#m"/>
        </mask>
        <use fill="#D0F0F1" xlink:href="#m"/>
        <rect width="18" height="3" x="5" y="9" fill="#FFFFFF" mask="url(#n)" rx="1.5"/>
        <rect width="22" height="3" x="5" y="14" fill="#FFFFFF" mask="url(#n)" rx="1.5"/>
        <path fill="#FFFFFF" d="M5,20.5 C5,19.6715729 5.66254437,19 6.4912653,19 L16.5087347,19 C17.3323378,19 18,19.6657972 18,20.5 L18,20.5 C18,21.3284271 17.3374556,22 16.5087347,22 L6.4912653,22 C5.66766222,22 5,21.3342028 5,20.5 L5,20.5 Z" mask="url(#n)"/>
      </g>
    </g>
  </g>
</svg>
