<?xml version="1.0" encoding="UTF-8"?>
<svg width="43px" height="20px" viewBox="0 0 43 20" version="1.1" xmlns="http://www.w3.org/2000/svg" xmlns:xlink="http://www.w3.org/1999/xlink">        
    <g id="AA-Activated" stroke="none" stroke-width="1" fill-rule="evenodd">
        <rect id="Combined-Shape-Copy" stroke="#FF3222" x="0.5" y="0.5" width="42" height="19" rx="9.5"></rect>
        <path d="M13.765625,14 L12.9814453,11.8193359 L9.97900391,11.8193359 L9.2109375,14 L7.85742188,14 L10.7954102,6.11523438 L12.1918945,6.11523438 L15.1298828,14 L13.765625,14 Z M12.6430664,10.7128906 L11.9072266,8.57519531 C11.8535154,8.43196543 11.779216,8.20638175 11.6843262,7.8984375 C11.5894364,7.59049325 11.5240887,7.36490957 11.4882812,7.22167969 C11.3916011,7.66211158 11.2501637,8.14371483 11.0639648,8.66650391 L10.3549805,10.7128906 L12.6430664,10.7128906 Z M21.0380859,14 L20.2539062,11.8193359 L17.2514648,11.8193359 L16.4833984,14 L15.1298828,14 L18.0678711,6.11523438 L19.4643555,6.11523438 L22.4023438,14 L21.0380859,14 Z M19.9155273,10.7128906 L19.1796875,8.57519531 C19.1259763,8.43196543 19.0516769,8.20638175 18.9567871,7.8984375 C18.8618973,7.59049325 18.7965497,7.36490957 18.7607422,7.22167969 C18.664062,7.66211158 18.5226246,8.14371483 18.3364258,8.66650391 L17.6274414,10.7128906 L19.9155273,10.7128906 Z" id="AA" fill="#FF3222" fill-rule="nonzero"></path>
        <g id="Group-11-Copy" transform="translate(25.500000, 4.000000)">
            <polygon id="Triangle-Copy-2" fill="#FF3222" transform="translate(2.000000, 9.500000) scale(-1, 1) rotate(-270.000000) translate(-2.000000, -9.500000) " points="2 8 4 11 4.4408921e-16 11"></polygon>
            <path d="M3.5,9.5 L7,9.5 C8.1045695,9.5 9,8.6045695 9,7.5 L9,5.5" id="Path-2" stroke="#FF3222" stroke-linecap="round"></path>
            <polygon id="Triangle-Copy-2" fill="#FF3222" transform="translate(8.000000, 2.500000) scale(1, -1) rotate(-270.000000) translate(-8.000000, -2.500000) " points="8 1 10 4 6 4"></polygon>
            <path d="M1,6.5 L4.5,6.5 C5.6045695,6.5 6.5,5.6045695 6.5,4.5 L6.5,2.5" id="Path-2" stroke="#FF3222" stroke-linecap="round" transform="translate(3.750000, 4.500000) scale(-1, -1) translate(-3.750000, -4.500000) "></path>
        </g>
    </g>
</svg>