<svg width="16" height="16" viewBox="0 0 16 16" fill="none" xmlns="http://www.w3.org/2000/svg">
<path fill-rule="evenodd" clip-rule="evenodd" d="M8.13434 0.315572C7.63728 0.315572 7.23434 0.718515 7.23434 1.21557L7.23434 7.23088L1.21904 7.23088C0.721988 7.23088 0.319045 7.63383 0.319045 8.13088C0.319046 8.62794 0.721989 9.03088 1.21904 9.03088L7.23434 9.03088V14.7829C7.23434 15.28 7.63728 15.6829 8.13434 15.6829C8.63139 15.6829 9.03434 15.28 9.03434 14.7829V9.03088L14.7864 9.03088C15.2835 9.03088 15.6864 8.62794 15.6864 8.13088C15.6864 7.63383 15.2835 7.23088 14.7864 7.23088L9.03434 7.23088L9.03434 1.21557C9.03434 0.718516 8.63139 0.315572 8.13434 0.315572Z" fill="#A2AAB5"/>
</svg>
