<svg width="16" height="16" viewBox="0 0 16 16" fill="none" xmlns="http://www.w3.org/2000/svg">
<path d="M9.5 0L10.6173 3.01944C11.0224 4.11432 11.8857 4.97756 12.9806 5.38271L16 6.5L12.9806 7.61729C11.8857 8.02244 11.0224 8.88568 10.6173 9.98056L9.5 13L8.38271 9.98056C7.97756 8.88568 7.11432 8.02244 6.01944 7.61729L3 6.5L6.01944 5.38271C7.11432 4.97756 7.97756 4.11432 8.38271 3.01944L9.5 0Z" fill="#B078CA"/>
<path d="M4 8L4.44207 9.19467C4.84721 10.2895 5.71045 11.1528 6.80533 11.5579L8 12L6.80533 12.4421C5.71045 12.8472 4.84721 13.7105 4.44207 14.8053L4 16L3.55793 14.8053C3.15279 13.7105 2.28955 12.8472 1.19467 12.4421L0 12L1.19467 11.5579C2.28955 11.1528 3.15279 10.2895 3.55793 9.19467L4 8Z" fill="#B078CA"/>
</svg>
