<?xml version="1.0" encoding="UTF-8"?>
<svg width="20px" height="20px" viewBox="0 0 20 20" version="1.1" xmlns="http://www.w3.org/2000/svg"
     xmlns:xlink="http://www.w3.org/1999/xlink">
    <title>attention</title>
    <g id="attention" stroke="none" stroke-width="1" fill="none" fill-rule="evenodd">
        <g id="Group-18">
            <path d="M4.15789474,3.15789474 L15.6917293,3.15789474 C16.2440141,3.15789474 16.6917293,3.60560999 16.6917293,4.15789474 L16.6917293,15.6917293 C16.6917293,16.2440141 16.2440141,16.6917293 15.6917293,16.6917293 L4.15789474,16.6917293 C3.60560999,16.6917293 3.15789474,16.2440141 3.15789474,15.6917293 L3.15789474,4.15789474 C3.15789474,3.60560999 3.60560999,3.15789474 4.15789474,3.15789474 Z"
                  id="Rectangle" fill="#FFB439"
                  transform="translate(9.924812, 9.924812) rotate(-135.000000) translate(-9.924812, -9.924812) "></path>
            <path d="M9.99794515,11.8181818 C9.49621549,11.8181818 9.09090909,11.4111364 9.09090909,10.9090909 L9.09090909,4.54545455 C9.09090909,4.04340909 9.49621549,3.63636364 9.99794515,3.63636364 C10.4996748,3.63636364 10.9090909,4.04340909 10.9090909,4.54545455 L10.9090909,10.9090909 C10.9090909,11.4111932 10.4996748,11.8181818 9.99794515,11.8181818 Z"
                  id="Path" fill="#000000" fill-rule="nonzero"></path>
            <circle id="Oval" fill="#000000" fill-rule="nonzero" cx="10" cy="14.3272727" r="1"></circle>
        </g>
    </g>
</svg>
