<svg xmlns="http://www.w3.org/2000/svg" width="13" height="13" viewBox="0 0 13 13">
    <g fill="none" fill-rule="evenodd">
        <path fill="#999" d="M10.88 3.154a1.118 1.118 0 0 1-.142.208c-.411.477-1.111.746-1.744.178-.633-.567-.463-1.133-.052-1.61.057-.065.12-.122.187-.172L7.818.752a.472.472 0 0 0-.646.057L.756 8.215a.429.429 0 0 0 .06.62l1.312 1.047c.042-.089.097-.173.164-.252.412-.476 1.076-.665 1.678-.185.602.48.53 1.14.118 1.617a1.15 1.15 0 0 1-.227.2l1.317 1.005c.195.155.484.13.646-.058l6.47-7.39a.429.429 0 0 0-.06-.621l-1.353-1.044zM3.175 7.516L6.91 3.189l2.915 2.323L6.09 9.839 3.174 7.516zm3.945-3.072L8.367 5.56 5.953 8.47 4.62 7.287l2.498-2.843z"/>
    </g>
</svg>
