<svg width="16" height="16" viewBox="0 0 16 16" fill="none" xmlns="http://www.w3.org/2000/svg">
    <path d="M9.80051 6.3661C9.95672 6.20989 10.21 6.20989 10.3662 6.3661L10.6338 6.63375C10.7901 6.78996 10.7901 7.04323 10.6338 7.19944L8.83331 8.99996L10.6338 10.8005C10.79 10.9567 10.79 11.2099 10.6338 11.3662L10.3662 11.6338C10.21 11.79 9.95669 11.79 9.80048 11.6338L7.99998 9.8333L6.19953 11.6338C6.04332 11.79 5.79005 11.79 5.63384 11.6338L5.36619 11.3661C5.20998 11.2099 5.20998 10.9566 5.36619 10.8004L7.16665 8.99996L5.36617 7.19949C5.20996 7.04328 5.20996 6.79001 5.36617 6.6338L5.63382 6.36615C5.79003 6.20994 6.04329 6.20994 6.1995 6.36615L7.99998 8.16663L9.80051 6.3661Z" fill="#C1C7D0"/>
    <path fill-rule="evenodd" clip-rule="evenodd" d="M4.99878 3V2C4.99878 1.44772 5.44649 1 5.99878 1H9.99878C10.5511 1 10.9988 1.44772 10.9988 2V3H14.5C14.7761 3 15 3.22386 15 3.5C15 3.77614 14.7761 4 14.5 4H13.4167L12.6146 13.6246C12.5498 14.402 11.8999 15 11.1198 15H4.8802C4.10007 15 3.45017 14.402 3.38538 13.6246L2.58333 4H1.5C1.22386 4 1 3.77614 1 3.5C1 3.22386 1.22386 3 1.5 3H4.99878ZM5.99878 2H9.99878V3H5.99878V2ZM3.5868 4L4.38193 13.5415C4.40352 13.8007 4.62016 14 4.8802 14H11.1198C11.3798 14 11.5965 13.8007 11.6181 13.5415L12.4132 4H3.5868Z" fill="#C1C7D0"/>
</svg>
