<svg xmlns="http://www.w3.org/2000/svg" width="20" height="20" viewBox="0 0 20 20">
    <path d="M16.667 6.667h-2.342a4.987 4.987 0 0 0-1.517-1.634l1.359-1.358L12.992 2.5l-1.809 1.808A5.055 5.055 0 0 0 10 4.167c-.408 0-.8.05-1.175.141L7.008 2.5 5.833 3.675l1.35 1.358a5.052 5.052 0 0 0-1.508 1.634H3.333v1.666h1.742c-.042.275-.075.55-.075.834V10H3.333v1.667H5v.833c0 .283.033.558.075.833H3.333V15h2.342A4.997 4.997 0 0 0 10 17.5a4.997 4.997 0 0 0 4.325-2.5h2.342v-1.667h-1.742c.042-.275.075-.55.075-.833v-.833h1.667V10H15v-.833c0-.284-.033-.559-.075-.834h1.742V6.667zm-5 6.666H8.333v-1.666h3.334v1.666zm0-3.333H8.333V8.333h3.334V10z" />
</svg>
