<?xml version="1.0" encoding="UTF-8"?>
<svg width="19px" height="19px" viewBox="0 0 19 19" version="1.1" xmlns="http://www.w3.org/2000/svg" xmlns:xlink="http://www.w3.org/1999/xlink">
  <g stroke-width="1" fill="none">
    <g id="Group-3" stroke="#999999">
      <path d="M12.5,1 C14.0187831,1 15.3937831,1.61560847 16.3890873,2.6109127 C17.3843915,3.60621694 18,4.98121694 18,6.5 L18,6.5 L18,16.8649584 L13.3620499,13 L6.5,13 C4.98121694,13 3.60621694,12.3843915 2.6109127,11.3890873 C1.61560847,10.3937831 1,9.01878306 1,7.5 L1,7.5 L1,6.5 C1,4.98121694 1.61560847,3.60621694 2.6109127,2.6109127 C3.60621694,1.61560847 4.98121694,1 6.5,1 L6.5,1 Z" id="Combined-Shape" stroke-width="2"></path>
      <rect id="Rectangle" x="6.5" y="8.5" width="5" height="1" rx="0.5"></rect>
      <rect id="Rectangle-Copy-20" x="6.5" y="5.5" width="7" height="1" rx="0.5"></rect>
    </g>
  </g>
</svg>
