<svg width="16" height="16" viewBox="0 0 16 16" fill="none" xmlns="http://www.w3.org/2000/svg">
    <path fill-rule="evenodd" clip-rule="evenodd" d="M7 2H12C12.5523 2 13 2.44772 13 3V11C13 11.5523 12.5523 12 12 12H11V13H12C13.1046 13 14 12.1046 14 11V3C14 1.89543 13.1046 1 12 1H7C5.89543 1 5 1.89543 5 3H6C6 2.44772 6.44772 2 7 2ZM9 4H4C3.44772 4 3 4.44772 3 5V13C3 13.5523 3.44772 14 4 14H9C9.55228 14 10 13.5523 10 13V5C10 4.44772 9.55228 4 9 4ZM4 3C2.89543 3 2 3.89543 2 5V13C2 14.1046 2.89543 15 4 15H9C10.1046 15 11 14.1046 11 13V5C11 3.89543 10.1046 3 9 3H4Z" fill="#C1C7D0"/>
</svg>
