<?xml version="1.0" encoding="UTF-8"?>
<svg width="152px" height="84px" viewBox="0 0 152 84" version="1.1" xmlns="http://www.w3.org/2000/svg" xmlns:xlink="http://www.w3.org/1999/xlink">
    <!-- Generator: Sketch 52.2 (67145) - http://www.bohemiancoding.com/sketch -->
    <title>Wdgt launch table</title>
    <desc>Created with Sketch.</desc>
    <defs>
        <rect id="path-1" x="0.2" y="0.318181818" width="151.407564" height="83.9220091"></rect>
        <mask id="mask-2" maskContentUnits="userSpaceOnUse" maskUnits="objectBoundingBox" x="0" y="0" width="151.407564" height="83.9220091" fill="white">
            <use xlink:href="#path-1"></use>
        </mask>
    </defs>
    <g id="DEMO" stroke="none" stroke-width="1" fill="none" fill-rule="evenodd">
        <g id="LaunchFilter_No-Launch-Demo" transform="translate(-629.000000, -295.000000)">
            <g id="Group-9" transform="translate(472.000000, 294.000000)">
                <g id="Wdgt-launch-table" transform="translate(156.800000, 0.681818)">
                    <use id="Rectangle-3" stroke="#E9E9E9" mask="url(#mask-2)" stroke-width="3.8" fill="#FFFFFF" stroke-dasharray="4.75" xlink:href="#path-1"></use>
                    <g id="Group-7" transform="translate(20.971150, 18.286974)">
                        <path d="M26.5881354,6.20783576 L26.5881354,2.82174353 L20.3653803,2.82174353 L20.3653803,6.20783576 L26.5881354,6.20783576 Z M46.9535157,6.20783576 L46.9535157,2.82174353 L40.7307606,2.82174353 L40.7307606,6.20783576 L46.9535157,6.20783576 Z M76.9358811,6.20783576 L76.9358811,2.82174353 L70.713126,2.82174353 L70.713126,6.20783576 L76.9358811,6.20783576 Z M83.7243412,6.20783576 L83.7243412,2.82174353 L77.5015861,2.82174353 L77.5015861,6.20783576 L83.7243412,6.20783576 Z M33.3765955,6.20783576 L33.3765955,2.82174353 L27.1538404,2.82174353 L27.1538404,6.20783576 L33.3765955,6.20783576 Z M40.1650556,6.20783576 L40.1650556,2.82174353 L33.9423005,2.82174353 L33.9423005,6.20783576 L40.1650556,6.20783576 Z M70.147421,6.20783576 L70.147421,2.82174353 L63.9246659,2.82174353 L63.9246659,6.20783576 L70.147421,6.20783576 Z M6.22275509,6.20783576 L6.22275509,2.82174353 L0,2.82174353 L0,6.20783576 L6.22275509,6.20783576 Z M13.0112152,6.20783576 L13.0112152,2.82174353 L6.7884601,2.82174353 L6.7884601,6.20783576 L13.0112152,6.20783576 Z M19.7996753,6.20783576 L19.7996753,2.82174353 L13.5769202,2.82174353 L13.5769202,6.20783576 L19.7996753,6.20783576 Z" id="121324-Tot-Copy" fill="#E9E9E9"></path>
                        <path d="M6.22275509,11.8513228 L6.22275509,8.46523058 L0,8.46523058 L0,11.8513228 L6.22275509,11.8513228 Z M13.0112152,11.8513228 L13.0112152,8.46523058 L6.7884601,8.46523058 L6.7884601,11.8513228 L13.0112152,11.8513228 Z" id="121324-Tot-Copy-3" fill="#E9E9E9"></path>
                        <ellipse id="Oval-4" stroke="#E9E9E9" stroke-width="4.42225" cx="105.786837" cy="6.20783576" rx="4.01163009" ry="3.99671076"></ellipse>
                    </g>
                    <g id="Group-7-Copy" transform="translate(20.971150, 35.781784)">
                        <path d="M26.5881354,6.20783576 L26.5881354,2.82174353 L20.3653803,2.82174353 L20.3653803,6.20783576 L26.5881354,6.20783576 Z M46.9535157,6.20783576 L46.9535157,2.82174353 L40.7307606,2.82174353 L40.7307606,6.20783576 L46.9535157,6.20783576 Z M76.9358811,6.20783576 L76.9358811,2.82174353 L70.713126,2.82174353 L70.713126,6.20783576 L76.9358811,6.20783576 Z M83.7243412,6.20783576 L83.7243412,2.82174353 L77.5015861,2.82174353 L77.5015861,6.20783576 L83.7243412,6.20783576 Z M33.3765955,6.20783576 L33.3765955,2.82174353 L27.1538404,2.82174353 L27.1538404,6.20783576 L33.3765955,6.20783576 Z M40.1650556,6.20783576 L40.1650556,2.82174353 L33.9423005,2.82174353 L33.9423005,6.20783576 L40.1650556,6.20783576 Z M70.147421,6.20783576 L70.147421,2.82174353 L63.9246659,2.82174353 L63.9246659,6.20783576 L70.147421,6.20783576 Z M6.22275509,6.20783576 L6.22275509,2.82174353 L0,2.82174353 L0,6.20783576 L6.22275509,6.20783576 Z M13.0112152,6.20783576 L13.0112152,2.82174353 L6.7884601,2.82174353 L6.7884601,6.20783576 L13.0112152,6.20783576 Z M19.7996753,6.20783576 L19.7996753,2.82174353 L13.5769202,2.82174353 L13.5769202,6.20783576 L19.7996753,6.20783576 Z" id="121324-Tot-Copy" fill="#E9E9E9"></path>
                        <path d="M6.22275509,11.8513228 L6.22275509,8.46523058 L0,8.46523058 L0,11.8513228 L6.22275509,11.8513228 Z M13.0112152,11.8513228 L13.0112152,8.46523058 L6.7884601,8.46523058 L6.7884601,11.8513228 L13.0112152,11.8513228 Z" id="121324-Tot-Copy-3" fill="#E9E9E9"></path>
                        <ellipse id="Oval-4" stroke="#FBE5C7" stroke-width="4.42225" cx="105.786837" cy="6.20783576" rx="4.01163009" ry="3.99671076"></ellipse>
                    </g>
                    <g id="Group-7-Copy-2" transform="translate(20.971150, 53.276594)">
                        <path d="M26.5881354,6.20783576 L26.5881354,2.82174353 L20.3653803,2.82174353 L20.3653803,6.20783576 L26.5881354,6.20783576 Z M46.9535157,6.20783576 L46.9535157,2.82174353 L40.7307606,2.82174353 L40.7307606,6.20783576 L46.9535157,6.20783576 Z M76.9358811,6.20783576 L76.9358811,2.82174353 L70.713126,2.82174353 L70.713126,6.20783576 L76.9358811,6.20783576 Z M83.7243412,6.20783576 L83.7243412,2.82174353 L77.5015861,2.82174353 L77.5015861,6.20783576 L83.7243412,6.20783576 Z M33.3765955,6.20783576 L33.3765955,2.82174353 L27.1538404,2.82174353 L27.1538404,6.20783576 L33.3765955,6.20783576 Z M40.1650556,6.20783576 L40.1650556,2.82174353 L33.9423005,2.82174353 L33.9423005,6.20783576 L40.1650556,6.20783576 Z M70.147421,6.20783576 L70.147421,2.82174353 L63.9246659,2.82174353 L63.9246659,6.20783576 L70.147421,6.20783576 Z M6.22275509,6.20783576 L6.22275509,2.82174353 L0,2.82174353 L0,6.20783576 L6.22275509,6.20783576 Z M13.0112152,6.20783576 L13.0112152,2.82174353 L6.7884601,2.82174353 L6.7884601,6.20783576 L13.0112152,6.20783576 Z M19.7996753,6.20783576 L19.7996753,2.82174353 L13.5769202,2.82174353 L13.5769202,6.20783576 L19.7996753,6.20783576 Z" id="121324-Tot-Copy" fill="#E9E9E9"></path>
                        <path d="M6.22275509,11.8513228 L6.22275509,8.46523058 L0,8.46523058 L0,11.8513228 L6.22275509,11.8513228 Z M13.0112152,11.8513228 L13.0112152,8.46523058 L6.7884601,8.46523058 L6.7884601,11.8513228 L13.0112152,11.8513228 Z" id="121324-Tot-Copy-3" fill="#E9E9E9"></path>
                        <ellipse id="Oval-4" stroke="#E3EDC6" stroke-width="4.42225" cx="105.786837" cy="6.20783576" rx="4.01163009" ry="3.99671076"></ellipse>
                    </g>
                </g>
            </g>
        </g>
    </g>
</svg>