<svg width="14" height="14" viewBox="0 0 14 14" fill="none" xmlns="http://www.w3.org/2000/svg">
<path fill-rule="evenodd" clip-rule="evenodd" d="M7 1.90339C6.07128 0.853234 3.96973 -0.299367 0.424417 0.0706982C0.184046 0.0957885 0 0.327193 0 0.604324V11.3208C0 11.4772 0.0594658 11.6257 0.162806 11.7275C0.266145 11.8293 0.403051 11.8742 0.537627 11.8504C1.51904 11.6771 3.00555 11.5761 4.27386 11.8224C4.90874 11.9456 5.45516 12.1497 5.85318 12.4443C6.23844 12.7295 6.47025 13.086 6.53869 13.5455C6.54479 13.5914 6.55598 13.6355 6.5716 13.6769C6.62432 13.817 6.72674 13.9238 6.85069 13.9719C6.89786 13.9902 6.94815 14.0001 7 14C7.05185 14.0001 7.10214 13.9902 7.14931 13.9719C7.27531 13.9231 7.3764 13.8147 7.4284 13.6769C7.44402 13.6355 7.45521 13.5914 7.46131 13.5455C7.52975 13.086 7.76157 12.7295 8.14682 12.4443C8.54484 12.1497 9.09126 11.9456 9.72614 11.8224C10.9945 11.5761 12.481 11.6771 13.4624 11.8504C13.5969 11.8742 13.7339 11.8293 13.8372 11.7275C13.9405 11.6257 14 11.4772 14 11.3208V0.604324C14 0.327193 13.816 0.0957885 13.5756 0.0706982C10.0303 -0.299367 7.92872 0.853234 7 1.90339ZM7.46667 2.91111V11.6827C7.52315 11.6342 7.58136 11.5878 7.6411 11.5436C8.18711 11.1395 8.87152 10.9014 9.57053 10.7657C10.7466 10.5374 12.0597 10.581 13.0667 10.7099V1.10066C9.56741 0.852279 7.91558 2.22802 7.46667 2.91111ZM6.53333 2.91111C6.08442 2.22802 4.43259 0.852279 0.933333 1.10066V10.7099C1.94029 10.581 3.2534 10.5374 4.42947 10.7657C5.12848 10.9014 5.8129 11.1395 6.35891 11.5436C6.41864 11.5878 6.47685 11.6342 6.53333 11.6827V2.91111Z" fill="#A2AAB5"/>
</svg>
