<?xml version="1.0" encoding="UTF-8"?>
<svg width="172px" height="92px" viewBox="0 0 172 92" version="1.1" xmlns="http://www.w3.org/2000/svg" xmlns:xlink="http://www.w3.org/1999/xlink">
    <title>No Unique Error pic</title>
    <defs>
        <rect id="path-1" x="0" y="0" width="172" height="92"></rect>
        <mask id="mask-2" maskContentUnits="userSpaceOnUse" maskUnits="objectBoundingBox" x="0" y="0" width="172" height="92" fill="white">
            <use xlink:href="#path-1"></use>
        </mask>
    </defs>
    <g id="Page-1" stroke="none" stroke-width="1" fill="none" fill-rule="evenodd">
        <g id="AA-Uique-Errors-Settings" transform="translate(-599.000000, -358.000000)">
            <g id="No-Unique-Error-pic" transform="translate(599.000000, 358.000000)">
                <g id="Group-2" transform="translate(17.000000, 11.000000)" fill="#D8D8D8">
                    <rect id="Rectangle" stroke="#F19586" x="0.5" y="0.5" width="1" height="8"></rect>
                    <rect id="Rectangle" x="8" y="0" width="8" height="4"></rect>
                    <rect id="Rectangle" x="17" y="0" width="8" height="4"></rect>
                    <rect id="Rectangle" x="8" y="5" width="8" height="4"></rect>
                    <rect id="Rectangle" x="17" y="5" width="8" height="4"></rect>
                    <rect id="Rectangle" x="26" y="0" width="8" height="4"></rect>
                    <rect id="Rectangle" x="35" y="0" width="8" height="4"></rect>
                    <rect id="Rectangle" x="44" y="0" width="8" height="4"></rect>
                    <rect id="Rectangle" x="53" y="0" width="8" height="4"></rect>
                </g>
                <g id="Group-2" transform="translate(17.000000, 32.000000)" fill="#D8D8D8">
                    <rect id="Rectangle" stroke="#F19586" x="0.5" y="0.5" width="1" height="8"></rect>
                    <rect id="Rectangle" x="8" y="0" width="8" height="4"></rect>
                    <rect id="Rectangle" x="17" y="0" width="8" height="4"></rect>
                    <rect id="Rectangle" x="8" y="5" width="8" height="4"></rect>
                    <rect id="Rectangle" x="17" y="5" width="8" height="4"></rect>
                    <rect id="Rectangle" x="26" y="0" width="8" height="4"></rect>
                    <rect id="Rectangle" x="35" y="0" width="8" height="4"></rect>
                    <rect id="Rectangle" x="44" y="0" width="8" height="4"></rect>
                    <rect id="Rectangle" x="53" y="0" width="8" height="4"></rect>
                </g>
                <g id="Group-2" transform="translate(17.000000, 53.000000)" fill="#D8D8D8">
                    <rect id="Rectangle" stroke="#F19586" x="0.5" y="0.5" width="1" height="8"></rect>
                    <rect id="Rectangle" x="8" y="0" width="8" height="4"></rect>
                    <rect id="Rectangle" x="17" y="0" width="8" height="4"></rect>
                    <rect id="Rectangle" x="8" y="5" width="8" height="4"></rect>
                    <rect id="Rectangle" x="17" y="5" width="8" height="4"></rect>
                    <rect id="Rectangle" x="26" y="0" width="8" height="4"></rect>
                    <rect id="Rectangle" x="35" y="0" width="8" height="4"></rect>
                    <rect id="Rectangle" x="44" y="0" width="8" height="4"></rect>
                    <rect id="Rectangle" x="53" y="0" width="8" height="4"></rect>
                </g>
                <g id="Group-4" transform="translate(143.000000, 11.000000)" fill="#D8D8D8">
                    <rect id="Rectangle" x="0" y="0" width="8" height="4"></rect>
                    <rect id="Rectangle" x="9" y="0" width="8" height="4"></rect>
                </g>
                <g id="Group-4" transform="translate(143.000000, 32.000000)" fill="#D8D8D8">
                    <rect id="Rectangle" x="0" y="0" width="8" height="4"></rect>
                    <rect id="Rectangle" x="9" y="0" width="8" height="4"></rect>
                </g>
                <g id="Group-4" transform="translate(143.000000, 53.000000)" fill="#D8D8D8">
                    <rect id="Rectangle" x="0" y="0" width="8" height="4"></rect>
                    <rect id="Rectangle" x="9" y="0" width="8" height="4"></rect>
                </g>
                <rect id="Rectangle" fill="#2EA4B7" x="10" y="11" width="2" height="4"></rect>
                <rect id="Rectangle" fill="#2EA4B7" x="10" y="32" width="2" height="4"></rect>
                <rect id="Rectangle" fill="#2EA4B7" x="10" y="53" width="2" height="4"></rect>
                <g id="Group-6" transform="translate(100.000000, 11.000000)" fill="#D8D8D8">
                    <rect id="Rectangle" x="0" y="0" width="3" height="3"></rect>
                    <rect id="Rectangle" x="4" y="0" width="3" height="3"></rect>
                    <rect id="Rectangle" x="8" y="0" width="3" height="3"></rect>
                    <rect id="Rectangle" x="12" y="0" width="3" height="3"></rect>
                    <rect id="Rectangle" x="0" y="4" width="3" height="3"></rect>
                    <rect id="Rectangle" x="4" y="4" width="3" height="3"></rect>
                </g>
                <g id="Group-6" transform="translate(100.000000, 32.000000)" fill="#D8D8D8">
                    <rect id="Rectangle" x="0" y="0" width="3" height="3"></rect>
                    <rect id="Rectangle" x="4" y="0" width="3" height="3"></rect>
                    <rect id="Rectangle" x="8" y="0" width="3" height="3"></rect>
                    <rect id="Rectangle" x="12" y="0" width="3" height="3"></rect>
                    <rect id="Rectangle" x="0" y="4" width="3" height="3"></rect>
                    <rect id="Rectangle" x="4" y="4" width="3" height="3"></rect>
                </g>
                <g id="Group-6" transform="translate(100.000000, 53.000000)" fill="#D8D8D8">
                    <rect id="Rectangle" x="0" y="0" width="3" height="3"></rect>
                    <rect id="Rectangle" x="4" y="0" width="3" height="3"></rect>
                    <rect id="Rectangle" x="8" y="0" width="3" height="3"></rect>
                    <rect id="Rectangle" x="12" y="0" width="3" height="3"></rect>
                    <rect id="Rectangle" x="0" y="4" width="3" height="3"></rect>
                    <rect id="Rectangle" x="4" y="4" width="3" height="3"></rect>
                </g>
                <rect id="Rectangle" fill="#F5F5F5" x="10" y="25" width="156" height="1"></rect>
                <rect id="Rectangle" fill="#F5F5F5" x="4" y="46" width="164" height="1"></rect>
                <rect id="Rectangle" fill="#F5F5F5" x="10" y="67" width="156" height="1"></rect>
                <g id="Group-2" transform="translate(17.000000, 73.000000)" fill="#D8D8D8">
                    <rect id="Rectangle" stroke="#F19586" x="0.5" y="0.5" width="1" height="8"></rect>
                    <rect id="Rectangle" x="8" y="0" width="8" height="4"></rect>
                    <rect id="Rectangle" x="17" y="0" width="8" height="4"></rect>
                    <rect id="Rectangle" x="8" y="5" width="8" height="4"></rect>
                    <rect id="Rectangle" x="17" y="5" width="8" height="4"></rect>
                    <rect id="Rectangle" x="26" y="0" width="8" height="4"></rect>
                    <rect id="Rectangle" x="35" y="0" width="8" height="4"></rect>
                    <rect id="Rectangle" x="44" y="0" width="8" height="4"></rect>
                    <rect id="Rectangle" x="53" y="0" width="8" height="4"></rect>
                </g>
                <g id="Group-4" transform="translate(143.000000, 73.000000)" fill="#D8D8D8">
                    <rect id="Rectangle" x="0" y="0" width="8" height="4"></rect>
                    <rect id="Rectangle" x="9" y="0" width="8" height="4"></rect>
                </g>
                <rect id="Rectangle" fill="#2EA4B7" x="10" y="73" width="2" height="4"></rect>
                <g id="Group-6" transform="translate(100.000000, 73.000000)" fill="#D8D8D8">
                    <rect id="Rectangle" x="0" y="0" width="3" height="3"></rect>
                    <rect id="Rectangle" x="4" y="0" width="3" height="3"></rect>
                    <rect id="Rectangle" x="8" y="0" width="3" height="3"></rect>
                    <rect id="Rectangle" x="12" y="0" width="3" height="3"></rect>
                    <rect id="Rectangle" x="0" y="4" width="3" height="3"></rect>
                    <rect id="Rectangle" x="4" y="4" width="3" height="3"></rect>
                </g>
                <rect id="Rectangle" fill="#F5F5F5" x="10" y="67" width="156" height="1"></rect>
                <use id="Rectangle" stroke="#999999" mask="url(#mask-2)" stroke-width="0.8" stroke-dasharray="1" xlink:href="#path-1"></use>
            </g>
        </g>
    </g>
</svg>