<svg width="12" height="12" viewBox="0 0 12 12" fill="none" xmlns="http://www.w3.org/2000/svg">
    <path fill-rule="evenodd" clip-rule="evenodd" d="M6 0.289062L9.35358 3.64258C9.54884 3.83784 9.54885 4.15442 9.35359 4.34969C9.15833 4.54495 8.84175 4.54495 8.64648 4.34969L6.5 2.20326L6.5 8.99608C6.5 9.27222 6.27614 9.49608 6 9.49608C5.72386 9.49608 5.5 9.27222 5.5 8.99608L5.5 2.20328L3.35359 4.34969C3.15833 4.54496 2.84174 4.54496 2.64648 4.34969C2.45122 4.15443 2.45122 3.83785 2.64648 3.64259L6 0.289062Z" fill="#00829B"/>
    <path d="M0 11.3961C0 11.1752 0.179086 10.9961 0.4 10.9961H11.6C11.8209 10.9961 12 11.1752 12 11.3961V11.5961C12 11.817 11.8209 11.9961 11.6 11.9961H0.4C0.179086 11.9961 0 11.817 0 11.5961V11.3961Z" fill="#00829B"/>
</svg>
