<svg width="30" height="24" viewBox="0 0 30 24" fill="none" xmlns="http://www.w3.org/2000/svg">
<path d="M15.2929 18.7071L19.9999 13.9999L15.2929 9.29289C14.9024 8.90237 14.2692 8.90237 13.8787 9.29289C13.4881 9.68342 13.4881 10.3166 13.8787 10.7071L16.1715 12.9999H1C0.447716 12.9999 2.41411e-08 13.4477 0 13.9999C-2.41412e-08 14.5522 0.447716 14.9999 1 14.9999H16.1715L13.8787 17.2929C13.4881 17.6834 13.4881 18.3166 13.8787 18.7071C14.2692 19.0976 14.9024 19.0976 15.2929 18.7071Z" fill="#A2AAB5"/>
<path d="M4 0C2.89543 0 2 0.895431 2 2V10C2 10.5523 2.44772 11 3 11C3.55228 11 4 10.5523 4 10V2H10.6492L15.1014 5.56174C15.456 5.84544 15.8966 6 16.3508 6H28V22H4V18C4 17.4477 3.55228 17 3 17C2.44772 17 2 17.4477 2 18V22C2 23.1046 2.89543 24 4 24H28C29.1046 24 30 23.1046 30 22V6C30 4.89543 29.1046 4 28 4H16.3508L11.8986 0.438262C11.544 0.154562 11.1034 0 10.6492 0H4Z" fill="#A2AAB5"/>
</svg>
