<svg xmlns="http://www.w3.org/2000/svg" width="20" height="20" fill="none" viewBox="0 0 20 20">
    <path fill="#CFCFCF" fill-rule="evenodd" d="M10 20c5.523 0 10-4.477 10-10S15.523 0 10 0 0 4.477 0 10s4.477 10 10 10Zm0-2.006a7.994 7.994 0 1 1 0-15.988 7.994 7.994 0 0 1 0 15.988ZM8.278 5.424C8.792 5.14 9.394 5 10.08 5c.638 0 1.202.118 1.69.353s.867.556 1.133.961c.267.406.398.846.398 1.32 0 .375-.074.703-.227.985a3.048 3.048 0 0 1-.54.73c-.21.204-.586.549-1.127 1.033-.15.137-.271.256-.36.36-.09.104-.159.198-.202.284a1.42 1.42 0 0 0-.102.258c-.024.087-.06.237-.11.453-.083.458-.345.687-.785.687a.802.802 0 0 1-.578-.225c-.156-.15-.235-.371-.235-.667 0-.37.057-.69.172-.961.114-.271.267-.508.456-.713.189-.205.445-.449.766-.73.282-.247.485-.433.61-.558.127-.126.233-.265.317-.42a1 1 0 0 0 .13-.501c0-.352-.132-.65-.394-.892-.261-.241-.6-.363-1.014-.363-.483 0-.84.123-1.07.367-.228.244-.422.604-.58 1.08-.15.497-.434.746-.852.746a.838.838 0 0 1-.624-.261c-.17-.174-.253-.362-.253-.564 0-.418.135-.843.404-1.272.269-.43.66-.785 1.175-1.067Zm.93 7.885a.98.98 0 0 1 .715-.284.95.95 0 0 1 .7.284.95.95 0 0 1 .282.7c0 .309-.098.55-.296.726a1.005 1.005 0 0 1-.686.265c-.269 0-.504-.087-.704-.26-.201-.175-.302-.418-.302-.731 0-.278.097-.51.292-.7Z" clip-rule="evenodd"/>
</svg>
