<svg width="16" height="16" viewBox="0 0 16 16" fill="none" xmlns="http://www.w3.org/2000/svg">
    <path fill-rule="evenodd" clip-rule="evenodd" d="M1.5 9.49996C1.77614 9.49996 2 9.72381 2 9.99996V13.1666C2 13.3876 2.0878 13.5996 2.24408 13.7559C2.40036 13.9122 2.61232 14 2.83333 14H13.1667C13.3877 14 13.5996 13.9122 13.7559 13.7559C13.9122 13.5996 14 13.3876 14 13.1666V9.99996C14 9.72381 14.2239 9.49996 14.5 9.49996C14.7761 9.49996 15 9.72381 15 9.99996V13.1666C15 13.6529 14.8068 14.1192 14.463 14.463C14.1192 14.8068 13.6529 15 13.1667 15H2.83333C2.3471 15 1.88079 14.8068 1.53697 14.463C1.19315 14.1192 1 13.6529 1 13.1666V9.99996C1 9.72381 1.22386 9.49996 1.5 9.49996Z" fill="#00829B"/>
    <path d="M8.06468 10.4958C7.91608 10.5151 7.76047 10.4677 7.64632 10.3535L4.64632 7.35351C4.45106 7.15825 4.45106 6.84167 4.64632 6.64641C4.84159 6.45114 5.15817 6.45114 5.35343 6.64641L7.49997 8.79294L7.49997 2C7.49997 1.72386 7.72382 1.5 7.99997 1.5C8.27611 1.5 8.49997 1.72386 8.49997 2L8.49997 8.79276L10.6463 6.6464C10.8416 6.45114 11.1582 6.45114 11.3534 6.6464C11.5487 6.84166 11.5487 7.15825 11.3534 7.35351L8.35771 10.3492C8.34333 10.364 8.32804 10.3778 8.31194 10.3907C8.23878 10.4493 8.15296 10.4843 8.06468 10.4958Z" fill="#00829B"/>
</svg>
