<svg xmlns="http://www.w3.org/2000/svg" xmlns:xlink="http://www.w3.org/1999/xlink" width="20" height="20" viewBox="0 0 20 20">
  <defs>
    <path id="ic_list-view-a" d="M0,14 L14,14 L14,12 L0,12 L0,14 Z M0,4 L0,10 L3,7 L0,4 Z M6,11 L14,11 L14,9 L6,9 L6,11 Z M0,0 L0,2 L14,2 L14,0 L0,0 Z M6,5 L14,5 L14,3 L6,3 L6,5 Z M6,8 L14,8 L14,6 L6,6 L6,8 Z"/>
  </defs>
  <g fill="none" fill-rule="evenodd">
    <rect width="20" height="20"/>
    <g transform="translate(3 3)">
      <mask id="ic_list-view-b" fill="#fff">
        <use xlink:href="#ic_list-view-a"/>
      </mask>
      <use fill="#464547" xlink:href="#ic_list-view-a"/>
      <g mask="url(#ic_list-view-b)">
        <rect width="30" height="30" transform="translate(-8 -8)"/>
      </g>
    </g>
  </g>
</svg>
