<?xml version="1.0" encoding="UTF-8"?>
<svg width="19px" height="17px" viewBox="0 0 19 17" version="1.1" xmlns="http://www.w3.org/2000/svg" xmlns:xlink="http://www.w3.org/1999/xlink">
    <!-- Generator: Sketch 55.1 (78136) - https://sketchapp.com -->
    <desc>Created with Sketch.</desc>
    <g id="Page-1" stroke-width="1" fill-rule="evenodd">
        <g id="Launch_attachment" transform="translate(-162.000000, -210.000000)">
            <g id="Group-3" transform="translate(118.000000, 206.000000)">
                <g id="Group-8" transform="translate(44.000000, 5.000000)">
                    <path d="M6,5 L6,2 C6,0.8954305 6.8954305,0 8,0 L8,0 L12.8716966,0 C13.3994882,0 13.905884,0.208626107 14.280509,0.580405781 L17.4088124,3.68494958 C17.7871877,4.06045115 18,4.57146845 18,5.1045438 L18,13 C18,14.1045695 17.1045695,15 16,15 L7.00004158,15 C6.44773387,15 6,14.5523077 6,14 C6,14 6,14 6,14" id="Path" fill="none" stroke-width="2"></path>
                    <path d="M13.7272727,0 L13.7272727,4 C13.7272727,5.1045695 14.6227032,6 15.7272727,6 L18.7272727,6 L13.7272727,0 Z" id="Path-7" stroke="none" ></path>
                    <text id="LOG" font-family="OpenSans, Open Sans" font-size="7" font-weight="600" stroke="none">
                        <tspan x="0" y="12">LOG</tspan>
                    </text>
                </g>
            </g>
        </g>
    </g>
</svg>
