<svg width="148" height="31" viewBox="0 0 148 31" fill="none" xmlns="http://www.w3.org/2000/svg">
<path d="M1.45215 18.4086L1.45215 22.7728C1.45215 23.1013 1.63387 23.4049 1.92885 23.5691L15.0118 30.8536C15.3068 31.0178 15.6702 31.0178 15.9652 30.8536L29.0481 23.5691C29.3431 23.4049 29.5248 23.1013 29.5248 22.7728V16.9057L15.4885 24.7489L7.17254 20.1186L7.17254 15.2236L1.45215 18.4086Z" fill="#009BB9"/>
<path d="M15.4885 6.22788L23.8044 10.8581V15.8268L29.5248 12.6418V8.20391C29.5248 7.87542 29.3431 7.57189 29.0481 7.40764L15.9652 0.123184C15.6702 -0.0410613 15.3068 -0.0410613 15.0118 0.123184L1.92885 7.40764C1.63387 7.57189 1.45215 7.87542 1.45215 8.20391L1.45215 14.1728L15.4885 6.22788Z" fill="#009BB9"/>
<path fill-rule="evenodd" clip-rule="evenodd" d="M138.411 7.31396V20.2742H141.116V7.31396H138.411ZM113.178 10.8772V20.2743H115.884V15.8377C115.884 14.9411 116.109 14.2832 116.56 13.864C117.022 13.4331 117.624 13.2177 118.364 13.2177C118.468 13.2177 118.566 13.2235 118.658 13.2352C118.751 13.2352 118.855 13.241 118.97 13.2527V10.7375C118.092 10.7375 117.346 10.9121 116.733 11.2615C116.341 11.4778 116.017 11.761 115.762 12.1111V10.8772H113.178ZM107.022 20.414C106.028 20.414 105.143 20.2044 104.368 19.7852C103.605 19.366 102.998 18.7954 102.548 18.0735C102.108 17.3399 101.889 16.5073 101.889 15.5757C101.889 14.6325 102.108 13.7999 102.548 13.078C102.998 12.3444 103.605 11.7738 104.368 11.3663C105.143 10.9471 106.028 10.7375 107.022 10.7375C108.005 10.7375 108.883 10.9471 109.658 11.3663C110.432 11.7738 111.039 12.3386 111.479 13.0605C111.918 13.7825 112.138 14.6209 112.138 15.5757C112.138 16.5073 111.918 17.3399 111.479 18.0735C111.039 18.7954 110.432 19.366 109.658 19.7852C108.883 20.2044 108.005 20.414 107.022 20.414ZM107.022 18.1783C107.473 18.1783 107.877 18.0735 108.236 17.8639C108.594 17.6543 108.877 17.3573 109.086 16.9731C109.294 16.5772 109.398 16.1114 109.398 15.5757C109.398 15.0284 109.294 14.5627 109.086 14.1784C108.877 13.7941 108.594 13.4972 108.236 13.2876C107.877 13.078 107.473 12.9732 107.022 12.9732C106.571 12.9732 106.166 13.078 105.808 13.2876C105.449 13.4972 105.16 13.7941 104.941 14.1784C104.733 14.5627 104.629 15.0284 104.629 15.5757C104.629 16.1114 104.733 16.5772 104.941 16.9731C105.16 17.3573 105.449 17.6543 105.808 17.8639C106.166 18.0735 106.571 18.1783 107.022 18.1783ZM94.6568 19.89C95.2465 20.2393 95.9344 20.414 96.7206 20.414C97.5993 20.414 98.3854 20.216 99.0791 19.8201C99.7844 19.4242 100.339 18.8653 100.744 18.1433C101.16 17.4214 101.368 16.5655 101.368 15.5757C101.368 14.5976 101.16 13.7475 100.744 13.0256C100.339 12.3036 99.7844 11.7447 99.0791 11.3488C98.3854 10.9412 97.5993 10.7375 96.7206 10.7375C95.8997 10.7375 95.1945 10.9121 94.6048 11.2615C94.2948 11.4452 94.0231 11.6788 93.7897 11.9623V10.8772H91.2057V23.6628H93.9111V19.2794C94.1317 19.5226 94.3803 19.7262 94.6568 19.89ZM97.4489 17.8639C97.1021 18.0735 96.7032 18.1783 96.2523 18.1783C95.8014 18.1783 95.3968 18.0735 95.0384 17.8639C94.68 17.6543 94.3967 17.3573 94.1886 16.9731C93.9805 16.5772 93.8764 16.1114 93.8764 15.5757C93.8764 15.0284 93.9805 14.5627 94.1886 14.1784C94.3967 13.7941 94.68 13.4972 95.0384 13.2876C95.3968 13.078 95.8014 12.9732 96.2523 12.9732C96.7032 12.9732 97.1021 13.078 97.4489 13.2876C97.8074 13.4972 98.0906 13.7941 98.2987 14.1784C98.5184 14.5627 98.6282 15.0284 98.6282 15.5757C98.6282 16.1114 98.5184 16.5772 98.2987 16.9731C98.0906 17.3573 97.8074 17.6543 97.4489 17.8639ZM131.024 20.414C131.81 20.414 132.498 20.2393 133.087 19.89C133.364 19.7262 133.612 19.5226 133.833 19.2794V20.283H136.538V10.8772H133.954V11.9623C133.721 11.6788 133.449 11.4452 133.139 11.2615C132.55 10.9121 131.844 10.7375 131.024 10.7375C130.145 10.7375 129.359 10.9412 128.665 11.3488C127.96 11.7447 127.405 12.3036 127 13.0256C126.584 13.7475 126.376 14.5976 126.376 15.5757C126.376 16.5655 126.584 17.4214 127 18.1433C127.405 18.8653 127.96 19.4242 128.665 19.8201C129.359 20.216 130.145 20.414 131.024 20.414ZM131.492 18.1783C131.041 18.1783 130.642 18.0735 130.295 17.8639C129.937 17.6543 129.653 17.3573 129.445 16.9731C129.226 16.5772 129.116 16.1114 129.116 15.5757C129.116 15.0284 129.226 14.5627 129.445 14.1784C129.653 13.7941 129.937 13.4972 130.295 13.2876C130.642 13.078 131.041 12.9732 131.492 12.9732C131.943 12.9732 132.347 13.078 132.706 13.2876C133.064 13.4972 133.347 13.7941 133.555 14.1784C133.764 14.5627 133.868 15.0284 133.868 15.5757C133.868 16.1114 133.764 16.5772 133.555 16.9731C133.347 17.3573 133.064 17.6543 132.706 17.8639C132.347 18.0735 131.943 18.1783 131.492 18.1783ZM58.6017 19.89C59.1913 20.2393 59.8792 20.414 60.6654 20.414C61.5441 20.414 62.3302 20.216 63.0239 19.8201C63.7292 19.4242 64.2841 18.8653 64.6888 18.1433C65.105 17.4214 65.3131 16.5655 65.3131 15.5757C65.3131 14.5976 65.105 13.7475 64.6888 13.0256C64.2841 12.3036 63.7292 11.7447 63.0239 11.3488C62.3302 10.9412 61.5441 10.7375 60.6654 10.7375C59.8445 10.7375 59.1393 10.9121 58.5496 11.2615C58.2396 11.4452 57.9679 11.6788 57.7345 11.9623V10.8772H55.1505V23.6628H57.8559V19.2794C58.0765 19.5226 58.3251 19.7262 58.6017 19.89ZM61.3938 17.8639C61.0469 18.0735 60.648 18.1783 60.1971 18.1783C59.7462 18.1783 59.3416 18.0735 58.9832 17.8639C58.6248 17.6543 58.3415 17.3573 58.1334 16.9731C57.9253 16.5772 57.8212 16.1114 57.8212 15.5757C57.8212 15.0284 57.9253 14.5627 58.1334 14.1784C58.3415 13.7941 58.6248 13.4972 58.9832 13.2876C59.3416 13.078 59.7462 12.9732 60.1971 12.9732C60.648 12.9732 61.0469 13.078 61.3938 13.2876C61.7522 13.4972 62.0354 13.7941 62.2435 14.1784C62.4632 14.5627 62.573 15.0284 62.573 15.5757C62.573 16.1114 62.4632 16.5772 62.2435 16.9731C62.0354 17.3573 61.7522 17.6543 61.3938 17.8639ZM87.5459 20.414C86.4476 20.414 85.592 20.1345 84.9793 19.5756C84.3665 19.005 84.0601 18.1608 84.0601 17.0429V13.2526V11.1566V8.79862H86.7655V11.1566H89.7831V13.2526H86.7655V17.008C86.7655 17.4039 86.8696 17.7125 87.0777 17.9337C87.2858 18.1433 87.5691 18.2481 87.9275 18.2481H89.7831V20.414H87.5459ZM121.017 19.5756C121.63 20.1345 122.485 20.414 123.584 20.414H125.821V18.2481H123.965C123.607 18.2481 123.323 18.1433 123.115 17.9337C122.907 17.7125 122.803 17.4039 122.803 17.008V13.2526H125.821V11.1566H122.803V8.79862H120.098V11.1566V13.2526V17.0429C120.098 18.1608 120.404 19.005 121.017 19.5756ZM77.1406 20.2743V10.8772H79.7246V12.1111C79.9795 11.761 80.3032 11.4778 80.6957 11.2615C81.3085 10.9121 82.0542 10.7375 82.9329 10.7375V13.2527C82.8173 13.241 82.7132 13.2352 82.6207 13.2352C82.5282 13.2235 82.43 13.2177 82.3259 13.2177C81.586 13.2177 80.9848 13.4331 80.5223 13.864C80.0714 14.2832 79.8459 14.9411 79.8459 15.8377V20.2743H77.1406ZM68.3158 19.7852C69.0904 20.2044 69.9749 20.414 70.9692 20.414C71.9519 20.414 72.8306 20.2044 73.6052 19.7852C74.3798 19.366 74.9868 18.7954 75.4261 18.0735C75.8655 17.3399 76.0851 16.5073 76.0851 15.5757C76.0851 14.6209 75.8655 13.7825 75.4261 13.0605C74.9868 12.3386 74.3798 11.7738 73.6052 11.3663C72.8306 10.9471 71.9519 10.7375 70.9692 10.7375C69.9749 10.7375 69.0904 10.9471 68.3158 11.3663C67.5527 11.7738 66.9458 12.3444 66.4949 13.078C66.0555 13.7999 65.8358 14.6325 65.8358 15.5757C65.8358 16.5073 66.0555 17.3399 66.4949 18.0735C66.9458 18.7954 67.5527 19.366 68.3158 19.7852ZM72.1831 17.8639C71.8247 18.0735 71.4201 18.1783 70.9692 18.1783C70.5183 18.1783 70.1136 18.0735 69.7552 17.8639C69.3968 17.6543 69.1078 17.3573 68.8881 16.9731C68.68 16.5772 68.5759 16.1114 68.5759 15.5757C68.5759 15.0284 68.68 14.5627 68.8881 14.1784C69.1078 13.7941 69.3968 13.4972 69.7552 13.2876C70.1136 13.078 70.5183 12.9732 70.9692 12.9732C71.4201 12.9732 71.8247 13.078 72.1831 13.2876C72.5415 13.4972 72.8248 13.7941 73.0329 14.1784C73.241 14.5627 73.3451 15.0284 73.3451 15.5757C73.3451 16.1114 73.241 16.5772 73.0329 16.9731C72.8248 17.3573 72.5415 17.6543 72.1831 17.8639ZM49.4428 20.414C48.3791 20.414 47.4426 20.2044 46.6333 19.7852C45.8356 19.366 45.217 18.7954 44.7777 18.0735C44.3384 17.3399 44.1187 16.5073 44.1187 15.5757C44.1187 14.6325 44.3326 13.7999 44.7604 13.078C45.1997 12.3444 45.7951 11.7738 46.5466 11.3663C47.2981 10.9471 48.1479 10.7375 49.0959 10.7375C50.0093 10.7375 50.8302 10.9354 51.5585 11.3313C52.2985 11.7156 52.8823 12.2745 53.3101 13.0081C53.7379 13.7301 53.9518 14.5976 53.9518 15.6107C53.9518 15.7155 53.946 15.8377 53.9344 15.9775C53.9229 16.1055 53.9113 16.2278 53.8998 16.3443H46.8404C46.8949 16.5944 46.9819 16.8273 47.1016 17.0429C47.3328 17.4272 47.6507 17.7241 48.0554 17.9337C48.4716 18.1317 48.9572 18.2307 49.5122 18.2307C50.0093 18.2307 50.4429 18.155 50.8128 18.0036C51.1944 17.8522 51.5412 17.6252 51.8534 17.3224L53.2928 18.8944C52.865 19.3835 52.3274 19.7619 51.6799 20.0297C51.0325 20.2859 50.2868 20.414 49.4428 20.414ZM47.0669 13.9688C46.9401 14.2017 46.8542 14.4637 46.8092 14.7548H51.4038C51.36 14.4588 51.2728 14.1909 51.1423 13.9513C50.9458 13.5903 50.6741 13.3109 50.3272 13.1129C49.9804 12.9033 49.5757 12.7985 49.1133 12.7985C48.6508 12.7985 48.2404 12.9033 47.882 13.1129C47.5351 13.3109 47.2634 13.5962 47.0669 13.9688ZM40.4444 12.1111C40.6993 11.761 41.023 11.4778 41.4155 11.2615C42.0283 10.9121 42.774 10.7375 43.6527 10.7375V13.2527C43.5371 13.241 43.433 13.2352 43.3405 13.2352C43.248 13.2235 43.1498 13.2177 43.0457 13.2177C42.3058 13.2177 41.7046 13.4331 41.2421 13.864C40.7912 14.2832 40.5657 14.9411 40.5657 15.8377V20.2743H37.8604V10.8772H40.4444V12.1111Z" fill="#323C5C"/>
</svg>
