<svg width="27" height="27" viewBox="0 0 27 27" fill="none" xmlns="http://www.w3.org/2000/svg">
<path fill-rule="evenodd" clip-rule="evenodd" d="M12.1494 1.34766C18.114 1.34766 22.95 6.18294 22.9502 12.1475C22.9502 14.4189 22.2466 16.5254 21.0488 18.2646C21.1639 18.3259 21.2722 18.405 21.3691 18.502L25.7656 22.8994C26.2928 23.4266 26.2928 24.2814 25.7656 24.8086L24.8115 25.7627C24.2843 26.2899 23.4296 26.2899 22.9023 25.7627L18.5049 21.3662C18.4079 21.2693 18.3289 21.1609 18.2676 21.0459C16.5282 22.2441 14.4213 22.9482 12.1494 22.9482C6.18491 22.948 1.34961 18.112 1.34961 12.1475C1.3498 6.18307 6.18503 1.34786 12.1494 1.34766ZM12.1494 5.39746C8.42178 5.39767 5.3996 8.41983 5.39941 12.1475C5.39941 15.8753 8.42167 18.8973 12.1494 18.8975C15.8773 18.8975 18.8994 15.8754 18.8994 12.1475C18.8992 8.4197 15.8772 5.39746 12.1494 5.39746ZM11.1953 9.05273C11.7225 8.52553 12.5773 8.52553 13.1045 9.05273L15.2461 11.1934C15.7729 11.7205 15.773 12.5754 15.2461 13.1025L13.1045 15.2432C12.5773 15.7702 11.7225 15.7703 11.1953 15.2432L9.05469 13.1025C8.52752 12.5754 8.5276 11.7206 9.05469 11.1934L11.1953 9.05273Z" fill="url(#paint0_linear_18299_12691)"/>
<defs>
<linearGradient id="paint0_linear_18299_12691" x1="13.7553" y1="1.34766" x2="13.7553" y2="26.1581" gradientUnits="userSpaceOnUse">
<stop stop-color="#1A9CB0" stop-opacity="0.5"/>
<stop offset="1" stop-color="#1A9CB0"/>
</linearGradient>
</defs>
</svg>
