<svg width="13" height="14" viewBox="0 0 13 14" fill="none" xmlns="http://www.w3.org/2000/svg">
<path fill-rule="evenodd" clip-rule="evenodd" d="M8 1C8 0.723858 8.22386 0.5 8.5 0.5H12.5C12.7761 0.5 13 0.723858 13 1V4.99999C13 5.27613 12.7761 5.49999 12.5 5.49999C12.2239 5.49999 12 5.27613 12 4.99999V2.20711L7.35355 6.85355C7.15829 7.04882 6.84171 7.04882 6.64645 6.85355C6.45118 6.65829 6.45118 6.34171 6.64645 6.14645L11.2929 1.5H8.5C8.22386 1.5 8 1.27614 8 1ZM2.33105 3.5C1.55861 3.5 1 3.93872 1 4.65174V11.3483C1 12.0613 1.55861 12.5 2.33105 12.5H9C9.77244 12.5 10 12.213 10 11.5V7.90001C10 7.6791 10.1791 7.50001 10.4 7.50001H10.6C10.8209 7.50001 11 7.6791 11 7.90001V11.5C11 12.5 10.3311 13.5 9 13.5H2.33105C1 13.5 0 12.5 0 11.3483L0 4.65174C0 3.5 1 2.5 2.33105 2.5H6.1C6.32091 2.5 6.5 2.67909 6.5 2.9V3.1C6.5 3.32091 6.32091 3.5 6.1 3.5H2.33105Z" fill="#C1C7D0"/>
</svg>
