<?xml version="1.0" encoding="UTF-8"?>
<svg width="30px" height="20px" viewBox="0 0 30 20" version="1.1" xmlns="http://www.w3.org/2000/svg" xmlns:xlink="http://www.w3.org/1999/xlink">
    <!-- Generator: Sketch 55.1 (78136) - https://sketchapp.com -->
    <desc>Created with Sketch.</desc>
    <g id="PA-Icon" stroke="none" stroke-width="1" fill-rule="evenodd">
        <g>
            <rect id="Combined-Shape-Copy-3" stroke="#CCCCCC" x="0.5" y="0.5" width="29" height="19" rx="9.5"></rect>
            <path d="M14.2358398,8.52148438 C14.2358398,9.34147545 13.9672878,9.96988714 13.4301758,10.4067383 C12.8930637,10.8435894 12.1285857,11.0620117 11.1367188,11.0620117 L10.3203125,11.0620117 L10.3203125,14 L9.03662109,14 L9.03662109,6.14746094 L11.2978516,6.14746094 C12.2789763,6.14746094 13.0139136,6.34797977 13.5026855,6.74902344 C13.9914575,7.15006711 14.2358398,7.74088151 14.2358398,8.52148438 Z M10.3203125,9.98242188 L11.0024414,9.98242188 C11.6612989,9.98242188 12.1446925,9.86783969 12.4526367,9.63867188 C12.760581,9.40950406 12.9145508,9.05143473 12.9145508,8.56445312 C12.9145508,8.11327899 12.7766941,7.77669382 12.5009766,7.5546875 C12.225259,7.33268118 11.7955758,7.22167969 11.2119141,7.22167969 L10.3203125,7.22167969 L10.3203125,9.98242188 Z M20.6757812,14 L19.8916016,11.8193359 L16.8891602,11.8193359 L16.1210938,14 L14.7675781,14 L17.7055664,6.11523438 L19.1020508,6.11523438 L22.0400391,14 L20.6757812,14 Z M19.5532227,10.7128906 L18.8173828,8.57519531 C18.7636716,8.43196543 18.6893722,8.20638175 18.5944824,7.8984375 C18.4995926,7.59049325 18.434245,7.36490957 18.3984375,7.22167969 C18.3017573,7.66211158 18.1603199,8.14371483 17.9741211,8.66650391 L17.2651367,10.7128906 L19.5532227,10.7128906 Z" id="PA" fill="#464547" fill-rule="nonzero"></path>
        </g>
    </g>
</svg>
