<svg xmlns="http://www.w3.org/2000/svg" xmlns:xlink="http://www.w3.org/1999/xlink" width="20" height="20" viewBox="0 0 20 20">
  <g fill="#1A9CB0" fill-rule="evenodd" transform="translate(3 1)">
    <path d="M7,12.9732812 C7.825,12.9732812 8.5,12.2982812 8.5,11.4732812 C8.5,10.6482812 7.825,9.97328117 7,9.97328117 C6.175,9.97328117 5.5,10.6482812 5.5,11.4732812 C5.5,12.2982812 6.175,12.9732812 7,12.9732812 L7,12.9732812 Z M11.0143433,6.00214481 L11.0143433,3.97096181 C11.0143433,1.86810467 9.50860596,1.24784936e-15 7,8.15320034e-16 C4.02770996,1.24784936e-15 3.00689697,2.44732854 3.00689697,4.55018568 L4.95825195,4.55018568 C4.95825195,3.24732854 5.37896729,1.95881581 7,1.95881581 C8.08380127,1.95881581 9.03637695,2.66810467 9.03637695,3.97096181 L9.03637695,6.00214481 L1.5,6.00214498 C0.675,6.00214498 1.11022302e-16,6.68785927 1.11022302e-16,7.52595451 L1.13686838e-13,15.4494716 C1.13686838e-13,16.2875669 0.675,16.9732812 1.5,16.9732812 L12.5,16.9732812 C13.325,16.9732812 14,16.2875669 14,15.4494716 L14,7.52595451 C14,6.68785927 13.325,6.00214498 12.5,6.00214498 L11.0143433,6.00214481 Z M2,14.9732812 L2,7.97328117 L12,7.97328117 L12,14.9732812 L2,14.9732812 Z"/>
  </g>
</svg>
