<svg xmlns="http://www.w3.org/2000/svg" width="20" height="14" viewBox="0 0 20 14">
    <path fill="#1A9CB0" fill-rule="evenodd" d="M17.91 2.143C17.91.959 17.157 0 16.07 0c-1.085 0-1.855.959-1.855 2.143 0 1.184.77 2.143 1.855 2.143 1.086 0 1.839-.96 1.839-2.143zm-5.347 4.43c.794-.809 2.521-1.216 3.508-1.216C17.383 5.357 20 6.075 20 7.5v1.786h-2.313c-.64-1.383-2.974-2.29-5.124-2.713zm-5.126 0c-2.15.424-4.483 1.33-5.124 2.713H0V7.5c0-1.425 2.617-2.143 3.929-2.143.987 0 2.714.407 3.508 1.216zm-1.622-4.43c0 1.184-.801 2.143-1.886 2.143-1.086 0-1.88-.96-1.88-2.143C2.05.959 2.844 0 3.93 0c1.085 0 1.886.959 1.886 2.143zM10 6.429A3.213 3.213 0 1 1 10 0a3.213 3.213 0 1 1 0 6.429zM3.571 11.25c0-2.137 4.283-3.214 6.429-3.214s6.429 1.077 6.429 3.214v1.755H3.57V11.25z"/>
</svg>
