<svg width="20" height="20" viewBox="0 0 20 20" fill="none" xmlns="http://www.w3.org/2000/svg">
<rect width="20" height="3.33333" rx="1" fill="#1A9CB0"/>
<path fill-rule="evenodd" clip-rule="evenodd" d="M1.11108 5.55554H18.8889V11.1111H15.0933C14.236 9.14899 12.2781 7.77778 10 7.77778C7.72187 7.77778 5.76401 9.14899 4.90672 11.1111H1.11108V5.55554ZM4.90671 11.1111H1.11111C1.11111 16.0203 5.0908 20 10 20C14.9092 20 18.8889 16.0203 18.8889 11.1111H15.0933C15.3906 11.7916 15.5556 12.5432 15.5556 13.3333C15.5556 16.4016 13.0682 18.8889 10 18.8889C6.93175 18.8889 4.44444 16.4016 4.44444 13.3333C4.44444 12.5432 4.60939 11.7916 4.90671 11.1111Z" fill="#1A9CB0"/>
<path fill-rule="evenodd" clip-rule="evenodd" d="M10.0001 16.6667C11.841 16.6667 13.3334 15.1743 13.3334 13.3333C13.3334 11.4924 11.841 10 10.0001 10C8.15913 10 6.66675 11.4924 6.66675 13.3333C6.66675 15.1743 8.15913 16.6667 10.0001 16.6667ZM10.0001 14.4444C10.6138 14.4444 11.1112 13.947 11.1112 13.3333C11.1112 12.7197 10.6138 12.2222 10.0001 12.2222C9.38647 12.2222 8.88901 12.7197 8.88901 13.3333C8.88901 13.947 9.38647 14.4444 10.0001 14.4444Z" fill="#1A9CB0"/>
</svg>
