<svg width="17px" height="16px" viewBox="0 0 17 16" version="1.1" xmlns="http://www.w3.org/2000/svg" xmlns:xlink="http://www.w3.org/1999/xlink">
    <g transform="translate(-19, -7)">
        <path fill="#1A9CB0" fill-rule="evenodd" d="M33.6528779,15.78 C33.6857672,15.524 33.7104341,15.264 33.7104341,15 C33.7104341,14.736 33.6857672,14.476 33.6528779,14.22 L35.3918971,12.896 C35.548121,12.776 35.5933438,12.56 35.4905649,12.384 L33.8461023,9.612 C33.7433234,9.44 33.5295432,9.368 33.3445412,9.44 L31.2971853,10.244 C30.8737362,9.928 30.4091755,9.66 29.9076144,9.456 L29.5992777,7.336 C29.5622773,7.148 29.3937199,7 29.1881621,7 L25.8992369,7 C25.6936791,7 25.5251217,7.148 25.4922324,7.336 L25.1838957,9.456 C24.6823346,9.66 24.2177739,9.924 23.7943248,10.244 L21.7469689,9.44 C21.5619669,9.372 21.3481867,9.44 21.2454078,9.612 L19.6009453,12.384 C19.4981663,12.556 19.5433891,12.772 19.699613,12.896 L21.434521,14.22 C21.4016318,14.476 21.3769648,14.736 21.3769648,15 C21.3769648,15.264 21.4016318,15.524 21.434521,15.78 L19.699613,17.104 C19.5433891,17.224 19.4981663,17.44 19.6009453,17.616 L21.2454078,20.388 C21.3481867,20.56 21.5619669,20.632 21.7469689,20.56 L23.7943248,19.756 C24.2177739,20.072 24.6823346,20.34 25.1838957,20.544 L25.4922324,22.664 C25.5251217,22.852 25.6936791,23 25.8992369,23 L29.1881621,23 C29.3937199,23 29.5622773,22.852 29.5951665,22.664 L29.9035033,20.544 C30.4050644,20.34 30.869625,20.076 31.2930741,19.756 L33.34043,20.56 C33.5254321,20.628 33.7392122,20.56 33.8419911,20.388 L35.4864537,17.616 C35.5892326,17.444 35.5440099,17.228 35.3877859,17.104 L33.6528779,15.78 L33.6528779,15.78 Z M27.5436995,17.8 C25.9526819,17.8 24.66589,16.548 24.66589,15 C24.66589,13.452 25.9526819,12.2 27.5436995,12.2 C29.134717,12.2 30.421509,13.452 30.421509,15 C30.421509,16.548 29.134717,17.8 27.5436995,17.8 L27.5436995,17.8 Z">
        </path>
    </g>
</svg>
