<svg xmlns="http://www.w3.org/2000/svg" width="20" height="20" viewBox="0 0 20 20">
  <path fill-rule="evenodd" d="M6.52143322,5.79548129 L1,11.2899506 L6.52143322,16.7844199 L12.0428664,11.2899506 L6.52143322,5.79548129 L6.52143322,5.79548129 Z M3.4052504,11.2899506 L6.51717614,8.19322193 L9.63335895,11.2899506 L6.52143322,14.3866792 L3.4052504,11.2899506 L3.4052504,11.2899506 Z M16.7554544,5.98187809 C15.2569621,4.49493999 13.2987051,3.74935279 11.3361911,3.74935279 L11.3361911,1 L7.72192988,4.59661097 L11.3361911,8.18898564 L11.3361911,5.44386915 C12.8602259,5.44386915 14.3885177,6.024241 15.5507006,7.18074841 C17.8793236,9.49799953 17.8793236,13.2513533 15.5507006,15.5686044 C14.3885177,16.7251122 12.8602259,17.3054836 11.3361911,17.3054836 C10.5103175,17.3054836 9.688701,17.1317957 8.92242654,16.7928929 L7.65381659,18.0553071 C8.79471413,18.6822782 10.0633241,19 11.3361911,19 C13.2987051,19 15.2569621,18.2544137 16.7554544,16.7674747 C19.7481819,13.7893622 19.7481819,8.95999059 16.7554544,5.98187809 L16.7554544,5.98187809 Z"/>
</svg>
