<svg xmlns="http://www.w3.org/2000/svg" xmlns:xlink="http://www.w3.org/1999/xlink" width="16" height="16" viewBox="0 0 16 16">
  <path fill-rule="evenodd" id="ic_search-a" d="M11.4351058,10.0628931 L10.707833,10.0628931 L10.4562607,9.81132075 C11.352773,8.77301315 11.89251,7.42367067 11.89251,5.946255 C11.89251,2.66209262 9.23041738,0 5.946255,0 C2.66209262,0 0,2.66209262 0,5.946255 C0,9.23041738 2.66209262,11.89251 5.946255,11.89251 C7.42367067,11.89251 8.77301315,11.352773 9.81132075,10.4608348 L10.0628931,10.7124071 L10.0628931,11.4351058 L14.6369354,16 L16,14.6369354 L11.4351058,10.0628931 L11.4351058,10.0628931 Z M1.82961692,5.946255 C1.82961692,3.67295597 3.67295597,1.82961692 5.946255,1.82961692 C8.21955403,1.82961692 10.0628931,3.67295597 10.0628931,5.946255 C10.0628931,8.21955403 8.21955403,10.0628931 5.946255,10.0628931 C3.67295597,10.0628931 1.82961692,8.21955403 1.82961692,5.946255 Z"/>
</svg>
