<svg xmlns="http://www.w3.org/2000/svg" width="14" height="14" viewBox="0 0 14 14">
  <path fill-rule="evenodd" d="M12 6C12 7.47663 11.4666 8.82867 10.5819 9.87395L11.3288 10.6208C11.663 10.5307 12.0348 10.6168 12.2971 10.8792L13.7113 12.2934C14.1019 12.6839 14.1019 13.3171 13.7113 13.7076C13.3208 14.0981 12.6877 14.0981 12.2971 13.7076L10.8829 12.2934C10.622 12.0325 10.5354 11.6632 10.6231 11.3304L9.87433 10.5816C8.829 11.4665 7.47681 12 6 12C2.68629 12 0 9.31371 0 6C0 2.68629 2.68629 0 6 0C9.31371 0 12 2.68629 12 6ZM1.00071 6C1.00071 8.76103 3.23897 10.9993 6 10.9993C8.76103 10.9993 10.9993 8.76103 10.9993 6C10.9993 3.23897 8.76103 1.00071 6 1.00071C3.23897 1.00071 1.00071 3.23897 1.00071 6Z"/>
</svg>
