<svg width="16" height="16" viewBox="0 0 16 16" fill="none" xmlns="http://www.w3.org/2000/svg">
<mask id="path-1-inside-1_20461_114445" fill="white">
<path fill-rule="evenodd" clip-rule="evenodd" d="M3 15L3 11H2.6C2.26863 11 2 10.7314 2 10.4V8.6C2 8.26863 2.26863 8 2.6 8H3L3 1H4L4 8H4.4C4.73137 8 5 8.26863 5 8.6V10.4C5 10.7314 4.73137 11 4.4 11H4L4 15H3ZM3.2 9C3.08954 9 3 9.08954 3 9.2V9.8C3 9.91046 3.08954 10 3.2 10H3.8C3.91046 10 4 9.91046 4 9.8V9.2C4 9.08954 3.91046 9 3.8 9H3.2Z"/>
</mask>
<path fill-rule="evenodd" clip-rule="evenodd" d="M3 15L3 11H2.6C2.26863 11 2 10.7314 2 10.4V8.6C2 8.26863 2.26863 8 2.6 8H3L3 1H4L4 8H4.4C4.73137 8 5 8.26863 5 8.6V10.4C5 10.7314 4.73137 11 4.4 11H4L4 15H3ZM3.2 9C3.08954 9 3 9.08954 3 9.2V9.8C3 9.91046 3.08954 10 3.2 10H3.8C3.91046 10 4 9.91046 4 9.8V9.2C4 9.08954 3.91046 9 3.8 9H3.2Z" fill="#A2AAB5"/>
<path d="M3 11H4V10H3V11ZM3 15H2L2 16H3V15ZM3 8V9H4V8H3ZM3 1V0H2L2 1L3 1ZM4 1L5 1V0H4V1ZM4 8H3L3 9H4V8ZM4 11V10H3L3 11H4ZM4 15V16H5V15H4ZM2 11L2 15H4V11H2ZM2.6 12H3V10H2.6V12ZM1 10.4C1 11.2837 1.71634 12 2.6 12V10C2.82091 10 3 10.1791 3 10.4H1ZM1 8.6V10.4H3V8.6H1ZM2.6 7C1.71634 7 1 7.71634 1 8.6H3C3 8.82091 2.82091 9 2.6 9V7ZM3 7H2.6V9H3V7ZM2 1L2 8H4L4 1L2 1ZM4 0H3V2H4V0ZM5 8L5 1L3 1L3 8H5ZM4.4 7H4V9H4.4V7ZM6 8.6C6 7.71634 5.28366 7 4.4 7V9C4.17909 9 4 8.82091 4 8.6H6ZM6 10.4V8.6H4V10.4H6ZM4.4 12C5.28366 12 6 11.2837 6 10.4H4C4 10.1791 4.17909 10 4.4 10V12ZM4 12H4.4V10H4V12ZM5 15L5 11H3L3 15H5ZM3 16H4V14H3V16ZM4 9.2C4 9.64183 3.64183 10 3.2 10V8C2.53726 8 2 8.53726 2 9.2H4ZM4 9.8V9.2H2V9.8H4ZM3.2 9C3.64183 9 4 9.35817 4 9.8H2C2 10.4627 2.53726 11 3.2 11V9ZM3.8 9H3.2V11H3.8V9ZM3 9.8C3 9.35817 3.35817 9 3.8 9V11C4.46274 11 5 10.4627 5 9.8H3ZM3 9.2V9.8H5V9.2H3ZM3.8 10C3.35817 10 3 9.64183 3 9.2H5C5 8.53726 4.46274 8 3.8 8V10ZM3.2 10H3.8V8H3.2V10Z" fill="#A2AAB5" mask="url(#path-1-inside-1_20461_114445)"/>
<mask id="path-3-inside-2_20461_114445" fill="white">
<path fill-rule="evenodd" clip-rule="evenodd" d="M7.5 8L7.5 6H7.1C6.76863 6 6.5 5.73137 6.5 5.4V3.6C6.5 3.26863 6.76863 3 7.1 3H7.5L7.5 1H8.5L8.5 3H8.9C9.23137 3 9.5 3.26863 9.5 3.6V5.4C9.5 5.73137 9.23137 6 8.9 6H8.5L8.5 8L8.5 15H7.5L7.5 8ZM7.7 4C7.58954 4 7.5 4.08954 7.5 4.2V4.8C7.5 4.91046 7.58954 5 7.7 5H8.3C8.41046 5 8.5 4.91046 8.5 4.8V4.2C8.5 4.08954 8.41046 4 8.3 4H7.7Z"/>
</mask>
<path fill-rule="evenodd" clip-rule="evenodd" d="M7.5 8L7.5 6H7.1C6.76863 6 6.5 5.73137 6.5 5.4V3.6C6.5 3.26863 6.76863 3 7.1 3H7.5L7.5 1H8.5L8.5 3H8.9C9.23137 3 9.5 3.26863 9.5 3.6V5.4C9.5 5.73137 9.23137 6 8.9 6H8.5L8.5 8L8.5 15H7.5L7.5 8ZM7.7 4C7.58954 4 7.5 4.08954 7.5 4.2V4.8C7.5 4.91046 7.58954 5 7.7 5H8.3C8.41046 5 8.5 4.91046 8.5 4.8V4.2C8.5 4.08954 8.41046 4 8.3 4H7.7Z" fill="#A2AAB5"/>
<path d="M7.5 6H8.5L8.5 5H7.5V6ZM7.5 8H8.5H7.5ZM7.5 3V4H8.5L8.5 3L7.5 3ZM7.5 1V0H6.5L6.5 1L7.5 1ZM8.5 1L9.5 1V0H8.5V1ZM8.5 3L7.5 3L7.5 4H8.5V3ZM8.5 6V5H7.5L7.5 6H8.5ZM8.5 8H7.5H8.5ZM8.5 15V16H9.5V15H8.5ZM7.5 15H6.5L6.5 16H7.5V15ZM6.5 6L6.5 8H8.5V6H6.5ZM7.1 7H7.5V5H7.1V7ZM5.5 5.4C5.5 6.28365 6.21634 7 7.1 7V5C7.32091 5 7.5 5.17908 7.5 5.4H5.5ZM5.5 3.6V5.4H7.5V3.6H5.5ZM7.1 2C6.21634 2 5.5 2.71634 5.5 3.6H7.5C7.5 3.82091 7.32091 4 7.1 4V2ZM7.5 2H7.1V4H7.5V2ZM6.5 1L6.5 3L8.5 3L8.5 1L6.5 1ZM8.5 0H7.5V2H8.5V0ZM9.5 3V1L7.5 1L7.5 3L9.5 3ZM8.9 2H8.5V4H8.9V2ZM10.5 3.6C10.5 2.71634 9.78366 2 8.9 2V4C8.67909 4 8.5 3.82091 8.5 3.6H10.5ZM10.5 5.4V3.6H8.5V5.4H10.5ZM8.9 7C9.78366 7 10.5 6.28365 10.5 5.4H8.5C8.5 5.17908 8.67909 5 8.9 5V7ZM8.5 7H8.9V5H8.5V7ZM9.5 8L9.5 6H7.5L7.5 8H9.5ZM9.5 15L9.5 8H7.5L7.5 15H9.5ZM7.5 16H8.5V14H7.5V16ZM6.5 8L6.5 15H8.5L8.5 8H6.5ZM8.5 4.2C8.5 4.64183 8.14183 5 7.7 5V3C7.03726 3 6.5 3.53726 6.5 4.2H8.5ZM8.5 4.8V4.2H6.5V4.8H8.5ZM7.7 4C8.14183 4 8.5 4.35817 8.5 4.8H6.5C6.5 5.46274 7.03726 6 7.7 6V4ZM8.3 4H7.7V6H8.3V4ZM7.5 4.8C7.5 4.35817 7.85817 4 8.3 4V6C8.96274 6 9.5 5.46274 9.5 4.8H7.5ZM7.5 4.2V4.8H9.5V4.2H7.5ZM8.3 5C7.85817 5 7.5 4.64183 7.5 4.2H9.5C9.5 3.53726 8.96274 3 8.3 3V5ZM7.7 5H8.3V3H7.7V5Z" fill="#A2AAB5" mask="url(#path-3-inside-2_20461_114445)"/>
<mask id="path-5-inside-3_20461_114445" fill="white">
<path fill-rule="evenodd" clip-rule="evenodd" d="M12 15L12 12H11.6C11.2686 12 11 11.7314 11 11.4V9.6C11 9.26863 11.2686 9 11.6 9H12L12 1H13L13 9H13.4C13.7314 9 14 9.26863 14 9.6V11.4C14 11.7314 13.7314 12 13.4 12H13L13 15H12ZM12.2 10C12.0895 10 12 10.0895 12 10.2V10.8C12 10.9105 12.0895 11 12.2 11H12.8C12.9105 11 13 10.9105 13 10.8V10.2C13 10.0895 12.9105 10 12.8 10H12.2Z"/>
</mask>
<path fill-rule="evenodd" clip-rule="evenodd" d="M12 15L12 12H11.6C11.2686 12 11 11.7314 11 11.4V9.6C11 9.26863 11.2686 9 11.6 9H12L12 1H13L13 9H13.4C13.7314 9 14 9.26863 14 9.6V11.4C14 11.7314 13.7314 12 13.4 12H13L13 15H12ZM12.2 10C12.0895 10 12 10.0895 12 10.2V10.8C12 10.9105 12.0895 11 12.2 11H12.8C12.9105 11 13 10.9105 13 10.8V10.2C13 10.0895 12.9105 10 12.8 10H12.2Z" fill="#A2AAB5"/>
<path d="M12 12H13V11H12V12ZM12 15H11L11 16H12V15ZM12 9V10H13L13 9H12ZM12 1V0H11L11 1L12 1ZM13 1L14 1V0H13V1ZM13 9H12V10H13V9ZM13 12V11H12L12 12H13ZM13 15V16H14V15H13ZM11 12L11 15H13V12H11ZM11.6 13H12V11H11.6V13ZM10 11.4C10 12.2837 10.7163 13 11.6 13V11C11.8209 11 12 11.1791 12 11.4H10ZM10 9.6V11.4H12V9.6H10ZM11.6 8C10.7163 8 10 8.71634 10 9.6H12C12 9.82091 11.8209 10 11.6 10V8ZM12 8H11.6V10H12V8ZM11 1L11 9H13L13 1L11 1ZM13 0H12V2H13V0ZM14 9L14 1L12 1L12 9H14ZM13.4 8H13V10H13.4V8ZM15 9.6C15 8.71634 14.2837 8 13.4 8V10C13.1791 10 13 9.82091 13 9.6H15ZM15 11.4V9.6H13V11.4H15ZM13.4 13C14.2837 13 15 12.2837 15 11.4H13C13 11.1791 13.1791 11 13.4 11V13ZM13 13H13.4V11H13V13ZM14 15L14 12H12L12 15H14ZM12 16H13V14H12V16ZM13 10.2C13 10.6418 12.6418 11 12.2 11V9C11.5373 9 11 9.53726 11 10.2H13ZM13 10.8V10.2H11V10.8H13ZM12.2 10C12.6418 10 13 10.3582 13 10.8H11C11 11.4627 11.5373 12 12.2 12V10ZM12.8 10H12.2V12H12.8V10ZM12 10.8C12 10.3582 12.3582 10 12.8 10V12C13.4627 12 14 11.4627 14 10.8H12ZM12 10.2V10.8H14V10.2H12ZM12.8 11C12.3582 11 12 10.6418 12 10.2H14C14 9.53726 13.4627 9 12.8 9V11ZM12.2 11H12.8V9H12.2V11Z" fill="#A2AAB5" mask="url(#path-5-inside-3_20461_114445)"/>
</svg>
