<svg xmlns="http://www.w3.org/2000/svg" width="20" height="20" viewBox="0 0 20 20">
    <path fill-rule="evenodd" d="M13 14l-5-3c-.36-.582-.333-.771 0-1-.333-.157-.36-.345 0-1l5-3c.496.57 1.052.82 2 1 .954-.18 2-1.261 2-3 0-.92-1.046-2-2-2-1.62 0-2.667 1.08-3 2 .333.602.36.791 0 1L7 8c-.496-.124-1.052-.373-2 0-.954-.373-2 .707-2 2 0 1.365 1.046 2.446 2 2 .948.446 1.504.197 2 0l5 3c.423.301.4.478 0 1 .4.952 1.414 2 3 2 .919 0 1.934-1.048 2-2-.066-1.635-1.081-2.683-2-3-.924.317-1.457.554-2 1z"/>
</svg>
