<?xml version="1.0" encoding="UTF-8"?>
<svg width="24px" height="20px" viewBox="0 0 24 20" version="1.1" xmlns="http://www.w3.org/2000/svg" xmlns:xlink="http://www.w3.org/1999/xlink">
    <title>Show more</title>
    <defs>
        <path d="M9.65617376,7.6952172 L13.2400488,12.175061 C13.3090507,12.2613134 13.2950664,12.3871719 13.208814,12.4561738 C13.1733514,12.4845438 13.1292893,12.5 13.083875,12.5 L5.91612497,12.5 C5.80566802,12.5 5.71612497,12.4104569 5.71612497,12.3 C5.71612497,12.2545857 5.73158112,12.2105236 5.75995121,12.175061 L9.34382624,7.6952172 C9.41282815,7.60896482 9.53868662,7.59498054 9.62493901,7.66398245 C9.63647195,7.6732088 9.64694741,7.68368426 9.65617376,7.6952172 Z" id="path-1"></path>
        <filter x="-122.3%" y="-157.6%" width="344.6%" height="497.6%" filterUnits="objectBoundingBox" id="filter-2">
            <feOffset dx="0" dy="2" in="SourceAlpha" result="shadowOffsetOuter1"></feOffset>
            <feGaussianBlur stdDeviation="3" in="shadowOffsetOuter1" result="shadowBlurOuter1"></feGaussianBlur>
            <feColorMatrix values="0 0 0 0 0   0 0 0 0 0   0 0 0 0 0  0 0 0 0.1 0" type="matrix" in="shadowBlurOuter1"></feColorMatrix>
        </filter>
    </defs>
    <g id="Show-more" stroke="none" stroke-width="1" fill="none" fill-rule="evenodd">
        <path d="M22,0 C23.1045695,0 24,0.8954305 24,2 L24,18 C24,19.1045695 23.1045695,20 22,20 L2,20 C0.8954305,20 0,19.1045695 0,18 L0,2 C0,0.8954305 0.8954305,0 2,0 L22,0 Z M22,2 L2,2 L2,18 L22,18 L22,2 Z" id="Rectangle" fill="#1A9CB0" fill-rule="nonzero"></path>
        <g id="Triangle" transform="translate(9.500000, 10.000000) rotate(-90.000000) translate(-9.500000, -10.000000) ">
            <use fill="black" fill-opacity="1" filter="url(#filter-2)" xlink:href="#path-1"></use>
            <use fill="#1A9CB0" fill-rule="evenodd" xlink:href="#path-1"></use>
        </g>
        <polygon id="Line-2" fill="#1A9CB0" fill-rule="nonzero" points="17 1 17 19 15 19 15 1"></polygon>
    </g>
</svg>