<svg width="16" height="16" viewBox="0 0 16 16" fill="none" xmlns="http://www.w3.org/2000/svg">
<path fill-rule="evenodd" clip-rule="evenodd" d="M16 8C16 12.4183 12.4183 16 8 16C3.58172 16 0 12.4183 0 8C0 3.58172 3.58172 0 8 0C12.4183 0 16 3.58172 16 8ZM14 8C14 11.3137 11.3137 14 8 14C4.68629 14 2 11.3137 2 8C2 4.68629 4.68629 2 8 2C9.59819 2 11.0504 2.62486 12.1258 3.64359L7.5293 8.24006L5.62117 6.33193C5.23065 5.9414 4.59748 5.9414 4.20696 6.33193C3.81643 6.72245 3.81643 7.35562 4.20696 7.74614L6.82632 10.3655C7.21685 10.756 7.85001 10.756 8.24054 10.3655C8.26652 10.3395 8.29077 10.3125 8.3133 10.2845L13.3387 5.25903C13.7614 6.08063 14 7.01245 14 8Z" fill="#3AA76D"/>
</svg>
