<?xml version="1.0" encoding="UTF-8"?>
<svg width="63px" height="20px" viewBox="0 0 63 20" version="1.1" xmlns="http://www.w3.org/2000/svg" xmlns:xlink="http://www.w3.org/1999/xlink">
    <!-- Generator: Sketch 55 (78076) - https://sketchapp.com -->
    <title>toggle/view_separated</title>
    <desc>Created with Sketch.</desc>
    <g id="toggle/view_separated" stroke="none" stroke-width="1" fill="none" fill-rule="evenodd">
        <path d="M31,0 L61,0 C62.1045695,-2.02906125e-16 63,0.8954305 63,2 L63,18 C63,19.1045695 62.1045695,20 61,20 L31,20 L31,0 Z" id="Rectangle-Copy-29" fill="#199CB0"></path>
        <path d="M31.5,19.5 L31.5,0.5 L2,0.5 C1.17157288,0.5 0.5,1.17157288 0.5,2 L0.5,18 C0.5,18.8284271 1.17157288,19.5 2,19.5 L31.5,19.5 Z" id="Rectangle-Copy-30" stroke="#199CB0"></path>
        <g id="Group-2" transform="translate(13.000000, 4.000000)" fill="#199CB0">
            <rect id="Rectangle" x="0" y="0" width="6" height="7"></rect>
            <rect id="Rectangle-Copy-31" x="0" y="8" width="6" height="2"></rect>
            <rect id="Rectangle-Copy-32" x="0" y="11" width="6" height="1"></rect>
        </g>
        <rect id="Rectangle-Copy-33" fill="#FFFFFF" x="42" y="11" width="2" height="5"></rect>
        <rect id="Rectangle-Copy-34" fill="#FFFFFF" x="45" y="8" width="2" height="8"></rect>
        <rect id="Rectangle-Copy-35" fill="#FFFFFF" x="48" y="4" width="2" height="12"></rect>
    </g>
</svg>