<?xml version="1.0" encoding="UTF-8"?>
<svg width="63px" height="20px" viewBox="0 0 63 20" version="1.1" xmlns="http://www.w3.org/2000/svg" xmlns:xlink="http://www.w3.org/1999/xlink">
    <!-- Generator: Sketch 55 (78076) - https://sketchapp.com -->
    <title>toggle/view_stacked</title>
    <desc>Created with Sketch.</desc>
    <g id="toggle/view_stacked" stroke="none" stroke-width="1" fill="none" fill-rule="evenodd">
        <path d="M31.5,0.5 L31.5,19.5 L61,19.5 C61.8284271,19.5 62.5,18.8284271 62.5,18 L62.5,2 C62.5,1.17157288 61.8284271,0.5 61,0.5 L31.5,0.5 Z" id="Rectangle-Copy-29" stroke="#199CB0"></path>
        <path d="M2,0 L32,0 L32,20 L2,20 C0.8954305,20 1.3527075e-16,19.1045695 0,18 L0,2 C-1.3527075e-16,0.8954305 0.8954305,2.02906125e-16 2,0 Z" id="Rectangle-Copy-30" fill="#199CB0"></path>
        <g id="Group-2" transform="translate(13.000000, 4.000000)" fill="#FFFFFF">
            <rect id="Rectangle" x="0" y="0" width="6" height="7"></rect>
            <rect id="Rectangle-Copy-31" x="0" y="8" width="6" height="2"></rect>
            <rect id="Rectangle-Copy-32" x="0" y="11" width="6" height="1"></rect>
        </g>
        <rect id="Rectangle-Copy-33" fill="#199CB0" x="42" y="11" width="2" height="5"></rect>
        <rect id="Rectangle-Copy-34" fill="#199CB0" x="45" y="8" width="2" height="8"></rect>
        <rect id="Rectangle-Copy-35" fill="#199CB0" x="48" y="4" width="2" height="12"></rect>
    </g>
</svg>