<?xml version="1.0" encoding="UTF-8"?>
<svg width="16px" height="16px" viewBox="0 0 16 16" version="1.1" xmlns="http://www.w3.org/2000/svg" xmlns:xlink="http://www.w3.org/1999/xlink">
    <g id="Group-8"  stroke="none" stroke-width="1" transform="translate(1.000000, 0.000000)"  fill-rule="evenodd">
            <path d="M2.17549313,2 L11.8245069,2 C12.3767916,2 12.8245069,2.44771525 12.8245069,3 C12.8245069,3.0536916 12.8201827,3.10729599 12.8115763,3.16029333 L11.1616141,13.3205867 C11.0043942,14.2887303 10.1683016,15 9.18747528,15 L4.81252472,15 C3.83169844,15 2.99560577,14.2887303 2.83838587,13.3205867 L1.1884237,3.16029333 C1.09989614,2.61514993 1.47005641,2.10145813 2.0151998,2.01293057 C2.06819714,2.00432417 2.12180153,2 2.17549313,2 Z M2.17549313,3 L3.82545529,13.1602933 C3.90406524,13.6443651 4.32211158,14 4.81252472,14 L9.18747528,14 C9.67788842,14 10.0959348,13.6443651 10.1745447,13.1602933 L11.8245069,3 L2.17549313,3 Z" id="Rectangle-17" fill-rule="nonzero"></path>
            <path d="M5,2 L9,2 L9,1 L5,1 L5,2 Z M4,2 L4,0.5 C4,0.223857625 4.22385763,5.07265313e-17 4.5,0 L9.5,0 C9.77614237,-5.07265313e-17 10,0.223857625 10,0.5 L10,2 L13.5,2 C13.7761424,2 14,2.22385763 14,2.5 C14,2.77614237 13.7761424,3 13.5,3 L0.5,3 C0.223857625,3 3.38176876e-17,2.77614237 0,2.5 C-3.38176876e-17,2.22385763 0.223857625,2 0.5,2 L4,2 Z" id="Combined-Shape"></path>
            <path d="M8.17120195,6.58219949 L9.00680304,11.595806 C9.05220056,11.8681912 9.30981433,12.052201 9.58219949,12.0068035 C9.85458465,11.961406 10.0385945,11.7037922 9.99319696,11.431407 L9.15759587,6.41780051 C9.11219835,6.14541535 8.85458458,5.96140551 8.58219942,6.00680304 C8.30981426,6.05220056 8.12580442,6.30981433 8.17120195,6.58219949 Z" id="Line-2-Copy-2" fill-rule="nonzero" transform="translate(9.082199, 9.006803) scale(-1, 1) translate(-9.082199, -9.006803) "></path>
    </g>
</svg>
