<?xml version="1.0" encoding="UTF-8"?>
<svg width="19px" height="18px" viewBox="0 0 19 18" version="1.1" xmlns="http://www.w3.org/2000/svg"
     xmlns:xlink="http://www.w3.org/1999/xlink">
    <title>unlink</title>
    <g id="unlink" stroke="none" stroke-width="1" fill="none" fill-rule="evenodd">
        <g transform="translate(0.000000, -2.000000)" fill="#1A9CB0" fill-rule="nonzero">
            <path d="M18.2432,10.13847 C17.7645,8.35189 15.9211,7.2882 14.1345,7.76634 L10.89413,8.6346 C10.61881,8.70837 10.45546,8.99131 10.52923,9.26663 C10.603,9.54195 10.88594,9.70531 11.16126,9.63154 L14.4017,8.76328 C14.9976,8.60377 15.623,8.68709 16.162,8.99832 C16.7013,9.30967 17.0862,9.80958 17.2459,10.40569 C17.4056,11.00181 17.3223,11.62716 17.0109,12.16644 C16.6997,12.7055 16.1998,13.09033 15.6037,13.25006 L11.36633,14.386 C10.12924,14.7171 8.85333,13.98048 8.52152,12.74357 C8.44775,12.46825 8.16481,12.30489 7.88949,12.37866 C7.61417,12.45244 7.45069,12.7356 7.52459,13.0107 C7.76394,13.90399 8.34446,14.6167 9.08846,15.0462 C9.83246,15.4758 10.73994,15.6222 11.63324,15.3828 L15.8709,14.2473 C16.7334,14.0164 17.456,13.46067 17.9051,12.6827 C18.3544,11.9045 18.4743,11.00109 18.2432,10.13847 Z"
                  id="Path"
                  transform="translate(12.932465, 11.574680) rotate(-10.000000) translate(-12.932465, -11.574680) "></path>
            <path d="M7.0018,16.2761 L4.99458,18.2833 C4.55819,18.7197 3.97496,18.9603 3.35225,18.9603 C2.7298,18.9603 2.14632,18.7197 1.70993,18.2833 C0.804384,17.3778 0.804384,15.9043 1.70993,14.9987 L4.62967,12.07896 C5.06606,11.64283 5.64929,11.40231 6.272,11.40231 C6.89445,11.40231 7.47767,11.64283 7.91406,12.07896 C8.11561,12.28051 8.44232,12.28051 8.64387,12.07896 C8.84542,11.87741 8.84542,11.5507 8.64387,11.34915 C7.33626,10.04154 5.208,10.04128 3.89961,11.34915 L0.979867,14.2692 C0.348642,14.9004 0.000770569,15.743 0.000770569,16.6413 C0.000770569,17.5393 0.348642,18.3819 0.980126,19.0132 C1.61135,19.6446 2.45393,19.9925 3.352,19.9925 C4.25032,19.9925 5.0929,19.6446 5.72413,19.0132 L7.73135,17.0059 C7.9329,16.8044 7.9329,16.4777 7.73135,16.2761 C7.5298,16.0746 7.20335,16.0746 7.0018,16.2761 Z"
                  id="Path"></path>
            <g id="Group-15"
               transform="translate(6.975312, 5.085082) rotate(-10.000000) translate(-6.975312, -5.085082) translate(2.975312, 1.585082)">
                <path d="M4.53108424,4.79769211 C4.58764424,4.69972211 4.60791424,4.60424211 4.59164424,4.51145211 C4.57573424,4.41818211 4.52690424,4.34810211 4.44538424,4.30103211 L1.65169424,2.68810211 C1.57038424,2.64115211 1.48525424,2.63389211 1.39639424,2.66668211 C1.30796424,2.69902211 1.23526424,2.76427211 1.17872424,2.86221211 C1.12231424,2.95992211 1.10214424,3.05551211 1.11823424,3.14848211 C1.13435424,3.24153211 1.18319424,3.31157211 1.26459424,3.35857211 L4.05828424,4.97150211 C4.13980424,5.01857211 4.22489424,5.02585211 4.31347424,4.99325211 C4.40226424,4.96044211 4.47482424,4.89514211 4.53108424,4.79769211 Z"
                      id="Path"
                      transform="translate(2.854980, 3.829884) rotate(45.000000) translate(-2.854980, -3.829884) "></path>
                <path d="M7.4855075,5.31863664 C7.5420675,5.22066664 7.5623375,5.12518664 7.5460675,5.03239664 C7.5301575,4.93912664 7.4813275,4.86904664 7.3998075,4.82197664 L4.6061175,3.20904664 C4.5248075,3.16209664 4.4396775,3.15483664 4.3508175,3.18762664 C4.2623875,3.21996664 4.1896875,3.28521664 4.1331475,3.38315664 C4.0767375,3.48086664 4.0565675,3.57645664 4.0726575,3.66942664 C4.0887775,3.76247664 4.1376175,3.83251664 4.2190175,3.87951664 L7.0127075,5.49244664 C7.0942275,5.53951664 7.1793175,5.54679664 7.2678975,5.51419664 C7.3566875,5.48138664 7.4292475,5.41608664 7.4855075,5.31863664 Z"
                      id="Path"
                      transform="translate(5.809403, 4.350828) rotate(80.000000) translate(-5.809403, -4.350828) "></path>
            </g>
        </g>
    </g>
</svg>
