<svg width="12" height="14" viewBox="0 0 12 14" fill="none" xmlns="http://www.w3.org/2000/svg">
<path d="M10 6H2C0.89543 6 0 6.89543 0 8V12C0 13.1046 0.89543 14 2 14H10C11.1046 14 12 13.1046 12 12V8C12 6.89543 11.1046 6 10 6Z" fill="#CBCCCB"/>
<path d="M6 0C7.86384 0 9.42998 1.27477 9.87402 3H7.73047C7.38454 2.40267 6.73993 2 6 2C4.89543 2 4 2.89543 4 4V8C4 9.10457 4.89543 10 6 10C7.10457 10 8 9.10457 8 8V6H10V8C10 10.2091 8.20914 12 6 12C3.85996 12 2.11211 10.3194 2.00488 8.20605L2 8V4C2 1.79086 3.79086 0 6 0Z" fill="#CBCCCB"/>
</svg>
