<svg xmlns="http://www.w3.org/2000/svg" width="34" height="20" viewBox="0 0 34 20">
    <g fill="none" fill-rule="evenodd">
        <g transform="rotate(-7 39.57 -9.46)">
            <rect width="28.942" height="13.174" x=".163" y=".498" fill="#F9F9F9" stroke="#CCC" rx="1"/>
            <path fill="#BDC7CC" fill-opacity=".502" d="M26.61 7.983H13.786V6.136H26.61v1.847zm0-5.54H13.786V4.29H26.61V2.444zm-12.824 9.282H26.61V9.88H13.786v1.846zM11.94 4.3v5.569a1.862 1.862 0 0 1-1.857 1.856H4.515A1.862 1.862 0 0 1 2.658 9.87V4.3c0-1.021.836-1.856 1.857-1.856h5.568c1.021 0 1.857.835 1.857 1.856zm-1.398 5.579L8.457 7.084 6.836 9.19 5.677 7.783 4.055 9.879h6.487z"/>
        </g>
        <path fill="#777" d="M20.867 12.412a2.4 2.4 0 1 1-4.8 0v-7.5a1.5 1.5 0 0 1 3 0v6.3a.6.6 0 1 1-1.2 0v-5.7h-.9v5.7a1.5 1.5 0 0 0 3 0v-6.3a2.4 2.4 0 1 0-4.8 0v7.5a3.3 3.3 0 0 0 6.6 0v-6.9h-.9v6.9z"/>
    </g>
</svg>
