<svg width="16" height="16" viewBox="0 0 16 16" fill="none" xmlns="http://www.w3.org/2000/svg">
<g clip-path="url(#clip0_16445_30)">
<path fill-rule="evenodd" clip-rule="evenodd" d="M9.06078 13.3182C8.77369 13.4828 8.41595 13.2756 8.41595 12.9446V11.1879C8.41595 10.9118 8.19209 10.6879 7.91595 10.6879L1.59712 10.688C1.32097 10.688 1.09711 10.4641 1.09711 10.1879C1.09711 9.9118 1.32097 9.68794 1.59711 9.68794H14.3625C14.6067 9.68794 14.7149 9.99521 14.5246 10.1482L14.3625 10.2786L9.06078 13.3182Z" fill="#CFCFCF"/>
<path fill-rule="evenodd" clip-rule="evenodd" d="M6.56092 3.05769C6.84801 2.89309 7.20576 3.10035 7.20576 3.43128V5.18798C7.20576 5.46412 7.42962 5.68798 7.70576 5.68798L14.3626 5.68798C14.6387 5.68798 14.8626 5.91184 14.8626 6.18798C14.8626 6.46413 14.6387 6.68799 14.3626 6.68799L1.2592 6.68798C1.01498 6.68798 0.906777 6.3807 1.09711 6.22767L1.2592 6.09735L6.56092 3.05769Z" fill="#CFCFCF"/>
</g>
<defs>
<clipPath id="clip0_16445_30">
<rect width="16" height="16" fill="white" transform="translate(16) rotate(90)"/>
</clipPath>
</defs>
</svg>
