<svg xmlns="http://www.w3.org/2000/svg" width="20" height="20" viewBox="0 0 22 22">
    <path transform="translate(-17, -16)" fill-rule="evenodd" d="M34.993 26c1.106 0 1.997-.897 1.997-2s-.891-2-1.997-2c-1.105 0-2.003.897-2.003 2s.898 2 2.003 2zm-14 0c1.106 0 1.997-.897 1.997-2s-.891-2-1.997-2c-1.105 0-2.003.897-2.003 2s.898 2 2.003 2zm7.007.5c1.655 0 2.99-1.845 2.99-3.5s-1.335-3-2.99-3c-1.655 0-3 1.345-3 3s1.345 3.5 3 3.5zm0 1.5c-1.668 0-5 1.17-5 3.5v1.498c0 .553.456 1.002.995 1.002h8.01c.55 0 .995-.447.995-1.002V31.5c0-2.33-3.332-3.5-5-3.5zm6.227-.055c-.219 0-.463.02-.727.055.874.835 1.48 1.96 1.48 3.445v1.498c0 .553.446 1.008.994 1.016l2.032.027c.55.008.994-.433.994-.988V31.5c0-2.33-3.014-3.555-4.773-3.555zm-12.454 0c.219 0 .463.02.727.055-.874.835-1.48 1.96-1.48 3.445v1.498c0 .553-.446 1.008-.994 1.016l-2.032.027c-.55.008-.994-.433-.994-.988V31.5c0-2.33 3.014-3.555 4.773-3.555z"/>
</svg>
