<svg xmlns="http://www.w3.org/2000/svg" width="22" height="23" viewBox="0 0 22 22">
    <path transform="translate(-17, -17)" fill-rule="evenodd" d="M34.092 20.753l-.97.696-1.938-3.952c-.355-.525-1.056-.654-1.567-.29l-3.697 3.766.654.951c.532 1.031.236 2.308-.69 2.981-.926.673-2.195.534-2.962-.326l-.642-.95-4.797 2.667c-.51.365-.636 1.086-.282 1.611l3.05 2.853-.924.66c-1.021.734-1.271 2.18-.558 3.23.712 1.05 2.118 1.307 3.139.574l.924-.673 1.939 3.952c.355.525 1.056.654 1.566.29l3.698-3.766-.677-.986c-.675-1.034-.436-2.43.541-3.165l.09-.058c.476-.348 1.067-.485 1.641-.38.574.104 1.084.442 1.414.936l.688.997 4.785-2.667c.51-.365.636-1.086.282-1.611L35.76 25.24l.959-.684c.977-.734 1.215-2.132.54-3.165l-.056-.093c-.72-1.022-2.102-1.265-3.11-.545z"/>
</svg>
