<svg xmlns="http://www.w3.org/2000/svg" width="20" height="22" viewBox="0 0 25 26">
    <path fill-rule="evenodd" d="M23.165 18c0-.264-.025-.524-.058-.78l1.74-1.324c.155-.12.2-.336.098-.512L23.3 12.612c-.102-.172-.316-.244-.501-.172l-2.048.804c-.423-.316-.888-.584-1.39-.788l-.307-2.12c-.037-.188-.206-.336-.412-.336h-3.289c-.205 0-.374.148-.407.336l-.308 2.12c-.501.204-.966.468-1.39.788l-2.047-.804c-.185-.068-.399 0-.501.172l-1.645 2.772c-.103.172-.057.388.099.512l1.735 1.324c-.033.256-.058.516-.058.78s.025.524.058.78l-1.735 1.324c-.156.12-.202.336-.099.512l1.645 2.772c.102.172.316.244.501.172l2.048-.804c.423.316.888.584 1.39.788l.307 2.12c.033.188.202.336.407.336h3.29c.205 0 .374-.148.406-.336l.309-2.12c.501-.204.966-.468 1.39-.788l2.047.804c.185.068.398 0 .501-.172l1.645-2.772c.102-.172.057-.388-.099-.512l-1.735-1.324c.033-.256.058-.516.058-.78zm-9.898 0c0-2.064 1.669-3.733 3.733-3.733s3.733 1.669 3.733 3.733-1.669 3.733-3.733 3.733-3.733-1.669-3.733-3.733zM10.58 6.585c.025-.192.044-.387.044-.585 0-.198-.019-.393-.044-.585l1.305-.993c.117-.09.15-.252.074-.384l-1.234-2.079c-.077-.129-.237-.183-.376-.129l-1.535.603c-.318-.237-.666-.438-1.043-.591l-.23-1.59C7.511.111 7.385 0 7.23 0H4.766c-.154 0-.28.111-.305.252l-.231 1.59c-.377.153-.725.351-1.043.591L1.651 1.83c-.139-.051-.3 0-.376.129L.04 4.038c-.077.129-.043.291.074.384l1.302.993c-.025.192-.044.387-.044.585 0 .198.019.393.044.585l-1.302.993c-.117.09-.15.252-.074.384l1.234 2.079c.077.129.237.183.376.129l1.535-.603c.318.237.666.438 1.043.591l.23 1.59c.026.141.152.252.306.252h2.467c.154 0 .28-.111.305-.252l.231-1.59c.376-.153.725-.351 1.042-.591l1.536.603c.139.051.3 0 .376-.129l1.234-2.079c.077-.129.043-.291-.074-.384l-1.302-.993zM5.998 8.57c-1.46 0-2.641-1.149-2.641-2.57 0-1.421 1.18-2.57 2.641-2.57S8.64 4.579 8.64 6c0 1.421-1.181 2.57-2.642 2.57z" />
</svg>
