<svg xmlns="http://www.w3.org/2000/svg" width="30" height="28" viewBox="0 0 30 28">
    <path d="M28.015 19.038c0-.285-.027-.566-.063-.843l1.882-1.433a.424.424 0 0 0 .106-.553l-1.779-2.999c-.11-.186-.342-.264-.542-.186l-2.215.87a6.795 6.795 0 0 0-1.503-.853l-.333-2.293a.454.454 0 0 0-.445-.363h-3.558a.446.446 0 0 0-.44.363l-.334 2.293a6.627 6.627 0 0 0-1.503.853l-2.215-.87a.451.451 0 0 0-.542.186l-1.779 2.999a.426.426 0 0 0 .107.553l1.876 1.433a6.613 6.613 0 0 0-.062.843c0 .286.027.567.062.844l-1.876 1.432a.424.424 0 0 0-.107.554l1.779 2.999a.446.446 0 0 0 .542.186l2.215-.87c.458.342.96.632 1.503.853l.334 2.293a.446.446 0 0 0 .44.363h3.558c.222 0 .404-.16.44-.363l.334-2.293a6.627 6.627 0 0 0 1.503-.853l2.214.87c.2.073.432 0 .543-.186l1.779-2.999a.426.426 0 0 0-.107-.554l-1.877-1.432c.036-.277.063-.558.063-.844zm-10.707 0A4.036 4.036 0 0 1 21.346 15a4.036 4.036 0 0 1 4.039 4.038 4.036 4.036 0 0 1-4.039 4.039 4.036 4.036 0 0 1-4.038-4.039zM14.652 6.965a4.85 4.85 0 0 0 .046-.619c0-.21-.02-.416-.046-.619l1.38-1.05a.31.31 0 0 0 .078-.406l-1.304-2.199a.327.327 0 0 0-.398-.136l-1.624.637a4.983 4.983 0 0 0-1.103-.625L11.437.267A.333.333 0 0 0 11.11 0H8.5a.327.327 0 0 0-.322.267l-.245 1.681a4.86 4.86 0 0 0-1.102.625l-1.624-.637a.33.33 0 0 0-.398.136L3.505 4.271a.312.312 0 0 0 .079.406l1.376 1.05a4.85 4.85 0 0 0-.046.62c0 .209.02.415.046.618l-1.376 1.05a.31.31 0 0 0-.079.406l1.305 2.2a.327.327 0 0 0 .398.136l1.624-.638c.336.25.704.463 1.102.625l.245 1.682c.026.149.16.266.323.266h2.609a.327.327 0 0 0 .322-.266l.245-1.682a4.86 4.86 0 0 0 1.102-.625l1.624.638a.33.33 0 0 0 .398-.137l1.305-2.199a.312.312 0 0 0-.078-.406l-1.377-1.05zm-4.846 2.1c-1.545 0-2.794-1.216-2.794-2.719s1.25-2.719 2.794-2.719c1.545 0 2.794 1.216 2.794 2.72 0 1.502-1.25 2.718-2.794 2.718zM7.958 18.912c.02-.148.034-.298.034-.45 0-.153-.015-.303-.034-.45l1.184-.764a.226.226 0 0 0 .057-.296l-.949-1.599c-.06-.1-.182-.14-.29-.1l-1.18.465a3.624 3.624 0 0 0-.802-.455L5.8 14.04a.242.242 0 0 0-.237-.194H3.665a.238.238 0 0 0-.234.194l-.178 1.223c-.29.118-.558.27-.802.455l-1.181-.464a.24.24 0 0 0-.29.1l-.948 1.598c-.06.1-.033.224.057.296l1.18.764a3.527 3.527 0 0 0-.032.45c0 .152.014.302.033.45l-1.181.763a.226.226 0 0 0-.057.296L.98 21.57c.059.1.182.14.289.1l1.181-.465c.244.183.512.337.802.455l.178 1.223a.238.238 0 0 0 .234.194h1.898a.238.238 0 0 0 .235-.194l.178-1.223c.289-.118.557-.27.801-.455l1.181.464c.107.04.23 0 .29-.099l.949-1.6a.227.227 0 0 0-.057-.295l-1.001-.763h-.18zm-5.21-.449c0-1.004.834-1.817 1.865-1.817 1.032 0 1.866.813 1.866 1.817 0 1.005-.834 1.818-1.866 1.818-1.03 0-1.865-.813-1.865-1.818z"/>
</svg>
