<svg xmlns="http://www.w3.org/2000/svg" width="30" height="30" viewBox="0 0 30 30">
    <path d="M26.865 9c0-1.657-1.13-3-2.758-3-1.628 0-2.782 1.343-2.782 3 0 1.658 1.154 3 2.782 3 1.628 0 2.758-1.342 2.758-3zm-8.131 6.838c1.132-1.2 3.844-1.802 5.373-1.802 1.967 0 5.893.998 5.893 2.98V19.5h-3.71c-1.228-1.857-4.529-3.08-7.556-3.662zm-7.468 0c-3.027.583-6.328 1.805-7.555 3.662H0v-2.484c0-1.982 3.926-2.98 5.893-2.98 1.529 0 4.241.603 5.373 1.802zM8.722 9c0 1.658-1.201 3-2.83 3-1.627 0-2.817-1.342-2.817-3 0-1.657 1.19-3 2.818-3C7.52 6 8.722 7.343 8.722 9zM15 15.643a4.82 4.82 0 0 1-4.821-4.822A4.82 4.82 0 0 1 15 6a4.82 4.82 0 0 1 4.821 4.821A4.82 4.82 0 0 1 15 15.643zm-9.007 7.232c0-3.206 5.789-4.821 9.007-4.821s9.022 1.615 9.022 4.821v2.632H5.992v-2.632z"/>
</svg>
