<svg width="18" height="18" viewBox="0 0 18 18" fill="none" xmlns="http://www.w3.org/2000/svg">
<path fill-rule="evenodd" clip-rule="evenodd" d="M2.27473 4.02243C1.59523 3.18164 2.19366 1.92857 3.27471 1.92857H5.3738C5.76215 1.92857 6.12968 2.1041 6.37378 2.40614L15.7254 13.9776C16.4049 14.8184 15.8065 16.0714 14.7254 16.0714H12.6263C12.238 16.0714 11.8704 15.8959 11.6263 15.5939L2.27473 4.02243ZM5.3738 3.21429L3.27471 3.21429L7.89246 8.92817L9.04559 10.355L12.6263 14.7857H14.7254L10.1773 9.15803L9.02419 7.73117L5.3738 3.21429Z" fill="#39C2D7" opacity=".8"/>
<path fill-rule="evenodd" clip-rule="evenodd" d="M2.46195 15.9951C2.09712 15.6501 2.081 15.0748 2.42594 14.7099L7.89246 8.92817L9.04559 10.355L10.1773 9.15803L9.02419 7.73117L14.4318 2.0117C14.7768 1.64687 15.3521 1.63075 15.717 1.97569C16.0818 2.32063 16.0979 2.89601 15.753 3.26084L10.1773 9.15803L9.04559 10.355L3.7471 15.9591C3.40217 16.3239 2.82678 16.34 2.46195 15.9951Z" fill="#39C2D7" opacity=".8"/>
</svg>
