<?xml version="1.0" encoding="UTF-8" standalone="no"?>
<svg width="20px" height="16px" viewBox="0 0 20 16" version="1.1" xmlns="http://www.w3.org/2000/svg" xmlns:xlink="http://www.w3.org/1999/xlink">
    <!-- Generator: sketchtool 42 (36781) - http://www.bohemiancoding.com/sketch -->
    <title>F61FD692-6EDA-41DE-A59F-8F1B980F7FB9</title>
    <desc>Created with sketchtool.</desc>
    <defs></defs>
    <g id="Landing_v4" stroke="none" stroke-width="1" fill="none" fill-rule="evenodd">
        <g id="LOGIN" transform="translate(-279.000000, -745.000000)" fill="#1A9CB0">
            <g id="TWEETS&amp;Socials1" transform="translate(125.000000, 411.000000)">
                <g id="socials1" transform="translate(56.000000, 331.000000)">
                    <g id="twitter" opacity="0.800000012" transform="translate(98.000000, 3.000000)">
                        <path d="M20,2 C19.2614282,2.21682655 18.4716652,2.43274874 18,3 C18.4936043,2.02968871 19.1444271,1.23796443 19,0 C18.6544836,0.755734853 17.7769643,1.09401391 17,1 C16.0950633,0.489427463 15.02742,0 14,0 C11.583182,0 9.74771475,1.80656864 10,4 C9.74771475,4.35447636 9.78427988,4.66397107 10,5 C6.4424133,4.78632793 3.4223038,3.18128571 1,1 C1.04570333,1.33873484 0.840950288,2.02968871 1,3 C0.840950288,4.17453641 1.56489968,5.40531015 3,6 C1.99634337,6.1106598 1.36745894,5.93072704 1,6 C0.811700377,5.642826 0.811700377,5.66441965 1,6 C0.811700377,7.63652528 2.22303476,9.26315828 4,10 C3.758684,9.73099425 3.39305316,9.78137657 3,10 C2.7568557,9.78137657 2.5009144,9.75258719 2,10 C2.76416799,11.3144407 4.28519192,12.480432 6,13 C4.67276038,13.5960417 2.90310818,14.2438147 1,14 C0.650822718,14.2438147 0.321755033,14.2222225 0,14 C1.81352868,15.3306344 3.97075007,16 6,16 C13.8354698,16 17.9597826,9.84615323 18,5 C17.9597826,4.34008059 17.9524696,4.16014064 18,4 C18.7568586,3.41160367 19.4515523,2.69905613 20,2 Z" id="Fill-1"></path>
                    </g>
                </g>
            </g>
        </g>
    </g>
</svg>
