<svg width="17" height="17" viewBox="0 0 17 17" fill="none" xmlns="http://www.w3.org/2000/svg">
<g clip-path="url(#clip0_8690_46037)">
<path d="M13.4583 0H3.54167C1.58596 0 0 1.58596 0 3.54167V13.4583C0 15.414 1.58596 17 3.54167 17H13.4583C15.4148 17 17 15.414 17 13.4583V3.54167C17 1.58596 15.4148 0 13.4583 0ZM5.66667 13.4583H3.54167V5.66667H5.66667V13.4583ZM4.60417 4.7685C3.91992 4.7685 3.36458 4.20892 3.36458 3.519C3.36458 2.82908 3.91992 2.2695 4.60417 2.2695C5.28842 2.2695 5.84375 2.82908 5.84375 3.519C5.84375 4.20892 5.28912 4.7685 4.60417 4.7685ZM14.1667 13.4583H12.0417V9.48883C12.0417 7.10317 9.20833 7.28379 9.20833 9.48883V13.4583H7.08333V5.66667H9.20833V6.91687C10.1972 5.08512 14.1667 4.94983 14.1667 8.67071V13.4583Z" fill="#1A9CB0"/>
</g>
<defs>
<clipPath id="clip0_8690_46037">
<rect width="17" height="17" fill="white"/>
</clipPath>
</defs>
</svg>
