<?xml version="1.0" encoding="UTF-8" standalone="no"?>
<svg width="20px" height="21px" viewBox="0 0 20 21" version="1.1" xmlns="http://www.w3.org/2000/svg" xmlns:xlink="http://www.w3.org/1999/xlink">
    <!-- Generator: sketchtool 42 (36781) - http://www.bohemiancoding.com/sketch -->
    <title>7E7B1F99-561D-4382-A52C-DF1B412D3082</title>
    <desc>Created with sketchtool.</desc>
    <defs></defs>
    <g id="Landing_v4" stroke="none" stroke-width="1" fill="none" fill-rule="evenodd">
        <g id="LOGIN" transform="translate(-181.000000, -742.000000)" fill="#1A9CB0">
            <g id="TWEETS&amp;Socials1" transform="translate(125.000000, 411.000000)">
                <g id="socials1" transform="translate(56.000000, 331.000000)">
                    <g id="ic-Github" opacity="0.800000012">
                        <path d="M10,0 C4.47389282,0 0,4.81269477 0,11 C0,15.5253991 2.86660563,19.5538023 7,21 C7.34049843,21.0867346 7.52276802,20.7480631 8,20 C7.52276802,20.2133193 7.50619927,19.3577298 8,18 C4.72244242,19.1081822 4.14249446,17.1831047 4,17 C3.69510485,15.9353696 3.03230481,15.6145219 3,16 C2.12095683,14.9550047 3.09858482,14.9550047 3,15 C4.10935363,15.026304 4.63959366,16.0601429 5,16 C5.53437123,17.7000233 6.97595924,17.2365787 8,17 C7.63875762,16.2562156 7.90387763,15.7749457 8,16 C5.96519042,15.2580271 3.62882485,14.331138 4,10 C3.62882485,9.01934815 4.02650321,8.05680849 5,7 C4.55674324,7.04079479 4.20877281,5.93565652 5,4 C4.75558325,4.45620005 5.60065123,4.17100284 8,6 C8.30155765,5.32961514 9.16319605,5.20484181 10,5 C10.8533337,5.20484181 11.7149737,5.32961514 13,6 C14.4158785,4.17100284 15.2609464,4.45620005 15,4 C15.8077569,5.93565652 15.4597865,7.04079479 15,7 C16.0065952,8.05680849 16.3877049,9.01934637 16,10 C16.3877049,14.331138 14.0513376,15.2402019 12,16 C12.1789304,15.846245 12.49376,16.487937 12,18 C12.49376,18.9477584 12.4771913,20.1063707 12,20 C12.4771913,20.7480631 12.6594609,21.0867346 13,21 C17.1333553,19.5538023 19.9999543,15.5253991 20,11 C20.0165247,4.81269477 15.5260665,0 10,0 L10,0 Z" id="Fill-1"></path>
                        <path d="M4.99618181,14.4684662 C4.98119878,14.523072 4.90628663,14.5412739 4.84635601,14.5048701 C4.78642539,14.4684662 4.74147781,14.3956603 4.77144237,14.3410563 C4.78642539,14.2864505 4.86133904,14.2682504 4.92126816,14.3046543 C4.98119878,14.3410581 5.01116484,14.413864 4.99618181,14.4684662 L4.99618181,14.4684662 L4.99618181,14.4684662 Z" id="Fill-3"></path>
                        <path d="M5.19060038,15.677872 C5.10891547,15.7535015 4.94554294,15.7030801 4.86385804,15.60224 C4.75494393,15.5013999 4.72771472,15.3501409 4.80939962,15.274509 C4.89108453,15.1988795 5.02722785,15.2493008 5.13614196,15.3501409 C5.24505607,15.4761917 5.27228528,15.6274507 5.19060038,15.677872 L5.19060038,15.677872 L5.19060038,15.677872 Z" id="Fill-4"></path>
                        <path d="M5.16290895,16.6400241 C5.06265806,16.7068006 4.91228047,16.6400241 4.83709293,16.5287345 C4.73684204,16.4174426 4.73684204,16.2616353 4.83709293,16.2171177 C4.93734382,16.1503435 5.0877189,16.2171177 5.16290895,16.3284096 C5.26315733,16.4397014 5.26315733,16.5732499 5.16290895,16.6400241 L5.16290895,16.6400241 L5.16290895,16.6400241 Z" id="Fill-5"></path>
                        <path d="M6.15525603,16.6130881 C6.09264208,16.6999194 5.94654009,16.678211 5.8213122,16.5696714 C5.71695423,16.461134 5.6752123,16.3091798 5.75869825,16.2440547 C5.8213122,16.1572235 5.9674121,16.1789318 6.09264208,16.2874714 C6.19699796,16.3743005 6.21786998,16.5262569 6.15525603,16.6130881 L6.15525603,16.6130881 L6.15525603,16.6130881 Z" id="Fill-6"></path>
                        <path d="M6.18761491,18.4232637 C6.16879574,18.5517367 6.03706533,18.6031244 5.90533491,18.5517367 C5.77360262,18.5003465 5.69832971,18.3461783 5.717147,18.243403 C5.73596616,18.11493 5.86769658,18.0635423 5.99942699,18.11493 C6.13115929,18.1663202 6.20643219,18.2947907 6.18761491,18.4232637 L6.18761491,18.4232637 L6.18761491,18.4232637 Z" id="Fill-7"></path>
                        <path d="M7.14285714,18.3333333 C7.14285714,18.4656088 7.03296774,18.5714286 6.90476099,18.5714286 C6.77655607,18.5714286 6.66666667,18.4656088 6.66666667,18.3333333 C6.66666667,18.2010579 6.77655607,18.0952381 6.90476099,18.0952381 C7.03296591,18.0952381 7.14285714,18.2010579 7.14285714,18.3333333 L7.14285714,18.3333333 L7.14285714,18.3333333 Z" id="Fill-8"></path>
                        <path d="M7.14045453,18.2815269 C7.15931049,18.411043 7.0650326,18.5405618 6.93304658,18.566466 C6.80105678,18.5923677 6.68792483,18.5146575 6.66906887,18.3851414 C6.6502148,18.2556227 6.7444908,18.126104 6.87647871,18.1002023 C7.00846662,18.0742954 7.12160046,18.1520082 7.14045453,18.2815269 L7.14045453,18.2815269 L7.14045453,18.2815269 Z" id="Fill-9"></path>
                    </g>
                </g>
            </g>
        </g>
    </g>
</svg>
