<svg xmlns="http://www.w3.org/2000/svg" width="13" height="13" viewBox="0 0 13 13">
  <g fill="none" fill-rule="evenodd" transform="translate(0 -2)">
    <path fill="#777" d="M10.8809274,5.15355749 C10.8423457,5.22657113 10.7950626,5.29658852 10.7384213,5.3621904 C10.3269925,5.83859252 9.62689514,6.10764182 8.9941925,5.54039938 C8.36148987,4.97315695 8.5308904,4.4073361 8.94231926,3.93093398 C8.99896051,3.8653321 9.06200467,3.80777276 9.12948163,3.75778287 L7.8179718,2.75159622 C7.62276473,2.59610714 7.33348394,2.62196942 7.17160491,2.80947095 L0.755771403,10.2149949 C0.593892369,10.4024964 0.620817482,10.6803582 0.816024553,10.8358473 L2.12813129,11.881535 C2.16999656,11.7932248 2.2245035,11.7085416 2.29214464,11.6303239 C2.7035735,11.1539218 3.36806641,10.9653441 3.97026062,11.4453063 C4.57245483,11.9252685 4.49967557,12.5851782 4.0882467,13.0615804 C4.02060557,13.1399557 3.94409884,13.2068191 3.86135337,13.2628015 L5.17796477,14.2667915 C5.37317184,14.4222806 5.66245263,14.3964183 5.82433167,14.2089168 L12.294577,6.81893637 C12.4566202,6.63143484 12.4296951,6.35341533 12.2344881,6.19792626 L10.8809274,5.15355749 Z M3.1739421,9.51592486 L6.91127916,5.18903928 L9.82608685,7.51191356 L6.08874979,11.8387991 L3.1739421,9.51592486 Z M7.11869812,6.44355178 L8.36654789,7.56047246 L5.95285181,10.4697606 L4.62066753,9.28737117 L7.11869812,6.44355178 Z"/>
  </g>
</svg>
