<svg xmlns="http://www.w3.org/2000/svg" width="165" height="80" viewBox="0 0 165 80">
  <g fill="none" fill-rule="evenodd">
    <path fill="#A3C644" d="M73,13 L92,13 L92,13 C93.6568542,13 95,14.3431458 95,16 L95,19 L95,19 C95,20.6568542 93.6568542,22 92,22 L73,22 L73,22 C71.3431458,22 70,20.6568542 70,19 L70,16 L70,16 C70,14.3431458 71.3431458,13 73,13 Z"/>
    <path stroke="#B5D169" d="M54 27.5L111 27.5M82.5 22L82.5 27M54.5 28L54.5 33M54.5 42L54.5 45"/>
    <g transform="translate(28 58)">
      <path stroke="#B5D169" d="M2 3.5L9 3.5M5.5-4.12114787e-13L5.5 3M2.5 4L2.5 7M8.5 4L8.5 7"/>
      <path fill="#39C2D7" d="M2.5 7L2.5 7 2.5 7C3.88071187 7 5 8.11928813 5 9.5L5 9.5 5 9.5C5 10.8807119 3.88071187 12 2.5 12L2.5 12 2.5 12C1.11928813 12 6.13177648e-16 10.8807119 4.4408921e-16 9.5L0 9.5 0 9.5C-1.69088438e-16 8.11928813 1.11928813 7 2.5 7zM8.5 7L8.5 7 8.5 7C9.88071187 7 11 8.11928813 11 9.5L11 9.5 11 9.5C11 10.8807119 9.88071187 12 8.5 12L8.5 12 8.5 12C7.11928813 12 6 10.8807119 6 9.5L6 9.5 6 9.5C6 8.11928813 7.11928813 7 8.5 7z"/>
    </g>
    <path stroke="#B5D169" d="M40 45.5L69 45.5M54.5 42L54.5 45M40.5 46L40.5 49M68.5 46L68.5 49M33 58.5L46 58.5M40.5 55L40.5 58"/>
    <g transform="translate(56 58)">
      <path stroke="#B5D169" d="M2 3.5L9 3.5M5.5-4.12114787e-13L5.5 3M2.5 4L2.5 7M8.5 4L8.5 7"/>
      <path fill="#39C2D7" d="M2.5 7L2.5 7 2.5 7C3.88071187 7 5 8.11928813 5 9.5L5 9.5 5 9.5C5 10.8807119 3.88071187 12 2.5 12L2.5 12 2.5 12C1.11928813 12 6.13177648e-16 10.8807119 4.4408921e-16 9.5L0 9.5 0 9.5C-1.69088438e-16 8.11928813 1.11928813 7 2.5 7zM8.5 7L8.5 7 8.5 7C9.88071187 7 11 8.11928813 11 9.5L11 9.5 11 9.5C11 10.8807119 9.88071187 12 8.5 12L8.5 12 8.5 12C7.11928813 12 6 10.8807119 6 9.5L6 9.5 6 9.5C6 8.11928813 7.11928813 7 8.5 7z"/>
    </g>
    <path stroke="#B5D169" d="M61 58.5L74 58.5M68.5 55L68.5 58"/>
    <path fill="#F7D63E" d="M41.5,49 L41.5,49 L41.5,49 C43.4329966,49 45,50.5670034 45,52.5 L45,52.5 L45,52.5 C45,54.4329966 43.4329966,56 41.5,56 L41.5,56 L41.5,56 C39.5670034,56 38,54.4329966 38,52.5 L38,52.5 L38,52.5 C38,50.5670034 39.5670034,49 41.5,49 Z"/>
    <path fill="#39C2D7" d="M40.5,49 L41,49 L41,56 L40.5,56 L40.5,56 C38.5670034,56 37,54.4329966 37,52.5 L37,52.5 L37,52.5 C37,50.5670034 38.5670034,49 40.5,49 Z"/>
    <path fill="#F7D63E" d="M55.5,33 L55.5,33 L55.5,33 C57.9852814,33 60,35.0147186 60,37.5 L60,37.5 L60,37.5 C60,39.9852814 57.9852814,42 55.5,42 L55.5,42 L55.5,42 C53.0147186,42 51,39.9852814 51,37.5 L51,37.5 L51,37.5 C51,35.0147186 53.0147186,33 55.5,33 Z"/>
    <path fill="#39C2D7" d="M54.5,33 L55,33 L55,42 L54.5,42 L54.5,42 C52.0147186,42 50,39.9852814 50,37.5 L50,37.5 L50,37.5 C50,35.0147186 52.0147186,33 54.5,33 Z"/>
    <path fill="#F7D63E" d="M69.5,49 L69.5,49 L69.5,49 C71.4329966,49 73,50.5670034 73,52.5 L73,52.5 L73,52.5 C73,54.4329966 71.4329966,56 69.5,56 L69.5,56 L69.5,56 C67.5670034,56 66,54.4329966 66,52.5 L66,52.5 L66,52.5 C66,50.5670034 67.5670034,49 69.5,49 Z"/>
    <path fill="#39C2D7" d="M68.5,49 L69,49 L69,56 L68.5,56 L68.5,56 C66.5670034,56 65,54.4329966 65,52.5 L65,52.5 L65,52.5 C65,50.5670034 66.5670034,49 68.5,49 Z"/>
    <g transform="translate(40 58)">
      <path stroke="#B5D169" d="M2 3.5L9 3.5M5.5-4.12114787e-13L5.5 3M2.5 4L2.5 7M8.5 4L8.5 7"/>
      <polygon fill="#F7D63E" points="5 7 2.5 11.879 0 7"/>
      <polygon fill="#F7D63E" points="11 7 8.5 11.879 6 7"/>
    </g>
    <g transform="translate(68 28)">
      <path stroke="#B5D169" d="M2 33.5L9 33.5M5.5 30L5.5 33M2.5 34L2.5 37M8.5 34L8.5 37"/>
      <polygon fill="#F7D63E" points="5 37 2.5 41.879 0 37"/>
      <polygon fill="#F7D63E" points="11 37 8.5 41.879 6 37"/>
      <path stroke="#B5D169" d="M42.5-4.12114787e-13L42.5 5M42.5 14L42.5 17M18 33.5L25 33.5M21.5 30L21.5 33M18.5 34L18.5 37M24.5 34L24.5 37"/>
      <path fill="#39C2D7" d="M18.5 37L18.5 37 18.5 37C19.8807119 37 21 38.1192881 21 39.5L21 39.5 21 39.5C21 40.8807119 19.8807119 42 18.5 42L18.5 42 18.5 42C17.1192881 42 16 40.8807119 16 39.5L16 39.5 16 39.5C16 38.1192881 17.1192881 37 18.5 37zM24.5 37L24.5 37 24.5 37C25.8807119 37 27 38.1192881 27 39.5L27 39.5 27 39.5C27 40.8807119 25.8807119 42 24.5 42L24.5 42 24.5 42C23.1192881 42 22 40.8807119 22 39.5L22 39.5 22 39.5C22 38.1192881 23.1192881 37 24.5 37z"/>
      <path stroke="#B5D169" d="M28 17.5L57 17.5M42.5 14L42.5 17M28.5 18L28.5 21M56.5 18L56.5 21M21 30.5L34 30.5M28.5 27L28.5 30M46 33.5L53 33.5M49.5 30L49.5 33M46.5 34L46.5 37M52.5 34L52.5 37"/>
      <path fill="#39C2D7" d="M46.5 37L46.5 37 46.5 37C47.8807119 37 49 38.1192881 49 39.5L49 39.5 49 39.5C49 40.8807119 47.8807119 42 46.5 42L46.5 42 46.5 42C45.1192881 42 44 40.8807119 44 39.5L44 39.5 44 39.5C44 38.1192881 45.1192881 37 46.5 37zM52.5 37L52.5 37 52.5 37C53.8807119 37 55 38.1192881 55 39.5L55 39.5 55 39.5C55 40.8807119 53.8807119 42 52.5 42L52.5 42 52.5 42C51.1192881 42 50 40.8807119 50 39.5L50 39.5 50 39.5C50 38.1192881 51.1192881 37 52.5 37z"/>
      <path stroke="#B5D169" d="M49 30.5L62 30.5M56.5 27L56.5 30"/>
      <path fill="#F7D63E" d="M29.5 21L29.5 21 29.5 21C31.4329966 21 33 22.5670034 33 24.5L33 24.5 33 24.5C33 26.4329966 31.4329966 28 29.5 28L29.5 28 29.5 28C27.5670034 28 26 26.4329966 26 24.5L26 24.5 26 24.5C26 22.5670034 27.5670034 21 29.5 21zM43.5 5L43.5 5 43.5 5C45.9852814 5 48 7.01471863 48 9.5L48 9.5 48 9.5C48 11.9852814 45.9852814 14 43.5 14L43.5 14 43.5 14C41.0147186 14 39 11.9852814 39 9.5L39 9.5 39 9.5C39 7.01471863 41.0147186 5 43.5 5zM57.5 21L57.5 21 57.5 21C59.4329966 21 61 22.5670034 61 24.5L61 24.5 61 24.5C61 26.4329966 59.4329966 28 57.5 28L57.5 28 57.5 28C55.5670034 28 54 26.4329966 54 24.5L54 24.5 54 24.5C54 22.5670034 55.5670034 21 57.5 21z"/>
      <path stroke="#B5D169" d="M30 33.5L37 33.5M33.5 30L33.5 33M30.5 34L30.5 37M36.5 34L36.5 37"/>
      <polygon fill="#F7D63E" points="33 37 30.5 41.879 28 37"/>
      <polygon fill="#F7D63E" points="39 37 36.5 41.879 34 37"/>
      <path stroke="#B5D169" d="M58 33.5L65 33.5M61.5 30L61.5 33M58.5 34L58.5 37M64.5 34L64.5 37"/>
      <polygon fill="#F7D63E" points="61 37 58.5 41.879 56 37"/>
      <polygon fill="#F7D63E" points="67 37 64.5 41.879 62 37"/>
    </g>
    <path fill="#39C2D7" d="M96.5 49L97 49 97 56 96.5 56 96.5 56C94.5670034 56 93 54.4329966 93 52.5L93 52.5 93 52.5C93 50.5670034 94.5670034 49 96.5 49zM124.5 49L125 49 125 56 124.5 56 124.5 56C122.567003 56 121 54.4329966 121 52.5L121 52.5 121 52.5C121 50.5670034 122.567003 49 124.5 49zM110.5 33L111 33 111 42 110.5 42 110.5 42C108.014719 42 106 39.9852814 106 37.5L106 37.5 106 37.5C106 35.0147186 108.014719 33 110.5 33z"/>
  </g>
</svg>
