<?xml version="1.0" encoding="UTF-8" standalone="no"?>
<svg width="21px" height="12px" viewBox="0 0 21 12" version="1.1" xmlns="http://www.w3.org/2000/svg" xmlns:xlink="http://www.w3.org/1999/xlink">
    <!-- Generator: sketchtool 42 (36781) - http://www.bohemiancoding.com/sketch -->
    <title>0F744530-26FB-44EC-A02D-A89D0B1231E5</title>
    <desc>Created with sketchtool.</desc>
    <defs></defs>
    <g id="Landing_v4" stroke="none" stroke-width="1" fill="none" fill-rule="evenodd">
        <g id="LOGIN" transform="translate(-379.000000, -747.000000)" fill="#39C2D7">
            <g id="TWEETS&amp;Socials1" transform="translate(125.000000, 411.000000)">
                <g id="socials1" transform="translate(56.000000, 331.000000)">
                    <g id="vk" opacity="0.800000012" transform="translate(198.000000, 5.000000)">
                        <path d="M10.1230253,11.7540422 L11.3596882,11.7540422 C11.3596882,11.7540422 11.7331497,11.7128784 11.924106,11.5074236 C12.0996169,11.3185801 12.094007,10.964207 12.094007,10.964207 C12.094007,10.964207 12.0698187,9.30483177 12.839837,9.06047172 C13.5992182,8.81960877 14.5741085,10.6641847 15.6073566,11.3735137 C16.3887405,11.9101004 16.9825194,11.7926561 16.9825194,11.7926561 L19.7455948,11.7540422 C19.7455948,11.7540422 21.1909182,11.6648661 20.505559,10.5284534 C20.4494596,10.4356345 20.1063064,9.68783738 18.451084,8.15144358 C16.7184153,6.54335919 16.9506812,6.80352906 19.0376501,4.02194813 C20.3086284,2.32796615 20.8166554,1.29384373 20.6579015,0.850950246 C20.5066518,0.428966519 19.5717597,0.540436668 19.5717597,0.540436668 L16.4607954,0.559670733 C16.4607954,0.559670733 16.2299866,0.528269665 16.0590657,0.630559919 C15.8918605,0.730591628 15.7845432,0.964314659 15.7845432,0.964314659 C15.7845432,0.964314659 15.2919617,2.27507247 14.6355263,3.38999253 C13.2502365,5.74223124 12.6962372,5.86674267 12.4697998,5.7204472 C11.9429758,5.37998968 12.0746272,4.35300719 12.0746272,3.62320557 C12.0746272,1.34353173 12.4204032,0.39304836 11.4012892,0.147012613 C11.0631631,0.0654135495 10.8140674,0.0114270263 9.94919015,0.00261141325 C8.8390786,-0.00868131426 7.89974224,0.00603565965 7.36774549,0.266642668 C7.01380956,0.439967821 6.74074412,0.826106246 6.90714792,0.848327419 C7.11282128,0.87572139 7.57837308,0.974004548 7.82521024,1.30987212 C8.1441023,1.74373143 8.13295528,2.71767453 8.13295528,2.71767453 C8.13295528,2.71767453 8.31618889,5.40119087 7.70514305,5.73443562 C7.285855,5.9630587 6.71058161,5.49634121 5.4755215,3.36223428 C4.84283733,2.26909825 4.36497282,1.0606307 4.36497282,1.0606307 C4.36497282,1.0606307 4.27295531,0.834849002 4.10859148,0.71398039 C3.90925662,0.567539214 3.63072696,0.521129747 3.63072696,0.521129747 L0.674363758,0.540436668 C0.674363758,0.540436668 0.230668851,0.55282224 0.0676164375,0.745818596 C-0.0774404688,0.917613767 0.0560322848,1.27249684 0.0560322848,1.27249684 C0.0560322848,1.27249684 2.37038572,6.68732325 4.99117277,9.41608335 C7.39448376,11.9182603 10.1230253,11.7540422 10.1230253,11.7540422" id="Fill-4"></path>
                    </g>
                </g>
            </g>
        </g>
    </g>
</svg>
