<svg xmlns="http://www.w3.org/2000/svg" width="144" height="24" viewBox="0 0 144 24">
  <g fill="#FFFFFF">
    <g transform="translate(1)">
      <path d="M19 9.71428571L19 14 24 8.85714286C23.1746449 6.00792843 21.4011478 3.58592728 19 2L19 9.71428571 19 9.71428571zM18 8L18 1.6C16.1880031.500864394 14.1567043-.0035041985 12.4-.77635684e-14 11.3916488.000658777829 10.6914545.0591372697 10-.77635684e-14L18 8zM5.72727273 10.2L9 7 1.63636364 7C.134147803 9.40505716-.373654717 12.2645533-.77635684e-15 15L5.72727273 10.2 5.72727273 10.2zM23.7921343 16.9871597C23.7921343 16.9871597 25.2792601 12.3663361 24.9532967 10L17 17 23.7921343 16.9871597zM6 15.3846154L6 12C6 12 .90287614 16.760941 1 17.0769231 1.95743639 19.4743195 3.70733404 21.5768454 6 23L6 15.3846154zM9.71428571 6L14 6 8.85714286 1C6.24841178 1.72777713 3.71424545 3.50347883 2 6L9.71428571 6 9.71428571 6zM16.2857143 18L11.1467285 18 16.2857143 23.4489746C17.0667725 23.4489746 22.337463 20.405908 24 18L16.2857143 18zM10.1302404 19.0545386L10.1302404 19.0545386 7 16 7 22.5599852C8.7832994 23.5082422 10.7824274 24.0034405 12.8133035 23.999982 13.5466606 23.9993602 14.2784856 23.9346166 15 23.8065279L10.1302404 19.0545386z"/>
    </g>
    <path d="M4.05264053,9.25 L2.70036265,9.25 L2.70036265,14.1517452 L0,14.1517452 L0,0.733794198 L4.32099955,0.733794198 C5.67816939,0.733794198 6.72644681,1.08322001 7.46583182,1.78207162 C8.20521683,2.48092324 8.57351163,3.48377531 8.57071623,4.79062783 C8.57071623,6.57130175 7.92288078,7.81805304 6.62720988,8.53088169 L8.9900272,14.0238554 L8.9900272,14.1538418 L6.07162285,14.1538418 L4.05264053,9.25 Z M2.70036265,6.99410698 L4.23923391,6.99410698 C4.70864624,7.02616264 5.16364682,6.82455031 5.45523572,6.45529238 C5.74441408,6.03175793 5.88656925,5.52500789 5.85987081,5.01286265 C5.86546162,3.66128362 5.34341946,2.98549411 4.29374433,2.98549411 L2.70036265,2.98549411 L2.70036265,6.99410698 Z M13.8288758,14.332049 C12.4898761,14.332049 11.4457918,13.9330047 10.6966228,13.1349161 C9.94745391,12.3368276 9.57286945,11.1942052 9.57286945,9.70704896 L9.57286945,8.91874433 C9.57286945,7.3463282 9.91670444,6.13312179 10.6043744,5.27912511 C11.2920444,4.42512844 12.2781241,3.9981301 13.5626133,3.9981301 C14.8205462,3.9981301 15.7632971,4.39857208 16.3908658,5.19945603 C17.0184346,6.00033998 17.3406052,7.18838773 17.3573776,8.76359927 L17.3573776,10.0424977 L12.1788871,10.0424977 C12.2152274,10.7888713 12.3780598,11.3346744 12.6673844,11.6799071 C12.956709,12.0251398 13.4018775,12.1977561 14.0028898,12.1977561 C14.8276311,12.2181436 15.6220594,11.8864965 16.1875,11.2857548 L17.2106188,12.8602675 C16.8498208,13.3350383 16.3694098,13.7054757 15.8185063,13.9337035 C15.1943838,14.2077284 14.5188353,14.3449827 13.837262,14.3362421 L13.8288758,14.332049 Z M12.1977561,8.22688123 L14.8058704,8.22688123 L14.8058704,7.97739121 C14.8231413,7.50419337 14.7215051,7.03421609 14.5102561,6.61043744 C14.3257593,6.30014733 14.0063841,6.14500227 13.5521306,6.14500227 C13.1540298,6.11240409 12.7703588,6.30182152 12.5541704,6.63769266 C12.3529012,6.96615292 12.2340964,7.49588244 12.1977561,8.22688123 Z M26.3914325,9.48481414 C26.3914325,11.0516395 26.1223746,12.2522665 25.5842588,13.0866954 C25.0461431,13.9211242 24.245958,14.3404352 23.1837035,14.3446283 C22.4086789,14.3631281 21.6755924,13.9934385 21.2297144,13.3592475 L21.2297144,17.9926337 L18.6341795,17.9926337 L18.6341795,4.18262693 L21.0473141,4.18262693 L21.1500453,5.09462829 C21.5879974,4.39593117 22.361405,3.97935843 23.1858001,3.9981301 C24.2480545,3.9981301 25.0482396,4.3852939 25.5863554,5.15962149 C26.1244711,5.93394908 26.3991198,7.12199683 26.4103015,8.72376473 L26.4103015,9.48481414 L26.3914325,9.48481414 Z M23.793801,8.83907525 C23.793801,7.87186461 23.6875756,7.18768888 23.4751247,6.78654805 C23.2718607,6.39027496 22.8523412,6.15290435 22.4079782,6.18274025 C21.9188635,6.15676343 21.4603509,6.42135314 21.2381006,6.85783092 L21.2381006,11.543631 C21.4713286,11.9756973 21.9373396,12.229661 22.4268472,12.1914665 C22.8883043,12.2253222 23.3200384,11.961391 23.5002833,11.5352448 C23.7001549,11.0977637 23.8000907,10.4170822 23.8000907,9.49320036 L23.8000907,8.83488214 L23.793801,8.83907525 Z M27.4418064,8.83907525 C27.4418064,7.32815805 27.7982208,6.14011031 28.5110494,5.274932 C29.2238781,4.4097537 30.2099577,3.97995996 31.4692883,3.98555077 C32.7411982,3.98555077 33.7328687,4.41534451 34.4442996,5.274932 C35.1557306,6.13451949 35.5121449,7.3260615 35.5135426,8.84955802 L35.5135426,9.47852448 C35.5135426,10.9950325 35.1606225,12.1830802 34.4547824,13.0426677 C33.7489423,13.9022552 32.7600672,14.3292536 31.4881573,14.3236627 C30.2106565,14.3236627 29.2168895,13.8952667 28.5068563,13.0384746 C27.7968231,12.1816825 27.4418064,10.9936348 27.4418064,9.47433137 L27.4418064,8.84536491 L27.4418064,8.83907525 Z M30.0583069,9.49529692 C30.0583069,11.2871525 30.5342248,12.1830802 31.4860607,12.1830802 C32.3638184,12.1830802 32.8369409,11.435309 32.9054284,9.93976655 L32.9054284,8.83697869 C32.9054284,7.92288078 32.7796351,7.24429586 32.5280485,6.80122393 C32.329578,6.3923437 31.9132888,6.13440767 31.4588055,6.1387126 C31.0143619,6.14020117 30.6107961,6.39835261 30.4231074,6.80122393 C30.1743163,7.24289816 30.0499207,7.92148308 30.0499207,8.83697869 L30.0499207,9.49529692 L30.0583069,9.49529692 Z M41.7759519,6.69220308 L40.9100748,6.61882366 C40.1972461,6.61882366 39.7150385,6.93190919 39.4634519,7.55808024 L39.4634519,14.1454556 L36.8553377,14.1454556 L36.8553377,4.18262693 L39.3145966,4.18262693 L39.3900725,5.26025612 C39.8009973,4.42163418 40.3691636,4.00232321 41.0945716,4.00232321 C41.3398696,3.99347869 41.5844368,4.03412106 41.8136899,4.12182684 L41.7759519,6.69220308 Z M46.2458069,1.7275612 L46.2458069,4.18262693 L47.5813123,4.18262693 L47.5813123,6.13032638 L46.2458069,6.13032638 L46.2458069,11.086582 C46.2207009,11.3669224 46.2767392,11.6485693 46.4072416,11.8979488 C46.5148648,12.0461053 46.7245202,12.1201836 47.0362081,12.1201836 C47.2435996,12.1248505 47.4507379,12.1030093 47.6525952,12.0551904 L47.6274365,14.0972348 C47.1670284,14.2665839 46.679746,14.3511125 46.1891999,14.3467248 C44.511956,14.3467248 43.6614536,13.3816108 43.6376927,11.4513826 L43.6376927,6.13032638 L42.486684,6.13032638 L42.486684,4.18262693 L43.6376927,4.18262693 L43.6376927,1.7275612 L46.2458069,1.7275612 Z M52.7912511,9.43030372 L52.7912511,14.1475521 L50.0825023,14.1475521 L50.0825023,0.729601088 L54.6529918,0.729601088 C55.9794122,0.729601088 57.0374736,1.14122469 57.8271759,1.96447189 C58.6168782,2.7877191 59.0117294,3.85626322 59.0117294,5.17010426 C59.0117294,6.4839453 58.6217702,7.52173995 57.8418518,8.28348821 C57.0619334,9.04523648 55.9808099,9.42611061 54.5984814,9.42611061 L52.7933477,9.42611061 L52.7912511,9.43030372 Z M52.7912511,7.17231414 L54.6529918,7.17231414 C55.1092701,7.19882887 55.5518544,7.01125374 55.8501247,6.66494787 C56.1296653,6.32670369 56.2694356,5.83750756 56.2694356,5.19735947 C56.298495,4.63221702 56.1464584,4.07254619 55.8354488,3.59978468 C55.5766914,3.21436246 55.1423734,2.98382769 54.6781505,2.98549411 L52.7912511,2.98549411 L52.7912511,7.17860381 L52.7912511,7.17231414 Z M59.6952063,8.84955802 C59.6952063,7.33864083 60.0516206,6.15059308 60.7644492,5.28541478 C61.4772779,4.42023648 62.4633575,3.99044273 63.7226881,3.99603354 C64.9945981,3.99603354 65.9862685,4.42582729 66.6976995,5.28541478 C67.4091304,6.14500227 67.7655447,7.33654427 67.7669424,8.8600408 L67.7669424,9.48900725 C67.7669424,11.0055153 67.4140224,12.193563 66.7081822,13.0531505 C66.0023421,13.912738 65.0134671,14.3397363 63.7415571,14.3341455 C62.4640564,14.3341455 61.4702894,13.9057495 60.7602561,13.0489574 C60.0502229,12.1921653 59.6952063,11.0041176 59.6952063,9.48481414 L59.6952063,8.85584769 L59.6952063,8.84955802 Z M62.3117067,9.50577969 C62.3117067,11.2976352 62.7876247,12.193563 63.7394606,12.193563 C64.6172182,12.193563 65.0903407,11.4457918 65.1588282,9.95024932 L65.1588282,8.84746147 C65.1588282,7.93336355 65.0330349,7.25477863 64.7814483,6.81170671 C64.5829778,6.40282647 64.1666886,6.14489045 63.7122053,6.14919538 C63.2677617,6.15068394 62.8641959,6.40883538 62.6765073,6.81170671 C62.4277161,7.25338093 62.3033205,7.93196585 62.3033205,8.84746147 L62.3033205,9.50577969 L62.3117067,9.50577969 Z M74.0293518,6.70268586 L73.1634746,6.62930644 C72.450646,6.62930644 71.9684383,6.94239196 71.7168518,7.56856301 L71.7168518,14.1559383 L69.1003513,14.1559383 L69.1003513,4.18262693 L71.5596102,4.18262693 L71.6329896,5.26025612 C72.0439143,4.42163418 72.6120807,4.00232321 73.3374887,4.00232321 C73.5827866,3.99347869 73.8273538,4.03412106 74.056607,4.12182684 L74.0293518,6.70268586 Z M78.4887239,1.7275612 L78.4887239,4.18262693 L79.8242294,4.18262693 L79.8242294,6.13032638 L78.4887239,6.13032638 L78.4887239,11.086582 C78.4636179,11.3669224 78.5196562,11.6485693 78.6501587,11.8979488 C78.7577818,12.0461053 78.9674373,12.1201836 79.2791251,12.1201836 C79.4865166,12.1248505 79.693655,12.1030093 79.8955122,12.0551904 L79.8724501,14.0972348 C79.412042,14.2665839 78.9247596,14.3511125 78.4342135,14.3467248 C76.7569696,14.3467248 75.9064672,13.3816108 75.8827063,11.4513826 L75.8827063,6.13032638 L74.7316976,6.13032638 L74.7316976,4.18262693 L75.8827063,4.18262693 L75.8827063,1.7275612 L78.4908205,1.7275612 L78.4887239,1.7275612 Z M85.8057004,14.1475521 C85.703964,13.898601 85.6301339,13.6391408 85.5855621,13.3739234 C85.1559532,13.9937602 84.442015,14.3542792 83.68818,14.332049 C82.9092442,14.3529739 82.1566542,14.049204 81.6104941,13.493427 C81.0529645,12.9211336 80.7550575,12.1449078 80.7865481,11.3465549 C80.7865481,10.3024705 81.1199003,9.49459807 81.7866047,8.92293744 C82.4533092,8.35127682 83.4128324,8.0598557 84.6651745,8.04867407 L85.4576723,8.04867407 L85.4576723,7.26036945 C85.4576723,6.81170671 85.3807986,6.49512693 85.2270512,6.3106301 C85.057624,6.11921983 84.8091247,6.0170332 84.5540571,6.03388486 C83.9027274,6.03388486 83.5770626,6.41475899 83.5770626,7.17650725 L80.9689483,7.17650725 C80.9491125,6.29817433 81.3303138,5.45860542 82.0046464,4.89545558 C82.7370901,4.28238384 83.6708384,3.9626684 84.62534,3.9981301 C85.7183439,3.9981301 86.5646532,4.28186386 87.1642679,4.84933137 C87.7638826,5.41679888 88.0636899,6.22886446 88.0636899,7.28552811 L88.0636899,11.9755213 C88.0762693,12.8351088 88.1992672,13.507404 88.4326836,13.9924071 L88.4326836,14.1496487 L85.8057004,14.1496487 L85.8057004,14.1475521 Z M84.2668291,12.2858114 C84.5238808,12.2940485 84.778523,12.234005 85.0048164,12.1117974 C85.1880059,12.0122483 85.3430611,11.8680109 85.4555757,11.6924864 L85.4555757,9.61899365 L84.8266092,9.61899365 C84.4324266,9.59721964 84.0487578,9.75068716 83.7783318,10.0383046 C83.5116607,10.354176 83.3752315,10.7597154 83.3967588,11.1725408 C83.3995542,11.9175166 83.6895777,12.2900045 84.2668291,12.2900045 L84.2668291,12.2858114 Z M92.3595308,14.1475521 L89.7430304,14.1475521 L89.7430304,0 L92.3595308,0 L92.3595308,14.1517452 L92.3595308,14.1475521 Z M94.1395059,12.8204329 C94.127356,12.4328151 94.2796666,12.058131 94.5588169,11.7889279 C94.853739,11.5127279 95.2474357,11.3668863 95.6511219,11.3842928 C96.0521625,11.3708035 96.4426104,11.5144943 96.7392339,11.7847348 C97.0276434,12.0504174 97.1860757,12.428512 97.1732208,12.8204329 C97.188469,13.2136533 97.02787,13.5932511 96.7350408,13.856131 C96.4373548,14.1195389 96.0505441,14.2597204 95.6532185,14.2481868 C95.2547999,14.2618316 94.8667433,14.1196946 94.5713962,13.8519379 C94.2860873,13.5879232 94.1292959,13.2131533 94.1416024,12.824626 L94.1395059,12.8204329 Z M98.8504646,1.5975748 C98.8367767,1.22631806 98.9771449,0.865913212 99.2383273,0.601711242 C99.8295504,0.0866438338 100.710114,0.0866438338 101.301337,0.601711242 C101.56252,0.865913212 101.702888,1.22631806 101.6892,1.5975748 C101.710304,2.11723201 101.445506,2.60681616 100.999052,2.87358902 C100.552598,3.14036188 99.9959934,3.14159604 99.5483607,2.87680563 C99.100728,2.61201522 98.833762,2.12361015 98.8525612,1.60386446 L98.8504646,1.5975748 Z M101.586469,14.1454556 L98.9720648,14.1454556 L98.9720648,4.18262693 L101.588565,4.18262693 L101.588565,14.1517452 L101.586469,14.1454556 Z M102.928264,8.83907525 C102.928264,7.32815805 103.284678,6.14011031 103.997507,5.274932 C104.710335,4.4097537 105.696415,3.97995996 106.955746,3.98555077 C108.227656,3.98555077 109.219326,4.41534451 109.930757,5.274932 C110.642188,6.13451949 110.998602,7.3260615 111,8.84955802 L111,9.47852448 C111,10.9950325 110.64708,12.1830802 109.94124,13.0426677 C109.2354,13.9022552 108.246525,14.3292536 106.974615,14.3236627 C105.697114,14.3236627 104.703347,13.8952667 103.993314,13.0384746 C103.28328,12.1816825 102.928264,10.9936348 102.928264,9.47433137 L102.928264,8.84536491 L102.928264,8.83907525 Z M105.544764,9.49529692 C105.544764,11.2871525 106.020682,12.1830802 106.972518,12.1830802 C107.850276,12.1830802 108.323398,11.435309 108.391886,9.93976655 L108.391886,8.83697869 C108.391886,7.92288078 108.266092,7.24429586 108.014506,6.80122393 C107.816035,6.3923437 107.399746,6.13440767 106.945263,6.1387126 C106.500819,6.14020117 106.097253,6.39835261 105.909565,6.80122393 C105.660774,7.24289816 105.536378,7.92148308 105.536378,8.83697869 L105.536378,9.49529692 L105.544764,9.49529692 Z" transform="translate(33 5)"/>
  </g>
</svg>
