<svg xmlns="http://www.w3.org/2000/svg" width="106" height="48"  viewBox="0 0 61 36" preserveAspectRatio="xMidYMid meet">
  <g fill="none" fill-rule="evenodd">
    <rect width="52.096" height="23.713" x="4.257" y="6.144" fill="#F9F9F9" stroke="#CCCCCC" transform="rotate(7 30.305 18)" rx="1"/>
    <g transform="rotate(-7 78.401 -19.876)">
      <rect width="52.096" height="23.713" fill="#F9F9F9" stroke="#CCCCCC" rx="1"/>
      <path fill="#BDC7CC" fill-opacity=".502" d="M47.6047904,13.4730539 L24.5209581,13.4730539 L24.5209581,10.1497006 L47.6047904,10.1497006 L47.6047904,13.4730539 L47.6047904,13.4730539 Z M47.6047904,3.50299401 L24.5209581,3.50299401 L24.5209581,6.82634731 L47.6047904,6.82634731 L47.6047904,3.50299401 L47.6047904,3.50299401 Z M24.5209581,20.2095808 L47.6047904,20.2095808 L47.6047904,16.8862275 L24.5209581,16.8862275 L24.5209581,20.2095808 L24.5209581,20.2095808 Z M21.1976048,6.84431138 L21.1976048,16.8682635 C21.1976048,18.705988 19.694012,20.2095808 17.8562874,20.2095808 L7.83233533,20.2095808 C5.99461078,20.2095808 4.49101796,18.705988 4.49101796,16.8682635 L4.49101796,6.84431138 C4.49101796,5.00658683 5.99461078,3.50299401 7.83233533,3.50299401 L17.8562874,3.50299401 C19.694012,3.50299401 21.1976048,5.00658683 21.1976048,6.84431138 L21.1976048,6.84431138 Z M18.6826347,16.8862275 L14.9294269,11.8562874 L12.0102652,15.645509 L9.9251497,13.1137725 L7.00598802,16.8862275 L18.6826347,16.8862275 L18.6826347,16.8862275 Z"/>
    </g>
    <path fill="#BDC7CC" d="M33.960743,22.3413649 C33.960743,24.7281639 32.0275429,26.661365 29.6407429,26.661365 C27.2539429,26.661365 25.3207429,24.7281639 25.3207429,22.3413649 L25.3207429,8.8413648 C25.3207429,7.35096479 26.5303429,6.14136477 28.0207429,6.14136477 C29.5111429,6.14136477 30.7207429,7.35096479 30.7207429,8.8413648 L30.7207429,20.1813649 C30.7207429,20.7753649 30.2401429,21.2613649 29.6407429,21.2613649 C29.0413429,21.2613649 28.5607429,20.7753649 28.5607429,20.1813649 L28.5607429,9.92136481 L26.9407429,9.92136481 L26.9407429,20.1813649 C26.9407429,21.6717649 28.1503429,22.8813649 29.6407429,22.8813649 C31.1311429,22.8813649 32.3407429,21.6717649 32.3407429,20.1813649 L32.3407429,8.8413648 C32.3407429,6.45456478 30.4075429,4.52136476 28.0207429,4.52136476 C25.6339429,4.52136476 23.7007429,6.45456478 23.7007429,8.8413648 L23.7007429,22.3413649 C23.7007429,25.624566 26.3629429,28.281365 29.6407429,28.281365 C32.9185429,28.281365 35.580743,25.624566 35.580743,22.3413649 L35.580743,9.92136481 L33.960743,9.92136481 L33.960743,22.3413649 Z" transform="rotate(25 29.64 16.401)"/>
  </g>
</svg>
