<svg xmlns="http://www.w3.org/2000/svg" width="500" height="726" viewBox="0 0 500 726" xmlns:xlink="http://www.w3.org/1999/xlink">
  <defs>
    <path id="a" d="M20.9984931,22.7432633 L27.7677239,22.7432633 L32.844647,17.8543744 C40.4638416,19.0503864 47.2932059,18.8555569 49.7677239,18.6691892 C57.5626539,18.8555562 64.3344269,12.7239576 64.9984931,12.1506707 C64.7483188,10.6734062 57.4930911,4.71290531 49.7677239,4.81733739 C47.2961396,4.71290531 40.527551,4.71496682 33.6908008,5.63215221 L27.7677239,0.743263317 L20.9984931,1.55807813 L20.9984931,2.37289295 L24.3831085,6.44696702 C19.9666541,9.15313986 21.2549481,7.69330053 20.9984931,12.1506707 C21.2549481,15.872901 19.7043856,14.3141215 24.3831085,17.0395596 L20.9984931,21.9284485 L20.9984931,22.7432633 Z"/>
    <mask id="d" width="44" height="22" x="0" y="0" fill="white">
      <use xlink:href="#a"/>
    </mask>
    <path id="b" d="M48.7488558,15.864018 C51.2341372,15.864018 53.2488558,13.8492994 53.2488558,11.364018 C53.2488558,8.87873661 51.2341372,6.86401798 48.7488558,6.86401798 C46.2635744,6.86401798 44.2488558,8.87873661 44.2488558,11.364018 C44.2488558,13.8492994 46.2635744,15.864018 48.7488558,15.864018 Z"/>
    <mask id="e" width="9" height="9" x="0" y="0" fill="white">
      <use xlink:href="#b"/>
    </mask>
    <rect id="c" width="282" height="131" rx="5"/>
    <mask id="f" width="282" height="131" x="0" y="0" fill="white">
      <use xlink:href="#c"/>
    </mask>
  </defs>
  <g fill="none" fill-rule="evenodd">
    <g stroke="#91D9E5" stroke-width="2" transform="rotate(-5 1438.255 -3528.668)">
      <use fill="#D7F3F4" stroke-opacity=".25" mask="url(#d)" transform="matrix(1 0 0 -1 0 23.487)" xlink:href="#a"/>
      <use fill="#FFFFFF" fill-opacity=".35" stroke-opacity=".3" mask="url(#e)" xlink:href="#b"/>
    </g>
    <path stroke="#39C2D7" d="M0,672 C0,672 313.5,673.5 313.5,559 C313.5,504.5 253.076114,493 220.5,501 C187.923886,509 137.5,539.5 145,601 C152.5,662.5 217.675576,736.778765 325,679 C432.324424,621.221235 464,507 427,436.5 C356.38528,327.982946 145.238287,360.439423 100.5,334 C55.7617126,307.560577 34.5,246.5 79,188 C123.5,129.5 332.5,122 332.5,122" stroke-dasharray="3 4" opacity=".303"/>
    <g transform="translate(102 250)">
      <use fill="#FFFFFF" fill-opacity=".85" stroke="#91D9E5" stroke-opacity=".3" stroke-width="2" mask="url(#f)" xlink:href="#c"/>
      <path fill="#D7F3F4" d="M115 51C115 46.581722 118.572856 43 123.009465 43L231.990535 43C236.41404 43 240 46.5907123 240 51L240 51C240 55.418278 236.427144 59 231.990535 59L123.009465 59C118.58596 59 115 55.4092877 115 51L115 51zM115 80C115 75.581722 118.572856 72 123.009465 72L231.990535 72C236.41404 72 240 75.5907123 240 80L240 80C240 84.418278 236.427144 88 231.990535 88L123.009465 88C118.58596 88 115 84.4092877 115 80L115 80zM69 38C54.0825 38 42 50.30625 42 66 42 80.69375 54.0825 93 69 93 83.9175 93 96 80.69375 96 66 96 50.30625 83.9175 38 69 38zM69 46C73.4133333 46 77 49.5866667 77 54 77 58.4266667 73.4133333 62 69 62 64.5866667 62 61 58.4266667 61 54 61 49.5866667 64.5866667 46 69 46zM69 85C62.32 85 56.4533333 81.5460296 53 76 53.0666667 70.9547614 63.68 68 69 68 74.32 68 84.92 70.9547614 85 76 81.5466667 81.5460296 75.68 85 69 85z"/>
    </g>
  </g>
</svg>
