<svg xmlns="http://www.w3.org/2000/svg" width="320" height="146" viewBox="0 0 320 146" xmlns:xlink="http://www.w3.org/1999/xlink">
  <defs>
    <rect id="d" width="320" height="146"/>
    <path id="a" d="M15.9810935,17.9146771 L21.2118628,17.9146771 L25.1349397,14.1368993 C31.0224991,15.0610904 36.2997352,14.9105403 38.2118628,14.7665289 C44.2352177,14.9105398 49.4679515,10.1724863 49.9810935,9.72949189 C49.787777,8.58796929 44.1814647,3.9821277 38.2118628,4.06282522 C36.3020022,3.9821277 31.0717291,3.98372069 25.7887858,4.69245485 L21.2118628,0.914677072 L15.9810935,1.5443067 L15.9810935,2.17393633 L18.5964781,5.32208448 C15.1837633,7.41321804 16.1792633,6.28516037 15.9810935,9.72949189 C16.1792633,12.6057608 14.9811014,11.4012493 18.5964781,13.5072697 L15.9810935,17.2850474 L15.9810935,17.9146771 Z"/>
    <mask id="f" width="34.039" height="17" x="0" y="0" fill="white">
      <use xlink:href="#a"/>
    </mask>
    <path id="b" d="M37.5909537,12.203554 C39.2478079,12.203554 40.5909537,10.8604082 40.5909537,9.20355397 C40.5909537,7.54669972 39.2478079,6.20355397 37.5909537,6.20355397 C35.9340994,6.20355397 34.5909537,7.54669972 34.5909537,9.20355397 C34.5909537,10.8604082 35.9340994,12.203554 37.5909537,12.203554 Z"/>
    <mask id="g" width="6" height="6" x="0" y="0" fill="white">
      <use xlink:href="#b"/>
    </mask>
    <rect id="c" width="155" height="72" rx="5"/>
    <mask id="h" width="155" height="72" x="0" y="0" fill="white">
      <use xlink:href="#c"/>
    </mask>
  </defs>
  <g fill="none" fill-rule="evenodd">
    <mask id="e" fill="white">
      <use xlink:href="#d"/>
    </mask>
    <g transform="translate(19 17)" mask="url(#e)">
      <path stroke="#39C2D7" d="M274.154324,129.135335 C273.002911,127.826633 271.707283,126.553904 270.268221,125.322194 C219.123282,90.0163021 66.1934117,100.575978 33.7902956,91.9739432 C1.38717951,83.3719089 -14.5594829,63.142738 18.2182423,44.4730201 C73.7382812,12.8496094 246.978516,12.8496094 246.978516,12.8496094" stroke-dasharray="3 4" opacity=".303"/>
      <g transform="rotate(-5 165.403 -2620.259)">
        <use fill="#D7F3F4" stroke="#91D9E5" stroke-opacity=".25" stroke-width="2" mask="url(#f)" transform="matrix(1 0 0 -1 0 18.83)" xlink:href="#a"/>
        <use fill="#FFFFFF" fill-opacity=".35" stroke="#91D9E5" stroke-opacity=".3" stroke-width="2" mask="url(#g)" xlink:href="#b"/>
      </g>
      <g transform="translate(64 90)">
        <use fill="#F6FDFD" stroke="#91D9E5" stroke-opacity=".2" stroke-width="2" mask="url(#h)" xlink:href="#c"/>
        <rect width="69" height="9" x="63" y="24" fill="#E3F7F8" rx="4.5"/>
        <path fill="#E3F7F8" d="M38,21 C29.7125,21 23,27.7125 23,36 C23,44.2875 29.7125,51 38,51 C46.2875,51 53,44.2875 53,36 C53,27.7125 46.2875,21 38,21 Z M39,25 C40.9825,25 43,27.0175 43,30 C43,31.99 40.9825,34 39,34 C36.0175,34 34,31.99 34,30 C34,27.0175 36.0175,25 39,25 Z M38,46 C34.2425,46 30.9425,44.1714274 29,41 C29.0375,38.5642855 35.0075,37 38,37 C40.9925,37 46.955,38.5642855 47,41 C45.0575,44.1714274 41.7575,46 38,46 Z"/>
      </g>
    </g>
  </g>
</svg>
