<svg xmlns="http://www.w3.org/2000/svg" width="106" height="48"  viewBox="0 0 61 36" preserveAspectRatio="xMidYMid meet">
  <g fill="none" fill-rule="evenodd">
    <rect width="52.096" height="23.713" x="4.257" y="6.144" fill="#F9F9F9" stroke="#CCCCCC" transform="rotate(7 30.305 18)" rx="1"/>
    <rect width="52.096" height="23.713" fill="#F9F9F9" stroke="#CCCCCC" rx="1" transform="rotate(-7 78.401 -19.876)"/>
    <path fill="#BDC7CC" d="M17.9422355,22.3844757 C17.9422355,22.0036144 18.0435529,21.7082072 18.2461906,21.4982452 C18.4488283,21.2882832 18.750339,21.1833038 19.1507316,21.1833038 C19.5511243,21.1833038 19.8538556,21.2870625 20.0589348,21.4945831 C20.2640139,21.7021037 20.3665519,21.9987316 20.3665519,22.3844757 C20.3665519,22.7653369 20.2603518,23.0607441 20.0479484,23.2707061 C19.835545,23.4806681 19.5364757,23.5856475 19.1507316,23.5856475 C18.7552218,23.5856475 18.4549319,23.4794474 18.2498527,23.267044 C18.0447736,23.0546406 17.9422355,22.7604541 17.9422355,22.3844757 Z M25.6766105,14.2692413 C25.1053186,14.2692413 24.6548837,14.6037106 24.3252922,15.2726593 C23.9957007,15.9416079 23.8309074,16.8717744 23.8309074,18.0631866 C23.8309074,20.5436678 24.4778736,21.7838897 25.7718254,21.7838897 C26.3382345,21.7838897 26.9314902,21.6032275 27.5516105,21.2418975 L27.5516105,23.0143585 C27.029147,23.3610399 26.3602084,23.534378 25.5447746,23.534378 C24.3387139,23.534378 23.4122095,23.0546465 22.7652336,22.095169 C22.1182577,21.1356916 21.7947746,19.7868281 21.7947746,18.0485382 C21.7947746,16.3102482 22.1280232,14.9552813 22.7945305,13.9835968 C23.4610377,13.0119122 24.3875421,12.5260772 25.5740715,12.5260772 C25.9646984,12.5260772 26.3394505,12.5797876 26.6983391,12.68721 C27.0572276,12.7946325 27.4417452,12.9826189 27.8519035,13.2511749 L27.1927238,14.8698272 C26.9729962,14.7184593 26.7386235,14.5805212 26.4895988,14.4560089 C26.2405741,14.3314965 25.9695807,14.2692413 25.6766105,14.2692413 Z M33.9456535,20.4362335 C33.9456535,21.437215 33.6929705,22.2038089 33.1875969,22.7360382 C32.6822232,23.2682674 31.9534708,23.534378 31.0013176,23.534378 C30.0686957,23.534378 29.2752466,23.3512744 28.6209465,22.9850616 L28.6209465,21.0148468 C29.4217317,21.5373103 30.1565877,21.7985382 30.8255363,21.7985382 C31.2063976,21.7985382 31.49326,21.6935587 31.686132,21.4835968 C31.8790041,21.2736348 31.9754387,20.9879931 31.9754387,20.6266632 C31.9754387,20.2702161 31.8606937,19.9442916 31.6312004,19.64888 C31.401707,19.3534683 31.0232929,19.0251025 30.4959465,18.6637725 C30.0369598,18.3463881 29.6890629,18.0424361 29.4522453,17.7519073 C29.2154277,17.4613785 29.0323241,17.135454 28.9029289,16.7741241 C28.7735337,16.4127942 28.7088371,15.9928765 28.7088371,15.5143585 C28.7088371,14.5963851 28.9639615,13.8688534 29.474218,13.3317413 C29.9844744,12.7946292 30.669282,12.5260772 31.5286613,12.5260772 C32.3489779,12.5260772 33.1375443,12.7555671 33.894384,13.2145538 L33.2352043,14.8112335 C33.0008281,14.674514 32.7554692,14.552445 32.4991203,14.4450225 C32.2427714,14.3376001 31.9681159,14.2838897 31.6751457,14.2838897 C31.3528785,14.2838897 31.1050782,14.3900898 30.9317375,14.6024932 C30.7583968,14.8148967 30.6717277,15.1042004 30.6717277,15.4704132 C30.6717277,15.8317431 30.7754865,16.1466814 30.983007,16.4152374 C31.1905276,16.6837934 31.5530728,16.9889661 32.0706535,17.3307647 C32.7688992,17.7995171 33.2559549,18.2780279 33.5318351,18.7663116 C33.8077154,19.2545953 33.9456535,19.8112304 33.9456535,20.4362335 Z M40.1419426,20.4362335 C40.1419426,21.437215 39.8892595,22.2038089 39.3838859,22.7360382 C38.8785123,23.2682674 38.1497598,23.534378 37.1976066,23.534378 C36.2649848,23.534378 35.4715357,23.3512744 34.8172355,22.9850616 L34.8172355,21.0148468 C35.6180208,21.5373103 36.3528767,21.7985382 37.0218254,21.7985382 C37.4026867,21.7985382 37.689549,21.6935587 37.8824211,21.4835968 C38.0752931,21.2736348 38.1717277,20.9879931 38.1717277,20.6266632 C38.1717277,20.2702161 38.0569828,19.9442916 37.8274894,19.64888 C37.5979961,19.3534683 37.2195819,19.0251025 36.6922355,18.6637725 C36.2332489,18.3463881 35.885352,18.0424361 35.6485344,17.7519073 C35.4117168,17.4613785 35.2286131,17.135454 35.099218,16.7741241 C34.9698228,16.4127942 34.9051262,15.9928765 34.9051262,15.5143585 C34.9051262,14.5963851 35.1602506,13.8688534 35.670507,13.3317413 C36.1807635,12.7946292 36.8655711,12.5260772 37.7249504,12.5260772 C38.545267,12.5260772 39.3338333,12.7555671 40.090673,13.2145538 L39.4314933,14.8112335 C39.1971172,14.674514 38.9517583,14.552445 38.6954094,14.4450225 C38.4390604,14.3376001 38.164405,14.2838897 37.8714348,14.2838897 C37.5491675,14.2838897 37.3013673,14.3900898 37.1280266,14.6024932 C36.9546858,14.8148967 36.8680168,15.1042004 36.8680168,15.4704132 C36.8680168,15.8317431 36.9717755,16.1466814 37.1792961,16.4152374 C37.3868167,16.6837934 37.7493619,16.9889661 38.2669426,17.3307647 C38.9651882,17.7995171 39.4522439,18.2780279 39.7281242,18.7663116 C40.0040045,19.2545953 40.1419426,19.8112304 40.1419426,20.4362335 Z" transform="rotate(-7 29.042 18.056)"/>
  </g>
</svg>
