<svg xmlns="http://www.w3.org/2000/svg" width="106" height="48"  viewBox="0 0 61 36" preserveAspectRatio="xMidYMid meet">
  <g fill="none" fill-rule="evenodd">
    <rect width="52.096" height="23.713" x="4.257" y="6.144" fill="#F9F9F9" stroke="#CCCCCC" transform="rotate(7 30.305 18)" rx="1"/>
    <rect width="52.096" height="23.713" fill="#F9F9F9" stroke="#CCCCCC" rx="1" transform="rotate(-7 78.401 -19.876)"/>
    <path fill="#BDC7CC" d="M23.7464089,23.7893911 L21.7615456,23.7893911 L21.7615456,14.8318716 L19.7107643,14.8318716 L19.7107643,13.0813833 L25.7971901,13.0813833 L25.7971901,14.8318716 L23.7464089,14.8318716 L23.7464089,23.7893911 Z M33.092112,23.7893911 L31.0193581,23.7893911 L29.4885964,19.9515005 L28.0676979,23.7893911 L25.994944,23.7893911 L28.4412331,18.2229848 L26.1780495,13.0813833 L28.1848854,13.0813833 L29.5984596,16.6043325 L30.8216042,13.0813833 L32.9090065,13.0813833 L30.6458229,18.3108755 L33.092112,23.7893911 Z M37.3255104,23.7893911 L35.3406471,23.7893911 L35.3406471,14.8318716 L33.2898659,14.8318716 L33.2898659,13.0813833 L39.3762917,13.0813833 L39.3762917,14.8318716 L37.3255104,14.8318716 L37.3255104,23.7893911 Z" transform="rotate(-7 29.544 18.435)"/>
  </g>
</svg>
