<svg xmlns="http://www.w3.org/2000/svg" width="61" height="36" viewBox="0 0 61 36">
  <g fill="none" fill-rule="evenodd">
    <rect width="52.096" height="23.713" x="4.257" y="6.144" fill="#F9F9F9" stroke="#CCC" rx="1" transform="rotate(7 30.305 18)"/>
    <g transform="rotate(-7 78.401 -19.876)">
      <rect width="52.096" height="23.713" fill="#F9F9F9" stroke="#CCC" rx="1"/>
      <path fill="#BDC7CC" d="M12.383254,15.957933 C12.383254,15.5770717 12.4845714,15.2816645 12.6872091,15.0717025 C12.8898468,14.8617405 13.1913575,14.7567611 13.5917501,14.7567611 C13.9921427,14.7567611 14.2948741,14.8605198 14.4999532,15.0680404 C14.7050324,15.275561 14.8075704,15.5721889 14.8075704,15.957933 C14.8075704,16.3387942 14.7013703,16.6342014 14.4889669,16.8441634 C14.2765635,17.0541254 13.9774942,17.1591048 13.5917501,17.1591048 C13.1962403,17.1591048 12.8959504,17.0529047 12.6908712,16.8405013 C12.4857921,16.6280979 12.383254,16.3339114 12.383254,15.957933 Z M23.1791525,16.9613509 L21.186965,16.9613509 L21.186965,12.2665267 L18.5575704,12.2665267 L18.5575704,16.9613509 L16.5653829,16.9613509 L16.5653829,6.25334312 L18.5575704,6.25334312 L18.5575704,10.5087142 L21.186965,10.5087142 L21.186965,6.25334312 L23.1791525,6.25334312 L23.1791525,16.9613509 Z M30.1371603,16.9613509 L29.5219259,14.2587142 L26.7313985,14.2587142 L26.1161642,16.9613509 L24.1239767,16.9613509 L26.7753439,6.20939781 L29.4779806,6.20939781 L32.136672,16.9613509 L30.1371603,16.9613509 Z M29.1483907,12.4935775 L28.5771017,10.0033431 C28.5429218,9.85197518 28.4660183,9.4723403 28.3463888,8.86442711 C28.2267593,8.25651391 28.1547385,7.85002384 28.1303243,7.64494469 C28.0668475,8.06486866 27.9862818,8.52751052 27.8886251,9.03288414 C27.7909684,9.53825776 27.5370647,10.6918107 27.1269064,12.4935775 L29.1483907,12.4935775 Z M35.0736837,12.7938705 L35.0736837,16.9613509 L33.0814962,16.9613509 L33.0814962,6.25334312 L35.6889181,6.25334312 C36.7924392,6.25334312 37.6066401,6.51457098 38.131545,7.03703453 C38.65645,7.55949808 38.9188985,8.35782994 38.9188985,9.43205406 C38.9188985,10.7845999 38.4623601,11.7294147 37.5492696,12.2665267 L39.6073751,16.9613509 L37.4760275,16.9613509 L35.7841329,12.7938705 L35.0736837,12.7938705 Z M35.0736837,11.0800033 L35.586379,11.0800033 C36.0551314,11.0800033 36.3920421,10.946948 36.5971212,10.6808334 C36.8022004,10.4147187 36.9047384,10.0179942 36.9047384,9.49064781 C36.9047384,8.94377008 36.7960969,8.55436967 36.5788107,8.32243492 C36.3615244,8.09050017 36.0258344,7.97453453 35.5717306,7.97453453 L35.0736837,7.97453453 L35.0736837,11.0800033 Z"/>
    </g>
  </g>
</svg>
