<svg width="32" height="32" viewBox="0 0 32 32" fill="none" xmlns="http://www.w3.org/2000/svg">
    <path fill-rule="evenodd" clip-rule="evenodd"
          d="M26 12V28H6V4L18 4V9C18 10.6569 19.3431 12 21 12H26ZM25.6716 10L20 4.32843V9C20 9.55228 20.4477 10 21 10H25.6716ZM19 2H19.6716C20.202 2 20.7107 2.21071 21.0858 2.58579L27.4142 8.91421C27.7893 9.28929 28 9.79799 28 10.3284V28C28 29.1046 27.1046 30 26 30H6C4.89543 30 4 29.1046 4 28V4C4 2.89543 4.89543 2 6 2H19Z"
          fill="#BDC7CC"></path>
    <path fill-rule="evenodd" clip-rule="evenodd"
          d="M26 15H6V25H26V15ZM16.7617 17.6456C17.413 16.7719 18.8588 16.7878 19.4858 17.6762L21.7488 20.7803L21.7527 20.7858C22.4212 21.7434 21.6583 23 20.3751 23H11.6251C10.1136 23 9.43668 21.3333 10.5581 20.4603L13.1599 18.4347C13.8359 17.9084 14.8613 17.9717 15.4501 18.5741L15.7738 18.9053L16.7617 17.6456Z"
          fill="#BDC7CC"></path>
</svg>
