<svg xmlns="http://www.w3.org/2000/svg" width="106" height="48"  viewBox="0 0 61 36" preserveAspectRatio="xMidYMid meet">
  <g fill="none" fill-rule="evenodd">
    <rect width="52.096" height="23.713" x="4.257" y="6.144" fill="#F9F9F9" stroke="#CCCCCC" transform="rotate(7 30.305 18)" rx="1"/>
    <rect width="52.096" height="23.713" fill="#F9F9F9" stroke="#CCCCCC" rx="1" transform="rotate(-7 78.401 -19.876)"/>
    <path fill="#BDC7CC" d="M25.1927238,26.4787139 C24.6751431,26.4787139 24.264991,26.4176794 23.9622551,26.2956085 L23.9622551,24.5597686 C24.2796395,24.6574254 24.5799294,24.706253 24.863134,24.706253 C25.2684094,24.706253 25.5650373,24.5768598 25.7530266,24.3180694 C25.9410158,24.0592791 26.035009,23.6735407 26.035009,23.1608429 L26.035009,12.6798858 L28.0271965,12.6798858 L28.0271965,23.0583038 C28.0271965,23.7614323 27.9087895,24.3717778 27.6719719,24.8893585 C27.4351543,25.4069392 27.100685,25.8012224 26.6685539,26.0722198 C26.2364228,26.3432173 25.7444844,26.4787139 25.1927238,26.4787139 Z M34.7947746,20.4362335 C34.7947746,21.437215 34.5420916,22.2038089 34.036718,22.7360382 C33.5313443,23.2682674 32.8025919,23.534378 31.8504387,23.534378 C30.9178168,23.534378 30.1243677,23.3512744 29.4700676,22.9850616 L29.4700676,21.0148468 C30.2708528,21.5373103 31.0057088,21.7985382 31.6746574,21.7985382 C32.0555187,21.7985382 32.3423811,21.6935587 32.5352531,21.4835968 C32.7281252,21.2736348 32.8245598,20.9879931 32.8245598,20.6266632 C32.8245598,20.2702161 32.7098148,19.9442916 32.4803215,19.64888 C32.2508281,19.3534683 31.872414,19.0251025 31.3450676,18.6637725 C30.8860809,18.3463881 30.538184,18.0424361 30.3013664,17.7519073 C30.0645488,17.4613785 29.8814452,17.135454 29.75205,16.7741241 C29.6226548,16.4127942 29.5579582,15.9928765 29.5579582,15.5143585 C29.5579582,14.5963851 29.8130826,13.8688534 30.3233391,13.3317413 C30.8335955,12.7946292 31.5184031,12.5260772 32.3777824,12.5260772 C33.198099,12.5260772 33.9866653,12.7555671 34.7435051,13.2145538 L34.0843254,14.8112335 C33.8499492,14.674514 33.6045903,14.552445 33.3482414,14.4450225 C33.0918925,14.3376001 32.817237,14.2838897 32.5242668,14.2838897 C32.2019995,14.2838897 31.9541993,14.3900898 31.7808586,14.6024932 C31.6075179,14.8148967 31.5208488,15.1042004 31.5208488,15.4704132 C31.5208488,15.8317431 31.6246075,16.1466814 31.8321281,16.4152374 C32.0396487,16.6837934 32.4021939,16.9889661 32.9197746,17.3307647 C33.6180203,17.7995171 34.105076,18.2780279 34.3809562,18.7663116 C34.6568365,19.2545953 34.7947746,19.8112304 34.7947746,20.4362335 Z" transform="rotate(-7 29.379 19.502)"/>
  </g>
</svg>
