<svg xmlns="http://www.w3.org/2000/svg" width="106" height="48"  viewBox="0 0 61 36" preserveAspectRatio="xMidYMid meet">
  <g fill="none" fill-rule="evenodd">
    <rect width="52.096" height="23.713" x="4.257" y="6.144" fill="#F9F9F9" stroke="#CCCCCC" transform="rotate(7 30.305 18)" rx="1"/>
    <rect width="52.096" height="23.713" fill="#F9F9F9" stroke="#CCCCCC" rx="1" transform="rotate(-7 78.401 -19.876)"/>
    <path fill="#BDC7CC" d="M12.1423704,21.341364 C12.1423704,20.8579632 11.9787978,20.5161697 11.6516477,20.3159734 C11.3244976,20.1157771 10.8581937,20.0156804 10.2527219,20.0156804 L10.2527219,18.3823796 C10.8581937,18.3823796 11.3244976,18.2847244 11.6516477,18.0894109 C11.9787978,17.8940974 12.1423704,17.571835 12.1423704,17.122614 L12.1423704,14.7202703 C12.1423704,14.1929239 12.2436877,13.7839924 12.4463255,13.4934636 C12.6489632,13.2029348 12.973667,12.9905346 13.4204465,12.8562566 C13.8672261,12.7219786 14.4714681,12.6548406 15.2331907,12.6548406 L15.2331907,14.2002507 C14.7400242,14.2148992 14.4031135,14.3064511 14.2224485,14.4749089 C14.0417835,14.6433668 13.9514524,14.9058154 13.9514524,15.2622624 L13.9514524,17.4815007 C13.9368039,18.4287711 13.3728447,18.9854061 12.2595579,19.1514226 L12.2595579,19.2393132 C13.3874932,19.4053297 13.9514524,19.9302268 13.9514524,20.8140203 L13.9514524,23.1211492 C13.9514524,23.4775963 14.0405628,23.7412655 14.2187864,23.9121648 C14.3970099,24.0830641 14.7351413,24.1758366 15.2331907,24.1904851 L15.2331907,25.7358953 C14.4617025,25.7358953 13.8550191,25.6687573 13.4131223,25.5344792 C12.9712256,25.4002012 12.6489632,25.1865803 12.4463255,24.8936101 C12.2436877,24.6006399 12.1423704,24.1904877 12.1423704,23.6631414 L12.1423704,21.341364 Z M15.5701047,26.4536687 C15.052524,26.4536687 14.6423719,26.3926342 14.339636,26.2705632 L14.339636,24.5347234 C14.6570204,24.6323801 14.9573104,24.6812078 15.2405149,24.6812078 C15.6457904,24.6812078 15.9424183,24.5518145 16.1304075,24.2930242 C16.3183967,24.0342338 16.4123899,23.6484955 16.4123899,23.1357976 L16.4123899,12.6548406 L18.4045774,12.6548406 L18.4045774,23.0332585 C18.4045774,23.7363871 18.2861704,24.3467325 18.0493528,24.8643132 C17.8125352,25.3818939 17.4780659,25.7761771 17.0459348,26.0471746 C16.6138038,26.318172 16.1218653,26.4536687 15.5701047,26.4536687 Z M25.1721555,20.4111882 C25.1721555,21.4121698 24.9194725,22.1787637 24.4140989,22.7109929 C23.9087253,23.2432221 23.1799728,23.5093328 22.2278196,23.5093328 C21.2951977,23.5093328 20.5017486,23.3262291 19.8474485,22.9600164 L19.8474485,20.9898015 C20.6482338,21.5122651 21.3830897,21.7734929 22.0520383,21.7734929 C22.4328996,21.7734929 22.719762,21.6685135 22.912634,21.4585515 C23.1055061,21.2485895 23.2019407,20.9629478 23.2019407,20.6016179 C23.2019407,20.2451708 23.0871957,19.9192463 22.8577024,19.6238347 C22.6282091,19.3284231 22.2497949,19.0000572 21.7224485,18.6387273 C21.2634618,18.3213429 20.9155649,18.0173909 20.6787473,17.7268621 C20.4419297,17.4363333 20.2588261,17.1104088 20.1294309,16.7490789 C20.0000357,16.3877489 19.9353391,15.9678312 19.9353391,15.4893132 C19.9353391,14.5713399 20.1904635,13.8438081 20.70072,13.306696 C21.2109764,12.769584 21.895784,12.501032 22.7551633,12.501032 C23.5754799,12.501032 24.3640463,12.7305219 25.120886,13.1895085 L24.4617063,14.7861882 C24.2273301,14.6494688 23.9819713,14.5273997 23.7256223,14.4199773 C23.4692734,14.3125549 23.1946179,14.2588445 22.9016477,14.2588445 C22.5793805,14.2588445 22.3315802,14.3650446 22.1582395,14.577448 C21.9848988,14.7898514 21.8982297,15.0791551 21.8982297,15.4453679 C21.8982297,15.8066978 22.0019885,16.1216361 22.209509,16.3901921 C22.4170296,16.6587482 22.7795748,16.9639209 23.2971555,17.3057195 C23.9954012,17.7744718 24.4824569,18.2529827 24.7583372,18.7412664 C25.0342175,19.22955 25.1721555,19.7861851 25.1721555,20.4111882 Z M33.858679,17.994196 C33.858679,19.7666658 33.526651,21.1289569 32.8625852,22.0811101 C32.1985194,23.0332633 31.2488219,23.5093328 30.0134641,23.5093328 C28.7732235,23.5093328 27.8210846,23.034484 27.1570188,22.0847722 C26.492953,21.1350604 26.1609251,19.7666659 26.1609251,17.9795476 C26.1609251,16.2070778 26.492953,14.8484488 27.1570188,13.9036199 C27.8210846,12.9587909 28.7781063,12.4863835 30.0281126,12.4863835 C31.2634703,12.4863835 32.2107265,12.9612323 32.8699094,13.9109441 C33.5290924,14.8606559 33.858679,16.2217262 33.858679,17.994196 Z M28.1970579,17.994196 C28.1970579,19.2149053 28.3508649,20.1450717 28.6584837,20.7847234 C28.9661024,21.424375 29.417758,21.744196 30.0134641,21.744196 C31.214642,21.744196 31.8152219,20.4942085 31.8152219,17.994196 C31.8152219,15.4941835 31.2195248,14.244196 30.0281126,14.244196 C29.4226408,14.244196 28.9661024,14.5627964 28.6584837,15.2000066 C28.3508649,15.8372168 28.1970579,16.768604 28.1970579,17.994196 Z M42.9187376,23.3628484 L40.4870969,23.3628484 L37.1765501,15.6065007 L37.0813352,15.6065007 C37.2034061,16.197324 37.2644407,16.8320833 37.2644407,17.5107976 L37.2644407,23.3628484 L35.4187376,23.3628484 L35.4187376,12.6548406 L37.8650266,12.6548406 L41.1462766,20.3306218 L41.226843,20.3306218 C41.1340691,19.8179239 41.0876829,19.2075785 41.0876829,18.4995671 L41.0876829,12.6548406 L42.9187376,12.6548406 L42.9187376,23.3628484 Z M47.2107297,23.6631414 C47.2107297,24.4248639 46.9775778,24.9607472 46.5112669,25.2708074 C46.0449559,25.5808675 45.242962,25.7358953 44.105261,25.7358953 L44.105261,24.1904851 C44.6033104,24.1758366 44.9426624,24.0842848 45.1233274,23.9158269 C45.3039924,23.747369 45.3943235,23.4824791 45.3943235,23.1211492 L45.3943235,20.8359929 C45.3943235,20.3916548 45.5395857,20.035213 45.8301145,19.766657 C46.1206433,19.4981009 46.5442231,19.3223215 47.1008665,19.2393132 L47.1008665,19.1514226 C45.9826968,18.9854061 45.4138548,18.4287711 45.3943235,17.4815007 L45.3943235,15.2622624 C45.3943235,14.9009325 45.3039924,14.6372633 45.1233274,14.4712468 C44.9426624,14.3052304 44.6033104,14.2148992 44.105261,14.2002507 L44.105261,12.6548406 C45.2478448,12.6548406 46.0510595,12.8098683 46.514929,13.1199285 C46.9787985,13.4299886 47.2107297,13.9634305 47.2107297,14.7202703 L47.2107297,17.122614 C47.2107297,17.571835 47.3706403,17.8940974 47.6904661,18.0894109 C48.0102919,18.2847244 48.4753751,18.3823796 49.0857297,18.3823796 L49.0857297,20.0156804 C48.4753751,20.0156804 48.0102919,20.1157771 47.6904661,20.3159734 C47.3706403,20.5161697 47.2107297,20.8579632 47.2107297,21.341364 L47.2107297,23.6631414 Z" transform="rotate(-7 29.67 19.47)"/>
  </g>
</svg>
