<svg xmlns="http://www.w3.org/2000/svg" width="106" height="48"  viewBox="0 0 61 36" preserveAspectRatio="xMidYMid meet">
  <g fill="none" fill-rule="evenodd">
    <rect width="52.096" height="23.713" x="4.257" y="6.144" fill="#F9F9F9" stroke="#CCCCCC" transform="rotate(7 30.305 18)" rx="1"/>
    <rect width="52.096" height="23.713" fill="#F9F9F9" stroke="#CCCCCC" rx="1" transform="rotate(-7 78.401 -19.876)"/>
    <path fill="#BDC7CC" d="M17.0132848,21.771152 L11.8497106,18.5777926 L11.8497106,17.4352145 L17.0132848,14.2565036 L17.0132848,15.9044528 L13.4463903,18.0065036 L17.0132848,20.1232028 L17.0132848,21.771152 Z M24.8941442,23.3019137 L22.8213903,23.3019137 L21.2906285,19.4640231 L19.8697301,23.3019137 L17.7969762,23.3019137 L20.2432653,17.7355075 L17.9800817,12.5939059 L19.9869176,12.5939059 L21.4004918,16.1168551 L22.6236364,12.5939059 L24.7110387,12.5939059 L22.4478551,17.8233981 L24.8941442,23.3019137 Z M29.6622106,23.3019137 L27.6260778,14.1832614 L27.5455114,14.1832614 C27.6382853,14.8863899 27.6846715,15.5309147 27.6846715,16.1168551 L27.6846715,23.3019137 L25.8389684,23.3019137 L25.8389684,12.5939059 L28.9004918,12.5939059 L30.7315465,21.0094332 L30.7901403,21.0094332 L32.6065465,12.5939059 L35.7120153,12.5939059 L35.7120153,23.3019137 L33.8223668,23.3019137 L33.8223668,16.0436129 C33.8223668,15.443024 33.8565462,14.8277958 33.9249059,14.1979098 L33.8663121,14.1979098 L31.8375035,23.3019137 L29.6622106,23.3019137 Z M37.6016637,23.3019137 L37.6016637,12.5939059 L39.5938512,12.5939059 L39.5938512,21.5587497 L42.3550817,21.5587497 L42.3550817,23.3019137 L37.6016637,23.3019137 Z M43.4610387,20.1232028 L47.0499059,18.0065036 L43.4610387,15.9044528 L43.4610387,14.2565036 L48.6246129,17.4352145 L48.6246129,18.5777926 L43.4610387,21.771152 L43.4610387,20.1232028 Z" transform="rotate(-7 30.237 17.948)"/>
  </g>
</svg>
