<svg width="16" height="16" viewBox="0 0 16 16" fill="none" xmlns="http://www.w3.org/2000/svg">
<path d="M2.00007 8.00042H9.77825" stroke="#3ABCD0" stroke-linecap="round"/>
<path d="M9.77813 8.00031L6.94971 5.17188" stroke="#3ABCD0" stroke-linecap="round"/>
<path d="M9.77832 8L6.94989 10.8284" stroke="#3ABCD0" stroke-linecap="round"/>
<path d="M11.1689 3C11.9414 3 12.5 3.43872 12.5 4.15174L12.5 11.8483C12.5 12.5613 11.9414 13 11.1689 13H7.4C7.17909 13 7 13.1791 7 13.4V13.6C7 13.8209 7.17909 14 7.4 14H11.1689C12.5 14 13.5 13 13.5 11.8483V4.15174C13.5 3 12.5 2 11.1689 2H7.4C7.17909 2 7 2.17909 7 2.4V2.6C7 2.82091 7.17909 3 7.4 3H11.1689Z" fill="#3ABCD0"/>
</svg>
