<?xml version="1.0" encoding="UTF-8"?>
<svg width="250px" height="125px" viewBox="0 0 250 125" version="1.1" xmlns="http://www.w3.org/2000/svg" xmlns:xlink="http://www.w3.org/1999/xlink">
    <!-- Generator: Sketch 55.2 (78181) - https://sketchapp.com -->
    <title>Group 2</title>
    <desc>Created with Sketch.</desc>
    <g id="Page-1" stroke="none" stroke-width="1" fill="none" fill-rule="evenodd">
        <g id="Comulative-wizard-3" transform="translate(-376.000000, -756.000000)">
            <g id="Group-2" transform="translate(376.000000, 756.000000)">
                <rect id="Rectangle" fill="#FAFAFA" x="0" y="0" width="250" height="125"></rect>
                <rect id="Rectangle" fill="#FFFFFF" x="137" y="10" width="74" height="10"></rect>
                <g id="Group" transform="translate(39.000000, 25.000000)">
                    <rect id="Rectangle-Copy" fill="#FFFFFF" x="0" y="0" width="172" height="10"></rect>
                    <rect id="Rectangle-Copy" fill="#EBEBEB" x="5" y="3" width="80" height="4"></rect>
                    <rect id="Rectangle-Copy-8" fill="#4D9DD2" x="147" y="3" width="20" height="4"></rect>
                </g>
                <g id="Group-Copy" transform="translate(39.000000, 40.000000)">
                    <rect id="Rectangle-Copy" fill="#FFFFFF" x="0" y="0" width="172" height="10"></rect>
                    <rect id="Rectangle-Copy" fill="#EBEBEB" x="5" y="3" width="80" height="4"></rect>
                    <rect id="Rectangle-Copy-8" fill="#4D9DD2" x="147" y="3" width="20" height="4"></rect>
                </g>
                <g id="Group-Copy-2" transform="translate(39.000000, 55.000000)">
                    <rect id="Rectangle-Copy" fill="#FFFFFF" x="0" y="0" width="172" height="10"></rect>
                    <rect id="Rectangle-Copy" fill="#EBEBEB" x="5" y="3" width="80" height="4"></rect>
                    <rect id="Rectangle-Copy-8" fill="#4D9DD2" x="147" y="3" width="20" height="4"></rect>
                </g>
                <g id="Group-Copy-3" transform="translate(39.000000, 70.000000)">
                    <rect id="Rectangle-Copy" fill="#FFFFFF" x="0" y="0" width="172" height="10"></rect>
                    <rect id="Rectangle-Copy" fill="#EBEBEB" x="5" y="3" width="80" height="4"></rect>
                    <rect id="Rectangle-Copy-8" fill="#4D9DD2" x="147" y="3" width="20" height="4"></rect>
                </g>
                <g id="Group-Copy-4" transform="translate(39.000000, 85.000000)">
                    <rect id="Rectangle-Copy" fill="#FFFFFF" x="0" y="0" width="172" height="10"></rect>
                    <rect id="Rectangle-Copy" fill="#EBEBEB" x="5" y="3" width="80" height="4"></rect>
                    <rect id="Rectangle-Copy-8" fill="#4D9DD2" x="147" y="3" width="20" height="4"></rect>
                </g>
                <g id="Group-Copy-5" transform="translate(39.000000, 100.000000)">
                    <rect id="Rectangle-Copy" fill="#FFFFFF" x="0" y="0" width="172" height="10"></rect>
                    <rect id="Rectangle-Copy" fill="#EBEBEB" x="5" y="3" width="80" height="4"></rect>
                    <rect id="Rectangle-Copy-8" fill="#4D9DD2" x="147" y="3" width="20" height="4"></rect>
                </g>
                <g id="Group-Copy-6" transform="translate(39.000000, 115.000000)">
                    <rect id="Rectangle-Copy" fill="#FFFFFF" x="0" y="0" width="172" height="10"></rect>
                    <rect id="Rectangle-Copy" fill="#EBEBEB" x="5" y="3" width="80" height="4"></rect>
                    <rect id="Rectangle-Copy-8" fill="#4D9DD2" x="147" y="3" width="20" height="4"></rect>
                </g>
                <polygon id="Path-2" fill="#000000" points="201 14 207 14 204 16"></polygon>
            </g>
        </g>
    </g>
</svg>