<svg xmlns="http://www.w3.org/2000/svg" width="250" height="125" viewBox="0 0 250 125">
    <g fill="none" fill-rule="evenodd">
        <path d="M0 0h250v125H0z"/>
        <g stroke="#F5F5F5">
            <path d="M1 103.5h248M1 81.5h248M1 60.5h248M1 38.5h248M1 16.5h248"/>
        </g>
        <path fill="#B6E4E3" d="M202 20h18v20h-18z"/>
        <path fill="#CCC" d="M180 33v-6h-11v6h11zm-12 0v-6h-11v6h11zm-98 0v-6H59v6h11zm-12 0v-6H47v6h11zm24 0v-6H71v6h11zm43 0v-6h-11v6h11zm-31 0v-6H83v6h11zm43 0v-6h-11v6h11z"/>
        <path fill="#999" d="M39.98 35v-2c.187-.038.637-.425 1.001-1l2.003 1.935V32l-2.003-1c.624-.4.668-.697 0-1 .668-.303.624-.6 0-1l2.003-1V25.87L40.98 28c-.364.425-.814-.963-1.001-1v-2h-2.002v2h-1.002v-2h-2.002v2h-1.001v-2h-1.987v2c-1.195.403-2.002 1.612-2.002 3 0 1.387.807 2.597 2.002 3v2h1.987v-2h1v2h2.003v-2h1.002v2h2.002zM34 31v-2h1v2h-1zm3 0v-2h1v2h-1z" opacity=".98"/>
        <g>
            <path fill="#B6E4E3" d="M202 53h18v20h-18z"/>
            <path fill="#CCC" d="M180 66v-6h-11v6h11zm-12 0v-6h-11v6h11zm-98 0v-6H59v6h11zm-12 0v-6H47v6h11zm24 0v-6H71v6h11zm43 0v-6h-11v6h11zm-31 0v-6H83v6h11zm43 0v-6h-11v6h11z"/>
            <path fill="#999" d="M39.98 68v-2c.187-.038.637-.425 1.001-1l2.003 1.935V65l-2.003-1c.624-.4.668-.697 0-1 .668-.303.624-.6 0-1l2.003-1V58.87L40.98 61c-.364.425-.814-.963-1.001-1v-2h-2.002v2h-1.002v-2h-2.002v2h-1.001v-2h-1.987v2c-1.195.403-2.002 1.612-2.002 3 0 1.387.807 2.597 2.002 3v2h1.987v-2h1v2h2.003v-2h1.002v2h2.002zM34 64v-2h1v2h-1zm3 0v-2h1v2h-1z" opacity=".98"/>
        </g>
        <g>
            <path fill="#B6E4E3" d="M202 86h18v20h-18z"/>
            <path fill="#CCC" d="M180 99v-6h-11v6h11zm-12 0v-6h-11v6h11zm-98 0v-6H59v6h11zm-12 0v-6H47v6h11zm24 0v-6H71v6h11zm43 0v-6h-11v6h11zm-31 0v-6H83v6h11zm43 0v-6h-11v6h11z"/>
            <path fill="#999" d="M39.98 101v-2c.187-.038.637-.425 1.001-1l2.003 1.935V98l-2.003-1c.624-.4.668-.697 0-1 .668-.303.624-.6 0-1l2.003-1V91.87L40.98 94c-.364.425-.814-.963-1.001-1v-2h-2.002v2h-1.002v-2h-2.002v2h-1.001v-2h-1.987v2c-1.195.403-2.002 1.612-2.002 3 0 1.387.807 2.597 2.002 3v2h1.987v-2h1v2h2.003v-2h1.002v2h2.002zM34 97v-2h1v2h-1zm3 0v-2h1v2h-1z" opacity=".98"/>
        </g>
    </g>
</svg>
