<svg xmlns="http://www.w3.org/2000/svg" xmlns:xlink="http://www.w3.org/1999/xlink" width="250" height="125" viewBox="0 0 250 125">
    <defs>
        <circle id="a" cx="183" cy="44" r="6"/>
        <circle id="b" cx="113" cy="44" r="6"/>
        <circle id="c" cx="113" cy="94" r="6"/>
        <circle id="d" cx="183" cy="94" r="6"/>
    </defs>
    <g fill="none" fill-rule="evenodd">
        <path d="M0 0h250v125H0z"/>
        <g stroke="#F5F5F5">
            <path d="M1 103.5h248M1 81.5h248M1 60.5h248M1 38.5h248M1 16.5h248"/>
        </g>
        <path fill="#BAD0CB" d="M21 78c0-2.21 1.796-4 4.007-4h51.986A4.006 4.006 0 0 1 81 78c0 2.21-1.796 4-4.007 4H25.007A4.006 4.006 0 0 1 21 78z"/>
        <path fill="#EE9583" d="M41 74h20v8H41z"/>
        <path fill="#D9E2AD" d="M25 74h16v8H25a4 4 0 1 1 0-8z"/>
        <g>
            <use fill="#F7CC90" xlink:href="#a"/>
            <circle cx="183" cy="44" r="5" stroke="#F9F9F9" stroke-width="2"/>
        </g>
        <g>
            <use fill="#C2E2E3" xlink:href="#b"/>
            <circle cx="113" cy="44" r="5" stroke="#F9F9F9" stroke-width="2"/>
        </g>
        <g>
            <use fill="#6A949D" xlink:href="#c"/>
            <circle cx="113" cy="94" r="5" stroke="#F9F9F9" stroke-width="2"/>
        </g>
        <g>
            <use fill="#DBE1AF" xlink:href="#d"/>
            <circle cx="183" cy="94" r="5" stroke="#F9F9F9" stroke-width="2"/>
        </g>
        <path fill="#999" d="M25.08 44.46c1.128 0 2.015.279 2.662.838.647.56.97 1.325.97 2.296 0 1.109-.352 1.978-1.058 2.608-.706.63-1.678.944-2.919.944-1.206 0-2.126-.192-2.76-.578v-1.172c.34.22.766.392 1.274.516a6.29 6.29 0 0 0 1.501.187c.86 0 1.527-.203 2.003-.608.476-.405.714-.991.714-1.758 0-1.494-.915-2.24-2.746-2.24-.464 0-1.084.07-1.86.212l-.63-.403.402-5.01h5.325v1.12h-4.285l-.27 3.216a8.534 8.534 0 0 1 1.677-.169zm12.268.402c0 4.19-1.621 6.284-4.864 6.284-.566 0-1.015-.048-1.347-.146v-1.047c.39.127.835.19 1.333.19 1.172 0 2.057-.362 2.655-1.088.598-.725.924-1.837.978-3.336h-.088a2.607 2.607 0 0 1-1.07.927 3.438 3.438 0 0 1-1.501.318c-.947 0-1.7-.283-2.256-.85-.557-.566-.835-1.357-.835-2.372 0-1.114.311-1.992.934-2.637.622-.645 1.442-.967 2.457-.967.728 0 1.364.187 1.908.56.545.374.963.918 1.256 1.634.293.715.44 1.559.44 2.53zm-3.604-3.684c-.698 0-1.238.225-1.619.674-.38.45-.57 1.074-.57 1.875 0 .703.175 1.256.527 1.659.351.403.886.604 1.604.604.444 0 .853-.09 1.226-.27.374-.181.668-.428.883-.74.215-.313.322-.64.322-.982 0-.513-.1-.986-.3-1.42-.2-.435-.48-.777-.839-1.026a2.112 2.112 0 0 0-1.234-.374zM115.237 83h-1.187v-7.632c0-.635.02-1.235.059-1.802-.103.103-.217.21-.344.323-.127.112-.708.588-1.744 1.428l-.644-.835 2.834-2.19h1.026V83zm8.576 0h-1.186v-7.632c0-.635.02-1.235.059-1.802-.103.103-.218.21-.345.323-.127.112-.708.588-1.743 1.428l-.644-.835 2.834-2.19h1.025V83zM183.08 76.46c1.128 0 2.015.279 2.662.838.647.56.97 1.325.97 2.296 0 1.109-.352 1.978-1.058 2.608-.706.63-1.678.944-2.919.944-1.206 0-2.126-.192-2.76-.578v-1.172c.34.22.766.392 1.274.516a6.29 6.29 0 0 0 1.501.187c.86 0 1.527-.203 2.003-.608.476-.405.714-.991.714-1.758 0-1.494-.915-2.24-2.746-2.24-.464 0-1.084.07-1.86.212l-.63-.403.402-5.01h5.325v1.12h-4.285l-.27 3.216a8.534 8.534 0 0 1 1.677-.169zM187.276 30.54h-1.589V33h-1.165v-2.46h-5.207v-1.063l5.083-7.244h1.289v7.2h1.59v1.106zm-2.754-1.107v-3.56c0-.698.025-1.486.074-2.365h-.059c-.234.469-.454.857-.66 1.164l-3.346 4.761h3.991zm10.884-1.802c0 1.85-.291 3.233-.875 4.146-.583.913-1.476 1.37-2.677 1.37-1.152 0-2.029-.468-2.63-1.403-.6-.935-.9-2.306-.9-4.113 0-1.865.29-3.25.871-4.152.581-.904 1.468-1.355 2.659-1.355 1.162 0 2.045.47 2.648 1.413.603.942.904 2.307.904 4.094zm-5.852 0c0 1.558.183 2.692.55 3.402.366.71.95 1.066 1.75 1.066.81 0 1.398-.36 1.761-1.08.364-.72.546-1.85.546-3.388 0-1.538-.182-2.664-.546-3.38-.363-.715-.95-1.073-1.761-1.073-.8 0-1.384.353-1.75 1.059-.367.705-.55 1.837-.55 3.394zM117.368 24.812c0 .683-.191 1.242-.575 1.677-.383.434-.926.725-1.63.871v.059c.86.107 1.497.38 1.912.82.415.44.623 1.016.623 1.729 0 1.02-.354 1.805-1.062 2.355-.708.549-1.714.823-3.018.823a8.745 8.745 0 0 1-1.556-.128 5.326 5.326 0 0 1-1.374-.45V31.41c.464.23.959.404 1.484.523.525.12 1.021.18 1.49.18 1.85 0 2.776-.725 2.776-2.176 0-1.298-1.02-1.948-3.062-1.948h-1.054v-1.047h1.07c.834 0 1.496-.184 1.984-.553.488-.369.732-.88.732-1.535 0-.522-.179-.932-.538-1.23-.359-.298-.846-.447-1.461-.447-.469 0-.91.064-1.326.19-.415.128-.888.362-1.42.704l-.616-.82a5.13 5.13 0 0 1 1.52-.817 5.524 5.524 0 0 1 1.813-.297c1.04 0 1.848.238 2.424.714.576.476.864 1.13.864 1.96z"/>
        <path fill="#CCC" d="M48 64v-4h-6v4h6zm-21 0v-4h-6v4h6zm7 0v-4h-6v4h6zm7 0v-4h-6v4h6zM149 96v-4h-6v4h6zm-21 0v-4h-6v4h6zm7 0v-4h-6v4h6zm7 0v-4h-6v4h6zM219 96v-4h-6v4h6zm-21 0v-4h-6v4h6zm7 0v-4h-6v4h6zm7 0v-4h-6v4h6zM149 46v-4h-6v4h6zm-21 0v-4h-6v4h6zm7 0v-4h-6v4h6zm7 0v-4h-6v4h6zM219 46v-4h-6v4h6zm-21 0v-4h-6v4h6zm7 0v-4h-6v4h6zm7 0v-4h-6v4h6z"/>
    </g>
</svg>
