<svg xmlns="http://www.w3.org/2000/svg" width="250" height="125" viewBox="0 0 250 125">
    <g fill="none" fill-rule="evenodd">
        <path d="M0 0h250v125H0z"/>
        <g stroke="#F5F5F5">
            <path d="M1 103.5h248M1 81.5h248M1 60.5h248M1 38.5h248M1 16.5h248"/>
        </g>
        <path fill="#D7E4B3" d="M165 103c23.748 0 43-19.252 43-43-20.717-20.262-29.91-29.679-43-43-23.748 0-43 19.252-43 43s19.252 43 43 43z"/>
        <path fill="#EE9583" d="M208.05 60c0-23.748-19.297-42.944-43.05-42.944-.007 7.47-.007 21.786 0 42.944h43.05z"/>
        <path fill="#CCC" d="M94 31v-6H83v6h11zm-36 0v-6H47v6h11zm12 0v-6H59v6h11zm12 0v-6H71v6h11zM58 41v-6H47v6zM37 25l-7 8.082v7.862l-2.984-2.457V33.08L21 25z"/>
    </g>
</svg>
