<svg xmlns="http://www.w3.org/2000/svg" width="250" height="125" viewBox="0 0 250 125">
    <g fill="none" fill-rule="evenodd">
        <path d="M0 0h250v125H0z"/>
        <g stroke="#F5F5F5">
            <path d="M1 103.5h248M1 81.5h248M1 60.5h248M1 38.5h248M1 16.5h248"/>
        </g>
        <path fill="#999" d="M63.08 62.46c1.128 0 2.015.279 2.662.838.647.56.97 1.325.97 2.296 0 1.109-.352 1.978-1.058 2.608-.706.63-1.678.944-2.919.944-1.206 0-2.126-.192-2.76-.578v-1.172c.34.22.766.392 1.274.516a6.29 6.29 0 0 0 1.501.187c.86 0 1.527-.203 2.003-.608.476-.405.714-.991.714-1.758 0-1.494-.915-2.24-2.746-2.24-.464 0-1.084.07-1.86.212l-.63-.403.402-5.01h5.325v1.12h-4.285l-.27 3.216a8.534 8.534 0 0 1 1.677-.169zm12.326 1.171c0 1.85-.291 3.233-.875 4.146-.583.913-1.476 1.37-2.677 1.37-1.152 0-2.029-.468-2.63-1.403-.6-.935-.9-2.306-.9-4.113 0-1.865.29-3.25.871-4.152.581-.904 1.468-1.355 2.659-1.355 1.162 0 2.045.47 2.648 1.413.603.942.904 2.307.904 4.094zm-5.852 0c0 1.558.183 2.692.55 3.402.366.71.95 1.066 1.75 1.066.81 0 1.398-.36 1.761-1.08.364-.72.546-1.85.546-3.388 0-1.538-.182-2.664-.546-3.38-.363-.715-.95-1.073-1.761-1.073-.8 0-1.384.353-1.75 1.059-.367.705-.55 1.837-.55 3.394z"/>
        <path fill="#CCC" d="M86 56v-4h-6v4h6zm-21 0v-4h-6v4h6zm7 0v-4h-6v4h6zm7 0v-4h-6v4h6z"/>
        <path fill="#999" d="M171.771 69h-7.039v-1.047l2.82-2.835c.86-.869 1.426-1.49 1.7-1.86.273-.371.478-.733.615-1.084.136-.352.205-.73.205-1.135 0-.572-.174-1.025-.52-1.36-.347-.334-.828-.5-1.443-.5-.444 0-.866.072-1.264.219-.397.146-.84.413-1.329.798l-.644-.827c.986-.82 2.06-1.23 3.222-1.23 1.006 0 1.795.257 2.366.772.571.515.857 1.207.857 2.076 0 .679-.19 1.35-.571 2.014-.381.665-1.094 1.504-2.14 2.52l-2.343 2.292v.06h5.508V69zm8.635-5.369c0 1.85-.291 3.233-.875 4.146-.583.913-1.476 1.37-2.677 1.37-1.152 0-2.029-.468-2.63-1.403-.6-.935-.9-2.306-.9-4.113 0-1.865.29-3.25.871-4.152.581-.904 1.468-1.355 2.659-1.355 1.162 0 2.045.47 2.648 1.413.603.942.904 2.307.904 4.094zm-5.852 0c0 1.558.183 2.692.55 3.402.366.71.95 1.066 1.75 1.066.81 0 1.398-.36 1.761-1.08.364-.72.546-1.85.546-3.388 0-1.538-.182-2.664-.546-3.38-.363-.715-.95-1.073-1.761-1.073-.8 0-1.384.353-1.75 1.059-.367.705-.55 1.837-.55 3.394z"/>
        <path fill="#CCC" d="M191 56v-4h-6v4h6zm-21 0v-4h-6v4h6zm7 0v-4h-6v4h6zm7 0v-4h-6v4h6z"/>
        <g>
            <path fill="#D6E4AA" d="M72 20c23.748 0 43 19.252 43 43s-19 42.972-43 43c-23.748 0-43-19.252-43-43s19.252-43 43-43zm0 66c12.703 0 23-10.297 23-23S84.703 40 72 40 49 50.297 49 63s10.297 23 23 23z"/>
            <path fill="#B6E4E3" d="M72 86v20c24-.028 43-19.252 43-43S95.748 20 72 20v20c12.703 0 23 10.297 23 23S84.703 86 72 86z"/>
            <path fill="#F09583" d="M71.995 86c0 8.957.001 15.605.005 19.944 12.038 0 22.932-4.93 30.75-12.885L88.446 79.078A22.931 22.931 0 0 1 71.995 86z"/>
        </g>
        <g>
            <path fill="#B6E4E3" d="M178 20c-23.748 0-43 19.252-43 43s19 42.972 43 43c23.748 0 43-19.252 43-43s-19.252-43-43-43zm0 66c-12.703 0-23-10.297-23-23s10.297-23 23-23 23 10.297 23 23-10.297 23-23 23z"/>
            <path fill="#6A949D" d="M177.005 86c0 8.957-.001 15.605-.005 19.944-12.038 0-22.932-4.93-30.75-12.885l14.303-13.981A22.931 22.931 0 0 0 177.005 86z"/>
            <path fill="#BBD0CB" d="M161.36 79.886a22321.69 22321.69 0 0 1-14.443 14.436c-8.58-8.58-12.854-19.835-12.794-31.04l20.404.3a22.927 22.927 0 0 0 6.833 16.304z"/>
            <path fill="#F9CC90" d="M154.406 63.99h-20.209c-.211-12.132 4.877-22.447 12.703-30.465l13.963 13.886a22.928 22.928 0 0 0-6.457 16.58z"/>
        </g>
    </g>
</svg>
