<svg xmlns="http://www.w3.org/2000/svg" width="768" height="1024" viewBox="0 0 768 1024" xmlns:xlink="http://www.w3.org/1999/xlink">
  <defs>
    <path id="a" d="M27.4595679,29.7411905 L36.3116389,29.7411905 L42.9506922,23.3480281 C52.9142544,24.9120438 61.8449615,24.6572667 65.0808697,24.4135552 C75.2742397,24.6572658 84.1296352,16.6390214 84.9980295,15.8893386 C84.6708784,13.9575312 75.183273,6.16303002 65.0808697,6.29959505 C61.8487979,6.16303002 52.9975666,6.16572584 44.0572011,7.36512211 L36.3116389,0.971959722 L27.4595679,2.03748679 L27.4595679,3.10301385 L31.8856034,8.43064918 C26.1102399,11.9694906 27.7949322,10.0604699 27.4595679,15.8893386 C27.7949322,20.7568706 25.7672735,18.7184665 31.8856034,22.282501 L27.4595679,28.6756634 L27.4595679,29.7411905 Z"/>
    <path id="b" d="M63.7485037,20.7452543 C66.998487,20.7452543 69.6331191,18.1106222 69.6331191,14.8606389 C69.6331191,11.6106556 66.998487,8.97602351 63.7485037,8.97602351 C60.4985204,8.97602351 57.8638883,11.6106556 57.8638883,14.8606389 C57.8638883,18.1106222 60.4985204,20.7452543 63.7485037,20.7452543 Z"/>
  </defs>
  <g fill="none" fill-rule="evenodd">
    <path stroke="#39C2D7" d="M12,942.85884 C12,942.85884 539.801882,945.384208 539.801882,752.614461 C539.801882,660.859429 438.073523,641.498275 383.229075,654.966904 C328.384628,668.435533 243.492054,719.784679 256.118893,823.324761 C268.745732,926.864843 378.473936,1051.91898 559.163036,954.64389 C739.852136,857.368799 793.180458,665.068375 730.88805,546.376086 C612.00262,363.6791 149.546875,438.632812 80.7734375,375.039062 C12,311.445312 18.7979158,210.520163 85.734375,145.855469 C139.253906,94.1523438 480.522114,44.8337116 547.066406,41.2226563 C556.182124,40.7279878 630.289062,36 630.289062,36" opacity=".303" stroke-dasharray="3 4"/>
    <g transform="rotate(-5 566.568 -6825.07)">
      <g transform="matrix(1 0 0 -1 0 30.713)">
        <use fill="#D7F3F4" xlink:href="#a"/>
        <path stroke="#91D9E5" stroke-opacity=".25" d="M27.9595679,29.2411905 L27.9595679,28.8318517 L32.2966995,22.567106 L32.6044412,22.1225902 L32.1372759,21.8504583 C31.0853081,21.2376685 28.7686428,19.9506545 28.908156,20.0304023 C28.2657333,19.6631839 28.0224594,19.4797148 27.941943,19.3335203 C27.8849797,19.2300915 28.055021,17.2575561 27.9583854,15.854971 C28.0323954,14.6379167 27.9483799,11.790904 28.0808765,11.5226736 C28.1903284,11.3010953 28.4434872,11.0824398 29.0685979,10.6940281 C29.2862838,10.5587693 31.2783309,9.38915409 32.1468363,8.85697932 L32.6391873,8.55529234 L32.2701986,8.11113933 L27.9595679,2.92241721 L27.9595679,2.48091083 L36.1586291,1.4939868 L43.7389185,7.75073363 L43.9072962,7.88971197 L44.1236831,7.86068255 C51.4387312,6.87933101 59.8442626,6.57877834 65.059762,6.79914932 C69.5196958,6.73963636 74.210498,8.24239992 78.4507101,10.7492346 C81.4466541,12.5204517 83.9223345,14.7065271 84.4202974,15.7295129 C84.2994224,15.8344492 84.1814103,15.9357302 84.052971,16.0443473 C83.6841066,16.3562846 83.2889491,16.6779907 82.854433,17.016095 C81.6629687,17.9431935 80.3613425,18.8496162 78.9538442,19.6979234 C74.4171314,22.4322257 69.717621,24.0242712 65.0928207,23.913698 C59.4384292,24.337098 51.0871435,24.119113 43.0282295,22.8540767 L42.7828139,22.815553 L42.6038713,22.987868 L36.1100364,29.2411905 L27.9595679,29.2411905 Z"/>
      </g>
      <use fill="#FFFFFF" fill-opacity=".35" xlink:href="#b"/>
      <path stroke="#91D9E5" stroke-opacity=".3" d="M63.7485037,20.2452543 C60.7746628,20.2452543 58.3638883,17.8344799 58.3638883,14.8606389 C58.3638883,11.8867979 60.7746628,9.47602351 63.7485037,9.47602351 C66.7223447,9.47602351 69.1331191,11.8867979 69.1331191,14.8606389 C69.1331191,17.8344799 66.7223447,20.2452543 63.7485037,20.2452543 Z"/>
    </g>
  </g>
</svg>
