<svg width="16" height="16" viewBox="0 0 16 16" fill="#C1C7D0" xmlns="http://www.w3.org/2000/svg">
    <path fill-rule="evenodd" clip-rule="evenodd" d="M0.732184 15.2698C0.330645 14.8683 0.330646 14.2172 0.732185 13.8157L6.54859 7.99928L0.732185 2.18288C0.330646 1.78134 0.330645 1.13031 0.732184 0.728774C1.13372 0.327234 1.78475 0.327234 2.18629 0.728774L8.00269 6.54518L13.8191 0.728767C14.2206 0.327228 14.8717 0.327227 15.2732 0.728767C15.6747 1.13031 15.6747 1.78133 15.2732 2.18287L9.45679 7.99928L15.2732 13.8157C15.6747 14.2172 15.6747 14.8683 15.2732 15.2698C14.8717 15.6713 14.2206 15.6713 13.8191 15.2698L8.00269 9.45338L2.18629 15.2698C1.78475 15.6713 1.13372 15.6713 0.732184 15.2698Z" />
</svg>
