<svg width="16" height="16" viewBox="0 0 16 16" fill="none" xmlns="http://www.w3.org/2000/svg">
<path d="M13.3881 0.301036C13.7896 -0.100267 14.4407 -0.100424 14.8422 0.301036C15.2436 0.702496 15.2435 1.35358 14.8422 1.75514L9.02576 7.57154L14.8422 13.388C15.2436 13.7894 15.2435 14.4405 14.8422 14.8421C14.4406 15.2436 13.7896 15.2436 13.3881 14.8421L7.57166 9.02565L1.75526 14.8421C1.35372 15.2436 0.702694 15.2436 0.301154 14.8421C-0.100385 14.4405 -0.100385 13.7895 0.301154 13.388L6.11756 7.57154L0.301154 1.75514C-0.100384 1.3536 -0.100385 0.702575 0.301154 0.301036C0.702713 -0.100259 1.3538 -0.100422 1.75526 0.301036L7.57166 6.11744L13.3881 0.301036Z" fill="white"/>
</svg>
