<svg width="12" height="12" viewBox="0 0 12 12" fill="none" xmlns="http://www.w3.org/2000/svg">
    <path d="M11.5996 10.5C11.8205 10.5 12 10.6795 12 10.9004V11.0996C12 11.3205 11.8205 11.5 11.5996 11.5H0.400391C0.179477 11.5 0 11.3205 0 11.0996V10.9004C0 10.6795 0.179477 10.5 0.400391 10.5H11.5996ZM6 0C6.27614 -1.47514e-07 6.5 0.223858 6.5 0.5V7.29297L8.64648 5.14648C8.84175 4.95122 9.15825 4.95122 9.35352 5.14648C9.54878 5.34175 9.54878 5.65825 9.35352 5.85352L6.35352 8.85352L6.27539 8.91797C6.25511 8.93136 6.23256 8.94007 6.21094 8.9502C6.17519 8.96696 6.13839 8.98229 6.09863 8.99023C6.03358 9.00325 5.96642 9.00327 5.90137 8.99023C5.85882 8.98171 5.81915 8.96584 5.78125 8.94727C5.73293 8.92362 5.68665 8.89368 5.64648 8.85352L2.64648 5.85352C2.45124 5.65827 2.45128 5.34175 2.64648 5.14648C2.84175 4.95122 3.15825 4.95123 3.35352 5.14648L5.5 7.29297V0.5C5.5 0.223887 5.7239 4.69428e-05 6 0Z" fill="white"/>
</svg>
