<svg width="13" height="13" viewBox="0 0 13 13" fill="none" xmlns="http://www.w3.org/2000/svg">
    <path d="M6.09961 2C6.32052 2 6.5 2.17948 6.5 2.40039V2.59961C6.5 2.82052 6.32052 3 6.09961 3H2.33105C1.55875 3 1.00019 3.43856 1 4.15137V10.8486C1.00019 11.5614 1.55874 12 2.33105 12H9C9.77244 12 10 11.713 10 11V7.40039C10 7.17948 10.1795 7 10.4004 7H10.5996C10.8205 7 11 7.17948 11 7.40039V11C11 12 10.3311 13 9 13H2.33105C1.00014 13 0.00020643 12.0002 0 10.8486V4.15137C0.000216087 2.99978 1.00015 2 2.33105 2H6.09961ZM12.5 0C12.7761 0 13 0.223858 13 0.5V4.5C13 4.77614 12.7761 5 12.5 5C12.2239 5 12 4.77614 12 4.5V1.70703L7.35352 6.35352C7.15825 6.54878 6.84175 6.54878 6.64648 6.35352C6.45122 6.15825 6.45122 5.84175 6.64648 5.64648L11.293 1H8.5C8.22386 1 8 0.776142 8 0.5C8 0.223858 8.22386 0 8.5 0H12.5Z" fill="white"/>
</svg>
