<svg width="16" height="16" viewBox="0 0 16 16" fill="none" xmlns="http://www.w3.org/2000/svg">
    <path d="M8.13184 0.316406C8.62869 0.316645 9.03125 0.719888 9.03125 1.2168V7.23145H14.7832C15.2802 7.23145 15.6836 7.63479 15.6836 8.13184C15.6836 8.62889 15.2803 9.03223 14.7832 9.03223H9.03125V14.7842C9.03111 15.281 8.6286 15.6834 8.13184 15.6836C7.63487 15.6836 7.23159 15.2811 7.23145 14.7842V9.03223H1.21582C0.718893 9.03208 0.316406 8.6288 0.316406 8.13184C0.316422 7.63489 0.718902 7.2316 1.21582 7.23145H7.23145V1.2168C7.23145 0.719741 7.63478 0.316406 8.13184 0.316406Z" fill="white"/>
</svg>
