<svg xmlns="http://www.w3.org/2000/svg" xmlns:xlink="http://www.w3.org/1999/xlink" width="250" height="125" viewBox="0 0 250 125">
  <defs>
    <circle id="wdgt-overallStatistics_panel-a" cx="183" cy="44" r="6"/>
    <circle id="wdgt-overallStatistics_panel-b" cx="113" cy="44" r="6"/>
    <circle id="wdgt-overallStatistics_panel-c" cx="113" cy="94" r="6"/>
    <circle id="wdgt-overallStatistics_panel-d" cx="183" cy="94" r="6"/>
  </defs>
  <g fill="none" fill-rule="evenodd">
    <rect width="250" height="125"/>
    <g stroke="#F5F5F5" transform="translate(1 16)">
      <path d="M-2.84217094e-14 87.5L248 87.5M-2.84217094e-14 65.5L248 65.5M-2.84217094e-14 44.5L248 44.5M-2.84217094e-14 22.5L248 22.5M-2.84217094e-14.5L248 .5"/>
    </g>
    <g transform="translate(21 74)">
      <path fill="#BAD0CB" d="M0,4 C0,1.790861 1.79568082,0 4.0065556,0 L55.9934444,0 C58.206204,0 60,1.79535615 60,4 L60,4 C60,6.209139 58.2043192,8 55.9934444,8 L4.0065556,8 C1.79379604,8 0,6.20464385 0,4 L0,4 Z"/>
      <polygon fill="#EE9583" points="20 0 40 0 40 8 20 8"/>
      <path fill="#D9E2AD" d="M4,0 L20,0 L20,8 L4,8 L4,8 C1.790861,8 2.705415e-16,6.209139 0,4 L0,4 L0,4 C-2.705415e-16,1.790861 1.790861,8.49901461e-16 4,4.4408921e-16 Z"/>
    </g>
    <use fill="#F7CC90" xlink:href="#wdgt-overallStatistics_panel-a"/>
    <circle cx="183" cy="44" r="5" stroke="#F9F9F9" stroke-width="2"/>
    <use fill="#C2E2E3" xlink:href="#wdgt-overallStatistics_panel-b"/>
    <circle cx="113" cy="44" r="5" stroke="#F9F9F9" stroke-width="2"/>
    <use fill="#6A949D" xlink:href="#wdgt-overallStatistics_panel-c"/>
    <circle cx="113" cy="94" r="5" stroke="#F9F9F9" stroke-width="2"/>
    <use fill="#DBE1AF" xlink:href="#wdgt-overallStatistics_panel-d"/>
    <circle cx="183" cy="94" r="5" stroke="#F9F9F9" stroke-width="2"/>
    <path fill="#999" d="M25.0795898 44.4594727C26.2075252 44.4594727 27.0949675 44.7390109 27.7419434 45.2980957 28.3889193 45.8571805 28.7124023 46.6225537 28.7124023 47.5942383 28.7124023 48.7026423 28.3596227 49.5717742 27.6540527 50.2016602 26.9484828 50.8315461 25.9755921 51.1464844 24.7353516 51.1464844 23.5292908 51.1464844 22.6088899 50.9536152 21.9741211 50.5678711L21.9741211 49.3959961C22.3159197 49.6157238 22.7407201 49.7878412 23.2485352 49.9123535 23.7563502 50.0368659 24.2568335 50.0991211 24.75 50.0991211 25.6093793 50.0991211 26.2770972 49.8964864 26.7531738 49.4912109 27.2292504 49.0859355 27.4672852 48.5000038 27.4672852 47.7333984 27.4672852 46.2392503 26.551767 45.4921875 24.7207031 45.4921875 24.2568336 45.4921875 23.6367226 45.5629876 22.8603516 45.7045898L22.2304688 45.3017578 22.6333008 40.2919922 27.9580078 40.2919922 27.9580078 41.4125977 23.6733398 41.4125977 23.4023438 44.6279297C23.96387 44.5156244 24.5229464 44.4594727 25.0795898 44.4594727zM37.3476562 44.8623047C37.3476562 49.0517788 35.7265787 51.1464844 32.484375 51.1464844 31.9179659 51.1464844 31.4687517 51.0976567 31.1367188 51L31.1367188 49.9526367C31.5273457 50.0795905 31.9716772 50.1430664 32.4697266 50.1430664 33.6416074 50.1430664 34.5266083 49.7805212 35.1247559 49.0554199 35.7229034 48.3303186 36.0488279 47.2182692 36.1025391 45.7192383L36.0146484 45.7192383C35.7460924 46.1245137 35.3896507 46.4333485 34.9453125 46.645752 34.5009743 46.8581554 34.0004911 46.9643555 33.4438477 46.9643555 32.4965773 46.9643555 31.7446317 46.6811552 31.1879883 46.1147461 30.6313449 45.548337 30.3530273 44.7573293 30.3530273 43.7416992 30.3530273 42.6284124 30.6643035 41.7495149 31.2868652 41.1049805 31.9094269 40.460446 32.7285105 40.1381836 33.7441406 40.1381836 34.4716833 40.1381836 35.1076633 40.3249493 35.6520996 40.6984863 36.1965359 41.0720234 36.6152329 41.6164515 36.9082031 42.3317871 37.2011733 43.0471227 37.3476562 43.8906201 37.3476562 44.8623047zM33.7441406 41.1782227C33.0458949 41.1782227 32.5063496 41.4028298 32.1254883 41.8520508 31.744627 42.3012718 31.5541992 42.9262655 31.5541992 43.7270508 31.5541992 44.4301793 31.7299787 44.9831523 32.081543 45.3859863 32.4331072 45.7888204 32.9677698 45.9902344 33.6855469 45.9902344 34.129885 45.9902344 34.5388165 45.8999032 34.9123535 45.7192383 35.2858905 45.5385733 35.5800771 45.2919938 35.7949219 44.9794922 36.0097667 44.6669906 36.1171875 44.3398455 36.1171875 43.9980469 36.1171875 43.485349 36.0170908 43.0117209 35.8168945 42.5771484 35.6166982 42.142576 35.33716 41.8007825 34.9782715 41.5517578 34.619383 41.3027331 34.2080101 41.1782227 33.7441406 41.1782227zM115.236816 83L114.050293 83 114.050293 75.3681641C114.050293 74.7333953 114.069824 74.1328153 114.108887 73.5664062 114.006347 73.6689458 113.891602 73.7763666 113.764648 73.8886719 113.637695 74.0009771 113.056646 74.4770466 112.021484 75.3168945L111.376953 74.4819336 114.211426 72.2919922 115.236816 72.2919922 115.236816 83zM123.813477 83L122.626953 83 122.626953 75.3681641C122.626953 74.7333953 122.646484 74.1328153 122.685547 73.5664062 122.583007 73.6689458 122.468262 73.7763666 122.341309 73.8886719 122.214355 74.0009771 121.633306 74.4770466 120.598145 75.3168945L119.953613 74.4819336 122.788086 72.2919922 123.813477 72.2919922 123.813477 83zM183.07959 76.4594727C184.207525 76.4594727 185.094967 76.7390109 185.741943 77.2980957 186.388919 77.8571805 186.712402 78.6225537 186.712402 79.5942383 186.712402 80.7026423 186.359623 81.5717742 185.654053 82.2016602 184.948483 82.8315461 183.975592 83.1464844 182.735352 83.1464844 181.529291 83.1464844 180.60889 82.9536152 179.974121 82.5678711L179.974121 81.3959961C180.31592 81.6157238 180.74072 81.7878412 181.248535 81.9123535 181.75635 82.0368659 182.256833 82.0991211 182.75 82.0991211 183.609379 82.0991211 184.277097 81.8964864 184.753174 81.4912109 185.22925 81.0859355 185.467285 80.5000038 185.467285 79.7333984 185.467285 78.2392503 184.551767 77.4921875 182.720703 77.4921875 182.256834 77.4921875 181.636723 77.5629876 180.860352 77.7045898L180.230469 77.3017578 180.633301 72.2919922 185.958008 72.2919922 185.958008 73.4125977 181.67334 73.4125977 181.402344 76.6279297C181.96387 76.5156244 182.522946 76.4594727 183.07959 76.4594727zM187.276367 30.5390625L185.687012 30.5390625 185.687012 33 184.522461 33 184.522461 30.5390625 179.314941 30.5390625 179.314941 29.4770508 184.397949 22.2333984 185.687012 22.2333984 185.687012 29.4331055 187.276367 29.4331055 187.276367 30.5390625zM184.522461 29.4331055L184.522461 25.8735352C184.522461 25.1752895 184.546875 24.3867231 184.595703 23.5078125L184.537109 23.5078125C184.302733 23.9765648 184.083009 24.3647446 183.87793 24.6723633L180.530762 29.4331055 184.522461 29.4331055zM195.40625 27.6313477C195.40625 29.4819428 195.114505 30.863765 194.531006 31.7768555 193.947507 32.689946 193.055182 33.1464844 191.854004 33.1464844 190.701654 33.1464844 189.825198 32.6789598 189.224609 31.7438965 188.62402 30.8088332 188.32373 29.4379973 188.32373 27.6313477 188.32373 25.766104 188.614255 24.3818405 189.195312 23.4785156 189.77637 22.5751908 190.662592 22.1235352 191.854004 22.1235352 193.016119 22.1235352 193.898679 22.5947219 194.501709 23.5371094 195.104739 24.4794969 195.40625 25.8442293 195.40625 27.6313477zM189.554199 27.6313477C189.554199 29.1889726 189.737303 30.3229945 190.103516 31.0334473 190.469728 31.7439 191.053219 32.0991211 191.854004 32.0991211 192.664555 32.0991211 193.251707 31.7390173 193.615479 31.0187988 193.97925 30.2985804 194.161133 29.1694413 194.161133 27.6313477 194.161133 26.093254 193.97925 24.9665563 193.615479 24.2512207 193.251707 23.5358851 192.664555 23.1782227 191.854004 23.1782227 191.053219 23.1782227 190.469728 23.5310023 190.103516 24.2365723 189.737303 24.9421422 189.554199 26.0737227 189.554199 27.6313477zM117.368164 24.8115234C117.368164 25.4951206 117.176516 26.054197 116.793213 26.4887695 116.40991 26.923342 115.866703 27.2138665 115.163574 27.3603516L115.163574 27.4189453C116.022954 27.5263677 116.660154 27.7998025 117.075195 28.2392578 117.490236 28.6787131 117.697754 29.2548792 117.697754 29.9677734 117.697754 30.9882864 117.343754 31.7731906 116.635742 32.3225098 115.927731 32.8718289 114.921882 33.1464844 113.618164 33.1464844 113.051755 33.1464844 112.532961 33.1037602 112.061768 33.0183105 111.590574 32.9328609 111.132815 32.7827159 110.688477 32.5678711L110.688477 31.4106445C111.152346 31.6401379 111.646726 31.8146967 112.171631 31.9343262 112.696536 32.0539557 113.193357 32.1137695 113.662109 32.1137695 115.512705 32.1137695 116.437988 31.3886791 116.437988 29.9384766 116.437988 28.6396419 115.417491 27.9902344 113.376465 27.9902344L112.321777 27.9902344 112.321777 26.9428711 113.391113 26.9428711C114.226078 26.9428711 114.887693 26.7585468 115.375977 26.3898926 115.86426 26.0212384 116.108398 25.5097689 116.108398 24.8554688 116.108398 24.3330052 115.928957 23.9228531 115.570068 23.625 115.21118 23.3271469 114.724124 23.1782227 114.108887 23.1782227 113.640134 23.1782227 113.198244 23.2416986 112.783203 23.3686523 112.368162 23.4956061 111.894534 23.7299788 111.362305 24.0717773L110.74707 23.2514648C111.186526 22.9047834 111.693112 22.6325693 112.266846 22.4348145 112.840579 22.2370596 113.444821 22.1381836 114.07959 22.1381836 115.119634 22.1381836 115.927731 22.3762183 116.503906 22.8522949 117.080081 23.3283715 117.368164 23.9814412 117.368164 24.8115234z"/>
    <path fill="#CCC" d="M48 64L48 60 42 60 42 64 48 64zM27 64L27 60 21 60 21 64 27 64zM34 64L34 60 28 60 28 64 34 64zM41 64L41 60 35 60 35 64 41 64zM149 96L149 92 143 92 143 96 149 96zM128 96L128 92 122 92 122 96 128 96zM135 96L135 92 129 92 129 96 135 96zM142 96L142 92 136 92 136 96 142 96zM219 96L219 92 213 92 213 96 219 96zM198 96L198 92 192 92 192 96 198 96zM205 96L205 92 199 92 199 96 205 96zM212 96L212 92 206 92 206 96 212 96zM149 46L149 42 143 42 143 46 149 46zM128 46L128 42 122 42 122 46 128 46zM135 46L135 42 129 42 129 46 135 46zM142 46L142 42 136 42 136 46 142 46zM219 46L219 42 213 42 213 46 219 46zM198 46L198 42 192 42 192 46 198 46zM205 46L205 42 199 42 199 46 205 46zM212 46L212 42 206 42 206 46 212 46z"/>
  </g>
</svg>
