<svg xmlns="http://www.w3.org/2000/svg" width="130" height="80" viewBox="0 0 130 80" xmlns:xlink="http://www.w3.org/1999/xlink">
  <defs>
    <rect id="a" width="66" height="59" x="64" y="11"/>
    <mask id="d" width="66" height="59" x="0" y="0" fill="white">
      <use xlink:href="#a"/>
    </mask>
    <rect id="b" width="66" height="59" y="11"/>
    <mask id="e" width="66" height="59" x="0" y="0" fill="white">
      <use xlink:href="#b"/>
    </mask>
    <rect id="c" width="90" height="70" x="21" y="4" rx="2"/>
    <filter id="f" width="200%" height="200%" x="-50%" y="-50%" filterUnits="objectBoundingBox">
      <feMorphology radius="1" operator="dilate" in="SourceAlpha" result="shadowSpreadOuter1"/>
      <feOffset dy="1" in="shadowSpreadOuter1" result="shadowOffsetOuter1"/>
      <feGaussianBlur stdDeviation="2" in="shadowOffsetOuter1" result="shadowBlurOuter1"/>
      <feComposite in="shadowBlurOuter1" in2="SourceAlpha" operator="out" result="shadowBlurOuter1"/>
      <feColorMatrix values="0 0 0 0 0 0 0 0 0 0 0 0 0 0 0 0 0 0 0.102694746 0" in="shadowBlurOuter1"/>
    </filter>
    <mask id="g" width="92" height="72" x="-1" y="-1">
      <rect width="92" height="72" x="20" y="3" fill="white"/>
      <use fill="black" xlink:href="#c"/>
    </mask>
  </defs>
  <g fill="none" fill-rule="evenodd">
    <use fill="#FFFFFF" stroke="#E9E9E9" stroke-width="4" mask="url(#d)" stroke-dasharray="5 5" xlink:href="#a"/>
    <use fill="#FFFFFF" stroke="#E9E9E9" stroke-width="4" mask="url(#e)" stroke-dasharray="5 5" xlink:href="#b"/>
    <use fill="black" filter="url(#f)" xlink:href="#c"/>
    <use fill="#FFFFFF" xlink:href="#c"/>
    <use stroke="#E9E9E9" stroke-opacity=".65" stroke-width="2" mask="url(#g)" xlink:href="#c"/>
    <path fill="#F7F7F7" d="M21,5.99406028 C21,4.8927712 21.8907616,4 23.0059646,4 L108.994035,4 C110.101899,4 111,4.89451376 111,5.99406028 L111,20 L21,20 L21,5.99406028 Z"/>
    <rect width="68" height="33" x="32" y="30" fill="#F4F8E9" opacity=".7"/>
    <path fill="#E9E9E9" d="M66.5,34 C59.59375,34 54,39.59375 54,46.5 C54,53.40625 59.59375,59 66.5,59 C73.40625,59 79,53.40625 79,46.5 C79,39.59375 73.40625,34 66.5,34 L66.5,34 Z M65.25,56.4125006 C60.31875,55.8000006 56.5,51.6 56.5,46.5 C56.5,45.73125 56.59375,44.98125 56.7625,44.2625 L62.75,50.25 L62.75,51.5 C62.75,52.88125 63.86875,54 65.25,54 L65.25,56.4125006 L65.25,56.4125006 Z M73.86875,53.24375 C73.55,52.23125 72.6125,51.5 71.5,51.5 L70.25,51.5 L70.25,47.75 C70.25,47.0625 69.6875,46.5 69,46.5 L61.5,46.5 L61.5,44 L64,44 C64.6875,44 65.25,43.4375 65.25,42.75 L65.25,40.25 L67.75,40.25 C69.13125,40.25 70.25,39.13125 70.25,37.75 L70.25,37.23125 C73.9125,38.7125 76.5,42.3 76.5,46.5 C76.5,49.1 75.5,51.4625 73.86875,53.24375 L73.86875,53.24375 Z"/>
  </g>
</svg>
