<svg xmlns="http://www.w3.org/2000/svg" width="250" height="125" viewBox="0 0 250 125">
    <g fill="none" fill-rule="evenodd">
        <path d="M0 0h250v125H0z"/>
        <g stroke="#F5F5F5">
            <path d="M1 103.5h248M1 81.5h248M1 60.5h248M1 38.5h248M1 16.5h248"/>
        </g>
        <path fill="#D7E4B3" d="M164 103c23.748 0 43-19.252 43-43s-17.845-42.98-43-43c-23.748 0-43 19.252-43 43s19.252 43 43 43z"/>
        <path fill="#EE9583" d="M194.788 29.98c-7.82-7.978-18.73-12.924-30.788-12.924-.007 7.47-.007 21.786 0 42.944l30.788-30.02z"/>
        <path fill="#CCC" d="M77 31v-6H66v6h11zm12 0v-6H78v6h11zm-48 0v-6H30v6h11zm12 0v-6H42v6h11zm12 0v-6H54v6h11zM41 41v-6H30v6h11zm12 0v-6H42v6h11z"/>
    </g>
</svg>
