<svg xmlns="http://www.w3.org/2000/svg" width="248" height="88" viewBox="0 0 248 88">
    <g fill="none" fill-rule="evenodd">
        <path d="M-1-16h250v125H-1z"/>
        <g stroke="#F5F5F5">
            <path d="M0 87.5h248M0 65.5h248M0 44.5h248M0 22.5h248M0 .5h248"/>
        </g>
        <path fill="#EE9583" d="M130 87a8 8 0 1 1 0-16 8 8 0 0 1 0 16zm0-5a3 3 0 1 0 0-6 3 3 0 0 0 0 6z"/>
        <path fill="#EECD93" d="M156 87a8 8 0 1 1 0-16 8 8 0 0 1 0 16zm0-5a3 3 0 1 0 0-6 3 3 0 0 0 0 6z"/>
        <path fill="#BFE2E3" d="M182 87a8 8 0 1 1 0-16 8 8 0 0 1 0 16zm0-5a3 3 0 1 0 0-6 3 3 0 0 0 0 6z"/>
        <path fill="#EE9583" d="M130 54a8 8 0 1 1 0-16 8 8 0 0 1 0 16zm0-5a3 3 0 1 0 0-6 3 3 0 0 0 0 6z"/>
        <path fill="#EECD93" d="M156 54a8 8 0 1 1 0-16 8 8 0 0 1 0 16zm0-5a3 3 0 1 0 0-6 3 3 0 0 0 0 6z"/>
        <path fill="#BFE2E3" d="M182 54a8 8 0 1 1 0-16 8 8 0 0 1 0 16zm0-5a3 3 0 1 0 0-6 3 3 0 0 0 0 6z"/>
        <path fill="#EE9583" d="M130 21a8 8 0 1 1 0-16 8 8 0 0 1 0 16zm0-5a3 3 0 1 0 0-6 3 3 0 0 0 0 6z"/>
        <path fill="#EECD93" d="M156 21a8 8 0 1 1 0-16 8 8 0 0 1 0 16zm0-5a3 3 0 1 0 0-6 3 3 0 0 0 0 6z"/>
        <path fill="#BFE2E3" d="M182 21a8 8 0 1 1 0-16 8 8 0 0 1 0 16zm0-5a3 3 0 1 0 0-6 3 3 0 0 0 0 6z"/>
        <path fill="#CCC" d="M91 11V5H80v6h11zm12 0V5H92v6h11zm-63 0V5H29v6h11zm12 0V5H41v6h11zm12 0V5H53v6h11zM40 21v-6H29v6z"/>
        <path fill="#9A9A9A" d="M207.146 11.513c0 .486.04.838.12 1.053.08.216.201.324.362.324.16 0 .28-.106.359-.317.078-.212.117-.565.117-1.06 0-.487-.04-.838-.117-1.054-.079-.216-.198-.324-.36-.324-.164 0-.286.11-.364.33-.078.22-.117.57-.117 1.048zm2.875-.026c0 .931-.21 1.652-.628 2.162-.42.51-1.016.765-1.79.765-.728 0-1.305-.264-1.73-.79-.425-.528-.638-1.24-.638-2.137 0-.93.207-1.647.622-2.148.415-.502.997-.753 1.746-.753.74 0 1.328.26 1.764.781.436.52.654 1.227.654 2.12zm4.627-2.767L209.5 18h-1.885l5.148-9.28h1.885zm-.444 6.487c0 .487.04.838.12 1.054.081.216.202.323.363.323.181 0 .307-.123.377-.37.07-.248.105-.584.105-1.007 0-.423-.035-.759-.105-1.006-.07-.248-.196-.371-.377-.371-.166 0-.287.11-.365.33-.079.22-.118.569-.118 1.047zm2.876-.025c0 .926-.21 1.645-.632 2.155-.421.51-1.017.765-1.787.765-.728 0-1.304-.264-1.73-.79-.425-.528-.638-1.237-.638-2.13 0-.931.208-1.648.623-2.149.414-.502.996-.752 1.745-.752.74 0 1.329.26 1.765.78.436.521.654 1.228.654 2.12z" opacity=".7"/>
        <g>
            <path fill="#CCC" d="M91 44v-6H80v6h11zm12 0v-6H92v6h11zm-63 0v-6H29v6h11zm12 0v-6H41v6h11zm12 0v-6H53v6h11zM40 54v-6H29v6z"/>
            <path fill="#9A9A9A" d="M207.146 44.513c0 .486.04.838.12 1.053.08.216.201.324.362.324.16 0 .28-.106.359-.317.078-.212.117-.565.117-1.06 0-.487-.04-.838-.117-1.054-.079-.216-.198-.324-.36-.324-.164 0-.286.11-.364.33-.078.22-.117.57-.117 1.048zm2.875-.026c0 .931-.21 1.652-.628 2.162-.42.51-1.016.765-1.79.765-.728 0-1.305-.264-1.73-.79-.425-.528-.638-1.24-.638-2.137 0-.93.207-1.647.622-2.148.415-.502.997-.753 1.746-.753.74 0 1.328.26 1.764.781.436.52.654 1.227.654 2.12zm4.627-2.767L209.5 51h-1.885l5.148-9.28h1.885zm-.444 6.487c0 .487.04.838.12 1.054.081.216.202.323.363.323.181 0 .307-.123.377-.37.07-.248.105-.584.105-1.007 0-.423-.035-.759-.105-1.006-.07-.248-.196-.371-.377-.371-.166 0-.287.11-.365.33-.079.22-.118.569-.118 1.047zm2.876-.025c0 .926-.21 1.645-.632 2.155-.421.51-1.017.765-1.787.765-.728 0-1.304-.264-1.73-.79-.425-.528-.638-1.237-.638-2.13 0-.931.208-1.648.623-2.149.414-.502.996-.752 1.745-.752.74 0 1.329.26 1.765.78.436.521.654 1.228.654 2.12z" opacity=".7"/>
        </g>
        <g>
            <path fill="#CCC" d="M91 77v-6H80v6h11zm12 0v-6H92v6h11zm-63 0v-6H29v6h11zm12 0v-6H41v6h11zm12 0v-6H53v6h11zM40 87v-6H29v6z"/>
            <path fill="#9A9A9A" d="M207.146 77.513c0 .486.04.838.12 1.053.08.216.201.324.362.324.16 0 .28-.106.359-.317.078-.212.117-.565.117-1.06 0-.487-.04-.838-.117-1.054-.079-.216-.198-.324-.36-.324-.164 0-.286.11-.364.33-.078.22-.117.57-.117 1.048zm2.875-.026c0 .931-.21 1.652-.628 2.162-.42.51-1.016.765-1.79.765-.728 0-1.305-.264-1.73-.79-.425-.528-.638-1.24-.638-2.137 0-.93.207-1.647.622-2.148.415-.502.997-.753 1.746-.753.74 0 1.328.26 1.764.781.436.52.654 1.227.654 2.12zm4.627-2.767L209.5 84h-1.885l5.148-9.28h1.885zm-.444 6.487c0 .487.04.838.12 1.054.081.216.202.323.363.323.181 0 .307-.123.377-.37.07-.248.105-.584.105-1.007 0-.423-.035-.759-.105-1.006-.07-.248-.196-.371-.377-.371-.166 0-.287.11-.365.33-.079.22-.118.569-.118 1.047zm2.876-.025c0 .926-.21 1.645-.632 2.155-.421.51-1.017.765-1.787.765-.728 0-1.304-.264-1.73-.79-.425-.528-.638-1.237-.638-2.13 0-.931.208-1.648.623-2.149.414-.502.996-.752 1.745-.752.74 0 1.329.26 1.765.78.436.521.654 1.228.654 2.12z" opacity=".7"/>
        </g>
    </g>
</svg>
