<svg xmlns="http://www.w3.org/2000/svg" width="16" height="16" viewBox="0 0 16 16">
    <path fill="#777" fill-rule="evenodd" d="M11.023 11.542L5.873 8.54c.039-.163.064-.333.064-.506 0-.174-.025-.344-.065-.506l5.097-2.975c.386.361.903.585 1.474.585a2.17 2.17 0 0 0 2.169-2.168A2.17 2.17 0 0 0 12.443.8a2.17 2.17 0 0 0-2.168 2.169c0 .173.025.343.065.506L5.243 6.449a2.153 2.153 0 0 0-1.474-.585A2.17 2.17 0 0 0 1.6 8.033 2.17 2.17 0 0 0 3.769 10.2c.57 0 1.088-.224 1.474-.585l5.151 3.003c-.036.152-.058.311-.058.474a2.107 2.107 0 1 0 2.107-2.107c-.549 0-1.044.213-1.42.556z"/>
</svg>
