<svg xmlns="http://www.w3.org/2000/svg" width="20" height="20" viewBox="0 0 20 20">
    <path fill="#999" fill-rule="evenodd" d="M10 1c-4.973 0-9 4.027-9 9s4.027 9 9 9 9-4.027 9-9-4.027-9-9-9zm-.9 16.137A7.193 7.193 0 0 1 2.8 10c0-.553.068-1.094.189-1.611L7.3 12.7v.9a1.8 1.8 0 0 0 1.8 1.8v1.737zm6.206-2.282A1.788 1.788 0 0 0 13.6 13.6h-.9v-2.7c0-.495-.405-.9-.9-.9H6.4V8.2h1.8c.495 0 .9-.405.9-.9V5.5h1.8a1.8 1.8 0 0 0 1.8-1.8v-.374A7.196 7.196 0 0 1 17.2 10c0 1.872-.72 3.573-1.894 4.855z"/>
</svg>
