<svg xmlns="http://www.w3.org/2000/svg" xmlns:xlink="http://www.w3.org/1999/xlink" width="20" height="20" viewBox="0 0 20 20">
  <path transform="translate(0 4)" id="ic_unassign-a" d="M9,4 L0,4 L0,6 L9,6 L9,4 L9,4 Z M12,-1.77635684e-15 L0,-1.77635684e-15 L0,2 L12,2 L12,-1.77635684e-15 L12,-1.77635684e-15 Z M0,10 L0,8 L9,8 L9,10 L0,10 Z M13.1428571,5 L16,7.85714286 L18.8571429,5 L20,6.14285714 L17.1428571,9 L20,11.8571429 L18.8571429,13 L16,10.1428571 L13.1428571,13 L12,11.8571429 L14.8571429,9 L12,6.14285714 L13.1428571,5 Z"/>
</svg>

