<svg xmlns="http://www.w3.org/2000/svg" xmlns:xlink="http://www.w3.org/1999/xlink" width="165" height="80" viewBox="0 0 165 80">
  <defs>
    <rect id="deep-merge-pic-small-a" width="165" height="80"/>
  </defs>
  <g fill="none" fill-rule="evenodd">
    <use fill="#F5F5F5" xlink:href="#deep-merge-pic-small-a"/>
    <rect width="164" height="79" x=".5" y=".5" stroke="#E9E9E9"/>
    <path fill="#A3C644" d="M73,13 L92,13 L92,13 C93.6568542,13 95,14.3431458 95,16 L95,19 L95,19 C95,20.6568542 93.6568542,22 92,22 L73,22 L73,22 C71.3431458,22 70,20.6568542 70,19 L70,16 L70,16 C70,14.3431458 71.3431458,13 73,13 Z"/>
    <path stroke="#B5D169" d="M54 27.5L111 27.5M82.5 22L82.5 27M54.5 28L54.5 33M54.5 42L54.5 45"/>
    <g transform="translate(28 58)">
      <path stroke="#B5D169" d="M2 3.5L9 3.5M5.5-4.12114787e-13L5.5 3M2.5 4L2.5 7M8.5 4L8.5 7"/>
      <path fill="#39C2D7" d="M2.5 7L2.5 7 2.5 7C3.88071187 7 5 8.11928813 5 9.5L5 9.5 5 9.5C5 10.8807119 3.88071187 12 2.5 12L2.5 12 2.5 12C1.11928813 12 6.13177648e-16 10.8807119 4.4408921e-16 9.5L0 9.5 0 9.5C-1.69088438e-16 8.11928813 1.11928813 7 2.5 7zM8.5 7L8.5 7 8.5 7C9.88071187 7 11 8.11928813 11 9.5L11 9.5 11 9.5C11 10.8807119 9.88071187 12 8.5 12L8.5 12 8.5 12C7.11928813 12 6 10.8807119 6 9.5L6 9.5 6 9.5C6 8.11928813 7.11928813 7 8.5 7z"/>
    </g>
    <path stroke="#B5D169" d="M40 45.5L69 45.5M54.5 42L54.5 45M40.5 46L40.5 49M68.5 46L68.5 49M33 58.5L46 58.5M40.5 55L40.5 58"/>
    <g transform="translate(56 58)">
      <path stroke="#B5D169" d="M2 3.5L9 3.5M5.5-4.12114787e-13L5.5 3M2.5 4L2.5 7M8.5 4L8.5 7"/>
      <path fill="#39C2D7" d="M2.5 7L2.5 7 2.5 7C3.88071187 7 5 8.11928813 5 9.5L5 9.5 5 9.5C5 10.8807119 3.88071187 12 2.5 12L2.5 12 2.5 12C1.11928813 12 6.13177648e-16 10.8807119 4.4408921e-16 9.5L0 9.5 0 9.5C-1.69088438e-16 8.11928813 1.11928813 7 2.5 7zM8.5 7L8.5 7 8.5 7C9.88071187 7 11 8.11928813 11 9.5L11 9.5 11 9.5C11 10.8807119 9.88071187 12 8.5 12L8.5 12 8.5 12C7.11928813 12 6 10.8807119 6 9.5L6 9.5 6 9.5C6 8.11928813 7.11928813 7 8.5 7z"/>
    </g>
    <path stroke="#B5D169" d="M61 58.5L74 58.5M68.5 55L68.5 58"/>
    <path fill="#A3C644" d="M39 49L42 49 42 49C43.1045695 49 44 49.8954305 44 51L44 54 44 54C44 55.1045695 43.1045695 56 42 56L39 56 39 56C37.8954305 56 37 55.1045695 37 54L37 51 37 51C37 49.8954305 37.8954305 49 39 49zM53 33L56 33 56 33C57.6568542 33 59 34.3431458 59 36L59 39 59 39C59 40.6568542 57.6568542 42 56 42L53 42 53 42C51.3431458 42 50 40.6568542 50 39L50 36 50 36C50 34.3431458 51.3431458 33 53 33zM67 49L70 49 70 49C71.1045695 49 72 49.8954305 72 51L72 54 72 54C72 55.1045695 71.1045695 56 70 56L67 56 67 56C65.8954305 56 65 55.1045695 65 54L65 51 65 51C65 49.8954305 65.8954305 49 67 49z"/>
    <g transform="translate(40 58)">
      <path stroke="#B5D169" d="M2 3.5L9 3.5M5.5-4.12114787e-13L5.5 3M2.5 4L2.5 7M8.5 4L8.5 7"/>
      <polygon fill="#F7D63E" points="5 7 2.5 11.879 0 7"/>
      <polygon fill="#F7D63E" points="11 7 8.5 11.879 6 7"/>
    </g>
    <g transform="translate(68 28)">
      <path stroke="#B5D169" d="M2 33.5L9 33.5M5.5 30L5.5 33M2.5 34L2.5 37M8.5 34L8.5 37"/>
      <polygon fill="#F7D63E" points="5 37 2.5 41.879 0 37"/>
      <polygon fill="#F7D63E" points="11 37 8.5 41.879 6 37"/>
      <path stroke="#B5D169" d="M42.5-4.12114787e-13L42.5 5M42.5 14L42.5 17M18 33.5L25 33.5M21.5 30L21.5 33M18.5 34L18.5 37M24.5 34L24.5 37"/>
      <path fill="#39C2D7" d="M18.5 37L18.5 37 18.5 37C19.8807119 37 21 38.1192881 21 39.5L21 39.5 21 39.5C21 40.8807119 19.8807119 42 18.5 42L18.5 42 18.5 42C17.1192881 42 16 40.8807119 16 39.5L16 39.5 16 39.5C16 38.1192881 17.1192881 37 18.5 37zM24.5 37L24.5 37 24.5 37C25.8807119 37 27 38.1192881 27 39.5L27 39.5 27 39.5C27 40.8807119 25.8807119 42 24.5 42L24.5 42 24.5 42C23.1192881 42 22 40.8807119 22 39.5L22 39.5 22 39.5C22 38.1192881 23.1192881 37 24.5 37z"/>
      <path stroke="#B5D169" d="M28 17.5L57 17.5M42.5 14L42.5 17M28.5 18L28.5 21M56.5 18L56.5 21M21 30.5L34 30.5M28.5 27L28.5 30M46 33.5L53 33.5M49.5 30L49.5 33M46.5 34L46.5 37M52.5 34L52.5 37"/>
      <path fill="#39C2D7" d="M46.5 37L46.5 37 46.5 37C47.8807119 37 49 38.1192881 49 39.5L49 39.5 49 39.5C49 40.8807119 47.8807119 42 46.5 42L46.5 42 46.5 42C45.1192881 42 44 40.8807119 44 39.5L44 39.5 44 39.5C44 38.1192881 45.1192881 37 46.5 37zM52.5 37L52.5 37 52.5 37C53.8807119 37 55 38.1192881 55 39.5L55 39.5 55 39.5C55 40.8807119 53.8807119 42 52.5 42L52.5 42 52.5 42C51.1192881 42 50 40.8807119 50 39.5L50 39.5 50 39.5C50 38.1192881 51.1192881 37 52.5 37z"/>
      <path stroke="#B5D169" d="M49 30.5L62 30.5M56.5 27L56.5 30"/>
      <path fill="#A3C644" d="M27 21L30 21 30 21C31.1045695 21 32 21.8954305 32 23L32 26 32 26C32 27.1045695 31.1045695 28 30 28L27 28 27 28C25.8954305 28 25 27.1045695 25 26L25 23 25 23C25 21.8954305 25.8954305 21 27 21zM41 5L44 5 44 5C45.6568542 5 47 6.34314575 47 8L47 11 47 11C47 12.6568542 45.6568542 14 44 14L41 14 41 14C39.3431458 14 38 12.6568542 38 11L38 8 38 8C38 6.34314575 39.3431458 5 41 5zM55 21L58 21 58 21C59.1045695 21 60 21.8954305 60 23L60 26 60 26C60 27.1045695 59.1045695 28 58 28L55 28 55 28C53.8954305 28 53 27.1045695 53 26L53 23 53 23C53 21.8954305 53.8954305 21 55 21z"/>
      <path stroke="#B5D169" d="M30 33.5L37 33.5M33.5 30L33.5 33M30.5 34L30.5 37M36.5 34L36.5 37"/>
      <polygon fill="#F7D63E" points="33 37 30.5 41.879 28 37"/>
      <polygon fill="#F7D63E" points="39 37 36.5 41.879 34 37"/>
      <path stroke="#B5D169" d="M58 33.5L65 33.5M61.5 30L61.5 33M58.5 34L58.5 37M64.5 34L64.5 37"/>
      <polygon fill="#F7D63E" points="61 37 58.5 41.879 56 37"/>
      <polygon fill="#F7D63E" points="67 37 64.5 41.879 62 37"/>
    </g>
  </g>
</svg>
