<svg xmlns="http://www.w3.org/2000/svg" width="165" height="80" viewBox="0 0 165 80">
  <g fill="none" fill-rule="evenodd">
    <g transform="translate(25 13)">
      <path fill="#8CDCE7" d="M20,0 L29,0 L29,-4.4408921e-16 C30.6568542,-7.48448398e-16 32,1.34314575 32,3 L32,6 L32,6 C32,7.65685425 30.6568542,9 29,9 L20,9 L20,9 C18.3431458,9 17,7.65685425 17,6 L17,3 L17,3 C17,1.34314575 18.3431458,-1.39730022e-16 20,-4.4408921e-16 Z"/>
      <path stroke="#B5D169" d="M11 14.5L38 14.5M5 32.5L18 32.5M24.5 9L24.5 14"/>
      <path fill="#8CDCE7" d="M11.5,20 L11.5,20 L11.5,20 C13.9852814,20 16,22.0147186 16,24.5 L16,24.5 L16,24.5 C16,26.9852814 13.9852814,29 11.5,29 L11.5,29 L11.5,29 C9.01471863,29 7,26.9852814 7,24.5 L7,24.5 L7,24.5 C7,22.0147186 9.01471863,20 11.5,20 Z"/>
      <path stroke="#B5D169" d="M11.5 15L11.5 20M37.5 15L37.5 20M11.5 29L11.5 32M5.5 33L5.5 36M17.5 33L17.5 36M2 45.5L9 45.5M5.5 42L5.5 45M2.5 46L2.5 49M8.5 46L8.5 49M37.5 29L37.5 32"/>
      <path fill="#8CDCE7" d="M17.5 36L17.5 36 17.5 36C19.4329966 36 21 37.5670034 21 39.5L21 39.5 21 39.5C21 41.4329966 19.4329966 43 17.5 43L17.5 43 17.5 43C15.5670034 43 14 41.4329966 14 39.5L14 39.5 14 39.5C14 37.5670034 15.5670034 36 17.5 36zM5.5 36L5.5 36 5.5 36C7.43299662 36 9 37.5670034 9 39.5L9 39.5 9 39.5C9 41.4329966 7.43299662 43 5.5 43L5.5 43 5.5 43C3.56700338 43 2 41.4329966 2 39.5L2 39.5 2 39.5C2 37.5670034 3.56700338 36 5.5 36zM2.5 49L2.5 49 2.5 49C3.88071187 49 5 50.1192881 5 51.5L5 51.5 5 51.5C5 52.8807119 3.88071187 54 2.5 54L2.5 54 2.5 54C1.11928813 54 6.13177648e-16 52.8807119 4.4408921e-16 51.5L0 51.5 0 51.5C-1.69088438e-16 50.1192881 1.11928813 49 2.5 49zM8.5 49L8.5 49 8.5 49C9.88071187 49 11 50.1192881 11 51.5L11 51.5 11 51.5C11 52.8807119 9.88071187 54 8.5 54L8.5 54 8.5 54C7.11928813 54 6 52.8807119 6 51.5L6 51.5 6 51.5C6 50.1192881 7.11928813 49 8.5 49z"/>
      <path stroke="#B5D169" d="M14 45.5L21 45.5M17.5 42L17.5 45M14.5 46L14.5 49M20.5 46L20.5 49"/>
      <path fill="#8CDCE7" d="M14.5 49L14.5 49 14.5 49C15.8807119 49 17 50.1192881 17 51.5L17 51.5 17 51.5C17 52.8807119 15.8807119 54 14.5 54L14.5 54 14.5 54C13.1192881 54 12 52.8807119 12 51.5L12 51.5 12 51.5C12 50.1192881 13.1192881 49 14.5 49zM20.5 49L20.5 49 20.5 49C21.8807119 49 23 50.1192881 23 51.5L23 51.5 23 51.5C23 52.8807119 21.8807119 54 20.5 54L20.5 54 20.5 54C19.1192881 54 18 52.8807119 18 51.5L18 51.5 18 51.5C18 50.1192881 19.1192881 49 20.5 49z"/>
      <path stroke="#B5D169" d="M31 32.5L44 32.5M37.5 29L37.5 32M31.5 33L31.5 36M43.5 33L43.5 36M28 45.5L35 45.5M31.5 42L31.5 45M28.5 46L28.5 49M34.5 46L34.5 49"/>
      <path fill="#8CDCE7" d="M31.5 36L31.5 36 31.5 36C33.4329966 36 35 37.5670034 35 39.5L35 39.5 35 39.5C35 41.4329966 33.4329966 43 31.5 43L31.5 43 31.5 43C29.5670034 43 28 41.4329966 28 39.5L28 39.5 28 39.5C28 37.5670034 29.5670034 36 31.5 36zM28.5 49L28.5 49 28.5 49C29.8807119 49 31 50.1192881 31 51.5L31 51.5 31 51.5C31 52.8807119 29.8807119 54 28.5 54L28.5 54 28.5 54C27.1192881 54 26 52.8807119 26 51.5L26 51.5 26 51.5C26 50.1192881 27.1192881 49 28.5 49zM34.5 49L34.5 49 34.5 49C35.8807119 49 37 50.1192881 37 51.5L37 51.5 37 51.5C37 52.8807119 35.8807119 54 34.5 54L34.5 54 34.5 54C33.1192881 54 32 52.8807119 32 51.5L32 51.5 32 51.5C32 50.1192881 33.1192881 49 34.5 49z"/>
      <path stroke="#B5D169" d="M40 45.5L47 45.5M43.5 42L43.5 45M40.5 46L40.5 49M46.5 46L46.5 49"/>
      <path fill="#8CDCE7" d="M40.5 49L40.5 49 40.5 49C41.8807119 49 43 50.1192881 43 51.5L43 51.5 43 51.5C43 52.8807119 41.8807119 54 40.5 54L40.5 54 40.5 54C39.1192881 54 38 52.8807119 38 51.5L38 51.5 38 51.5C38 50.1192881 39.1192881 49 40.5 49zM46.5 49L46.5 49 46.5 49C47.8807119 49 49 50.1192881 49 51.5L49 51.5 49 51.5C49 52.8807119 47.8807119 54 46.5 54L46.5 54 46.5 54C45.1192881 54 44 52.8807119 44 51.5L44 51.5 44 51.5C44 50.1192881 45.1192881 49 46.5 49zM37.5 20L37.5 20 37.5 20C39.9852814 20 42 22.0147186 42 24.5L42 24.5 42 24.5C42 26.9852814 39.9852814 29 37.5 29L37.5 29 37.5 29C35.0147186 29 33 26.9852814 33 24.5L33 24.5 33 24.5C33 22.0147186 35.0147186 20 37.5 20zM43.5 36L43.5 36 43.5 36C45.4329966 36 47 37.5670034 47 39.5L47 39.5 47 39.5C47 41.4329966 45.4329966 43 43.5 43L43.5 43 43.5 43C41.5670034 43 40 41.4329966 40 39.5L40 39.5 40 39.5C40 37.5670034 41.5670034 36 43.5 36z"/>
    </g>
    <g transform="translate(91 13)">
      <path fill="#F9E071" d="M20,0 L29,0 L29,-4.4408921e-16 C30.6568542,-7.48448398e-16 32,1.34314575 32,3 L32,6 L32,6 C32,7.65685425 30.6568542,9 29,9 L20,9 L20,9 C18.3431458,9 17,7.65685425 17,6 L17,3 L17,3 C17,1.34314575 18.3431458,-1.39730022e-16 20,-4.4408921e-16 Z"/>
      <path stroke="#B5D169" d="M11 14.5L38 14.5M5 32.5L18 32.5M24.5 9L24.5 14M11.5 15L11.5 20M37.5 15L37.5 20M11.5 29L11.5 32M5.5 33L5.5 36M17.5 33L17.5 36M2 45.5L9 45.5M5.5 42L5.5 45M2.5 46L2.5 49M8.5 46L8.5 49M37.5 29L37.5 32M14 45.5L21 45.5M17.5 42L17.5 45M14.5 46L14.5 49M20.5 46L20.5 49M31 32.5L44 32.5M37.5 29L37.5 32M31.5 33L31.5 36M43.5 33L43.5 36M28 45.5L35 45.5M31.5 42L31.5 45M28.5 46L28.5 49M34.5 46L34.5 49M40 45.5L47 45.5M43.5 42L43.5 45M40.5 46L40.5 49M46.5 46L46.5 49"/>
      <polygon fill="#F9E071" points="18 20 11.5 29.027 5 20"/>
      <polygon fill="#F9E071" points="5 49 2.5 53.879 0 49"/>
      <polygon fill="#F9E071" points="11 49 8.5 53.879 6 49"/>
      <polygon fill="#F9E071" points="17 49 14.5 53.879 12 49"/>
      <polygon fill="#F9E071" points="23 49 20.5 53.879 18 49"/>
      <polygon fill="#F9E071" points="43 49 40.5 53.879 38 49"/>
      <polygon fill="#F9E071" points="49 49 46.5 53.879 44 49"/>
      <polygon fill="#F9E071" points="31 49 28.5 53.879 26 49"/>
      <polygon fill="#F9E071" points="37 49 34.5 53.879 32 49"/>
      <polygon fill="#F9E071" points="36 36 31.5 43 27 36"/>
      <polygon fill="#F9E071" points="10 36 5.5 43 1 36"/>
      <polygon fill="#F9E071" points="22 36 17.5 43 13 36"/>
      <polygon fill="#F9E071" points="48 36 43.5 43 39 36"/>
      <polygon fill="#F9E071" points="44 20 37.5 29.027 31 20"/>
    </g>
  </g>
</svg>
