<svg xmlns="http://www.w3.org/2000/svg" width="165" height="80" viewBox="0 0 165 80">
  <g fill="none" fill-rule="evenodd">
    <g transform="translate(32 14)">
      <path fill="#A3C644" d="M41,0 L60,0 L60,0 C61.6568542,1.167223e-15 63,1.34314575 63,3 L63,6 L63,6 C63,7.65685425 61.6568542,9 60,9 L41,9 L41,9 C39.3431458,9 38,7.65685425 38,6 L38,3 L38,3 C38,1.34314575 39.3431458,3.04359188e-16 41,0 Z"/>
      <path stroke="#B5D169" d="M11 13.5L90 13.5M5 31.5L18 31.5M50.5 9L50.5 14"/>
      <path fill="#39C2D7" d="M11.5,19 L11.5,19 L11.5,19 C13.9852814,19 16,21.0147186 16,23.5 L16,23.5 L16,23.5 C16,25.9852814 13.9852814,28 11.5,28 L11.5,28 L11.5,28 C9.01471863,28 7,25.9852814 7,23.5 L7,23.5 L7,23.5 C7,21.0147186 9.01471863,19 11.5,19 Z"/>
      <path stroke="#B5D169" d="M11.5 14L11.5 19M37.5 14L37.5 19M11.5 28L11.5 31M5.5 32L5.5 35M17.5 32L17.5 35M2 44.5L9 44.5M5.5 41L5.5 44M2.5 45L2.5 48M8.5 45L8.5 48M37.5 28L37.5 31"/>
      <path fill="#39C2D7" d="M17.5 35L17.5 35 17.5 35C19.4329966 35 21 36.5670034 21 38.5L21 38.5 21 38.5C21 40.4329966 19.4329966 42 17.5 42L17.5 42 17.5 42C15.5670034 42 14 40.4329966 14 38.5L14 38.5 14 38.5C14 36.5670034 15.5670034 35 17.5 35zM5.5 35L5.5 35 5.5 35C7.43299662 35 9 36.5670034 9 38.5L9 38.5 9 38.5C9 40.4329966 7.43299662 42 5.5 42L5.5 42 5.5 42C3.56700338 42 2 40.4329966 2 38.5L2 38.5 2 38.5C2 36.5670034 3.56700338 35 5.5 35zM2.5 48L2.5 48 2.5 48C3.88071187 48 5 49.1192881 5 50.5L5 50.5 5 50.5C5 51.8807119 3.88071187 53 2.5 53L2.5 53 2.5 53C1.11928813 53 6.13177648e-16 51.8807119 4.4408921e-16 50.5L0 50.5 0 50.5C-1.69088438e-16 49.1192881 1.11928813 48 2.5 48zM8.5 48L8.5 48 8.5 48C9.88071187 48 11 49.1192881 11 50.5L11 50.5 11 50.5C11 51.8807119 9.88071187 53 8.5 53L8.5 53 8.5 53C7.11928813 53 6 51.8807119 6 50.5L6 50.5 6 50.5C6 49.1192881 7.11928813 48 8.5 48z"/>
      <path stroke="#B5D169" d="M14 44.5L21 44.5M17.5 41L17.5 44M14.5 45L14.5 48M20.5 45L20.5 48"/>
      <path fill="#39C2D7" d="M14.5 48L14.5 48 14.5 48C15.8807119 48 17 49.1192881 17 50.5L17 50.5 17 50.5C17 51.8807119 15.8807119 53 14.5 53L14.5 53 14.5 53C13.1192881 53 12 51.8807119 12 50.5L12 50.5 12 50.5C12 49.1192881 13.1192881 48 14.5 48zM20.5 48L20.5 48 20.5 48C21.8807119 48 23 49.1192881 23 50.5L23 50.5 23 50.5C23 51.8807119 21.8807119 53 20.5 53L20.5 53 20.5 53C19.1192881 53 18 51.8807119 18 50.5L18 50.5 18 50.5C18 49.1192881 19.1192881 48 20.5 48z"/>
      <path stroke="#B5D169" d="M31 31.5L44 31.5M37.5 28L37.5 31M31.5 32L31.5 35M43.5 32L43.5 35M28 44.5L35 44.5M31.5 41L31.5 44M28.5 45L28.5 48M34.5 45L34.5 48"/>
      <path fill="#39C2D7" d="M31.5 35L31.5 35 31.5 35C33.4329966 35 35 36.5670034 35 38.5L35 38.5 35 38.5C35 40.4329966 33.4329966 42 31.5 42L31.5 42 31.5 42C29.5670034 42 28 40.4329966 28 38.5L28 38.5 28 38.5C28 36.5670034 29.5670034 35 31.5 35zM28.5 48L28.5 48 28.5 48C29.8807119 48 31 49.1192881 31 50.5L31 50.5 31 50.5C31 51.8807119 29.8807119 53 28.5 53L28.5 53 28.5 53C27.1192881 53 26 51.8807119 26 50.5L26 50.5 26 50.5C26 49.1192881 27.1192881 48 28.5 48zM34.5 48L34.5 48 34.5 48C35.8807119 48 37 49.1192881 37 50.5L37 50.5 37 50.5C37 51.8807119 35.8807119 53 34.5 53L34.5 53 34.5 53C33.1192881 53 32 51.8807119 32 50.5L32 50.5 32 50.5C32 49.1192881 33.1192881 48 34.5 48z"/>
      <path stroke="#B5D169" d="M40 44.5L47 44.5M43.5 41L43.5 44M40.5 45L40.5 48M46.5 45L46.5 48"/>
      <path fill="#39C2D7" d="M40.5 48L40.5 48 40.5 48C41.8807119 48 43 49.1192881 43 50.5L43 50.5 43 50.5C43 51.8807119 41.8807119 53 40.5 53L40.5 53 40.5 53C39.1192881 53 38 51.8807119 38 50.5L38 50.5 38 50.5C38 49.1192881 39.1192881 48 40.5 48zM46.5 48L46.5 48 46.5 48C47.8807119 48 49 49.1192881 49 50.5L49 50.5 49 50.5C49 51.8807119 47.8807119 53 46.5 53L46.5 53 46.5 53C45.1192881 53 44 51.8807119 44 50.5L44 50.5 44 50.5C44 49.1192881 45.1192881 48 46.5 48zM37.5 19L37.5 19 37.5 19C39.9852814 19 42 21.0147186 42 23.5L42 23.5 42 23.5C42 25.9852814 39.9852814 28 37.5 28L37.5 28 37.5 28C35.0147186 28 33 25.9852814 33 23.5L33 23.5 33 23.5C33 21.0147186 35.0147186 19 37.5 19zM43.5 35L43.5 35 43.5 35C45.4329966 35 47 36.5670034 47 38.5L47 38.5 47 38.5C47 40.4329966 45.4329966 42 43.5 42L43.5 42 43.5 42C41.5670034 42 40 40.4329966 40 38.5L40 38.5 40 38.5C40 36.5670034 41.5670034 35 43.5 35z"/>
    </g>
    <g transform="translate(84 28)">
      <path stroke="#B5D169" d="M5 17.5L18 17.5M11.5-4.12114787e-13L11.5 5M37.5-4.12114787e-13L37.5 5M11.5 14L11.5 17M5.5 18L5.5 21M17.5 18L17.5 21M2 30.5L9 30.5M5.5 27L5.5 30M2.5 31L2.5 34M8.5 31L8.5 34M37.5 14L37.5 17M14 30.5L21 30.5M17.5 27L17.5 30M14.5 31L14.5 34M20.5 31L20.5 34M31 17.5L44 17.5M37.5 14L37.5 17M31.5 18L31.5 21M43.5 18L43.5 21M28 30.5L35 30.5M31.5 27L31.5 30M28.5 31L28.5 34M34.5 31L34.5 34M40 30.5L47 30.5M43.5 27L43.5 30M40.5 31L40.5 34M46.5 31L46.5 34"/>
      <polygon fill="#F7D63E" points="18 5 11.5 14.027 5 5"/>
      <polygon fill="#F7D63E" points="5 34 2.5 38.879 0 34"/>
      <polygon fill="#F7D63E" points="11 34 8.5 38.879 6 34"/>
      <polygon fill="#F7D63E" points="17 34 14.5 38.879 12 34"/>
      <polygon fill="#F7D63E" points="23 34 20.5 38.879 18 34"/>
      <polygon fill="#F7D63E" points="43 34 40.5 38.879 38 34"/>
      <polygon fill="#F7D63E" points="49 34 46.5 38.879 44 34"/>
      <polygon fill="#F7D63E" points="31 34 28.5 38.879 26 34"/>
      <polygon fill="#F7D63E" points="37 34 34.5 38.879 32 34"/>
      <polygon fill="#F7D63E" points="36 21 31.5 28 27 21"/>
      <polygon fill="#F7D63E" points="10 21 5.5 28 1 21"/>
      <polygon fill="#F7D63E" points="22 21 17.5 28 13 21"/>
      <polygon fill="#F7D63E" points="48 21 43.5 28 39 21"/>
      <polygon fill="#F7D63E" points="44 5 37.5 14.027 31 5"/>
    </g>
  </g>
</svg>
